<?xml version="1.0" encoding="UTF-8" standalone="no"?>
<svg
   xmlns:dc="http://purl.org/dc/elements/1.1/"
   xmlns:cc="http://creativecommons.org/ns#"
   xmlns:rdf="http://www.w3.org/1999/02/22-rdf-syntax-ns#"
   xmlns:svg="http://www.w3.org/2000/svg"
   xmlns="http://www.w3.org/2000/svg"
   version="1.1"
   id="svg16182"
   viewBox="0 0 300 300.00003"
   height="300.00003"
   width="300">
  <defs
     id="defs16184" />
  <metadata
     id="metadata16187">
    <rdf:RDF>
      <cc:Work
         rdf:about="">
        <dc:format>image/svg+xml</dc:format>
        <dc:type
           rdf:resource="http://purl.org/dc/dcmitype/StillImage" />
        <dc:title></dc:title>
      </cc:Work>
    </rdf:RDF>
  </metadata>
  <g
     transform="translate(-234.28511,-358.07717)"
     id="layer1">
    <g
       transform="matrix(0.14999991,0,0,0.14999991,280.14232,449.22289)"
       id="g16490">
      <path
         id="path7401"
         style="fill:#224b7e;fill-opacity:1;fill-rule:nonzero;stroke:none"
         d="m -305.71489,1392.3629 2000.00119,0 0,-2000.0014 -2000.00119,0 0,2000.0014 z" />
      <path
         id="path7403"
         style="fill:#29568e;fill-opacity:1;fill-rule:nonzero;stroke:none"
         d="m 1359.3164,392.3623 c 0,367.2736 -297.7501,664.997 -665.03129,664.997 -367.27375,0 -664.996246,-297.7234 -664.996246,-664.997 0,-367.280545 297.722496,-665.0313 664.996246,-665.0313 367.28129,0 665.03129,297.750755 665.03129,665.0313" />
      <path
         id="path7423"
         style="fill:#dfdfdd;fill-opacity:1;fill-rule:nonzero;stroke:none"
         d="m 1442.3439,515.198 c 0,16.0873 -13.0201,29.107 -29.1075,29.107 l -701.43259,0 c -16.0875,0 -29.1062,-13.0197 -29.1062,-29.107 l 0,-516.9737453 c 0,-16.0872497 13.0187,-29.1071297 29.1062,-29.1071297 l 701.43259,0 c 16.0874,0 29.1075,13.01988 29.1075,29.1071297 l 0,516.9737453" />
      <path
         id="path7425"
         style="fill:#e83735;fill-opacity:1;fill-rule:nonzero;stroke:none"
         d="m 1413.2364,-30.882875 -701.43259,0 c -16.0875,0 -29.1062,13.01988 -29.1062,29.1071297 l 0,112.8834953 759.64629,0 0,-112.8834953 c 0,-16.0872497 -13.0201,-29.1071297 -29.1075,-29.1071297" />
      <path
         id="path7427"
         style="fill:#f14748;fill-opacity:1;fill-rule:nonzero;stroke:none"
         d="m 1321.8251,-4.9796253 c 0,8.04363 -6.5438,14.5195 -14.5875,14.5195 -8.0438,0 -14.52,-6.47587 -14.52,-14.5195 0,-8.0436197 6.4762,-14.5876197 14.52,-14.5876197 8.0437,0 14.5875,6.544 14.5875,14.5876197" />
      <path
         id="path7429"
         style="fill:#3875c3;fill-opacity:1;fill-rule:nonzero;stroke:none"
         d="m 1369.9501,-4.9796253 c 0,8.04363 -6.5438,14.5195 -14.5875,14.5195 -8.0438,0 -14.5188,-6.47587 -14.5188,-14.5195 0,-8.0436197 6.475,-14.5876197 14.5188,-14.5876197 8.0437,0 14.5875,6.544 14.5875,14.5876197" />
      <path
         id="path7431"
         style="fill:#ecc10c;fill-opacity:1;fill-rule:nonzero;stroke:none"
         d="m 1420.1214,-4.9796253 c 0,8.04363 -6.5438,14.5195 -14.5876,14.5195 -8.0437,0 -14.52,-6.47587 -14.52,-14.5195 0,-8.0436197 6.4763,-14.5876197 14.52,-14.5876197 8.0438,0 14.5876,6.544 14.5876,14.5876197" />
      <path
         id="path7433"
         style="fill:#e4e3e0;fill-opacity:1;fill-rule:nonzero;stroke:none"
         d="m 1253.0451,17.583505 c 0,12.40625 -10.0888,22.49488 -22.5625,22.49488 l -443.89999,0 c -12.4738,0 -22.5625,-10.08863 -22.5625,-22.49488 0,-12.4745003 10.0887,-22.5631303 22.5625,-22.5631303 l 443.89999,0 c 12.4737,0 22.5625,10.08863 22.5625,22.5631303" />
      <path
         id="path7435"
         style="fill:#f0f0ef;fill-opacity:1;fill-rule:nonzero;stroke:none"
         d="m 720.32511,367.54962 453.03749,0 0,-229.76362 -453.03749,0 0,229.76362 z" />
      <path
         id="path7437"
         style="fill:#e7cc34;fill-opacity:1;fill-rule:nonzero;stroke:none"
         d="m 720.32511,451.667 342.60999,0 0,-42.0478 -342.60999,0 0,42.0478 z" />
      <path
         id="path7439"
         style="fill:#e7cc34;fill-opacity:1;fill-rule:nonzero;stroke:none"
         d="m 719.91631,513.153 343.02249,0 0,-42.0744 -343.02249,0 0,42.0744 z" />
      <path
         id="path7441"
         style="fill:#d1d1cf;fill-opacity:1;fill-rule:nonzero;stroke:none"
         d="m 1413.2364,544.305 -350.3075,0 0,-31.152 342.1949,0 0,-42.0586 -342.1949,0 0,-19.4274 342.605,0 0,-42.0587 -342.605,0 0,-42.05867 110.4299,0 0,-229.72063 -110.4299,0 0,-26.72125 379.415,0 0,404.09025 c 0,16.0873 -13.0201,29.107 -29.1075,29.107" />
      <path
         id="path7443"
         style="fill:#db3633;fill-opacity:1;fill-rule:nonzero;stroke:none"
         d="m 1442.3439,111.10775 -379.415,0 0,-3.20388 c 16.565,-15.473745 35.4475,-37.218735 56.4425,-67.825485 l 111.1112,0 c 12.4737,0 22.5625,-10.08863 22.5625,-22.49488 0,-12.4745003 -10.0888,-22.5631303 -22.5625,-22.5631303 l -82.345,0 c 4.9763,-8.1799997 10.1563,-16.9052497 15.405,-25.9032497 l 249.6938,0 c 16.0874,0 29.1075,13.01988 29.1075,29.1071297 l 0,112.8834953 m -36.8101,-130.674995 c -8.0437,0 -14.52,6.544 -14.52,14.5876297 0,8.04362 6.4763,14.5195 14.52,14.5195 8.0438,0 14.5876,-6.47588 14.5876,-14.5195 0,-8.0436297 -6.5438,-14.5876297 -14.5876,-14.5876297 m -50.1712,0 c -8.0438,0 -14.5188,6.544 -14.5188,14.5876297 0,8.04362 6.475,14.5195 14.5188,14.5195 8.0437,0 14.5875,-6.47588 14.5875,-14.5195 0,-8.0436297 -6.5438,-14.5876297 -14.5875,-14.5876297 m -48.125,0 c -8.0438,0 -14.52,6.544 -14.52,14.5876297 0,8.04362 6.4762,14.5195 14.52,14.5195 8.0437,0 14.5875,-6.47588 14.5875,-14.5195 0,-8.0436297 -6.5438,-14.5876297 -14.5875,-14.5876297" />
      <path
         id="path7445"
         style="fill:#f04341;fill-opacity:1;fill-rule:nonzero;stroke:none"
         d="m 1307.2376,9.5398747 c -8.0438,0 -14.52,-6.47587 -14.52,-14.5195 0,-8.0436197 6.4762,-14.5876197 14.52,-14.5876197 8.0437,0 14.5875,6.544 14.5875,14.5876197 0,8.04363 -6.5438,14.5195 -14.5875,14.5195" />
      <path
         id="path7447"
         style="fill:#336dbc;fill-opacity:1;fill-rule:nonzero;stroke:none"
         d="m 1355.3626,9.5398747 c -8.0438,0 -14.5188,-6.47587 -14.5188,-14.5195 0,-8.0436197 6.475,-14.5876197 14.5188,-14.5876197 8.0437,0 14.5875,6.544 14.5875,14.5876197 0,8.04363 -6.5438,14.5195 -14.5875,14.5195" />
      <path
         id="path7449"
         style="fill:#ddb511;fill-opacity:1;fill-rule:nonzero;stroke:none"
         d="m 1405.5338,9.5398747 c -8.0437,0 -14.52,-6.47587 -14.52,-14.5195 0,-8.0436197 6.4763,-14.5876197 14.52,-14.5876197 8.0438,0 14.5876,6.544 14.5876,14.5876197 0,8.04363 -6.5438,14.5195 -14.5876,14.5195" />
      <path
         id="path7451"
         style="fill:#d6d5d2;fill-opacity:1;fill-rule:nonzero;stroke:none"
         d="m 1230.4826,40.078385 -111.1112,0 c 3.5437,-5.24875 7.225,-10.70213 10.975,-16.49626 5.5887,-8.72524 11.5875,-18.2686203 17.7912,-28.5617503 l 82.345,0 c 12.4738,0 22.5625,10.08863 22.5625,22.5631303 0,12.40625 -10.0887,22.49488 -22.5625,22.49488" />
      <path
         id="path7453"
         style="fill:#e2e1df;fill-opacity:1;fill-rule:nonzero;stroke:none"
         d="m 1062.9289,367.54962 110.4275,0 0,-229.76362 -110.4275,0 0,229.76362 z" />
      <path
         id="path7455"
         style="fill:#d7bf2f;fill-opacity:1;fill-rule:nonzero;stroke:none"
         d="m 1062.9289,451.667 342.6137,0 0,-42.0478 -342.6137,0 0,42.0478 z" />
      <path
         id="path7457"
         style="fill:#d7bf2f;fill-opacity:1;fill-rule:nonzero;stroke:none"
         d="m 1062.9289,513.153 342.2012,0 0,-42.0744 -342.2012,0 0,42.0744 z" />
      <path
         id="path7459"
         style="fill:#8cd7c2;fill-opacity:1;fill-rule:nonzero;stroke:none"
         d="m 64.121364,-60.262495 0,829.059895 600.102496,0 0,-689.659645 -133.47,-139.40025 -466.632496,0" />
      <path
         id="path7461"
         style="fill:#244d7d;fill-opacity:1;fill-rule:nonzero;stroke:none"
         d="m 668.72261,210.42612 -4.49875,-4.56712 0,-126.721245 -13.90625,-14.5195 18.405,10.36125 0,135.446615" />
      <path
         id="path7463"
         style="fill:#77d0b5;fill-opacity:1;fill-rule:nonzero;stroke:none"
         d="m 664.22386,205.859 -130.9475,-130.879495 37.2875,-55.351 79.75375,44.98975 13.90625,14.5195 0,126.721245" />
      <path
         id="path7465"
         style="fill:#f5f5f5;fill-opacity:1;fill-rule:nonzero;stroke:none"
         d="m 664.22386,79.069505 -133.47,2.11325 0,-141.44525 133.47,139.332" />
      <path
         id="path7467"
         style="fill:#213c6c;fill-opacity:1;fill-rule:nonzero;stroke:none"
         d="m 276.83511,221.46913 -18.4125,24.94887 -24.92125,-18.40487 18.3975,-24.94901 24.93625,18.40501 z m -53.64125,8.11175 36.77625,27.13025 27.165,-36.74163 -36.77625,-27.1985 -27.165,36.80988" />
      <path
         id="path7469"
         style="fill:#213c6c;fill-opacity:1;fill-rule:nonzero;stroke:none"
         d="m 476.12636,368.7085 -18.405,24.9489 -24.9225,-18.4049 18.39875,-24.949 24.92875,18.405 z m -53.64125,8.04362 36.79,27.19838 27.16375,-36.80987 -36.775,-27.13026 -27.17875,36.74175" />
      <path
         id="path7471"
         style="fill:#1e1c1b;fill-opacity:1;fill-rule:nonzero;stroke:none"
         d="m 435.24636,386.22725 c -40.75,37.21885 -103.3875,41.71775 -149.46125,7.70275 -46.06,-34.015 -60.15,-95.22838 -36.5375,-145.12613 l -10.3275,-7.63475 c -27.63375,55.692 -12.385,124.74451 39.325,162.98588 51.725,38.1731 122.2575,32.4471 167.315,-10.3613 l -10.31375,-7.56645" />
      <path
         id="path7473"
         style="fill:#1e1c1b;fill-opacity:1;fill-rule:nonzero;stroke:none"
         d="m 266.09886,204.4275 10.3125,7.5665 c 40.73625,-37.21887 103.375,-41.71788 149.4625,-7.70287 46.06,34.01512 60.15,95.22849 36.53625,145.12625 l 10.32125,7.63462 C 500.37261,301.36012 485.13761,232.3075 433.41261,194.06625 381.68761,155.893 311.16261,161.619 266.09886,204.4275" />
      <path
         id="path7475"
         style="fill:#dfdfdd;fill-opacity:1;fill-rule:evenodd;stroke:none"
         d="m 294.47636,942.049 997.66244,0 0,-375.4501 -997.66244,0 0,375.4501 z" />
      <path
         id="path7477"
         style="fill:#a8a8a6;fill-opacity:1;fill-rule:nonzero;stroke:none"
         d="m 392.99636,672.9281 -44.27375,0 c -2.62375,0 -4.785,-2.8016 -4.785,-6.1758 l 0,-47.6756 c 0,-3.3673 2.16125,-6.1622 4.785,-6.1622 l 44.27375,0 c 2.625,0 4.69,2.7949 4.69,6.1622 l 0,47.6756 c 0,3.3742 -2.065,6.1758 -4.69,6.1758" />
      <path
         id="path7479"
         style="fill:#a8a8a6;fill-opacity:1;fill-rule:nonzero;stroke:none"
         d="m 464.82386,672.9281 -44.26,0 c -2.6175,0 -4.8,-2.8016 -4.8,-6.1758 l 0,-47.6756 c 0,-3.3673 2.1825,-6.1622 4.8,-6.1622 l 44.26,0 c 2.62375,0 4.785,2.7949 4.785,6.1622 l 0,47.6756 c 0,3.3742 -2.16125,6.1758 -4.785,6.1758" />
      <path
         id="path7481"
         style="fill:#a8a8a6;fill-opacity:1;fill-rule:nonzero;stroke:none"
         d="m 536.68511,672.9281 -44.2,0 c -2.62375,0 -4.8125,-2.8016 -4.8125,-6.1758 l 0,-47.6756 c 0,-3.3673 2.18875,-6.1622 4.8125,-6.1622 l 44.2,0 c 2.59,0 4.77125,2.7949 4.77125,6.1622 l 0,47.6756 c 0,3.3742 -2.18125,6.1758 -4.77125,6.1758" />
      <path
         id="path7483"
         style="fill:#a8a8a6;fill-opacity:1;fill-rule:nonzero;stroke:none"
         d="m 608.53261,672.9281 -44.24,0 c -2.59125,0 -4.7725,-2.8016 -4.7725,-6.1758 l 0,-47.6756 c 0,-3.3673 2.18125,-6.1622 4.7725,-6.1622 l 44.24,0 c 2.6575,0 4.77125,2.7949 4.77125,6.1622 l 0,47.6756 c 0,3.3742 -2.11375,6.1758 -4.77125,6.1758" />
      <path
         id="path7485"
         style="fill:#a8a8a6;fill-opacity:1;fill-rule:nonzero;stroke:none"
         d="m 680.44761,672.9281 -44.3075,0 c -2.59125,0 -4.7725,-2.8016 -4.7725,-6.1758 l 0,-47.6756 c 0,-3.3673 2.18125,-6.1622 4.7725,-6.1622 l 44.3075,0 c 2.59,0 4.77125,2.7949 4.77125,6.1622 l 0,47.6756 c 0,3.3742 -2.18125,6.1758 -4.77125,6.1758" />
      <path
         id="path7487"
         style="fill:#a8a8a6;fill-opacity:1;fill-rule:nonzero;stroke:none"
         d="m 752.22631,672.9281 -44.1712,0 c -2.59,0 -4.7712,-2.8016 -4.7712,-6.1758 l 0,-47.6756 c 0,-3.3673 2.1812,-6.1622 4.7712,-6.1622 l 44.1712,0 c 2.6588,0 4.84,2.7949 4.84,6.1622 l 0,47.6756 c 0,3.3742 -2.1812,6.1758 -4.84,6.1758" />
      <path
         id="path7489"
         style="fill:#a8a8a6;fill-opacity:1;fill-rule:nonzero;stroke:none"
         d="m 824.07381,672.9281 -44.1712,0 c -2.6588,0 -4.7712,-2.8016 -4.7712,-6.1758 l 0,-47.6756 c 0,-3.3673 2.1125,-6.1622 4.7712,-6.1622 l 44.1712,0 c 2.7276,0 4.7725,2.7949 4.7725,6.1622 l 0,47.6756 c 0,3.3742 -2.045,6.1758 -4.7725,6.1758" />
      <path
         id="path7491"
         style="fill:#a8a8a6;fill-opacity:1;fill-rule:nonzero;stroke:none"
         d="m 895.99011,672.9281 -44.3088,0 c -2.59,0 -4.7712,-2.8016 -4.7712,-6.1758 l 0,-47.6756 c 0,-3.3673 2.1813,-6.1622 4.7712,-6.1622 l 44.3088,0 c 2.59,0 4.7712,2.7949 4.7712,6.1622 l 0,47.6756 c 0,3.3742 -2.1812,6.1758 -4.7712,6.1758" />
      <path
         id="path7493"
         style="fill:#a8a8a6;fill-opacity:1;fill-rule:nonzero;stroke:none"
         d="m 967.83761,672.9281 -44.1725,0 c -2.7263,0 -4.7712,-2.8016 -4.7712,-6.1758 l 0,-47.6756 c 0,-3.3673 2.045,-6.1622 4.7712,-6.1622 l 44.1725,0 c 2.59,0 4.7712,2.7949 4.7712,6.1622 l 0,47.6756 c 0,3.3742 -2.1812,6.1758 -4.7712,6.1758" />
      <path
         id="path7495"
         style="fill:#a8a8a6;fill-opacity:1;fill-rule:nonzero;stroke:none"
         d="m 1039.6851,672.9281 -44.17249,0 c -2.6588,0 -4.84,-2.8016 -4.84,-6.1758 l 0,-47.6756 c 0,-3.3673 2.1813,-6.1622 4.84,-6.1622 l 44.17249,0 c 2.7262,0 4.7712,2.7949 4.7712,6.1622 l 0,47.6756 c 0,3.3742 -2.045,6.1758 -4.7712,6.1758" />
      <path
         id="path7497"
         style="fill:#a8a8a6;fill-opacity:1;fill-rule:nonzero;stroke:none"
         d="m 1111.6001,672.9281 -44.3087,0 c -2.59,0 -4.7713,-2.8016 -4.7713,-6.1758 l 0,-47.6756 c 0,-3.3673 2.1813,-6.1622 4.7713,-6.1622 l 44.3087,0 c 2.59,0 4.7713,2.7949 4.7713,6.1622 l 0,47.6756 c 0,3.3742 -2.1813,6.1758 -4.7713,6.1758" />
      <path
         id="path7499"
         style="fill:#a8a8a6;fill-opacity:1;fill-rule:nonzero;stroke:none"
         d="m 500.80261,756.1866 -44.20625,0 c -2.61125,0 -4.77125,-2.788 -4.77125,-6.1622 l 0,-47.6757 c 0,-3.3742 2.16,-6.1486 4.77125,-6.1486 l 44.20625,0 c 2.61,0 4.785,2.7744 4.785,6.1486 l 0,47.6757 c 0,3.3742 -2.175,6.1622 -4.785,6.1622" />
      <path
         id="path7501"
         style="fill:#a8a8a6;fill-opacity:1;fill-rule:nonzero;stroke:none"
         d="m 572.74511,756.1866 -44.30875,0 c -2.65875,0 -4.77125,-2.788 -4.77125,-6.1622 l 0,-47.6757 c 0,-3.3742 2.1125,-6.1486 4.77125,-6.1486 l 44.30875,0 c 2.59,0 4.77125,2.7744 4.77125,6.1486 l 0,47.6757 c 0,3.3742 -2.18125,6.1622 -4.77125,6.1622" />
      <path
         id="path7503"
         style="fill:#a8a8a6;fill-opacity:1;fill-rule:nonzero;stroke:none"
         d="m 644.52386,756.1866 -44.24,0 c -2.65875,0 -4.70375,-2.788 -4.70375,-6.1622 l 0,-47.6757 c 0,-3.3742 2.045,-6.1486 4.70375,-6.1486 l 44.24,0 c 2.65875,0 4.84,2.7744 4.84,6.1486 l 0,47.6757 c 0,3.3742 -2.18125,6.1622 -4.84,6.1622" />
      <path
         id="path7505"
         style="fill:#a8a8a6;fill-opacity:1;fill-rule:nonzero;stroke:none"
         d="m 716.37141,756.1866 -44.1713,0 c -2.65875,0 -4.7725,-2.788 -4.7725,-6.1622 l 0,-47.6757 c 0,-3.3742 2.11375,-6.1486 4.7725,-6.1486 l 44.1713,0 c 2.6587,0 4.7712,2.7744 4.7712,6.1486 l 0,47.6757 c 0,3.3742 -2.1125,6.1622 -4.7712,6.1622" />
      <path
         id="path7507"
         style="fill:#a8a8a6;fill-opacity:1;fill-rule:nonzero;stroke:none"
         d="m 788.28631,756.1866 -44.24,0 c -2.6575,0 -4.7712,-2.788 -4.7712,-6.1622 l 0,-47.6757 c 0,-3.3742 2.1138,-6.1486 4.7712,-6.1486 l 44.24,0 c 2.6588,0 4.7038,2.7744 4.7038,6.1486 l 0,47.6757 c 0,3.3742 -2.045,6.1622 -4.7038,6.1622" />
      <path
         id="path7509"
         style="fill:#a8a8a6;fill-opacity:1;fill-rule:nonzero;stroke:none"
         d="m 860.13381,756.1866 -44.24,0 c -2.6574,0 -4.8399,-2.788 -4.8399,-6.1622 l 0,-47.6757 c 0,-3.3742 2.1825,-6.1486 4.8399,-6.1486 l 44.24,0 c 2.6588,0 4.7725,2.7744 4.7725,6.1486 l 0,47.6757 c 0,3.3742 -2.1137,6.1622 -4.7725,6.1622" />
      <path
         id="path7511"
         style="fill:#a8a8a6;fill-opacity:1;fill-rule:nonzero;stroke:none"
         d="m 931.98131,756.1866 -44.24,0 c -2.59,0 -4.7712,-2.788 -4.7712,-6.1622 l 0,-47.6757 c 0,-3.3742 2.1813,-6.1486 4.7712,-6.1486 l 44.24,0 c 2.59,0 4.7725,2.7744 4.7725,6.1486 l 0,47.6757 c 0,3.3742 -2.1825,6.1622 -4.7725,6.1622" />
      <path
         id="path7513"
         style="fill:#a8a8a6;fill-opacity:1;fill-rule:nonzero;stroke:none"
         d="m 1003.8976,756.1866 -44.30879,0 c -2.59,0 -4.7712,-2.788 -4.7712,-6.1622 l 0,-47.6757 c 0,-3.3742 2.1813,-6.1486 4.7712,-6.1486 l 44.30879,0 c 2.59,0 4.7025,2.7744 4.7025,6.1486 l 0,47.6757 c 0,3.3742 -2.1125,6.1622 -4.7025,6.1622" />
      <path
         id="path7515"
         style="fill:#a8a8a6;fill-opacity:1;fill-rule:nonzero;stroke:none"
         d="m 1075.7451,756.1866 -44.3088,0 c -2.59,0 -4.7712,-2.788 -4.7712,-6.1622 l 0,-47.6757 c 0,-3.3742 2.1813,-6.1486 4.7712,-6.1486 l 44.3088,0 c 2.59,0 4.7712,2.7744 4.7712,6.1486 l 0,47.6757 c 0,3.3742 -2.1812,6.1622 -4.7712,6.1622" />
      <path
         id="path7517"
         style="fill:#a8a8a6;fill-opacity:1;fill-rule:nonzero;stroke:none"
         d="m 1147.5913,756.1866 -44.24,0 c -2.59,0 -4.7712,-2.788 -4.7712,-6.1622 l 0,-47.6757 c 0,-3.3742 2.1813,-6.1486 4.7712,-6.1486 l 44.24,0 c 2.5913,0 4.7725,2.7744 4.7725,6.1486 l 0,47.6757 c 0,3.3742 -2.1812,6.1622 -4.7725,6.1622" />
      <path
         id="path7519"
         style="fill:#a8a8a6;fill-opacity:1;fill-rule:nonzero;stroke:none"
         d="m 1183.3789,672.9281 -44.1713,0 c -2.6588,0 -4.7712,-2.8016 -4.7712,-6.1758 l 0,-47.6756 c 0,-3.3673 2.1125,-6.1622 4.7712,-6.1622 l 44.1713,0 c 2.6587,0 4.8399,2.7949 4.8399,6.1622 l 0,47.6756 c 0,3.3742 -2.1812,6.1758 -4.8399,6.1758" />
      <path
         id="path7521"
         style="fill:#a8a8a6;fill-opacity:1;fill-rule:nonzero;stroke:none"
         d="m 1255.2263,672.9281 -44.1712,0 c -2.5912,0 -4.7725,-2.8016 -4.7725,-6.1758 l 0,-47.6756 c 0,-3.3673 2.1813,-6.1622 4.7725,-6.1622 l 44.1712,0 c 2.6588,0 4.8401,2.7949 4.8401,6.1622 l 0,47.6756 c 0,3.3742 -2.1813,6.1758 -4.8401,6.1758" />
      <path
         id="path7523"
         style="fill:#a8a8a6;fill-opacity:1;fill-rule:nonzero;stroke:none"
         d="m 1255.2263,756.1866 -78.8687,0 c -2.59,0 -4.7712,-2.788 -4.7712,-6.1622 l 0,-47.6757 c 0,-3.3742 2.1812,-6.1486 4.7712,-6.1486 l 78.8687,0 c 2.6588,0 4.8401,2.7744 4.8401,6.1486 l 0,47.6757 c 0,3.3742 -2.1813,6.1622 -4.8401,6.1622" />
      <path
         id="path7525"
         style="fill:#a8a8a6;fill-opacity:1;fill-rule:nonzero;stroke:none"
         d="m 431.30636,756.1866 -81.85375,0 c -2.7275,0 -4.7925,-2.788 -4.7925,-6.1622 l 0,-47.6757 c 0,-3.3742 2.065,-6.1486 4.7925,-6.1486 l 81.85375,0 c 2.6175,0 4.7925,2.7744 4.7925,6.1486 l 0,47.6757 c 0,3.3742 -2.175,6.1622 -4.7925,6.1622" />
      <path
         id="path7527"
         style="fill:#a8a8a6;fill-opacity:1;fill-rule:nonzero;stroke:none"
         d="m 447.21011,839.4586 -97.7575,0 c -2.7275,0 -4.7925,-2.7743 -4.7925,-6.1553 l 0,-47.6893 c 0,-3.3674 2.065,-6.1554 4.7925,-6.1554 l 97.7575,0 c 2.6175,0 4.79125,2.788 4.79125,6.1554 l 0,47.6893 c 0,3.381 -2.17375,6.1553 -4.79125,6.1553" />
      <path
         id="path7529"
         style="fill:#a8a8a6;fill-opacity:1;fill-rule:nonzero;stroke:none"
         d="m 393.54886,922.7375 -44.09625,0 c -2.7275,0 -4.7925,-2.7744 -4.7925,-6.1486 l 0,-47.7029 c 0,-3.3605 2.065,-6.1485 4.7925,-6.1485 l 44.09625,0 c 2.61125,0 4.77125,2.788 4.77125,6.1485 l 0,47.7029 c 0,3.3742 -2.16,6.1486 -4.77125,6.1486" />
      <path
         id="path7531"
         style="fill:#a8a8a6;fill-opacity:1;fill-rule:nonzero;stroke:none"
         d="m 465.27386,922.7375 -44.09,0 c -2.61125,0 -4.785,-2.7744 -4.785,-6.1486 l 0,-47.7029 c 0,-3.3605 2.17375,-6.1485 4.785,-6.1485 l 44.09,0 c 2.61125,0 4.785,2.788 4.785,6.1485 l 0,47.7029 c 0,3.3742 -2.17375,6.1486 -4.785,6.1486" />
      <path
         id="path7533"
         style="fill:#a8a8a6;fill-opacity:1;fill-rule:nonzero;stroke:none"
         d="m 537.02511,922.7375 -44.1025,0 c -2.61125,0 -4.7725,-2.7744 -4.7725,-6.1486 l 0,-47.7029 c 0,-3.3605 2.16125,-6.1485 4.7725,-6.1485 l 44.1025,0 c 2.7275,0 4.7725,2.788 4.7725,6.1485 l 0,47.7029 c 0,3.3742 -2.045,6.1486 -4.7725,6.1486" />
      <path
         id="path7535"
         style="fill:#a8a8a6;fill-opacity:1;fill-rule:nonzero;stroke:none"
         d="m 1024.1426,922.7375 -459.44124,0 c -2.65875,0 -4.84,-2.7744 -4.84,-6.1486 l 0,-47.7029 c 0,-3.3605 2.18125,-6.1485 4.84,-6.1485 l 459.44124,0 c 2.6588,0 4.7712,2.788 4.7712,6.1485 l 0,47.7029 c 0,3.3742 -2.1125,6.1486 -4.7712,6.1486" />
      <path
         id="path7537"
         style="fill:#a8a8a6;fill-opacity:1;fill-rule:nonzero;stroke:none"
         d="m 517.93886,840.2903 -44.165,0 c -2.6375,0 -4.79875,-2.7881 -4.79875,-6.1623 l 0,-47.6891 c 0,-3.3743 2.16125,-6.1623 4.79875,-6.1623 l 44.165,0 c 2.65875,0 4.84,2.788 4.84,6.1623 l 0,47.6891 c 0,3.3743 -2.18125,6.1623 -4.84,6.1623" />
      <path
         id="path7539"
         style="fill:#a8a8a6;fill-opacity:1;fill-rule:nonzero;stroke:none"
         d="m 589.85511,840.2903 -44.24,0 c -2.65875,0 -4.7725,-2.7881 -4.7725,-6.1623 l 0,-47.6891 c 0,-3.3743 2.11375,-6.1623 4.7725,-6.1623 l 44.24,0 c 2.6575,0 4.83875,2.788 4.83875,6.1623 l 0,47.6891 c 0,3.3743 -2.18125,6.1623 -4.83875,6.1623" />
      <path
         id="path7541"
         style="fill:#a8a8a6;fill-opacity:1;fill-rule:nonzero;stroke:none"
         d="m 661.70136,840.2903 -44.24,0 c -2.6575,0 -4.7025,-2.7881 -4.7025,-6.1623 l 0,-47.6891 c 0,-3.3743 2.045,-6.1623 4.7025,-6.1623 l 44.24,0 c 2.59125,0 4.7725,2.788 4.7725,6.1623 l 0,47.6891 c 0,3.3743 -2.18125,6.1623 -4.7725,6.1623" />
      <path
         id="path7543"
         style="fill:#a8a8a6;fill-opacity:1;fill-rule:nonzero;stroke:none"
         d="m 733.54891,840.2903 -44.1713,0 c -2.65875,0 -4.77125,-2.7881 -4.77125,-6.1623 l 0,-47.6891 c 0,-3.3743 2.1125,-6.1623 4.77125,-6.1623 l 44.1713,0 c 2.5912,0 4.7724,2.788 4.7724,6.1623 l 0,47.6891 c 0,3.3743 -2.1812,6.1623 -4.7724,6.1623" />
      <path
         id="path7545"
         style="fill:#a8a8a6;fill-opacity:1;fill-rule:nonzero;stroke:none"
         d="m 805.46511,840.2903 -44.3088,0 c -2.59,0 -4.7712,-2.7881 -4.7712,-6.1623 l 0,-47.6891 c 0,-3.3743 2.1813,-6.1623 4.7712,-6.1623 l 44.3088,0 c 2.59,0 4.7038,2.788 4.7038,6.1623 l 0,47.6891 c 0,3.3743 -2.1138,6.1623 -4.7038,6.1623" />
      <path
         id="path7547"
         style="fill:#a8a8a6;fill-opacity:1;fill-rule:nonzero;stroke:none"
         d="m 877.31261,840.2903 -44.3087,0 c -2.5901,0 -4.7713,-2.7881 -4.7713,-6.1623 l 0,-47.6891 c 0,-3.3743 2.1813,-6.1623 4.7713,-6.1623 l 44.3087,0 c 2.59,0 4.7712,2.788 4.7712,6.1623 l 0,47.6891 c 0,3.3743 -2.1812,6.1623 -4.7712,6.1623" />
      <path
         id="path7549"
         style="fill:#a8a8a6;fill-opacity:1;fill-rule:nonzero;stroke:none"
         d="m 949.09131,840.2903 -44.1712,0 c -2.5913,0 -4.7725,-2.7881 -4.7725,-6.1623 l 0,-47.6891 c 0,-3.3743 2.1813,-6.1623 4.7725,-6.1623 l 44.1712,0 c 2.6588,0 4.84,2.788 4.84,6.1623 l 0,47.6891 c 0,3.3743 -2.1812,6.1623 -4.84,6.1623" />
      <path
         id="path7551"
         style="fill:#a8a8a6;fill-opacity:1;fill-rule:nonzero;stroke:none"
         d="m 1021.0751,840.2903 -44.30869,0 c -2.59,0 -4.7713,-2.7881 -4.7713,-6.1623 l 0,-47.6891 c 0,-3.3743 2.1813,-6.1623 4.7713,-6.1623 l 44.30869,0 c 2.59,0 4.7038,2.788 4.7038,6.1623 l 0,47.6891 c 0,3.3743 -2.1138,6.1623 -4.7038,6.1623" />
      <path
         id="path7553"
         style="fill:#a8a8a6;fill-opacity:1;fill-rule:nonzero;stroke:none"
         d="m 1130.8913,840.2903 -82.2775,0 c -2.6575,0 -4.7712,-2.7881 -4.7712,-6.1623 l 0,-47.6891 c 0,-3.3743 2.1138,-6.1623 4.7712,-6.1623 l 82.2775,0 c 2.6588,0 4.84,2.788 4.84,6.1623 l 0,47.6891 c 0,3.3743 -2.1812,6.1623 -4.84,6.1623" />
      <path
         id="path7555"
         style="fill:#a8a8a6;fill-opacity:1;fill-rule:nonzero;stroke:none"
         d="m 1254.8176,839.4586 -97.8875,0 c -2.59,0 -4.7712,-2.7743 -4.7712,-6.1553 l 0,-47.6893 c 0,-3.3674 2.1812,-6.1554 4.7712,-6.1554 l 97.8875,0 c 2.59,0 4.7712,2.788 4.7712,6.1554 l 0,47.6893 c 0,3.381 -2.1812,6.1553 -4.7712,6.1553" />
      <path
         id="path7557"
         style="fill:#a8a8a6;fill-opacity:1;fill-rule:nonzero;stroke:none"
         d="m 1202.6026,883.4396 -36.8788,0 c -0.8862,0 -1.6362,-0.9407 -1.6362,-2.1063 l 0,-16.5235 c 0,-1.152 0.75,-2.0723 1.6362,-2.0723 l 36.8788,0 c 0.8863,0 1.7037,0.9203 1.7037,2.0723 l 0,16.5235 c 0,1.1656 -0.8175,2.1063 -1.7037,2.1063" />
      <path
         id="path7559"
         style="fill:#a8a8a6;fill-opacity:1;fill-rule:nonzero;stroke:none"
         d="m 1202.6026,919.261 -36.8788,0 c -0.8862,0 -1.6362,-0.9339 -1.6362,-2.0995 l 0,-16.4009 c 0,-1.1587 0.75,-2.0995 1.6362,-2.0995 l 36.8788,0 c 0.8863,0 1.7037,0.9408 1.7037,2.0995 l 0,16.4009 c 0,1.1656 -0.8175,2.0995 -1.7037,2.0995" />
      <path
         id="path7561"
         style="fill:#a8a8a6;fill-opacity:1;fill-rule:nonzero;stroke:none"
         d="m 1147.9326,919.261 -36.8775,0 c -0.8863,0 -1.6363,-0.9339 -1.6363,-2.0995 l 0,-16.4009 c 0,-1.1587 0.7501,-2.0995 1.6363,-2.0995 l 36.8775,0 c 0.8863,0 1.7037,0.9408 1.7037,2.0995 l 0,16.4009 c 0,1.1656 -0.8175,2.0995 -1.7037,2.0995" />
      <path
         id="path7563"
         style="fill:#a8a8a6;fill-opacity:1;fill-rule:nonzero;stroke:none"
         d="m 1257.1351,919.261 -36.81,0 c -0.9538,0 -1.7725,-0.9339 -1.7725,-2.0995 l 0,-16.4009 c 0,-1.1587 0.8188,-2.0995 1.7725,-2.0995 l 36.81,0 c 0.8863,0 1.6363,0.9408 1.6363,2.0995 l 0,16.4009 c 0,1.1656 -0.7501,2.0995 -1.6363,2.0995" />
      <path
         id="path7565"
         style="fill:#a8a8a6;fill-opacity:1;fill-rule:nonzero;stroke:none"
         d="m 1091.1501,922.7375 -44.24,0 c -2.6588,0 -4.84,-2.7744 -4.84,-6.1486 l 0,-47.7029 c 0,-3.3605 2.1813,-6.1485 4.84,-6.1485 l 44.24,0 c 2.6588,0 4.84,2.788 4.84,6.1485 l 0,47.7029 c 0,3.3742 -2.1813,6.1486 -4.84,6.1486" />
      <path
         id="path7567"
         style="fill:#2e2d2d;fill-opacity:1;fill-rule:evenodd;stroke:none"
         d="m 343.65136,606.2615 44.2875,0 c 2.625,0 4.68375,2.788 4.68375,6.1486 l 0,47.6892 c 0,3.3742 -2.05875,6.1622 -4.68375,6.1622 l -44.2875,0 c -2.625,0 -4.7925,-2.788 -4.7925,-6.1622 l 0,-47.6892 c 0,-3.3606 2.1675,-6.1486 4.7925,-6.1486" />
      <path
         id="path7569"
         style="fill:#2e2d2d;fill-opacity:1;fill-rule:evenodd;stroke:none"
         d="m 415.48511,606.2615 44.27375,0 c 2.625,0 4.77875,2.788 4.77875,6.1486 l 0,47.6892 c 0,3.3742 -2.15375,6.1622 -4.77875,6.1622 l -44.27375,0 c -2.61125,0 -4.785,-2.788 -4.785,-6.1622 l 0,-47.6892 c 0,-3.3606 2.17375,-6.1486 4.785,-6.1486" />
      <path
         id="path7571"
         style="fill:#2e2d2d;fill-opacity:1;fill-rule:evenodd;stroke:none"
         d="m 487.41386,606.2615 44.15875,0 c 2.65875,0 4.77125,2.788 4.77125,6.1486 l 0,47.6892 c 0,3.3742 -2.1125,6.1622 -4.77125,6.1622 l -44.15875,0 c -2.6175,0 -4.805,-2.788 -4.805,-6.1622 l 0,-47.6892 c 0,-3.3606 2.1875,-6.1486 4.805,-6.1486" />
      <path
         id="path7573"
         style="fill:#2e2d2d;fill-opacity:1;fill-rule:evenodd;stroke:none"
         d="m 559.24761,606.2615 44.1725,0 c 2.72625,0 4.77125,2.788 4.77125,6.1486 l 0,47.6892 c 0,3.3742 -2.045,6.1622 -4.77125,6.1622 l -44.1725,0 c -2.65875,0 -4.77125,-2.788 -4.77125,-6.1622 l 0,-47.6892 c 0,-3.3606 2.1125,-6.1486 4.77125,-6.1486" />
      <path
         id="path7575"
         style="fill:#2e2d2d;fill-opacity:1;fill-rule:evenodd;stroke:none"
         d="m 631.09511,606.2615 44.24,0 c 2.65875,0 4.77125,2.788 4.77125,6.1486 l 0,47.6892 c 0,3.3742 -2.1125,6.1622 -4.77125,6.1622 l -44.24,0 c -2.65875,0 -4.84,-2.788 -4.84,-6.1622 l 0,-47.6892 c 0,-3.3606 2.18125,-6.1486 4.84,-6.1486" />
      <path
         id="path7577"
         style="fill:#2e2d2d;fill-opacity:1;fill-rule:evenodd;stroke:none"
         d="m 703.01131,606.2615 44.1713,0 c 2.59,0 4.7712,2.788 4.7712,6.1486 l 0,47.6892 c 0,3.3742 -2.1812,6.1622 -4.7712,6.1622 l -44.1713,0 c -2.6587,0 -4.84,-2.788 -4.84,-6.1622 l 0,-47.6892 c 0,-3.3606 2.1813,-6.1486 4.84,-6.1486" />
      <path
         id="path7579"
         style="fill:#2e2d2d;fill-opacity:1;fill-rule:evenodd;stroke:none"
         d="m 774.79011,606.2615 44.24,0 c 2.7263,0 4.7712,2.788 4.7712,6.1486 l 0,47.6892 c 0,3.3742 -2.045,6.1622 -4.7712,6.1622 l -44.24,0 c -2.59,0 -4.7712,-2.788 -4.7712,-6.1622 l 0,-47.6892 c 0,-3.3606 2.1812,-6.1486 4.7712,-6.1486" />
      <path
         id="path7581"
         style="fill:#2e2d2d;fill-opacity:1;fill-rule:evenodd;stroke:none"
         d="m 846.63761,606.2615 44.3075,0 c 2.5912,0 4.7725,2.788 4.7725,6.1486 l 0,47.6892 c 0,3.3742 -2.1813,6.1622 -4.7725,6.1622 l -44.3075,0 c -2.59,0 -4.7725,-2.788 -4.7725,-6.1622 l 0,-47.6892 c 0,-3.3606 2.1825,-6.1486 4.7725,-6.1486" />
      <path
         id="path7583"
         style="fill:#2e2d2d;fill-opacity:1;fill-rule:evenodd;stroke:none"
         d="m 918.55261,606.2615 44.24,0 c 2.59,0 4.7712,2.788 4.7712,6.1486 l 0,47.6892 c 0,3.3742 -2.1812,6.1622 -4.7712,6.1622 l -44.24,0 c -2.6588,0 -4.7712,-2.788 -4.7712,-6.1622 l 0,-47.6892 c 0,-3.3606 2.1125,-6.1486 4.7712,-6.1486" />
      <path
         id="path7585"
         style="fill:#2e2d2d;fill-opacity:1;fill-rule:evenodd;stroke:none"
         d="m 990.40011,606.2615 44.17249,0 c 2.7263,0 4.8387,2.788 4.8387,6.1486 l 0,47.6892 c 0,3.3742 -2.1125,6.1622 -4.8387,6.1622 l -44.17249,0 c -2.59,0 -4.7712,-2.788 -4.7712,-6.1622 l 0,-47.6892 c 0,-3.3606 2.1812,-6.1486 4.7712,-6.1486" />
      <path
         id="path7587"
         style="fill:#2e2d2d;fill-opacity:1;fill-rule:evenodd;stroke:none"
         d="m 1062.2476,606.2615 44.3075,0 c 2.5913,0 4.7725,2.788 4.7725,6.1486 l 0,47.6892 c 0,3.3742 -2.1813,6.1622 -4.7725,6.1622 l -44.3075,0 c -2.59,0 -4.7712,-2.788 -4.7712,-6.1622 l 0,-47.6892 c 0,-3.3606 2.1812,-6.1486 4.7712,-6.1486" />
      <path
         id="path7589"
         style="fill:#2e2d2d;fill-opacity:1;fill-rule:evenodd;stroke:none"
         d="m 451.52511,689.5335 44.19875,0 c 2.62375,0 4.77125,2.7813 4.77125,6.1691 l 0,47.6688 c 0,3.381 -2.1475,6.169 -4.77125,6.169 l -44.19875,0 c -2.61125,0 -4.77875,-2.788 -4.77875,-6.169 l 0,-47.6688 c 0,-3.3878 2.1675,-6.1691 4.77875,-6.1691" />
      <path
         id="path7591"
         style="fill:#2e2d2d;fill-opacity:1;fill-rule:evenodd;stroke:none"
         d="m 523.32386,689.5335 44.30875,0 c 2.65875,0 4.77125,2.7813 4.77125,6.1691 l 0,47.6688 c 0,3.381 -2.1125,6.169 -4.77125,6.169 l -44.30875,0 c -2.59,0 -4.77125,-2.788 -4.77125,-6.169 l 0,-47.6688 c 0,-3.3878 2.18125,-6.1691 4.77125,-6.1691" />
      <path
         id="path7593"
         style="fill:#2e2d2d;fill-opacity:1;fill-rule:evenodd;stroke:none"
         d="m 595.24011,689.5335 44.24,0 c 2.59,0 4.77125,2.7813 4.77125,6.1691 l 0,47.6688 c 0,3.381 -2.18125,6.169 -4.77125,6.169 l -44.24,0 c -2.65875,0 -4.7725,-2.788 -4.7725,-6.169 l 0,-47.6688 c 0,-3.3878 2.11375,-6.1691 4.7725,-6.1691" />
      <path
         id="path7595"
         style="fill:#2e2d2d;fill-opacity:1;fill-rule:evenodd;stroke:none"
         d="m 667.15511,689.5335 44.1725,0 c 2.59,0 4.7712,2.7813 4.7712,6.1691 l 0,47.6688 c 0,3.381 -2.1812,6.169 -4.7712,6.169 l -44.1725,0 c -2.65875,0 -4.84,-2.788 -4.84,-6.169 l 0,-47.6688 c 0,-3.3878 2.18125,-6.1691 4.84,-6.1691" />
      <path
         id="path7597"
         style="fill:#2e2d2d;fill-opacity:1;fill-rule:evenodd;stroke:none"
         d="m 738.93381,689.5335 44.3088,0 c 2.59,0 4.7037,2.7813 4.7037,6.1691 l 0,47.6688 c 0,3.381 -2.1137,6.169 -4.7037,6.169 l -44.3088,0 c -2.59,0 -4.7712,-2.788 -4.7712,-6.169 l 0,-47.6688 c 0,-3.3878 2.1813,-6.1691 4.7712,-6.1691" />
      <path
         id="path7599"
         style="fill:#2e2d2d;fill-opacity:1;fill-rule:evenodd;stroke:none"
         d="m 810.78141,689.5335 44.3087,0 c 2.59,0 4.7712,2.7813 4.7712,6.1691 l 0,47.6688 c 0,3.381 -2.1812,6.169 -4.7712,6.169 l -44.3087,0 c -2.59,0 -4.7713,-2.788 -4.7713,-6.169 l 0,-47.6688 c 0,-3.3878 2.1813,-6.1691 4.7713,-6.1691" />
      <path
         id="path7601"
         style="fill:#2e2d2d;fill-opacity:1;fill-rule:evenodd;stroke:none"
         d="m 882.69761,689.5335 44.1712,0 c 2.6588,0 4.84,2.7813 4.84,6.1691 l 0,47.6688 c 0,3.381 -2.1812,6.169 -4.84,6.169 l -44.1712,0 c -2.59,0 -4.7725,-2.788 -4.7725,-6.169 l 0,-47.6688 c 0,-3.3878 2.1825,-6.1691 4.7725,-6.1691" />
      <path
         id="path7603"
         style="fill:#2e2d2d;fill-opacity:1;fill-rule:evenodd;stroke:none"
         d="m 954.54511,689.5335 44.24,0 c 2.65749,0 4.70249,2.7813 4.70249,6.1691 l 0,47.6688 c 0,3.381 -2.045,6.169 -4.70249,6.169 l -44.24,0 c -2.6588,0 -4.7725,-2.788 -4.7725,-6.169 l 0,-47.6688 c 0,-3.3878 2.1138,-6.1691 4.7725,-6.1691" />
      <path
         id="path7605"
         style="fill:#2e2d2d;fill-opacity:1;fill-rule:evenodd;stroke:none"
         d="m 1026.3926,689.5335 44.24,0 c 2.6575,0 4.7712,2.7813 4.7712,6.1691 l 0,47.6688 c 0,3.381 -2.1137,6.169 -4.7712,6.169 l -44.24,0 c -2.6588,0 -4.84,-2.788 -4.84,-6.169 l 0,-47.6688 c 0,-3.3878 2.1813,-6.1691 4.84,-6.1691" />
      <path
         id="path7607"
         style="fill:#2e2d2d;fill-opacity:1;fill-rule:evenodd;stroke:none"
         d="m 1098.3076,689.5335 44.1713,0 c 2.5912,0 4.7724,2.7813 4.7724,6.1691 l 0,47.6688 c 0,3.381 -2.1812,6.169 -4.7724,6.169 l -44.1713,0 c -2.6587,0 -4.7712,-2.788 -4.7712,-6.169 l 0,-47.6688 c 0,-3.3878 2.1125,-6.1691 4.7712,-6.1691" />
      <path
         id="path7609"
         style="fill:#2e2d2d;fill-opacity:1;fill-rule:evenodd;stroke:none"
         d="m 1134.1626,606.2615 44.1725,0 c 2.6587,0 4.7712,2.788 4.7712,6.1486 l 0,47.6892 c 0,3.3742 -2.1125,6.1622 -4.7712,6.1622 l -44.1725,0 c -2.6575,0 -4.7712,-2.788 -4.7712,-6.1622 l 0,-47.6892 c 0,-3.3606 2.1137,-6.1486 4.7712,-6.1486" />
      <path
         id="path7611"
         style="fill:#2e2d2d;fill-opacity:1;fill-rule:evenodd;stroke:none"
         d="m 1206.0101,606.2615 44.1725,0 c 2.59,0 4.7712,2.788 4.7712,6.1486 l 0,47.6892 c 0,3.3742 -2.1812,6.1622 -4.7712,6.1622 l -44.1725,0 c -2.6588,0 -4.7712,-2.788 -4.7712,-6.1622 l 0,-47.6892 c 0,-3.3606 2.1124,-6.1486 4.7712,-6.1486" />
      <path
         id="path7613"
         style="fill:#2e2d2d;fill-opacity:1;fill-rule:evenodd;stroke:none"
         d="m 1171.3138,689.5335 78.8688,0 c 2.59,0 4.7712,2.7813 4.7712,6.1691 l 0,47.6688 c 0,3.381 -2.1812,6.169 -4.7712,6.169 l -78.8688,0 c -2.6587,0 -4.84,-2.788 -4.84,-6.169 l 0,-47.6688 c 0,-3.3878 2.1813,-6.1691 4.84,-6.1691" />
      <path
         id="path7615"
         style="fill:#2e2d2d;fill-opacity:1;fill-rule:evenodd;stroke:none"
         d="m 344.36011,689.5335 81.875,0 c 2.62375,0 4.785,2.7813 4.785,6.1691 l 0,47.6688 c 0,3.381 -2.16125,6.169 -4.785,6.169 l -81.875,0 c -2.69875,0 -4.77125,-2.788 -4.77125,-6.169 l 0,-47.6688 c 0,-3.3878 2.0725,-6.1691 4.77125,-6.1691" />
      <path
         id="path7617"
         style="fill:#2e2d2d;fill-opacity:1;fill-rule:evenodd;stroke:none"
         d="m 344.36011,772.7988 97.7775,0 c 2.625,0 4.79875,2.8016 4.79875,6.1622 l 0,47.6891 c 0,3.3743 -2.17375,6.1623 -4.79875,6.1623 l -97.7775,0 c -2.69875,0 -4.77125,-2.788 -4.77125,-6.1623 l 0,-47.6891 c 0,-3.3606 2.0725,-6.1622 4.77125,-6.1622" />
      <path
         id="path7619"
         style="fill:#2e2d2d;fill-opacity:1;fill-rule:evenodd;stroke:none"
         d="m 344.36011,856.0913 44.1175,0 c 2.61125,0 4.785,2.7811 4.785,6.1417 l 0,47.6893 c 0,3.3878 -2.17375,6.1622 -4.785,6.1622 l -44.1175,0 c -2.69875,0 -4.77125,-2.7744 -4.77125,-6.1622 l 0,-47.6893 c 0,-3.3606 2.0725,-6.1417 4.77125,-6.1417" />
      <path
         id="path7621"
         style="fill:#2e2d2d;fill-opacity:1;fill-rule:evenodd;stroke:none"
         d="m 416.12636,856.0913 44.06875,0 c 2.63125,0 4.7925,2.7811 4.7925,6.1417 l 0,47.6893 c 0,3.3878 -2.16125,6.1622 -4.7925,6.1622 l -44.06875,0 c -2.61875,0 -4.80625,-2.7744 -4.80625,-6.1622 l 0,-47.6893 c 0,-3.3606 2.1875,-6.1417 4.80625,-6.1417" />
      <path
         id="path7623"
         style="fill:#2e2d2d;fill-opacity:1;fill-rule:evenodd;stroke:none"
         d="m 487.86386,856.0913 44.1175,0 c 2.65875,0 4.77125,2.7811 4.77125,6.1417 l 0,47.6893 c 0,3.3878 -2.1125,6.1622 -4.77125,6.1622 l -44.1175,0 c -2.63125,0 -4.77875,-2.7744 -4.77875,-6.1622 l 0,-47.6893 c 0,-3.3606 2.1475,-6.1417 4.77875,-6.1417" />
      <path
         id="path7625"
         style="fill:#2e2d2d;fill-opacity:1;fill-rule:evenodd;stroke:none"
         d="m 559.58886,856.0913 459.44124,0 c 2.7263,0 4.84,2.7811 4.84,6.1417 l 0,47.6893 c 0,3.3878 -2.1138,6.1622 -4.84,6.1622 l -459.44124,0 c -2.59,0 -4.77125,-2.7744 -4.77125,-6.1622 l 0,-47.6893 c 0,-3.3606 2.18125,-6.1417 4.77125,-6.1417" />
      <path
         id="path7627"
         style="fill:#2e2d2d;fill-opacity:1;fill-rule:evenodd;stroke:none"
         d="m 468.69511,773.6099 44.2,0 c 2.65875,0 4.77125,2.788 4.77125,6.1759 l 0,47.6892 c 0,3.3606 -2.1125,6.1622 -4.77125,6.1622 l -44.2,0 c -2.62375,0 -4.785,-2.8016 -4.785,-6.1622 l 0,-47.6892 c 0,-3.3879 2.16125,-6.1759 4.785,-6.1759" />
      <path
         id="path7629"
         style="fill:#2e2d2d;fill-opacity:1;fill-rule:evenodd;stroke:none"
         d="m 540.50261,773.6099 44.3075,0 c 2.59,0 4.77125,2.788 4.77125,6.1759 l 0,47.6892 c 0,3.3606 -2.18125,6.1622 -4.77125,6.1622 l -44.3075,0 c -2.59125,0 -4.7725,-2.8016 -4.7725,-6.1622 l 0,-47.6892 c 0,-3.3879 2.18125,-6.1759 4.7725,-6.1759" />
      <path
         id="path7631"
         style="fill:#2e2d2d;fill-opacity:1;fill-rule:evenodd;stroke:none"
         d="m 612.35011,773.6099 44.3075,0 c 2.59,0 4.77125,2.788 4.77125,6.1759 l 0,47.6892 c 0,3.3606 -2.18125,6.1622 -4.77125,6.1622 l -44.3075,0 c -2.59125,0 -4.70375,-2.8016 -4.70375,-6.1622 l 0,-47.6892 c 0,-3.3879 2.1125,-6.1759 4.70375,-6.1759" />
      <path
         id="path7633"
         style="fill:#2e2d2d;fill-opacity:1;fill-rule:evenodd;stroke:none"
         d="m 684.26511,773.6099 44.24,0 c 2.59,0 4.7712,2.788 4.7712,6.1759 l 0,47.6892 c 0,3.3606 -2.1812,6.1622 -4.7712,6.1622 l -44.24,0 c -2.59,0 -4.77125,-2.8016 -4.77125,-6.1622 l 0,-47.6892 c 0,-3.3879 2.18125,-6.1759 4.77125,-6.1759" />
      <path
         id="path7635"
         style="fill:#2e2d2d;fill-opacity:1;fill-rule:evenodd;stroke:none"
         d="m 756.11261,773.6099 44.3075,0 c 2.5912,0 4.7037,2.788 4.7037,6.1759 l 0,47.6892 c 0,3.3606 -2.1125,6.1622 -4.7037,6.1622 l -44.3075,0 c -2.59,0 -4.7725,-2.8016 -4.7725,-6.1622 l 0,-47.6892 c 0,-3.3879 2.1825,-6.1759 4.7725,-6.1759" />
      <path
         id="path7637"
         style="fill:#2e2d2d;fill-opacity:1;fill-rule:evenodd;stroke:none"
         d="m 827.96011,773.6099 44.24,0 c 2.6575,0 4.84,2.788 4.84,6.1759 l 0,47.6892 c 0,3.3606 -2.1825,6.1622 -4.84,6.1622 l -44.24,0 c -2.5913,0 -4.7725,-2.8016 -4.7725,-6.1622 l 0,-47.6892 c 0,-3.3879 2.1813,-6.1759 4.7725,-6.1759" />
      <path
         id="path7639"
         style="fill:#2e2d2d;fill-opacity:1;fill-rule:evenodd;stroke:none"
         d="m 899.87511,773.6099 44.1725,0 c 2.6575,0 4.8387,2.788 4.8387,6.1759 l 0,47.6892 c 0,3.3606 -2.1812,6.1622 -4.8387,6.1622 l -44.1725,0 c -2.6588,0 -4.7712,-2.8016 -4.7712,-6.1622 l 0,-47.6892 c 0,-3.3879 2.1125,-6.1759 4.7712,-6.1759" />
      <path
         id="path7641"
         style="fill:#2e2d2d;fill-opacity:1;fill-rule:evenodd;stroke:none"
         d="m 971.72261,773.6099 44.23999,0 c 2.6588,0 4.7038,2.788 4.7038,6.1759 l 0,47.6892 c 0,3.3606 -2.045,6.1622 -4.7038,6.1622 l -44.23999,0 c -2.6588,0 -4.7712,-2.8016 -4.7712,-6.1622 l 0,-47.6892 c 0,-3.3879 2.1125,-6.1759 4.7712,-6.1759" />
      <path
         id="path7643"
         style="fill:#2e2d2d;fill-opacity:1;fill-rule:evenodd;stroke:none"
         d="m 1043.5013,773.6099 82.345,0 c 2.6588,0 4.7725,2.788 4.7725,6.1759 l 0,47.6892 c 0,3.3606 -2.1137,6.1622 -4.7725,6.1622 l -82.345,0 c -2.59,0 -4.7712,-2.8016 -4.7712,-6.1622 l 0,-47.6892 c 0,-3.3879 2.1813,-6.1759 4.7712,-6.1759" />
      <path
         id="path7645"
         style="fill:#2e2d2d;fill-opacity:1;fill-rule:evenodd;stroke:none"
         d="m 1151.8863,772.7988 97.8188,0 c 2.6587,0 4.84,2.8016 4.84,6.1622 l 0,47.6891 c 0,3.3743 -2.1813,6.1623 -4.84,6.1623 l -97.8188,0 c -2.6587,0 -4.7712,-2.788 -4.7712,-6.1623 l 0,-47.6891 c 0,-3.3606 2.1125,-6.1622 4.7712,-6.1622" />
      <path
         id="path7647"
         style="fill:#2e2d2d;fill-opacity:1;fill-rule:evenodd;stroke:none"
         d="m 1160.6801,856.0913 36.81,0 c 0.9538,0 1.7037,0.9202 1.7037,2.0722 l 0,16.5235 c 0,1.152 -0.75,2.0859 -1.7037,2.0859 l -36.81,0 c -0.955,0 -1.6362,-0.9339 -1.6362,-2.0859 l 0,-16.5235 c 0,-1.152 0.6812,-2.0722 1.6362,-2.0722" />
      <path
         id="path7649"
         style="fill:#2e2d2d;fill-opacity:1;fill-rule:evenodd;stroke:none"
         d="m 1160.6801,892.0217 36.81,0 c 0.9538,0 1.7037,0.927 1.7037,2.1064 l 0,16.3804 c 0,1.152 -0.75,2.0926 -1.7037,2.0926 l -36.81,0 c -0.955,0 -1.6362,-0.9406 -1.6362,-2.0926 l 0,-16.3804 c 0,-1.1794 0.6812,-2.1064 1.6362,-2.1064" />
      <path
         id="path7651"
         style="fill:#2e2d2d;fill-opacity:1;fill-rule:evenodd;stroke:none"
         d="m 1106.0101,892.0217 36.81,0 c 0.955,0 1.7725,0.927 1.7725,2.1064 l 0,16.3804 c 0,1.152 -0.8175,2.0926 -1.7725,2.0926 l -36.81,0 c -0.9538,0 -1.6363,-0.9406 -1.6363,-2.0926 l 0,-16.3804 c 0,-1.1794 0.6825,-2.1064 1.6363,-2.1064" />
      <path
         id="path7653"
         style="fill:#2e2d2d;fill-opacity:1;fill-rule:evenodd;stroke:none"
         d="m 1215.2126,892.0217 36.8788,0 c 0.8862,0 1.635,0.927 1.635,2.1064 l 0,16.3804 c 0,1.152 -0.7488,2.0926 -1.635,2.0926 l -36.8788,0 c -0.8863,0 -1.7037,-0.9406 -1.7037,-2.0926 l 0,-16.3804 c 0,-1.1794 0.8175,-2.1064 1.7037,-2.1064" />
      <path
         id="path7655"
         style="fill:#2e2d2d;fill-opacity:1;fill-rule:evenodd;stroke:none"
         d="m 1041.7976,856.0913 44.3088,0 c 2.59,0 4.7712,2.7811 4.7712,6.1417 l 0,47.6893 c 0,3.3878 -2.1813,6.1622 -4.7712,6.1622 l -44.3088,0 c -2.59,0 -4.7712,-2.7744 -4.7712,-6.1622 l 0,-47.6893 c 0,-3.3606 2.1812,-6.1417 4.7712,-6.1417" />
      <path
         id="path7657"
         style="fill:#fadc30;fill-opacity:1;fill-rule:evenodd;stroke:none"
         d="m 858.08881,261.34638 c -12.27,-6.81663 -19.2225,-17.99588 -15.3375,-24.88063 3.75,-6.88487 16.8375,-7.02112 29.1763,-0.13637 12.3375,6.81662 19.2225,17.92775 15.405,24.8125 -3.8175,6.953 -16.905,7.02125 -29.2438,0.2045 m 45.535,-142.53588 c -72.9375,-18.2685 -93.5237,14.1105 -40.3537,48.46638 45.9437,29.7205 -20.8588,35.71912 -20.8588,35.71912 -56.9187,-0.74987 -98.0237,49.42063 -70.3475,102.24963 15.9501,30.334 64.0075,58.14587 123.9938,45.33062 110.83879,-23.58562 155.28369,-194.75137 7.5662,-231.76575" />
      <path
         id="path7659"
         style="fill:#f13da5;fill-opacity:1;fill-rule:nonzero;stroke:none"
         d="m 880.38011,326.44538 c -5.6588,1.15874 -11.7937,-5.9305 -13.8387,-15.81463 -1.9763,-9.88413 1.0224,-18.814 6.6812,-19.90463 5.6575,-1.15887 11.7925,5.9305 13.7687,15.81463 1.9775,9.88412 -0.9537,18.81387 -6.6112,19.90463" />
      <path
         id="path7661"
         style="fill:#45b2cd;fill-opacity:1;fill-rule:nonzero;stroke:none"
         d="m 971.51761,258.21075 c -1.5675,5.5215 -10.7012,7.771 -20.3813,5.04437 -9.68,-2.79487 -16.2237,-9.54337 -14.6562,-15.06475 1.5687,-5.52149 10.7025,-7.771 20.3825,-5.04437 9.6788,2.79487 16.2237,9.54325 14.655,15.06475" />
      <path
         id="path7663"
         style="fill:#5dc233;fill-opacity:1;fill-rule:nonzero;stroke:none"
         d="m 948.95511,226.85425 c -5.4537,1.97687 -12.5425,-4.15813 -15.9512,-13.63325 -3.3401,-9.54338 -1.6363,-18.74575 3.75,-20.6545 5.4524,-1.90863 12.5424,4.15825 15.95,13.7015 3.34,9.47512 1.6362,18.67762 -3.7488,20.58625" />
      <path
         id="path7665"
         style="fill:#f8a30f;fill-opacity:1;fill-rule:nonzero;stroke:none"
         d="m 895.51261,169.25362 c -5.1813,-2.52212 -5.6575,-11.92912 -1.1587,-20.927 4.4987,-8.998 12.3375,-14.17862 17.4499,-11.6565 5.1125,2.59038 5.6588,11.99725 1.1588,20.99525 -4.4988,8.998 -12.3375,14.17863 -17.45,11.58825" />
      <path
         id="path7667"
         style="fill:#f5b00c;fill-opacity:1;fill-rule:evenodd;stroke:none"
         d="m 983.99261,140.62375 c 0,0 34.76499,42.05862 -11.3838,76.89175 -46.1487,34.90112 -54.1924,46.89837 -54.1924,46.89837 0,0 -34.6963,-107.63462 50.7162,-133.74237 l 7.225,-1.15888 7.635,11.11113" />
      <path
         id="path7669"
         style="fill:#afafad;fill-opacity:1;fill-rule:nonzero;stroke:none"
         d="m 952.02261,137.829 0,0 c 0.2725,-0.13637 0.545,-0.34088 0.8175,-0.47725 -0.2725,0.13637 -0.545,0.34088 -0.8175,0.47725" />
      <path
         id="path7671"
         style="fill:#bdbcba;fill-opacity:1;fill-rule:nonzero;stroke:none"
         d="m 950.52261,138.647 0,0 c 0.4775,-0.27275 0.955,-0.54537 1.5,-0.818 l 0,0 c -0.545,0.27263 -1.0225,0.54525 -1.5,0.818" />
      <path
         id="path7673"
         style="fill:#c5af25;fill-opacity:1;fill-rule:nonzero;stroke:none"
         d="m 916.91631,258.96063 c -5.18,-20.04088 -18.8137,-90.45675 33.6063,-120.31363 l 0,0 c -52.3513,29.85688 -38.7863,100.2045 -33.6063,120.31363 0,0 0,0 0,0" />
      <path
         id="path7675"
         style="fill:#afafad;fill-opacity:1;fill-rule:nonzero;stroke:none"
         d="m 952.90881,137.35175 c 0.075,-0.0687 0.2038,-0.13625 0.2725,-0.2045 -0.075,0.0688 -0.205,0.13637 -0.2725,0.2045 m 0.4088,-0.27263 c 0.075,0 0.075,0 0.1362,-0.0688 0,0.0688 -0.062,0.0688 -0.1362,0.0688 m 0.4087,-0.2045 c 0.075,0 0.075,0 0.1363,0 -0.075,0 -0.075,0 -0.1363,0 m 0.3413,-0.2045 c 0.075,0 0.075,0 0.1362,0 -0.062,0 -0.062,0 -0.1362,0 m 0.4087,-0.13637 c 0,0 0,0 0.075,-0.0687 -0.075,0.0687 -0.075,0.0687 -0.075,0.0687 m 0.3413,-0.2045 c 0,0 0.075,0 0.075,0 -0.075,0 -0.075,0 -0.075,0 m 0.4087,-0.2045 c 0,0 0,0 0,0 l 0,0" />
      <path
         id="path7677"
         style="fill:#c18e1b;fill-opacity:1;fill-rule:nonzero;stroke:none"
         d="m 916.91631,258.96063 c -5.18,-20.10913 -18.745,-90.45675 33.6063,-120.31363 0.4775,-0.27275 0.955,-0.54537 1.5,-0.818 0.2725,-0.13637 0.545,-0.34088 0.8175,-0.47725 0,0 0.075,0 0.075,0 0.075,-0.0687 0.205,-0.13625 0.2737,-0.2045 0.075,0 0.1363,0 0.1363,-0.0675 0.062,0 0.1363,0 0.1363,-0.0688 0.075,0 0.2037,-0.0688 0.2725,-0.13638 0.075,0 0.075,0 0.1362,0 0.062,-0.0675 0.1363,-0.13637 0.2038,-0.2045 0.075,0 0.075,0 0.1362,0 0.075,-0.0675 0.1375,-0.0675 0.2738,-0.13637 0,0 0,0 0.075,-0.0687 0.062,0 0.2037,-0.0688 0.2725,-0.13637 0,0 0,0 0.075,0 0.075,-0.0688 0.2037,-0.13626 0.34,-0.2045 l 0,0 c 3.6812,-1.77225 7.635,-3.40825 11.93,-4.77163 0.8175,1.09075 1.3625,1.56788 1.3625,1.56788 l 0,0 5.1812,2.93112 c -33.9475,42.05863 -50.375,96.45538 -56.7825,123.1085" />
      <path
         id="path7679"
         style="fill:#ee5e1a;fill-opacity:1;fill-rule:evenodd;stroke:none"
         d="m 1381.4701,-455.76387 c -76.9588,84.04912 -274.7775,302.18162 -355.4875,411.656755 C 924.75641,93.248135 968.51881,132.921 968.51881,132.921 l 5.18,2.93113 9.6801,7.02112 c 0,0 54.66999,23.85825 146.96749,-119.291125 73.5512,-114.11049 205.8612,-374.437875 256.51,-475.392245 l 10.9062,-21.74513 -16.2925,17.79138" />
      <path
         id="path7681"
         style="fill:#bd4d1f;fill-opacity:1;fill-rule:nonzero;stroke:none"
         d="m 970.22261,133.87525 -1.7038,-0.95425 c 0,0 -9.4074,-8.52087 -9.4074,-31.42475 0,-26.380365 12.6112,-71.983615 66.87119,-145.603365 80.71,-109.475135 278.5287,-327.607635 355.4875,-411.656755 l 16.2925,-17.79138 -427.53999,607.4305" />
      <path
         id="path7683"
         style="fill:#1e324a;fill-opacity:1;fill-rule:nonzero;stroke:none"
         d="m 46.111364,795.6413 c -1.67625,0 -3.36,-0.2522 -4.98875,-0.7567 3.3875,-1.0225 6.5025,-3.0947 8.7725,-6.1622 l 1.915,-2.563 c 2.2775,-3.0608 3.38875,-6.6394 3.4025,-10.1705 0.0125,-2.8493 -0.68875,-5.6783 -2.03875,-8.214 l 10.9475,-14.4513 0,13.1901 -0.96125,1.2612 c 3.0475,5.6987 2.76125,12.863 -1.35,18.3845 l -1.90875,2.563 c -3.38,4.5262 -8.55375,6.9188 -13.79,6.9188" />
      <path
         id="path7685"
         style="fill:#478c7b;fill-opacity:1;fill-rule:nonzero;stroke:none"
         d="m 64.121364,766.5137 0,-13.1901 227.913746,-300.8386 2.59125,1.9767 0,0 c 0.4975,0.409 1.11125,0.5454 1.7725,0.5454 0.0125,0 0.0375,0 0.0625,0 l 0,0 c 0.075,0 0.15,0 0.225,0 1.60125,-0.069 3.44125,-1.1588 4.8125,-2.9311 1.0975,-1.4315 1.6625,-3.0675 1.6625,-4.499 0,-1.1589 -0.4025,-2.1132 -1.18625,-2.7267 l 0,0 -0.31375,-0.2727 0.68875,0.5454 c 0.61375,-5.9305 6.37375,-13.5651 14.30125,-21.4042 2.5975,0.818 5.20875,1.4996 7.8325,2.1812 -6.79625,7.0213 -11.595,13.8379 -12.1475,19.223 l -0.3,-0.2045 c 1.68375,1.3633 1.43875,4.5671 -0.55125,7.1575 -1.425,1.9086 -3.38875,2.9311 -5.02375,2.9311 -0.68875,0 -1.30875,-0.1364 -1.83375,-0.5454 L 302.03636,452.485 64.122614,766.5137 M 335.78636,415.2661 c -2.68625,-0.409 -5.37125,-0.9544 -8.0375,-1.636 19.1,-16.1555 41.9775,-30.60673 41.9775,-30.60673 l 0,0 c -6.89875,-10.22487 -9.25,-22.49487 -9.25,-34.424 -0.0125,-25.15337 10.3125,-48.87525 10.3125,-48.87525 l 0,0 -2.72625,-1.97687 3.45,-4.63525 9.28375,6.61212 c 0,0 -22.495,51.67013 -1.07,83.29925 0,0 -24.47875,15.47373 -43.94,32.24273" />
      <path
         id="path7687"
         style="fill:#201d1c;fill-opacity:1;fill-rule:nonzero;stroke:none"
         d="m 324.48261,425.9 c -2.62375,-0.6816 -5.235,-1.3633 -7.8325,-2.1812 3.38875,-3.4084 7.165,-6.7486 11.0975,-10.0887 2.66625,0.6816 5.35125,1.227 8.0375,1.636 -4.07625,3.5446 -7.935,7.0893 -11.3025,10.6339" />
      <path
         id="path7689"
         style="fill:#1e324a;fill-opacity:1;fill-rule:nonzero;stroke:none"
         d="m -14.453636,715.723 c -0.7225,-0.3408 -1.45875,-0.6135 -2.20875,-0.8384 1.08375,-0.334 2.20875,-0.5453 3.34625,-0.6612 l -1.1375,1.4996" />
      <path
         id="path7691"
         style="fill:#478c7b;fill-opacity:1;fill-rule:nonzero;stroke:none"
         d="m 296.91011,381.72825 -5.54875,-4.22637 c -0.51125,-1.90863 -3.825,-17.17788 15.31625,-18.13225 l 52.945,-67.68913 -4.09,-3.34012 c 3.35375,-2.31775 5.2625,-3.8855 5.2625,-3.8855 l 8.8275,7.22562 -3.62625,4.63525 -4.485,-3.20375 -49.56375,66.87113 c -13.825,3.06749 -11.03625,15.7465 -10.6,17.51875 l 2.8625,2.18137 0.23875,0.13638 c -3.265,1.70412 -6.67375,1.90862 -7.53875,1.90862 m -9.79625,-71.5065 c -2.35125,0 -4.69,-0.13637 -7.0275,-0.47725 0.43625,-1.36325 0.675,-2.11313 0.675,-2.11313 3.74875,1.29513 7.5725,2.04501 11.42375,2.38588 -1.69,0.13625 -3.3875,0.2045 -5.07125,0.2045" />
      <path
         id="path7693"
         style="fill:#213c6c;fill-opacity:1;fill-rule:nonzero;stroke:none"
         d="m 369.72511,383.02337 c -21.41125,-31.62912 1.06375,-83.29925 1.06375,-83.29925 l -9.2775,-6.61212 -51.1725,69.0525 c 4.1375,18.67763 -11.4525,19.56375 -13.42875,19.56375 l -5.54875,-4.22638 c -0.51125,-1.90862 -3.825,-17.17787 15.31625,-18.13224 l 52.945,-67.68913 -8.82125,-7.22563 c 0,0 -43.85125,35.44651 -80.04,23.1765 0,0 -22.5025,73.89238 -41.96375,81.45888 l 30.7225,23.58545 0,0 10.36875,7.9074 32.46,24.5399 c 2.13375,-20.7908 67.37625,-62.09963 67.37625,-62.09963" />
      <path
         id="path7695"
         style="fill:#f57914;fill-opacity:1;fill-rule:nonzero;stroke:none"
         d="M 295.11011,448.395 227.08636,396.9294 -14.453636,715.723 c -7.22625,-3.3332 -16.04625,-1.3087 -20.995,5.3239 l -1.9025,2.5562 c -5.69125,7.621 -4.12375,18.3844 3.48375,24.0559 l 59.70625,44.5535 c 7.6075,5.6851 18.385,4.1241 24.05625,-3.4901 l 1.915,-2.563 c 4.11125,-5.5215 4.40375,-12.6858 1.36375,-18.3845 L 295.11011,448.395" />
      <path
         id="path7697"
         style="fill:#f68a30;fill-opacity:1;fill-rule:nonzero;stroke:none"
         d="m 301.49761,452.076 c -2.03875,2.6584 -5.09875,3.7491 -6.87125,2.3857 l -72.8025,-55.4192 c -1.765,-1.3634 -1.5475,-4.6353 0.485,-7.29375 2.02375,-2.6585 5.09125,-3.681 6.85,-2.38588 l 72.815,55.48743 c 1.7525,1.2952 1.53375,4.5672 -0.47625,7.2257" />
      <path
         id="path7699"
         style="fill:#204674;fill-opacity:1;fill-rule:nonzero;stroke:none"
         d="m 36.111364,795.6413 c -3.57875,0 -7.19125,-1.1179 -10.2725,-3.4288 L -2.6273857,770.9719 25.838864,792.2125 c 3.08125,2.3109 6.69375,3.4288 10.2725,3.4288 1.6975,0 3.38875,-0.2522 5.01125,-0.7567 l 0,0 c -1.6225,0.5045 -3.31375,0.7567 -5.01125,0.7567" />
      <path
         id="path7701"
         style="fill:#1e3045;fill-opacity:1;fill-rule:nonzero;stroke:none"
         d="m 41.122614,794.8846 0,0 c 3.3875,-1.0225 6.5025,-3.0947 8.7725,-6.1622 l 1.915,-2.563 c 2.2775,-3.0608 3.38875,-6.6394 3.4025,-10.1705 -0.0125,3.5311 -1.125,7.1097 -3.4025,10.1705 l -1.915,2.563 c -2.27,3.0675 -5.385,5.1397 -8.7725,6.1622 m 12.05125,-27.1097 0,0 10.9475,-14.4513 0,0 -10.9475,14.4513" />
      <path
         id="path7703"
         style="fill:#428071;fill-opacity:1;fill-rule:nonzero;stroke:none"
         d="m 64.121364,753.3236 0,0 227.913746,-300.8386 0,0 -227.913746,300.8386" />
      <path
         id="path7705"
         style="fill:#de701a;fill-opacity:1;fill-rule:nonzero;stroke:none"
         d="m 36.111364,795.6413 c -3.57875,0 -7.19125,-1.1179 -10.2725,-3.4288 L -2.6273857,770.9719 258.38886,426.8544 292.03511,452.485 64.121364,753.3236 l -10.9475,14.4513 0,0 c 1.35,2.5357 2.05125,5.3647 2.03875,8.214 -0.0125,3.5311 -1.125,7.1097 -3.4025,10.1705 l -1.915,2.563 c -2.27,3.0675 -5.385,5.1397 -8.7725,6.1622 -1.6225,0.5045 -3.31375,0.7567 -5.01125,0.7567" />
      <path
         id="path7707"
         style="fill:#428071;fill-opacity:1;fill-rule:nonzero;stroke:none"
         d="m 296.46011,455.0071 c -0.025,0 -0.05,0 -0.0625,0 0.0125,0 0.0375,0 0.0625,0 l 0,0 m 0.225,0 c 1.60125,-0.069 3.4425,-1.1588 4.8125,-2.9311 1.0975,-1.4315 1.6625,-3.0675 1.6625,-4.499 0,1.4315 -0.565,3.0675 -1.6625,4.499 -1.37,1.7723 -3.21125,2.8629 -4.8125,2.9311 m 5.66375,-9.8841 -0.6875,-0.5454 0.3125,0.2727 -1.04875,-0.8179 1.42375,1.0906 c 0.61375,-5.9305 6.37375,-13.5651 14.30125,-21.4042 l 0,0 c -7.9275,7.8391 -13.6875,15.4737 -14.30125,21.4042" />
      <path
         id="path7709"
         style="fill:#1f3863;fill-opacity:1;fill-rule:nonzero;stroke:none"
         d="m 302.34886,445.123 -1.42375,-1.0906 -35.215,-26.7895 28.5,-37.55965 2.7,2.045 c 1.75125,0 14.09,-0.68162 14.11,-13.7015 0.0125,-1.77225 -0.1975,-3.68087 -0.68125,-5.86225 l 51.1725,-69.0525 9.2775,6.61213 c 0,0 -10.3275,23.72187 -10.31375,48.87525 0,11.92912 2.35125,24.19912 9.25,34.424 0,0 -22.87625,14.45122 -41.9775,30.60672 -3.9325,3.3401 -7.70875,6.6803 -11.0975,10.0887 -7.9275,7.8391 -13.6875,15.4737 -14.30125,21.4042" />
      <path
         id="path7711"
         style="fill:#e27f2e;fill-opacity:1;fill-rule:nonzero;stroke:none"
         d="m 296.46011,455.0071 c -0.025,0 -0.05,0 -0.0625,0 -0.66125,0 -1.275,-0.1363 -1.7725,-0.5454 l 0,0 -2.59,-1.9767 0,0 -33.6475,-25.6306 7.32125,-9.6115 35.215,26.7895 1.04875,0.8179 c 0.785,0.6135 1.18625,1.5678 1.18625,2.7267 0,1.4315 -0.565,3.0675 -1.6625,4.499 -1.37,1.7723 -3.21125,2.8629 -4.8125,2.9311 -0.075,0 -0.15,0 -0.225,0" />
      <path
         id="path7713"
         style="fill:#f9bd78;fill-opacity:1;fill-rule:nonzero;stroke:none"
         d="m 12.621364,709.7585 c -1.37625,0 -2.7399997,-0.4226 -3.8849997,-1.2951 -2.925,-2.2155 -3.3875,-6.5509 -1.0225,-9.666 L 215.47136,424.8775 c 1.425,-1.8404 3.57875,-2.8629 5.705,-2.8629 1.36375,0 2.72,0.409 3.8725,1.2952 2.95125,2.2495 3.40125,6.544 1.03625,9.6796 L 18.320114,706.8478 c -1.4375,1.9018 -3.57125,2.9107 -5.69875,2.9107" />
    </g>
  </g>
</svg>
