<?xml version="1.0" encoding="UTF-8" standalone="no"?>
<svg
   xmlns:dc="http://purl.org/dc/elements/1.1/"
   xmlns:cc="http://creativecommons.org/ns#"
   xmlns:rdf="http://www.w3.org/1999/02/22-rdf-syntax-ns#"
   xmlns:svg="http://www.w3.org/2000/svg"
   xmlns="http://www.w3.org/2000/svg"
   version="1.1"
   id="svg15630"
   viewBox="0 0 300 299.99997"
   height="299.99997"
   width="300">
  <defs
     id="defs15632">
    <clipPath
       id="clipPath4249"
       clipPathUnits="userSpaceOnUse">
      <path
         id="path4251"
         d="m 13952.8,6806.75 -757.7,0 0,42.36 352,0 0,0 358.6,0 c 14.6,23.33 28,47.44 40.2,72.25 l 29.2,0 38,0 c -17.4,-39.81 -37.6,-78.1 -60.3,-114.61 m 133.2,452.33 c -14.5,3.38 -29.6,5.14 -44.9,5.14 -3.6,0 -7.2,-0.09 -10.7,-0.28 0.2,7.52 0.3,15.08 0.3,22.63 0,157.92 -44.2,305.52 -121,431.08 l 56.8,0 c 76.1,-130.47 119.6,-282.22 119.6,-444.13 0,-4.83 0,-9.63 -0.1,-14.44 m -505.9,764.49 c -113.1,58 -241.3,90.74 -377.1,90.74 -2.7,0 -5.3,-0.02 -7.9,-0.06 l 0,42.31 c 2.6,0.01 5.3,0.09 7.9,0.09 134.9,0 262.8,-30.26 377.1,-84.35 l 0,-48.73" />
    </clipPath>
  </defs>
  <metadata
     id="metadata15635">
    <rdf:RDF>
      <cc:Work
         rdf:about="">
        <dc:format>image/svg+xml</dc:format>
        <dc:type
           rdf:resource="http://purl.org/dc/dcmitype/StillImage" />
        <dc:title></dc:title>
      </cc:Work>
    </rdf:RDF>
  </metadata>
  <g
     transform="translate(-239.9992,-272.3629)"
     id="layer1">
    <g
       transform="matrix(0.14999988,0,0,0.14999988,347.14209,308.65151)"
       id="g15818">
      <path
         id="path4205"
         style="fill:#e83735;fill-opacity:1;fill-rule:nonzero;stroke:none"
         d="m -714.28651,1758.0772 2000.00161,0 0,-2000.00146 -2000.00161,0 0,2000.00146 z" />
      <path
         id="path4207"
         style="fill:#f2525e;fill-opacity:1;fill-rule:nonzero;stroke:none"
         d="m 950.74509,758.07644 c 0,367.25996 -297.7505,664.99716 -665.0309,664.99716 -367.280334,0 -665.03108,-297.7372 -665.03108,-664.99716 0,-367.27358 297.750746,-664.99695 665.03108,-664.99695 367.2804,0 665.0309,297.72337 665.0309,664.99695" />
      <path
         id="path4229"
         style="fill:#224b7e;fill-opacity:1;fill-rule:nonzero;stroke:none"
         d="m 796.82509,1118.1653 c 57.6013,-92.3245 90.8663,-201.34986 90.8663,-318.18006 0,-332.46788 -269.5298,-601.99775 -601.9772,-601.99775 -332.447334,0 -601.9772,269.52987 -601.9772,601.99775 0,116.8302 33.26512,225.85556 90.86575,318.18006 l 1022.22235,0" />
      <path
         id="path4231"
         style="fill:#e4e4e0;fill-opacity:1;fill-rule:nonzero;stroke:none"
         d="m 764.71939,1089.2901 c 53.9882,-86.5237 85.2082,-188.71176 85.2082,-298.20066 0,-311.62258 -252.6248,-564.24033 -564.2133,-564.24033 -311.588554,0 -564.21317,252.61775 -564.21317,564.24033 0,109.4889 31.22024,211.67696 85.208,298.20066 l 958.01027,0" />
      <path
         id="path4233"
         style="fill:#224b7e;fill-opacity:1;fill-rule:nonzero;stroke:none"
         d="m 520.27479,1089.2901 c 26.4484,-42.379 41.7177,-92.39946 41.7177,-146.02596 0,-152.5905 -123.7219,-276.2784 -276.2783,-276.2784 -152.55632,0 -276.2783343,123.6879 -276.2783343,276.2784 0,53.6265 15.2693803,103.64696 41.7178803,146.02596 l 469.121054,0" />
      <path
         id="path4235"
         style="fill:#f25120;fill-opacity:1;fill-rule:nonzero;stroke:none"
         d="m 370.92219,891.49864 c 0,47.0552 -38.1732,85.1875 -85.208,85.1875 -47.0347,0 -85.20795,-38.1323 -85.20795,-85.1875 0,-47.0349 38.17325,-85.174 85.20795,-85.174 47.0348,0 85.208,38.1391 85.208,85.174" />
      <path
         id="path4237"
         style="fill:#f89e21;fill-opacity:1;fill-rule:nonzero;stroke:none"
         d="m 285.71419,881.40314 346.4897,-321.93615 7.2256,7.21875 -341.0364,328.7256 -12.6789,-14.0082" />
      <path
         id="path4239"
         style="fill:#f25120;fill-opacity:1;fill-rule:nonzero;stroke:none"
         d="m 280.32912,320.18936 10.82687,0 0,-58.46062 -10.82687,0 0,58.46062 z" />
      <path
         id="path4241"
         style="fill:#f25120;fill-opacity:1;fill-rule:nonzero;stroke:none"
         d="m 741.47459,692.31636 0.1364,-10.83162 58.4866,0.818 -0.1362,10.82487 -58.4868,-0.81125" />
      <path
         id="path4243"
         style="fill:#f25120;fill-opacity:1;fill-rule:nonzero;stroke:none"
         d="m -225.73813,703.96599 0.13637,-10.83838 58.48675,0.81113 -0.2045,10.82487 -58.41862,-0.79762" />
      <g
         id="g4245"
         transform="matrix(0.68166375,0,0,-0.68166375,-8714.2923,5758.0797)">
        <g
           clip-path="url(#clipPath4249)"
           id="g4247">
          <path
             id="path4253"
             style="fill:#1e436f;fill-opacity:1;fill-rule:nonzero;stroke:none"
             d="m 13195.1,6806.75 891.074,0 0,1349.89 -891.074,0 0,-1349.89 z" />
        </g>
      </g>
      <path
         id="path4255"
         style="fill:#cbcac6;fill-opacity:1;fill-rule:nonzero;stroke:none"
         d="m 764.71939,1089.2901 -244.4446,0 c 9.6114,-15.4602 17.7913,-31.936 24.2672,-49.2503 l 247.5806,0 c -8.3166,16.9121 -17.451,33.347 -27.4032,49.2503 M 557.22089,891.97574 c -11.7246,-62.754 -44.7853,-118.0505 -91.2748,-158.09825 l 173.4834,-167.19175 -7.2256,-7.21875 -177.7098,165.07162 c -46.6257,-36.07362 -105.1806,-57.55287 -168.7798,-57.55287 -1.84055,0 -3.61292,0.0138 -5.38517,0.055 l 0,-346.851 10.77027,0 0,-58.4595 -10.77027,0 0,-34.83988 c 1.77225,-0.0275 3.54462,-0.0412 5.38517,-0.0412 92.5698,0 179.9592,22.31775 257.0553,61.85413 l 0,191.93612 c 0,9.1615 6.8849,16.5985 15.2693,16.5985 l 209.4071,0 c 52.3516,85.58975 82.4816,186.20325 82.4816,293.85153 0,5.1466 -0.062,10.2999 -0.205,15.426 -3.9537,0.2114 -7.9075,0.5999 -11.8612,1.1589 -6.2025,-0.8861 -12.61,-1.3497 -19.0863,-1.3497 -49.8295,0 -94.3421,27.2393 -123.6536,69.8978 -9.5432,-2.0722 -19.4956,-3.1697 -29.6524,-3.1697 -6.4759,0 -12.8835,0.4362 -19.1547,1.2951 -6.2031,-0.8589 -12.6108,-1.2951 -19.0866,-1.2951 -25.5624,0 -49.4888,6.8984 -70.0069,18.923 m 184.3901,-210.49095 -0.1364,10.83162 58.4868,0.81125 0.1362,-10.82487 -58.4866,-0.818" />
      <path
         id="path4257"
         style="fill:#1e436f;fill-opacity:1;fill-rule:nonzero;stroke:none"
         d="m 520.27479,1089.2901 -239.94567,0 0,-112.77446 c 1.77224,0.1087 3.54462,0.1705 5.38507,0.1705 47.0348,0 85.208,-38.1323 85.208,-85.1875 0,-18.7732 -6.1349,-36.1214 -16.4281,-50.1978 l 111.452,-107.42335 c 46.4895,40.04775 79.5502,95.34425 91.2748,158.09825 -40.3545,23.6877 -67.4165,67.212 -67.4165,117.00066 0,10.6885 1.2951,21.0839 3.6127,31.0634 l 51.1249,0 c -6.4759,17.3143 -14.6558,33.7901 -24.2672,49.2503 l 0,0 M 342.83759,828.32194 c -15.1328,-13.6673 -35.1737,-21.9973 -57.1234,-21.9973 -1.84045,0 -3.61282,0.061 -5.38507,0.1636 l 0,-139.44788 c 1.77224,-0.0412 3.54462,-0.055 5.38507,-0.055 63.5993,0 122.1542,21.47925 168.7799,57.55288 l -111.6565,103.7834" />
      <path
         id="path4259"
         style="fill:#e54a1e;fill-opacity:1;fill-rule:nonzero;stroke:none"
         d="m 285.71419,976.68614 c -1.84045,0 -3.61282,-0.061 -5.38507,-0.1705 l 0,-170.0274 c 1.77224,-0.1025 3.54462,-0.1636 5.38507,-0.1636 21.9497,0 41.9905,8.33 57.1234,21.9973 l -57.1234,53.0812 12.6789,14.0082 56.101,-54.1105 c 10.2932,14.0764 16.4281,31.4246 16.4281,50.1978 0,47.0552 -38.1732,85.1875 -85.208,85.1875" />
      <path
         id="path4261"
         style="fill:#e4901a;fill-opacity:1;fill-rule:nonzero;stroke:none"
         d="m 298.39309,895.41134 -12.6789,-14.0082 57.1234,-53.0812 111.6565,-103.78333 177.7098,-165.07162 7.2256,7.21875 -173.4834,167.19175 -111.452,107.42335 -56.101,54.1105" />
      <path
         id="path4263"
         style="fill:#e54a1e;fill-opacity:1;fill-rule:nonzero;stroke:none"
         d="m 280.32912,320.18936 10.82687,0 0,-58.46062 -10.82687,0 0,58.46062 z" />
      <path
         id="path4265"
         style="fill:#e54a1e;fill-opacity:1;fill-rule:nonzero;stroke:none"
         d="m 799.96139,693.12761 -58.4868,-0.81125 0.1364,-10.83162 58.4866,0.818 -0.1362,10.82487" />
      <path
         id="path4267"
         style="fill:#e8e7e6;fill-opacity:1;fill-rule:nonzero;stroke:none"
         d="m 628.65919,350.25074 7.771,7.34837 c 0,0 5.3852,-5.61012 10.5658,-11.4725 2.5904,-2.92425 5.1125,-5.87587 7.0211,-8.139 1.8405,-2.31087 3.1358,-3.85824 3.1358,-3.85824 l -8.3845,-6.56438 c 0,0 -1.227,1.43825 -2.9311,3.5855 -1.8405,2.18813 -4.3628,5.06475 -6.8167,7.91412 -5.0443,5.69876 -10.3613,11.18613 -10.3613,11.18613" />
      <path
         id="path4269"
         style="fill:#e8e7e6;fill-opacity:1;fill-rule:nonzero;stroke:none"
         d="m 595.80309,381.40274 6.8848,8.1255 c 0,0 1.4315,-1.28163 3.681,-3.17663 2.1813,-1.96312 5.1806,-4.48537 7.9755,-7.15062 5.7941,-5.23525 11.3837,-10.72263 11.3837,-10.72263 l -7.4982,-7.61412 c 0,0 -5.3853,5.36462 -11.043,10.47712 -2.7949,2.59713 -5.6579,5.058 -7.771,6.9735 -2.1813,1.84725 -3.6128,3.08788 -3.6128,3.08788" />
      <path
         id="path4271"
         style="fill:#e8e7e6;fill-opacity:1;fill-rule:nonzero;stroke:none"
         d="m 559.60669,408.41711 5.7942,8.97063 c 0,0 1.636,-1.0225 4.09,-2.67213 2.3857,-1.6905 5.726,-3.82412 8.8616,-6.14175 3.1356,-2.29725 6.3395,-4.574 8.6571,-6.38712 2.3177,-1.79963 3.8173,-2.98575 3.8173,-2.98575 l -6.5439,-8.3845 c 0,0 -1.4998,1.15887 -3.7491,2.8835 -2.2495,1.77912 -5.317,3.97412 -8.3845,6.20987 -3.0675,2.24275 -6.2714,4.30138 -8.589,5.94413 -2.3177,1.57462 -3.9536,2.56312 -3.9536,2.56312" />
      <path
         id="path4273"
         style="fill:#e8e7e6;fill-opacity:1;fill-rule:nonzero;stroke:none"
         d="m 520.27479,429.09874 3.2719,10.19087 c 0,0 0.4772,-0.16362 1.2952,-0.51125 0.818,-0.35449 1.9768,-0.83837 3.3401,-1.42462 1.3634,-0.59987 2.9994,-1.28837 4.7035,-2.02462 1.7041,-0.77701 3.4765,-1.67688 5.2489,-2.5425 1.7722,-0.88625 3.6127,-1.711 5.2487,-2.59713 1.7042,-0.89987 3.2039,-1.72463 4.5672,-2.44037 1.2952,-0.69538 2.3858,-1.28838 3.1357,-1.69738 0.7497,-0.40225 1.1587,-0.66125 1.1587,-0.66125 l -5.2487,-9.27738 c 0,0 -0.409,0.26575 -1.1589,0.6475 -0.6816,0.38863 -1.7724,0.95438 -2.9994,1.61563 -1.2268,0.66112 -2.5902,1.42462 -4.1581,2.2495 -1.4996,0.81112 -3.2037,1.58825 -4.8397,2.413 -1.7043,0.79762 -3.3402,1.64962 -4.908,2.35175 -1.636,0.69538 -3.0675,1.33613 -4.3627,1.88138 -1.2952,0.56587 -2.3177,1.01575 -3.0675,1.34287 -0.7498,0.334 -1.227,0.484 -1.227,0.484" />
      <path
         id="path4275"
         style="fill:#e8e7e6;fill-opacity:1;fill-rule:nonzero;stroke:none"
         d="m 477.67079,439.77361 -0.068,10.87938 c 0,0 1.9767,-0.21138 4.9761,-0.5385 2.9311,-0.21138 6.8847,-1.09075 10.7702,-1.75188 3.9537,-0.72262 7.771,-1.83375 10.7022,-2.51537 1.4315,-0.334 2.6585,-0.77025 3.4765,-1.00888 0.818,-0.25225 1.2951,-0.41575 1.2951,-0.41575 l -2.1813,-10.52487 c 0,0 -0.4772,0.14312 -1.227,0.37487 -0.7498,0.23175 -1.8405,0.65438 -3.2038,0.968 -2.7267,0.62025 -6.2713,1.68363 -9.9523,2.3585 -3.6129,0.62713 -7.2256,1.46563 -10.0205,1.66326 -2.7266,0.31362 -4.5671,0.51124 -4.5671,0.51124" />
      <path
         id="path4277"
         style="fill:#e8e7e6;fill-opacity:1;fill-rule:nonzero;stroke:none"
         d="m 434.04429,435.42461 -3.4083,10.43626 c 0,0 1.9086,0.593 4.7716,1.47924 2.9312,0.62713 6.8166,1.54738 10.7022,2.26313 1.9767,0.24537 3.9536,0.49763 5.8622,0.73612 1.8405,0.225 3.5446,0.49763 5.0444,0.51125 2.9992,0.1225 4.9761,0.225 4.9761,0.225 l 1.1589,-10.85212 c 0,0 -1.8405,-0.0812 -4.6354,-0.19763 -1.3634,-0.0137 -2.9994,-0.25225 -4.7035,-0.47725 -1.7041,-0.21125 -3.5446,-0.44987 -5.3851,-0.67475 -3.681,-0.64762 -7.2938,-1.5065 -10.0205,-2.07224 -2.6585,-0.8385 -4.3626,-1.37701 -4.3626,-1.37701" />
      <path
         id="path4279"
         style="fill:#e8e7e6;fill-opacity:1;fill-rule:nonzero;stroke:none"
         d="m 396.21189,413.41374 -6.3394,8.86162 c 0,0 1.4996,1.30188 3.8172,3.2515 0.5454,0.484 1.1589,1.03613 1.8406,1.561 0.6816,0.52488 1.3633,1.04975 2.1131,1.6155 1.4997,1.11113 3.1357,2.29725 4.7035,3.48338 1.7042,1.06337 3.4084,2.11312 4.9761,3.11512 0.818,0.484 1.5679,0.97488 2.2495,1.42475 0.7499,0.43626 1.4998,0.78388 2.1814,1.13838 2.6585,1.37687 4.4307,2.29038 4.4307,2.29038 l 4.3628,-10.0545 c 0,0 -1.636,-0.85213 -4.09,-2.12688 -0.6135,-0.334 -1.2953,-0.6475 -1.9769,-1.06338 -0.6816,-0.42262 -1.4315,-0.85887 -2.1131,-1.336 -1.4996,-0.92025 -3.0675,-1.90875 -4.6354,-2.89712 -1.4996,-1.11112 -2.9311,-2.229 -4.3626,-3.26513 -0.6817,-0.52487 -1.3633,-1.0225 -1.9768,-1.49975 -0.6135,-0.49762 -1.1589,-1.00887 -1.7042,-1.45875 -2.1132,-1.82687 -3.4765,-3.04012 -3.4765,-3.04012" />
      <path
         id="path4281"
         style="fill:#e8e7e6;fill-opacity:1;fill-rule:nonzero;stroke:none"
         d="m 368.12739,379.47361 -8.589,6.35313 c 0,0 1.0907,1.68375 2.7948,4.12413 1.7042,2.47437 4.0219,5.74637 6.4758,8.91612 2.3177,3.23787 4.908,6.244 6.8167,8.58213 0.8862,1.17925 1.7723,2.07912 2.3858,2.72662 0.5454,0.64762 0.8861,1.01575 0.8861,1.01575 l 7.1575,-8.11862 c 0,0 -0.3407,-0.34763 -0.8861,-0.9475 -0.5454,-0.6135 -1.3634,-1.44513 -2.1814,-2.5495 -1.7041,-2.1745 -4.1581,-4.97613 -6.3395,-7.989 -2.2493,-2.94488 -4.3626,-5.98513 -5.9303,-8.28913 -1.5679,-2.25625 -2.5904,-3.82412 -2.5904,-3.82412" />
      <path
         id="path4283"
         style="fill:#e8e7e6;fill-opacity:1;fill-rule:nonzero;stroke:none"
         d="m 344.26909,340.72786 -8.9978,5.71913 c 0,0 0.9542,1.602 2.4538,4.015 1.4998,2.4745 3.4765,5.76013 5.4534,9.0525 4.0218,6.62575 8.0436,13.238 8.0436,13.238 l 9.0661,-5.58975 -16.0191,-26.43487" />
      <path
         id="path4285"
         style="fill:#e8e7e6;fill-opacity:1;fill-rule:nonzero;stroke:none"
         d="m 316.18459,302.32299 -6.8849,8.39125 c 0,0 1.3634,1.30875 3.1358,3.44925 0.8861,1.06337 1.9767,2.29037 3.0675,3.61275 1.0906,1.36337 2.2495,2.83575 3.3401,4.30137 2.3176,2.92425 4.4308,5.99863 6.0668,8.26175 1.4997,2.31075 2.5222,3.865 2.5222,3.865 l 8.3844,-6.68037 c 0,0 -1.0906,-1.65638 -2.7948,-4.15125 -1.7723,-2.41988 -4.0218,-5.726 -6.4758,-8.87525 -1.227,-1.561 -2.454,-3.13563 -3.6128,-4.60813 -1.227,-1.411 -2.3859,-2.74025 -3.3402,-3.865 -1.9768,-2.29725 -3.4083,-3.70137 -3.4083,-3.70137" />
      <path
         id="path4287"
         style="fill:#e8e7e6;fill-opacity:1;fill-rule:nonzero;stroke:none"
         d="m 276.64811,276.97874 -4.09,10.12263 c 0,0 1.8405,0.375 4.43088,1.452 1.29512,0.484 2.86288,1.04975 4.43075,1.67 1.56787,0.7635 3.272,1.602 4.90795,2.42675 1.7042,0.7635 3.2038,1.8405 4.7036,2.74712 1.4315,0.968 2.9311,1.71775 3.9536,2.61763 2.2495,1.67687 3.681,2.80162 3.681,2.80162 l 6.0667,-9.07975 c 0,0 -1.636,-1.19975 -4.0217,-3.013 -1.1589,-0.9475 -2.7267,-1.75862 -4.2264,-2.788 -1.636,-0.98162 -3.272,-2.12 -5.1125,-2.94475 -1.7723,-0.89988 -3.5446,-1.786 -5.2488,-2.62438 -1.70408,-0.66812 -3.34008,-1.28837 -4.77158,-1.82687 -2.79487,-1.13838 -4.7035,-1.561 -4.7035,-1.561" />
      <path
         id="path4289"
         style="fill:#e8e7e6;fill-opacity:1;fill-rule:nonzero;stroke:none"
         d="m 229.34062,272.73874 -0.68163,10.62712 c 2.18125,0.1225 4.36263,0.32038 6.544,0.34763 7.70275,0.16362 15.4055,0.21137 23.10837,0.6885 l 2.99926,-10.43625 c -8.24813,-0.59988 -16.56438,-0.65438 -24.88063,-0.893 -2.38588,-0.0125 -4.77175,-0.23175 -7.08938,-0.334" />
      <path
         id="path4291"
         style="fill:#e8e7e6;fill-opacity:1;fill-rule:nonzero;stroke:none"
         d="m 184.55536,267.29224 -2.11325,10.43625 c 0,0 1.90875,0.36813 4.77175,0.9475 2.93113,0.64075 6.81663,1.152 10.70213,1.72463 1.90862,0.28637 3.88537,0.57262 5.65775,0.85212 1.8405,0.17038 3.54462,0.36125 5.04437,0.51125 2.86288,0.29987 4.83976,0.49763 4.83976,0.49763 l 1.02249,-10.6135 c 0,0 -1.90862,-0.19775 -4.7035,-0.484 -1.4315,-0.15 -3.0675,-0.32725 -4.83975,-0.5045 -1.77237,-0.259 -3.61287,-0.53163 -5.5215,-0.7975 -3.681,-0.57263 -7.43012,-1.04975 -10.225,-1.67013 -2.79475,-0.5385 -4.63525,-0.89975 -4.63525,-0.89975" />
      <path
         id="path4293"
         style="fill:#e8e7e6;fill-opacity:1;fill-rule:nonzero;stroke:none"
         d="m 142.83749,253.09999 -5.18063,9.33875 c 0,0 0.47713,0.25225 1.227,0.6885 0.818,0.38863 1.90863,0.96112 3.272,1.62237 1.36325,0.6885 2.99925,1.46563 4.7035,2.16088 1.77225,0.71575 3.61275,1.57462 5.45325,2.25637 3.74913,1.34963 7.49838,2.76075 10.36125,3.531 2.79488,0.87938 4.70351,1.43825 4.70351,1.43825 l 2.93124,-10.259 c 0,0 -1.77237,-0.5385 -4.499,-1.34975 -2.72675,-0.73612 -6.20312,-2.05175 -9.67962,-3.29925 -1.70425,-0.64075 -3.40838,-1.42462 -4.97613,-2.079 -1.636,-0.64762 -3.0675,-1.34975 -4.2945,-1.97 -1.227,-0.60675 -2.2495,-1.10437 -2.93125,-1.46562 -0.68162,-0.3885 -1.09062,-0.6135 -1.09062,-0.6135" />
      <path
         id="path4295"
         style="fill:#eff4f4;fill-opacity:1;fill-rule:nonzero;stroke:none"
         d="m 940.11139,480.63936 c 0,9.1615 -6.8163,16.5985 -15.2013,16.5985 l -366.8712,0 c -8.3844,0 -15.2693,-7.437 -15.2693,-16.5985 l 0,-294.79912 c 0,-9.1615 6.8849,-16.5985 15.2693,-16.5985 l 366.8712,0 c 8.385,0 15.2013,7.437 15.2013,16.5985 l 0,294.79912" />
      <path
         id="path4297"
         style="fill:#32435b;fill-opacity:1;fill-rule:nonzero;stroke:none"
         d="m 924.91009,169.24174 -366.8712,0 c -8.3844,0 -15.2693,7.437 -15.2693,16.5985 l 0,64.36275 397.3418,0 0,-64.36275 c 0,-9.1615 -6.8163,-16.5985 -15.2013,-16.5985" />
      <path
         id="path4299"
         style="fill:#f14748;fill-opacity:1;fill-rule:nonzero;stroke:none"
         d="m 877.05759,183.99974 c 0,4.58763 -3.4087,8.30262 -7.5662,8.30262 -4.2263,0 -7.635,-3.71499 -7.635,-8.30262 0,-4.58763 3.4087,-8.29588 7.635,-8.29588 4.1575,0 7.5662,3.70825 7.5662,8.29588" />
      <path
         id="path4301"
         style="fill:#87d158;fill-opacity:1;fill-rule:nonzero;stroke:none"
         d="m 902.27889,183.99974 c 0,4.58763 -3.4088,8.30262 -7.635,8.30262 -4.1575,0 -7.6338,-3.71499 -7.6338,-8.30262 0,-4.58763 3.4763,-8.29588 7.6338,-8.29588 4.2262,0 7.635,3.70825 7.635,8.29588" />
      <path
         id="path4303"
         style="fill:#6654af;fill-opacity:1;fill-rule:nonzero;stroke:none"
         d="m 928.52259,183.99974 c 0,4.58763 -3.4075,8.30262 -7.6337,8.30262 -4.2263,0 -7.635,-3.71499 -7.635,-8.30262 0,-4.58763 3.4087,-8.29588 7.635,-8.29588 4.2262,0 7.6337,3.70825 7.6337,8.29588" />
      <path
         id="path4305"
         style="fill:#e4e3e0;fill-opacity:1;fill-rule:nonzero;stroke:none"
         d="m 841.13389,196.86274 c 0,7.103 -5.3175,12.84937 -11.7925,12.84937 l -232.2432,0 c -6.4758,0 -11.7927,-5.74637 -11.7927,-12.84937 0,-7.10975 5.3169,-12.863 11.7927,-12.863 l 232.2432,0 c 6.475,0 11.7925,5.75325 11.7925,12.863" />
      <path
         id="path4307"
         style="fill:#f03a75;fill-opacity:1;fill-rule:nonzero;stroke:none"
         d="m 562.46969,396.44024 236.9629,0 0,-131.01238 -236.9629,0 0,131.01238 z" />
      <path
         id="path4309"
         style="fill:#6f7374;fill-opacity:1;fill-rule:nonzero;stroke:none"
         d="m 562.46969,444.41574 179.2108,0 0,-23.986 -179.2108,0 0,23.986 z" />
      <path
         id="path4311"
         style="fill:#6f7374;fill-opacity:1;fill-rule:nonzero;stroke:none"
         d="m 562.26519,479.47374 179.4242,0 0,-23.98613 -179.4242,0 0,23.98613 z" />
      <path
         id="path4313"
         style="fill:#e2ebf5;fill-opacity:1;fill-rule:nonzero;stroke:none"
         d="m 924.91009,497.23786 -183.231,0 0,-17.76412 179.0048,0 0,-23.981 -179.0048,0 0,-11.077 179.2098,0 0,-23.98775 -179.2098,0 0,-23.98775 57.7373,0 0,-131.01575 -57.7373,0 0,-15.2215 198.4323,0 0,230.43637 c 0,9.1615 -6.8163,16.5985 -15.2013,16.5985" />
      <path
         id="path4315"
         style="fill:#304466;fill-opacity:1;fill-rule:nonzero;stroke:none"
         d="m 940.11139,250.20299 -198.4323,0 0,-40.49088 87.6623,0 c 6.475,0 11.7925,-5.74637 11.7925,-12.84937 0,-7.10975 -5.3175,-12.863 -11.7925,-12.863 l -87.6623,0 0,-14.758 183.231,0 c 8.385,0 15.2013,7.437 15.2013,16.5985 l 0,64.36275 m -19.2225,-74.49913 c -4.2263,0 -7.635,3.70825 -7.635,8.29588 0,4.58763 3.4087,8.30262 7.635,8.30262 4.2262,0 7.6337,-3.71499 7.6337,-8.30262 0,-4.58763 -3.4075,-8.29588 -7.6337,-8.29588 m -26.245,0 c -4.1575,0 -7.6338,3.70825 -7.6338,8.29588 0,4.58763 3.4763,8.30262 7.6338,8.30262 4.2262,0 7.635,-3.71499 7.635,-8.30262 0,-4.58763 -3.4088,-8.29588 -7.635,-8.29588 m -25.1525,0 c -4.2263,0 -7.635,3.70825 -7.635,8.29588 0,4.58763 3.4087,8.30262 7.635,8.30262 4.1575,0 7.5662,-3.71499 7.5662,-8.30262 0,-4.58763 -3.4087,-8.29588 -7.5662,-8.29588" />
      <path
         id="path4317"
         style="fill:#f04650;fill-opacity:1;fill-rule:nonzero;stroke:none"
         d="m 869.49139,192.30236 c -4.2263,0 -7.635,-3.71499 -7.635,-8.30262 0,-4.58763 3.4087,-8.29588 7.635,-8.29588 4.1575,0 7.5662,3.70825 7.5662,8.29588 0,4.58763 -3.4087,8.30262 -7.5662,8.30262" />
      <path
         id="path4319"
         style="fill:#7fce62;fill-opacity:1;fill-rule:nonzero;stroke:none"
         d="m 894.64389,192.30236 c -4.1575,0 -7.6338,-3.71499 -7.6338,-8.30262 0,-4.58763 3.4763,-8.29588 7.6338,-8.29588 4.2262,0 7.635,3.70825 7.635,8.29588 0,4.58763 -3.4088,8.30262 -7.635,8.30262" />
      <path
         id="path4321"
         style="fill:#6355af;fill-opacity:1;fill-rule:nonzero;stroke:none"
         d="m 920.88889,192.30236 c -4.2263,0 -7.635,-3.71499 -7.635,-8.30262 0,-4.58763 3.4087,-8.29588 7.635,-8.29588 4.2262,0 7.6337,3.70825 7.6337,8.29588 0,4.58763 -3.4075,8.30262 -7.6337,8.30262" />
      <path
         id="path4323"
         style="fill:#d8dae5;fill-opacity:1;fill-rule:nonzero;stroke:none"
         d="m 829.34139,209.71211 -87.6623,0 0,-25.71237 87.6623,0 c 6.475,0 11.7925,5.75325 11.7925,12.863 0,7.103 -5.3175,12.84937 -11.7925,12.84937" />
      <path
         id="path4325"
         style="fill:#eb397e;fill-opacity:1;fill-rule:nonzero;stroke:none"
         d="m 741.67909,396.44024 57.7523,0 0,-131.01238 -57.7523,0 0,131.01238 z" />
      <path
         id="path4327"
         style="fill:#68727e;fill-opacity:1;fill-rule:nonzero;stroke:none"
         d="m 741.67909,444.41574 179.201,0 0,-23.986 -179.201,0 0,23.986 z" />
      <path
         id="path4329"
         style="fill:#68727e;fill-opacity:1;fill-rule:nonzero;stroke:none"
         d="m 741.67909,479.47374 178.9898,0 0,-23.98613 -178.9898,0 0,23.98613 z" />
      <path
         id="path4331"
         style="fill:#f25120;fill-opacity:1;fill-rule:nonzero;stroke:none"
         d="m -282.58889,44.27912 c 0,0 55.692,214.54687 287.1850057,225.19449 l 32.9925003,-66.49637 32.92437,-66.4895 C -78.089764,-41.32426 -282.58889,44.27912 -282.58889,44.27912" />
      <path
         id="path4333"
         style="fill:#3652ab;fill-opacity:1;fill-rule:nonzero;stroke:none"
         d="m 40.042616,197.97386 -0.74988,1.46563 -34.6966203,70.03412 c 0,0 31.3565003,-6.48262 43.4901203,-19.13437 l 18.54125,-37.34838 0.68163,-1.47912 16.22362,-32.61088 c 1.77238,-15.45325 -13.08787,-42.20175 -13.08787,-42.20175 l -30.40225,61.27475" />
      <path
         id="path4335"
         style="fill:#e4541d;fill-opacity:1;fill-rule:nonzero;stroke:none"
         d="m 101.93774,191.96161 -34.287754,69.15475 -19.97275,-9.91825 34.28775,-69.14787 19.972754,9.91138" />
      <path
         id="path4337"
         style="fill:#c1193c;fill-opacity:1;fill-rule:nonzero;stroke:none"
         d="m 107.73187,203.89074 -27.062134,54.608 -9.40687,-4.65575 27.062,-54.608 9.407004,4.65575" />
      <path
         id="path4339"
         style="fill:#f9ed33;fill-opacity:1;fill-rule:nonzero;stroke:none"
         d="M -105.28814,227.18999 -42.915894,344.32711 0.84698571,247.63987 -105.28814,227.18999" />
      <path
         id="path4341"
         style="fill:#f9ed33;fill-opacity:1;fill-rule:nonzero;stroke:none"
         d="m -39.371264,77.46249 131.01588,-21.261 -50.44313,93.38787 -80.57275,-72.12687" />
      <path
         id="path4343"
         style="fill:#224b7e;fill-opacity:1;fill-rule:nonzero;stroke:none"
         d="m -211.62764,26.77399 c -42.87662,5.75325 -70.96125,17.50513 -70.96125,17.50513 0,0 7.63463,29.46149 29.03888,67.08249 l 41.92237,-84.58762" />
      <path
         id="path4345"
         style="fill:#ed1f32;fill-opacity:1;fill-rule:nonzero;stroke:none"
         d="m 173.78499,270.63924 -28.42538,-42.69262 -28.35712,-42.69938 -22.835754,45.95087 -22.76762,45.93738 51.193004,-3.23788 51.19287,-3.25837" />
      <path
         id="path4347"
         style="fill:#ee214c;fill-opacity:1;fill-rule:nonzero;stroke:none"
         d="m 149.51786,259.97799 -19.49562,-30.80438 -19.56375,-30.784 -16.837124,33.8855 -16.76888,33.89925 36.332634,-3.09475 36.33274,-3.10162" />
      <path
         id="path4349"
         style="fill:#fbd631;fill-opacity:1;fill-rule:nonzero;stroke:none"
         d="m 120.06999,245.94936 -7.5665,-18.1595 -7.63463,-18.15275 -11.452004,23.088 -11.45187,23.1015 19.086504,-4.93525 19.0185,-4.942" />
      <path
         id="path4351"
         style="fill:#c4444b;fill-opacity:1;fill-rule:nonzero;stroke:none"
         d="m 84.827856,226.53561 17.109884,-34.574 -3.612874,7.27338 -13.497,27.30062 m -17.99588,-13.93325 0.47713,-1.09062 9.816,-19.80238 -10.29313,20.893 m 38.036884,-2.96525 0,0 2.863,-5.74637 2.11312,-4.20588 -4.97612,9.95225 M 70.512986,136.48774 c -1.0225,-1.23375 -2.045,-2.44713 -3.0675,-3.64688 1.0225,1.19975 2.045,2.41988 3.0675,3.64688 m -3.13562,-3.72863 c -0.13638,-0.1225 -0.27275,-0.27275 -0.34088,-0.39537 0.0688,0.1225 0.2045,0.259 0.34088,0.39537 m -0.6135,-0.65437 c 0,-0.0688 -0.0688,-0.14325 -0.13638,-0.2045 0.0675,0.0612 0.0675,0.13625 0.13638,0.2045" />
      <path
         id="path4353"
         style="fill:#ba302c;fill-opacity:1;fill-rule:nonzero;stroke:none"
         d="m -282.11164,45.99012 0,0 c -0.13637,-0.56575 -0.27275,-1.043 -0.34087,-1.31563 l -0.0688,-0.1225 c 0.0688,0.27275 0.2045,0.75675 0.409,1.43838 m -0.409,-1.49288 c -0.0687,-0.13625 -0.0687,-0.21812 -0.0687,-0.21812 l 0,0 0,0 c 0,0 0,0.0688 0.0687,0.21812 m -0.0687,-0.21812 c 0,0 0.0687,-0.0413 0.27275,-0.1025 l 0.13625,-0.0613 c 0.409,-0.17726 1.227,-0.49076 2.38587,-0.94063 l 0.13638,-0.0475 c 3.61275,-1.34975 10.42937,-3.77637 19.97275,-6.4485 -13.97413,3.94675 -22.22225,7.321 -22.83575,7.58688 0,0 0,0 0,0 l 0,0 0,0 c -0.0687,0 -0.0687,0 -0.0687,0.0138 l 0,0 m 22.97212,-7.64138 c 0.0688,0 0.0688,-0.0138 0.0688,-0.0138 0,0 0,0.0138 -0.0688,0.0138" />
      <path
         id="path4355"
         style="fill:#cd4321;fill-opacity:1;fill-rule:nonzero;stroke:none"
         d="M 36.975116,204.17699 -233.16826,70.26411 -211.62764,26.77399 c 13.90588,-1.86087 29.37976,-3.08787 45.94413,-3.08787 48.80713,0 107.293876,10.72937 163.8037457,47.68912 l -37.4914997,6.08725 80.57275,72.12688 15.47375,-28.72538 c 3.34012,3.55838 6.68025,7.2325 9.95225,11.03625 0.0675,0.0612 0.13637,0.13625 0.13637,0.2045 0.0687,0.0813 0.2045,0.17038 0.27263,0.259 0.0688,0.1225 0.2045,0.27263 0.34087,0.39538 0,0.0275 0,0.055 0.0688,0.0812 1.0225,1.19975 2.045,2.41313 3.0675,3.64688 l 0,0 -0.0675,0.21137 0,0 -30.40225,61.27475 -0.74987,1.46563 -2.31763,4.7375 M -282.11034,45.98957 l 0,0 c -0.20449,-0.68162 -0.34087,-1.16562 -0.40899,-1.43837 l 0,-0.0138 c 0.0687,0.28637 0.2045,0.77037 0.40899,1.452 m -0.40899,-1.49288 0,0 c -0.0688,-0.15 -0.0688,-0.21812 -0.0688,-0.21812 0,0 0,0.0688 0.0688,0.21812 m -0.0688,-0.21812 c 0,-0.0137 0,-0.0137 0.0688,-0.0137 -0.0688,0 -0.0688,0 -0.0688,0.0137 m 0.0688,-0.0137 0,0 0,0 m 0,0 c 0.61349,-0.26588 8.86162,-3.64013 22.83574,-7.58688 0,-0.0138 0.0675,-0.0275 0.0675,-0.0412 0.0688,0 0.0688,-0.0138 0.0688,-0.0138 12.13363,-3.41512 28.49363,-7.246 47.921,-9.85 l 0,0 c -41.92237,5.62375 -69.73425,16.98713 -70.893,17.4915" />
      <path
         id="path4357"
         style="fill:#27439b;fill-opacity:1;fill-rule:nonzero;stroke:none"
         d="m 64.241736,217.70124 -27.26662,-13.52425 2.31762,-4.7375 0.74988,-1.46563 30.40224,-61.27475 0,0 c 0,0 13.15613,23.70138 13.22426,39.37976 0,0.97475 -0.0688,1.92224 -0.13638,2.82199 l 0,0 -1.56775,3.14938 -4.83987,9.65912 -9.81601,19.80238 -0.47712,1.09063 -2.59025,5.09887" />
      <path
         id="path4359"
         style="fill:#b4441f;fill-opacity:1;fill-rule:nonzero;stroke:none"
         d="m 84.282606,227.62624 -20.04087,-9.925 2.59025,-5.09887 10.29313,-20.893 4.83987,-9.65913 19.972754,9.91138 -17.109884,34.574 -0.54525,1.09062" />
      <path
         id="path4361"
         style="fill:#981731;fill-opacity:1;fill-rule:nonzero;stroke:none"
         d="m 93.621356,232.27511 -9.33875,-4.64887 0.54525,-1.09063 13.497,-27.30062 9.407014,4.65575 -2.863,5.74637 0,0 -11.247504,22.638" />
      <path
         id="path4363"
         style="fill:#c4bb29;fill-opacity:1;fill-rule:nonzero;stroke:none"
         d="m 41.201486,149.58936 -80.57275,-72.12687 37.4914997,-6.08725 0,0 93.5243803,-15.17375 -34.96938,64.6625 0,0 -15.47375,28.72537" />
      <path
         id="path4365"
         style="fill:#1c3b62;fill-opacity:1;fill-rule:nonzero;stroke:none"
         d="m -233.16826,70.26411 -48.94337,-24.274 c -0.2045,-0.68162 -0.34088,-1.16562 -0.409,-1.452 l 0,-0.0275 0,-0.0138 c -0.0687,-0.15 -0.0687,-0.21812 -0.0687,-0.21812 l 0,0 c 0,0 0,0 0,0 l 0,0 c 0,-0.0137 0,-0.0137 0.0687,-0.0137 l 0,0 0,0 c 0,0 0,0 0,0 1.15875,-0.50438 28.97062,-11.86775 70.893,-17.4915 l 0,0 -21.54063,43.49012" />
      <path
         id="path4367"
         style="fill:#ce1e25;fill-opacity:1;fill-rule:nonzero;stroke:none"
         d="m 171.39924,270.80286 -21.88138,-10.8385 -19.49562,-30.79074 -19.56375,-30.78401 6.544,-13.14237 28.35712,42.69938 28.42538,42.69262 -2.45388,0.16362 m -66.46225,-61.16575 0,0 4.97613,-9.95225 0.6135,-1.29525 -5.58963,11.2475" />
      <path
         id="path4369"
         style="fill:#ce1b3c;fill-opacity:1;fill-rule:nonzero;stroke:none"
         d="m 149.51786,259.96436 -29.72062,-14.72399 -7.29375,-17.4505 -7.63462,-18.15276 5.58962,-11.2475 19.56375,30.78401 19.49562,30.79074" />
      <path
         id="path4371"
         style="fill:#c6aa27;fill-opacity:1;fill-rule:nonzero;stroke:none"
         d="m 119.79724,245.24036 -26.175874,-12.96525 11.247504,-22.638 0,0 7.63462,18.15276 7.29375,17.4505" />
      <path
         id="path4373"
         style="fill:#454545;fill-opacity:1;fill-rule:nonzero;stroke:none"
         d="m -144.68826,339.78036 c -2.863,0 -5.58962,0.33401 -8.24813,0.96113 -8.3845,-35.69188 -35.8555,-61.87463 -68.50724,-61.87463 -24.06276,0 -45.33063,14.2195 -58.21401,35.99875 -8.17999,-4.015 -17.3825,-6.2645 -27.13025,-6.2645 -33.8105,0 -61.21337,27.09613 -61.21337,60.55213 0,4.758 0.54525,9.40012 1.56775,13.83775 l 256.37375,0 c 0.6135,-2.57663 0.95437,-5.26238 0.95437,-8.03675 0,-19.4275 -15.951,-35.17388 -35.58287,-35.17388" />
      <path
         id="path4375"
         style="fill:#eff4f4;fill-opacity:1;fill-rule:nonzero;stroke:none"
         d="m -161.72989,339.78036 c -2.863,0 -5.58962,0.33401 -8.24812,0.96113 -8.3845,-35.69188 -35.8555,-61.87463 -68.50713,-61.87463 -24.06275,0 -45.33075,14.2195 -58.14599,35.99875 -8.18001,-4.015 -17.45063,-6.2645 -27.19838,-6.2645 -33.8105,0 -61.21338,27.09613 -61.21338,60.55213 0,4.758 0.54538,9.40012 1.636,13.83775 l 256.30551,0 c 0.6135,-2.57663 0.95437,-5.26238 0.95437,-8.03675 0,-19.4275 -15.95088,-35.17388 -35.58288,-35.17388" />
      <path
         id="path4377"
         style="fill:#ba302c;fill-opacity:1;fill-rule:nonzero;stroke:none"
         d="m -238.68964,278.86686 c 0.0687,0 0.13626,0 0.2045,0 -0.0688,0 -0.13637,0 -0.2045,0" />
      <path
         id="path4379"
         style="fill:#bcbfbe;fill-opacity:1;fill-rule:nonzero;stroke:none"
         d="m -127.10139,382.99099 -114.38312,0 0,-104.04225 c 0.95437,-0.0475 1.8405,-0.075 2.79487,-0.0825 0.0687,0 0.13626,0 0.2045,0 l 0,0 c 32.65163,0 60.12263,26.18275 68.50713,61.87463 2.6585,-0.62713 5.38512,-0.96113 8.24812,-0.96113 19.632,0 35.58288,15.74638 35.58288,35.17388 0,2.77437 -0.34087,5.46012 -0.95437,8.03675 l 0,0" />
      <path
         id="path4381"
         style="fill:#454545;fill-opacity:1;fill-rule:nonzero;stroke:none"
         d="m 331.93099,111.75024 c -2.7948,0 -5.5214,0.32712 -8.1799,0.9475 -8.3845,-35.68513 -35.9237,-61.861 -68.50722,-61.861 -24.06276,0 -45.33063,14.22637 -58.21413,35.99187 -8.17987,-4.00137 -17.38237,-6.2645 -27.13013,-6.2645 -33.81062,0 -61.21349,27.10975 -61.21349,60.54538 0,4.7785 0.54537,9.40012 1.56787,13.85137 l 256.3738,0 c 0.6135,-2.58349 0.8861,-5.26925 0.8861,-8.03675 0,-19.43425 -15.8828,-35.17387 -35.5829,-35.17387" />
      <path
         id="path4383"
         style="fill:#eff4f4;fill-opacity:1;fill-rule:nonzero;stroke:none"
         d="m 314.95759,111.75024 c -2.863,0 -5.5896,0.32712 -8.2481,0.9475 -8.3845,-35.68513 -35.8555,-61.861 -68.50725,-61.861 -24.06275,0 -45.33062,14.22637 -58.214,35.99187 -8.18,-4.00137 -17.3825,-6.2645 -27.13025,-6.2645 -33.8105,0 -61.213374,27.10975 -61.213374,60.54538 0,4.7785 0.54525,9.40012 1.56774,13.85137 l 256.373734,0 c 0.6135,-2.58349 0.9544,-5.26925 0.9544,-8.03675 0,-19.43425 -15.951,-35.17387 -35.5829,-35.17387" />
      <path
         id="path4385"
         style="fill:#bcbfbe;fill-opacity:1;fill-rule:nonzero;stroke:none"
         d="m 349.58609,154.96086 -114.3831,0 0,-104.0355 c 0.95425,-0.0475 1.97675,-0.0888 2.99925,-0.0888 32.65175,0 60.12275,26.17588 68.50725,61.861 2.6585,-0.62037 5.3851,-0.94749 8.2481,-0.94749 19.6319,0 35.5829,15.73962 35.5829,35.17387 0,2.7675 -0.3409,5.45325 -0.9544,8.03675 l 0,0" />
      <path
         id="path4387"
         style="fill:#454545;fill-opacity:1;fill-rule:nonzero;stroke:none"
         d="m 265.80962,1134.0413 c -5.1125,0 -10.08863,0.6066 -14.79213,1.7246 -15.06475,-64.0765 -64.41712,-111.0771 -122.97212,-111.0771 -43.217504,0 -81.390634,25.5419 -104.499004,64.6285 -14.7240103,-7.2187 -31.2202503,-11.2679 -48.739,-11.2679 -60.73625,0 -109.952376,48.6777 -109.952376,108.7118 0,8.5685 1.0225,16.878 2.93125,24.867 l 460.19115,0 c 1.0906,-4.6421 1.636,-9.4614 1.636,-14.424 0,-34.8875 -28.5618,-63.1629 -63.80377,-63.1629" />
      <path
         id="path4389"
         style="fill:#eff4f4;fill-opacity:1;fill-rule:nonzero;stroke:none"
         d="m 235.20299,1134.0413 c -5.04437,0 -10.0205,0.6066 -14.724,1.7246 -15.06475,-64.0765 -64.41725,-111.0771 -123.040254,-111.0771 -43.14937,0 -81.3225,25.5419 -104.4308803,64.6285 -14.7239997,-7.2187 -31.2883697,-11.2679 -48.7389997,-11.2679 -60.736246,0 -109.952366,48.6777 -109.952366,108.7118 0,8.5685 1.0225,16.878 2.93112,24.867 l 460.19128,0 c 1.0906,-4.6421 1.636,-9.4614 1.636,-14.424 0,-34.8875 -28.56177,-63.1629 -63.8719,-63.1629" />
      <path
         id="path4391"
         style="fill:#1c3b62;fill-opacity:1;fill-rule:nonzero;stroke:none"
         d="m 97.097856,1024.6888 c 0.13638,0 0.27263,0 0.34088,0 -0.0687,0 -0.2045,0 -0.34088,0" />
      <path
         id="path4393"
         style="fill:#bcbfbe;fill-opacity:1;fill-rule:nonzero;stroke:none"
         d="m 297.43889,1211.6282 -205.385274,0 0,-186.7895 c 1.636,-0.089 3.34012,-0.1499 5.04424,-0.1499 0.13638,0 0.27263,0 0.34088,0 l 0,0 c 58.623004,0 107.975504,47.0006 123.040254,111.0771 4.7035,-1.118 9.67963,-1.7246 14.724,-1.7246 35.31013,0 63.8719,28.2754 63.8719,63.1629 0,4.9626 -0.5454,9.7819 -1.636,14.424 l 0,0" />
      <path
         id="path4395"
         style="fill:#454545;fill-opacity:1;fill-rule:nonzero;stroke:none"
         d="m 1029.2726,943.03914 c -6.4075,0 -12.5425,0.7635 -18.5412,2.1472 -18.74501,-80.0955 -80.50381,-138.8617 -153.71501,-138.8617 -53.9875,0 -101.7722,31.9291 -130.6065,80.7909 -18.405,-8.9912 -39.0594,-14.0628 -60.9408,-14.0628 -75.9373,0 -137.4234,60.8452 -137.4234,135.92366 0,10.6886 1.227,21.0839 3.6128,31.0634 l 575.32411,0 c 1.3638,-5.7872 2.1138,-11.8405 2.1138,-18.0504 0,-43.59916 -35.7875,-78.95026 -79.8238,-78.95026" />
      <path
         id="path4397"
         style="fill:#eff4f4;fill-opacity:1;fill-rule:nonzero;stroke:none"
         d="m 991.03139,943.03914 c -6.3388,0 -12.5425,0.7635 -18.4725,2.1472 -18.8138,-80.0955 -80.505,-138.8617 -153.7838,-138.8617 -53.9876,0 -101.7041,31.9291 -130.6066,80.7909 -18.3368,-8.9912 -39.0594,-14.0628 -60.9408,-14.0628 -75.8691,0 -137.4233,60.8452 -137.4233,135.92366 0,10.6886 1.2951,21.0839 3.6127,31.0634 l 575.32431,0 c 1.4312,-5.7872 2.1125,-11.8405 2.1125,-18.0504 0,-43.59916 -35.7188,-78.95026 -79.82251,-78.95026" />
      <path
         id="path4399"
         style="fill:#bcbfbe;fill-opacity:1;fill-rule:nonzero;stroke:none"
         d="m 1068.7414,1040.0398 -256.71501,0 0,-233.51746 c 2.25,-0.1087 4.4987,-0.1977 6.7487,-0.1977 73.2788,0 134.97,58.7662 153.7838,138.8617 5.93,-1.3837 12.1337,-2.1472 18.4725,-2.1472 44.10371,0 79.82251,35.3511 79.82251,78.95026 0,6.2099 -0.6813,12.2632 -2.1125,18.0504 l 0,0" />
    </g>
  </g>
</svg>
