<?xml version="1.0" encoding="UTF-8" standalone="no"?>
<svg
   xmlns:dc="http://purl.org/dc/elements/1.1/"
   xmlns:cc="http://creativecommons.org/ns#"
   xmlns:rdf="http://www.w3.org/1999/02/22-rdf-syntax-ns#"
   xmlns:svg="http://www.w3.org/2000/svg"
   xmlns="http://www.w3.org/2000/svg"
   version="1.1"
   id="svg13458"
   viewBox="0 0 299.99999 300"
   height="300"
   width="300">
  <defs
     id="defs13460" />
  <metadata
     id="metadata13463">
    <rdf:RDF>
      <cc:Work
         rdf:about="">
        <dc:format>image/svg+xml</dc:format>
        <dc:type
           rdf:resource="http://purl.org/dc/dcmitype/StillImage" />
        <dc:title></dc:title>
      </cc:Work>
    </rdf:RDF>
  </metadata>
  <g
     transform="translate(-717.14215,-1306.6487)"
     id="layer1">
    <g
       id="g13259"
       transform="matrix(0.18749986,0,0,-0.18749986,1163.2625,2248.6745)">
      <path
         id="path6577"
         style="fill:#da3825;fill-opacity:1;fill-rule:nonzero;stroke:none"
         d="m -2379.3103,3424.1402 1600.00116,0 0,1600.0012 -1600.00116,0 0,-1600.0012 z" />
      <path
         id="path6579"
         style="fill:#e44a41;fill-opacity:1;fill-rule:nonzero;stroke:none"
         d="m -1047.3121,4224.1408 c 0,-293.808 -238.1787,-531.9977 -531.9977,-531.9977 -293.8161,0 -532.0004,238.1897 -532.0004,531.9977 0,293.8189 238.1843,531.9976 532.0004,531.9976 293.819,0 531.9977,-238.1787 531.9977,-531.9976" />
      <path
         id="path6601"
         style="fill:#e0c18e;fill-opacity:1;fill-rule:nonzero;stroke:none"
         d="m -1582.1946,4085.4795 122.4541,0 52.6681,-121.7888 0,-283.763 -251.4903,0 0,51.3647 c 0,0 -99.8883,72.4364 -107.1248,130.3778 0,0 32.9761,4.6789 125.8024,5.9986 92.8262,1.3143 100.4827,51.9101 151.8365,80.2128 l -17.7778,59.2502 c 0,0 -73.7288,-1.9632 -76.3682,78.3477" />
      <path
         id="path6603"
         style="fill:#f8d195;fill-opacity:1;fill-rule:nonzero;stroke:none"
         d="m -1744.5287,4162.6002 c -6.6694,-11.2611 -25.0252,-12.7226 -40.998,-3.2666 l -42.1759,24.9708 c -15.9689,9.456 -23.5119,26.2576 -16.8469,37.5187 l 4.0284,6.7949 c 6.6672,11.261 25.023,12.7334 40.9958,3.2719 l 42.1759,-24.9761 c 15.9727,-9.4561 23.5146,-26.2523 16.8452,-37.5133 l -4.0245,-6.8003" />
      <path
         id="path6605"
         style="fill:#b19972;fill-opacity:1;fill-rule:nonzero;stroke:none"
         d="m -1523.7569,3836.7322 -233.9743,0 c -3.2829,6.7294 -5.7368,13.4206 -7.1165,19.97 l 0.4635,0.3163 c 2.8139,-6.5167 9.3033,-11.0757 16.8507,-11.0757 l 224.9709,0 c -0.1364,-0.9216 -0.1963,-1.4233 -0.1963,-1.4233 0,0 -0.4854,-2.8084 -0.998,-7.7873" />
      <path
         id="path6607"
         style="fill:#ddba84;fill-opacity:1;fill-rule:nonzero;stroke:none"
         d="m -1765.8784,4153.1714 c -1.8541,0.087 -3.7519,0.3381 -5.6769,0.7308 l 0,61.4206 5.6769,-3.3647 0,-58.7867" />
      <path
         id="path6609"
         style="fill:#182c3f;fill-opacity:1;fill-rule:evenodd;stroke:none"
         d="m -1454.9143,3864.2823 c 0,-10.1322 -8.2182,-18.3395 -18.3449,-18.3395 l -274.2743,0 c -10.1268,0 -18.3449,8.2073 -18.3449,18.3395 l 0,504.3603 c 0,10.1377 8.2181,18.3504 18.3449,18.3504 l 274.2743,0 c 10.1267,0 18.3449,-8.2127 18.3449,-18.3504 l 0,-504.3603" />
      <path
         id="path6611"
         style="fill:#f2f2f2;fill-opacity:1;fill-rule:nonzero;stroke:none"
         d="m -1737.194,3952.9313 253.6002,0 0,369.8599 -253.6002,0 0,-369.8599 z" />
      <path
         id="path6613"
         style="fill:#5caed2;fill-opacity:1;fill-rule:nonzero;stroke:none"
         d="m -1737.194,4270.543 253.6002,0 0,52.2495 -253.6002,0 0,-52.2495 z" />
      <path
         id="path6615"
         style="fill:#da3825;fill-opacity:1;fill-rule:nonzero;stroke:none"
         d="m -1737.194,4129.7385 253.6002,0 0,94.3996 -253.6002,0 0,-94.3996 z" />
      <path
         id="path6617"
         style="fill:#da3825;fill-opacity:1;fill-rule:nonzero;stroke:none"
         d="m -1721.7066,4079.0827 27.2005,0 0,27.2005 -27.2005,0 0,-27.2005 z" />
      <path
         id="path6619"
         style="fill:#da3825;fill-opacity:1;fill-rule:nonzero;stroke:none"
         d="m -1721.7066,4027.0745 27.2005,0 0,27.1984 -27.2005,0 0,-27.1984 z" />
      <path
         id="path6621"
         style="fill:#da3825;fill-opacity:1;fill-rule:nonzero;stroke:none"
         d="m -1721.7066,3974.1011 27.2005,0 0,27.2005 -27.2005,0 0,-27.2005 z" />
      <path
         id="path6623"
         style="fill:#3695a4;fill-opacity:1;fill-rule:nonzero;stroke:none"
         d="m -1675.0426,4103.3391 126.67,0 0,2.9396 -126.67,0 0,-2.9396 z" />
      <path
         id="path6625"
         style="fill:#3695a4;fill-opacity:1;fill-rule:nonzero;stroke:none"
         d="m -1675.0426,4095.6008 126.67,0 0,3.4808 -126.67,0 0,-3.4808 z" />
      <path
         id="path6627"
         style="fill:#3695a4;fill-opacity:1;fill-rule:nonzero;stroke:none"
         d="m -1675.0481,4087.0827 126.6722,0 0,2.9291 -126.6722,0 0,-2.9291 z" />
      <path
         id="path6629"
         style="fill:#3695a4;fill-opacity:1;fill-rule:nonzero;stroke:none"
         d="m -1675.0481,4079.0827 126.6722,0 0,2.9312 -126.6722,0 0,-2.9312 z" />
      <path
         id="path6631"
         style="fill:#3695a4;fill-opacity:1;fill-rule:nonzero;stroke:none"
         d="m -1675.0426,4051.3418 126.67,0 0,2.929 -126.67,0 0,-2.929 z" />
      <path
         id="path6633"
         style="fill:#3695a4;fill-opacity:1;fill-rule:nonzero;stroke:none"
         d="m -1675.0426,4043.609 126.67,0 0,3.4594 -126.67,0 0,-3.4594 z" />
      <path
         id="path6635"
         style="fill:#3695a4;fill-opacity:1;fill-rule:nonzero;stroke:none"
         d="m -1675.0426,4035.08 126.67,0 0,2.929 -126.67,0 0,-2.929 z" />
      <path
         id="path6637"
         style="fill:#3695a4;fill-opacity:1;fill-rule:nonzero;stroke:none"
         d="m -1675.0426,4027.0745 126.67,0 0,2.9397 -126.67,0 0,-2.9397 z" />
      <path
         id="path6639"
         style="fill:#3695a4;fill-opacity:1;fill-rule:nonzero;stroke:none"
         d="m -1675.0426,3998.3738 126.67,0 0,2.929 -126.67,0 0,-2.929 z" />
      <path
         id="path6641"
         style="fill:#3695a4;fill-opacity:1;fill-rule:nonzero;stroke:none"
         d="m -1675.0426,3990.6301 126.67,0 0,3.4701 -126.67,0 0,-3.4701 z" />
      <path
         id="path6643"
         style="fill:#3695a4;fill-opacity:1;fill-rule:nonzero;stroke:none"
         d="m -1675.0426,3982.112 126.67,0 0,2.929 -126.67,0 0,-2.929 z" />
      <path
         id="path6645"
         style="fill:#3695a4;fill-opacity:1;fill-rule:nonzero;stroke:none"
         d="m -1675.0426,3974.1011 126.67,0 0,2.9311 -126.67,0 0,-2.9311 z" />
      <path
         id="path6647"
         style="fill:#e44a41;fill-opacity:1;fill-rule:nonzero;stroke:none"
         d="m -1567.198,4176.9424 c 0,-23.8582 -19.3374,-43.2011 -43.1956,-43.2011 -23.8583,0 -43.2012,19.3429 -43.2012,43.2011 0,23.8582 19.3429,43.1957 43.2012,43.1957 23.8582,0 43.1956,-19.3375 43.1956,-43.1957" />
      <path
         id="path6649"
         style="fill:#f8d195;fill-opacity:1;fill-rule:nonzero;stroke:none"
         d="m -1381.2128,3963.6907 -52.6681,121.7888 -122.4541,0 c 2.634,-80.3109 76.3682,-78.3477 76.3682,-78.3477 l 17.7778,-59.2502 c -51.3538,-28.3027 -60.5699,-103.3621 -60.5699,-103.3621 0,0 -17.6851,-102.4295 47.9236,-164.5918 l 93.6225,0 0,283.763" />
      <path
         id="path6651"
         style="fill:#f8d195;fill-opacity:1;fill-rule:nonzero;stroke:none"
         d="m -1744.5287,4077.6703 c -6.6694,-11.2611 -21.2079,-14.9802 -32.469,-8.3217 l -29.7424,17.6196 c -11.261,6.664 -14.9857,21.2025 -8.3163,32.4636 l 4.0246,6.8003 c 6.6694,11.261 21.2079,14.9911 32.4744,8.3163 l 29.7369,-17.6088 c 11.2611,-6.6694 14.9857,-21.197 8.3163,-32.469 l -4.0245,-6.8003" />
      <path
         id="path6653"
         style="fill:#fbe9cd;fill-opacity:1;fill-rule:nonzero;stroke:none"
         d="m -1765.3058,4071.5735 c -3.3702,0 -6.7785,0.8671 -9.8814,2.7103 l -2.5958,1.5379 22.8167,39.1602 2.8739,-1.7015 c 9.227,-5.4696 12.2808,-17.3797 6.8166,-26.6121 l -3.2993,-5.5787 c -3.6264,-6.1187 -10.094,-9.5161 -16.7307,-9.5161" />
      <path
         id="path6655"
         style="fill:#f8d195;fill-opacity:1;fill-rule:nonzero;stroke:none"
         d="m -1744.5287,3999.3281 c -6.6694,-11.2557 -21.2079,-14.9857 -32.469,-8.3163 l -29.7424,17.6087 c -11.261,6.6694 -14.9857,21.2025 -8.3163,32.469 l 4.0246,6.7949 c 6.6694,11.2665 21.2079,14.9856 32.4744,8.3163 l 29.7369,-17.6088 c 11.2611,-6.6585 14.9857,-21.2025 8.3163,-32.4581 l -4.0245,-6.8057" />
      <path
         id="path6657"
         style="fill:#fbe9cd;fill-opacity:1;fill-rule:nonzero;stroke:none"
         d="m -1765.3058,3993.2204 c -3.3647,0 -6.773,0.878 -9.8814,2.7212 l -2.5958,1.5269 22.8167,39.1711 2.8739,-1.7069 c 9.227,-5.4642 12.2808,-17.3742 6.8166,-26.6012 l -3.2993,-5.5787 c -3.6264,-6.1241 -10.0886,-9.5324 -16.7307,-9.5324" />
      <path
         id="path6659"
         style="fill:#f8d195;fill-opacity:1;fill-rule:nonzero;stroke:none"
         d="m -1750.4346,3927.2789 c -5.4861,-9.2706 -17.4397,-12.319 -26.6994,-6.8384 l -24.4581,14.4731 c -9.2598,5.486 -12.3191,17.4397 -6.8385,26.7103 l 3.3047,5.5787 c 5.486,9.2598 17.4397,12.33 26.6994,6.8385 l 24.4581,-14.4786 c 9.2597,-5.4805 12.3245,-17.4396 6.8385,-26.6994 l -3.3047,-5.5842" />
      <path
         id="path6661"
         style="fill:#fbe9cd;fill-opacity:1;fill-rule:nonzero;stroke:none"
         d="m -1767.5199,3922.2619 c -2.7702,0 -5.5732,0.7198 -8.1254,2.2304 l -2.1377,1.2597 18.7594,32.2018 2.3613,-1.396 c 7.591,-4.499 10.0995,-14.2986 5.606,-21.8896 l -2.7103,-4.5753 c -2.9775,-5.0444 -8.2945,-7.831 -13.7533,-7.831" />
      <path
         id="path6663"
         style="fill:#fbe9cd;fill-opacity:1;fill-rule:nonzero;stroke:none"
         d="m -1526.489,4066.491 c -12.8098,0 -23.2093,7.8092 -23.2093,17.4506 0,0.5181 0.049,1.0307 0.1091,1.5379 l 46.2059,0 c 0.06,-0.5072 0.1036,-1.0198 0.1036,-1.5379 0,-9.6414 -10.3886,-17.4506 -23.2093,-17.4506" />
      <path
         id="path6665"
         style="fill:#182c3f;fill-opacity:1;fill-rule:nonzero;stroke:none"
         d="m -1652.8858,4189.3323 0,-28.4008 c 0,-10.6122 8.5998,-19.2011 19.2011,-19.2011 l 46.5767,0 c 10.6012,0 19.2011,8.5889 19.2011,19.2011 l 0,28.4008 -84.9789,0" />
      <path
         id="path6667"
         style="fill:#b5c0c6;fill-opacity:1;fill-rule:nonzero;stroke:none"
         d="m -1645.4148,4152.4625 c -1.107,0 -2.0014,0.8998 -2.0014,2.0013 l 0,26.9285 c 0,1.107 0.8944,2.0068 2.0014,2.0068 1.1016,0 2.0014,-0.8998 2.0014,-2.0068 l 0,-26.9285 c 0,-1.1015 -0.8998,-2.0013 -2.0014,-2.0013" />
      <path
         id="path6669"
         style="fill:#141617;fill-opacity:1;fill-rule:nonzero;stroke:none"
         d="m -1641.4175,4152.4625 c -1.107,0 -1.9959,0.8998 -1.9959,2.0013 l 0,26.9285 c 0,1.107 0.8889,2.0068 1.9959,2.0068 1.1016,0 2.0013,-0.8998 2.0013,-2.0068 l 0,-26.9285 c 0,-1.1015 -0.8997,-2.0013 -2.0013,-2.0013" />
      <path
         id="path6671"
         style="fill:#141617;fill-opacity:1;fill-rule:nonzero;stroke:none"
         d="m -1625.821,4152.4625 c -1.1016,0 -1.996,0.8998 -1.996,2.0013 l 0,26.9285 c 0,1.107 0.8944,2.0068 1.996,2.0068 1.107,0 2.0068,-0.8998 2.0068,-2.0068 l 0,-26.9285 c 0,-1.1015 -0.8998,-2.0013 -2.0068,-2.0013" />
      <path
         id="path6673"
         style="fill:#141617;fill-opacity:1;fill-rule:nonzero;stroke:none"
         d="m -1610.2137,4152.4625 c -1.107,0 -2.0013,0.8998 -2.0013,2.0013 l 0,26.9285 c 0,1.107 0.8943,2.0068 2.0013,2.0068 1.0961,0 1.9959,-0.8998 1.9959,-2.0068 l 0,-26.9285 c 0,-1.1015 -0.8998,-2.0013 -1.9959,-2.0013" />
      <path
         id="path6675"
         style="fill:#141617;fill-opacity:1;fill-rule:nonzero;stroke:none"
         d="m -1593.5538,4152.4625 c -1.1016,0 -1.9959,0.8998 -1.9959,2.0013 l 0,26.9285 c 0,1.107 0.8943,2.0068 1.9959,2.0068 1.107,0 2.0014,-0.8998 2.0014,-2.0068 l 0,-26.9285 c 0,-1.1015 -0.8944,-2.0013 -2.0014,-2.0013" />
      <path
         id="path6677"
         style="fill:#141617;fill-opacity:1;fill-rule:nonzero;stroke:none"
         d="m -1577.1666,4152.4625 c -1.107,0 -2.0014,0.8998 -2.0014,2.0013 l 0,26.9285 c 0,1.107 0.8944,2.0068 2.0014,2.0068 1.107,0 1.9959,-0.8998 1.9959,-2.0068 l 0,-26.9285 c 0,-1.1015 -0.8889,-2.0013 -1.9959,-2.0013" />
      <path
         id="path6679"
         style="fill:#b5c0c6;fill-opacity:1;fill-rule:nonzero;stroke:none"
         d="m -1629.8183,4152.4625 c -1.1016,0 -1.9959,0.8998 -1.9959,2.0013 l 0,26.9285 c 0,1.107 0.8943,2.0068 1.9959,2.0068 1.107,0 2.0013,-0.8998 2.0013,-2.0068 l 0,-26.9285 c 0,-1.1015 -0.8943,-2.0013 -2.0013,-2.0013" />
      <path
         id="path6681"
         style="fill:#b5c0c6;fill-opacity:1;fill-rule:nonzero;stroke:none"
         d="m -1614.2164,4152.4625 c -1.107,0 -2.0014,0.8998 -2.0014,2.0013 l 0,26.9285 c 0,1.107 0.8944,2.0068 2.0014,2.0068 1.107,0 2.0014,-0.8998 2.0014,-2.0068 l 0,-26.9285 c 0,-1.1015 -0.8944,-2.0013 -2.0014,-2.0013" />
      <path
         id="path6683"
         style="fill:#b5c0c6;fill-opacity:1;fill-rule:nonzero;stroke:none"
         d="m -1597.5511,4152.4625 c -1.1016,0 -1.9959,0.8998 -1.9959,2.0013 l 0,26.9285 c 0,1.107 0.8943,2.0068 1.9959,2.0068 1.107,0 2.0014,-0.8998 2.0014,-2.0068 l 0,-26.9285 c 0,-1.1015 -0.8944,-2.0013 -2.0014,-2.0013" />
      <path
         id="path6685"
         style="fill:#b5c0c6;fill-opacity:1;fill-rule:nonzero;stroke:none"
         d="m -1581.1693,4152.4625 c -1.1016,0 -1.996,0.8998 -1.996,2.0013 l 0,26.9285 c 0,1.107 0.8944,2.0068 1.996,2.0068 1.107,0 2.0013,-0.8998 2.0013,-2.0068 l 0,-26.9285 c 0,-1.1015 -0.8943,-2.0013 -2.0013,-2.0013" />
      <path
         id="path6687"
         style="fill:#23425c;fill-opacity:1;fill-rule:nonzero;stroke:none"
         d="m -1561.0139,4193.7822 c 0,-2.6939 -2.1759,-4.8643 -4.8589,-4.8643 l -89.0471,0 c -2.683,0 -4.8535,2.1704 -4.8535,4.8643 0,2.6667 2.1705,4.848 4.8535,4.848 l 89.0471,0 c 2.683,0 4.8589,-2.1813 4.8589,-4.848" />
      <path
         id="path6689"
         style="fill:#182c3f;fill-opacity:1;fill-rule:nonzero;stroke:none"
         d="m -1574.9907,4209.3023 c 0.3871,-1.9195 -0.8617,-3.79 -2.7758,-4.1827 l -63.8528,-12.8589 c -1.925,-0.3926 -3.7955,0.8617 -4.1827,2.7812 -0.3817,1.9305 0.8616,3.7901 2.7812,4.1773 l 63.8528,12.8643 c 1.9196,0.3872 3.7901,-0.8616 4.1773,-2.7812" />
      <path
         id="path6691"
         style="fill:#4aabb7;fill-opacity:1;fill-rule:nonzero;stroke:none"
         d="m -1024.3264,4332.0127 -242.7922,-146.4541 -150.975,296.3111 251.9866,128.3818 141.7806,-278.2388" />
      <path
         id="path6693"
         style="fill:#5fc7d8;fill-opacity:1;fill-rule:nonzero;stroke:none"
         d="m -1032.9099,4267.6691 -251.9865,-128.3873 -150.975,296.3111 251.9921,128.3873 150.9694,-296.3111" />
      <path
         id="path6695"
         style="fill:#3b939a;fill-opacity:1;fill-rule:nonzero;stroke:none"
         d="m -1163.7402,4605.5998 -45.5515,-41.1288 25.4124,-0.4908 135.2693,-265.4999 24.2836,33.5215 -139.4138,273.598" />
      <path
         id="path6697"
         style="fill:#3b939a;fill-opacity:1;fill-rule:nonzero;stroke:none"
         d="m -1418.0936,4481.8697 c 0,0 7.7765,-20.0791 -17.7778,-46.2768 l 44.8808,22.8493 -0.9652,18.1214 -26.1378,5.3061" />
      <path
         id="path6699"
         style="fill:#51bcc6;fill-opacity:1;fill-rule:nonzero;stroke:none"
         d="m -1391.9558,4476.5636 -43.9156,-40.9707 44.8808,22.8493 -0.9652,18.1214" />
      <path
         id="path6701"
         style="fill:#51bcc6;fill-opacity:1;fill-rule:nonzero;stroke:none"
         d="m -1209.2917,4564.471 5.4424,-10.6667 19.97,10.1759 -25.4124,0.4908" />
      <path
         id="path6703"
         style="fill:#357181;fill-opacity:1;fill-rule:nonzero;stroke:none"
         d="m -1342.5488,4426.873 c -4.4227,0 -8,3.5774 -8,8 0,4.4172 3.5773,8 8,8 4.4226,0 8.0109,-3.5828 8.0109,-8 0,-4.4226 -3.5883,-8 -8.0109,-8" />
      <path
         id="path6705"
         style="fill:#357181;fill-opacity:1;fill-rule:nonzero;stroke:none"
         d="m -1234.3879,4484.2037 c -4.4226,0 -8,3.5883 -8,7.9945 0,4.4227 3.5774,8.0055 8,8.0055 4.4172,0 8,-3.5828 8,-8.0055 0,-4.4062 -3.5828,-7.9945 -8,-7.9945" />
      <path
         id="path6707"
         style="fill:#f2f2f2;fill-opacity:1;fill-rule:nonzero;stroke:none"
         d="m -1231.1377,4490.0824 c 0,1.7886 -1.4506,3.2501 -3.2502,3.2501 -1.7941,0 -3.2501,-1.4615 -3.2501,-3.2501 0,-0.1582 0.027,-0.3 0.049,-0.4527 0.049,-38.2604 -8.7416,-62.1568 -26.1486,-71.0075 -28.4499,-14.484 -71.9346,15.3074 -76.4936,18.5303 -0.5889,0.5999 -1.4069,0.9707 -2.3176,0.9707 -1.7887,0 -3.2393,-1.4506 -3.2393,-3.2502 0,-1.2597 0.7199,-2.3394 1.7614,-2.8848 4.0464,-2.8957 34.056,-23.7382 62.3968,-23.7382 7.1875,0 14.2713,1.3524 20.7826,4.6517 19.73,10.0286 29.6987,35.8173 29.6551,76.6571 0.022,0.1745 0.055,0.3436 0.055,0.5236" />
      <path
         id="path6709"
         style="fill:#182c3f;fill-opacity:1;fill-rule:nonzero;stroke:none"
         d="m -2081.3573,4525.3489 -27.8948,-100.9953 c -10.4169,-37.7042 11.7094,-76.7226 49.4206,-87.1439 l 165.64,-45.7478 c 37.7047,-10.4104 76.7193,11.7192 87.1406,49.4288 l 27.8882,100.9898 -302.1946,83.4684" />
      <path
         id="path6711"
         style="fill:#b5c0c6;fill-opacity:1;fill-rule:nonzero;stroke:none"
         d="m -2089.0454,4386.6385 c -0.6516,0 -1.3142,0.093 -1.9746,0.2727 -3.9237,1.0797 -6.2288,5.1479 -5.1463,9.0797 l 26.4567,95.782 c 0.9036,3.2665 3.8708,5.4206 7.1046,5.4206 0.6538,0 1.3142,-0.093 1.9725,-0.2727 3.9302,-1.0907 6.2353,-5.1479 5.1468,-9.0798 l -26.4551,-95.7819 c -0.9031,-3.2774 -3.8664,-5.4206 -7.1046,-5.4206" />
      <path
         id="path6713"
         style="fill:#141617;fill-opacity:1;fill-rule:nonzero;stroke:none"
         d="m -2074.8199,4382.7121 c -0.6516,0 -1.3164,0.087 -1.9746,0.2672 -3.9237,1.0798 -6.2288,5.1534 -5.1463,9.0798 l 26.4551,95.7819 c 0.9052,3.2666 3.8724,5.4206 7.1062,5.4206 0.6517,0 1.3142,-0.087 1.9725,-0.2726 3.9302,-1.0798 6.2353,-5.148 5.1528,-9.0798 l -26.4611,-95.7765 c -0.9053,-3.272 -3.8708,-5.4206 -7.1046,-5.4206" />
      <path
         id="path6715"
         style="fill:#141617;fill-opacity:1;fill-rule:nonzero;stroke:none"
         d="m -2019.3493,4367.3883 c -0.6495,0 -1.3078,0.093 -1.9638,0.2727 -3.9302,1.0798 -6.2309,5.1534 -5.149,9.0689 l 0,0 26.4551,95.7928 0,0 c 0.9031,3.2665 3.8768,5.4206 7.1149,5.4206 0.6495,0 1.3099,-0.093 1.9659,-0.2727 3.9281,-1.0906 6.231,-5.1479 5.1447,-9.0797 l -26.4595,-95.7765 c -0.903,-3.2829 -3.8724,-5.4261 -7.1083,-5.4261" />
      <path
         id="path6717"
         style="fill:#141617;fill-opacity:1;fill-rule:nonzero;stroke:none"
         d="m -1963.8723,4352.0591 c -0.65,0 -1.3082,0.093 -1.9643,0.2726 -3.9302,1.0907 -6.2353,5.148 -5.1446,9.0689 l 0,0 26.4529,95.7928 0,0 c 0.9036,3.2775 3.8686,5.4152 7.1046,5.4152 0.6516,0 1.312,-0.076 1.9724,-0.2672 3.9259,-1.0798 6.231,-5.148 5.1485,-9.0689 l -26.4589,-95.7928 c -0.9014,-3.2666 -3.8751,-5.4206 -7.1106,-5.4206" />
      <path
         id="path6719"
         style="fill:#141617;fill-opacity:1;fill-rule:nonzero;stroke:none"
         d="m -1904.5953,4335.6882 c -0.6517,0 -1.3143,0.093 -1.9725,0.2727 -3.9264,1.0798 -6.231,5.1479 -5.149,9.0798 l 0,0 26.4594,95.7928 0,0 c 0.9031,3.2556 3.8686,5.4097 7.1041,5.4097 0.6516,0 1.3142,-0.093 1.9702,-0.2727 3.9302,-1.0797 6.2354,-5.137 5.1491,-9.0797 l -26.4573,-95.782 c -0.9009,-3.2665 -3.8686,-5.4206 -7.104,-5.4206" />
      <path
         id="path6721"
         style="fill:#141617;fill-opacity:1;fill-rule:nonzero;stroke:none"
         d="m -1846.3409,4319.601 c -0.6495,0 -1.3099,0.087 -1.9659,0.2726 -3.9264,1.0853 -6.231,5.148 -5.149,9.0689 l 0,0 26.4567,95.7874 0,0 c 0.9052,3.2829 3.8718,5.4206 7.1111,5.4206 0.649,0 1.3088,-0.087 1.9687,-0.2672 3.9263,-1.0907 6.2331,-5.1534 5.1479,-9.0798 l -26.4568,-95.7819 c -0.9052,-3.272 -3.8745,-5.4206 -7.1127,-5.4206" />
      <path
         id="path6723"
         style="fill:#b5c0c6;fill-opacity:1;fill-rule:nonzero;stroke:none"
         d="m -2033.5792,4371.3202 c -0.6473,0 -1.3055,0.082 -1.9616,0.2617 -3.9258,1.0907 -6.2287,5.148 -5.1468,9.0798 l 26.4551,95.7819 c 0.9052,3.2775 3.8708,5.4152 7.1062,5.4152 0.6522,0 1.3142,-0.076 1.9725,-0.2672 3.9302,-1.0798 6.2309,-5.148 5.1468,-9.0689 l 0,0 -26.4551,-95.7928 0,0 c -0.9009,-3.2666 -3.8768,-5.4097 -7.1171,-5.4097" />
      <path
         id="path6725"
         style="fill:#b5c0c6;fill-opacity:1;fill-rule:nonzero;stroke:none"
         d="m -1978.0918,4355.9909 c -0.6517,0 -1.3121,0.093 -1.9703,0.2727 -3.928,1.0743 -6.2331,5.137 -5.1441,9.0797 l 26.4524,95.7874 c 0.9014,3.2611 3.8686,5.4097 7.1067,5.4097 0.6517,0 1.3143,-0.087 1.9747,-0.2672 3.9236,-1.0798 6.2288,-5.1425 5.1441,-9.0798 l 0,0 -26.4529,-95.7928 0,0 c -0.9074,-3.2611 -3.8768,-5.4097 -7.1106,-5.4097" />
      <path
         id="path6727"
         style="fill:#b5c0c6;fill-opacity:1;fill-rule:nonzero;stroke:none"
         d="m -1918.8274,4339.6201 c -0.6495,0 -1.3077,0.093 -1.9637,0.2726 -3.9286,1.0853 -6.2332,5.148 -5.149,9.0798 l 26.455,95.7765 c 0.9031,3.2829 3.8708,5.4206 7.1041,5.4206 0.6538,0 1.3142,-0.087 1.9746,-0.2672 3.928,-1.0798 6.2353,-5.1534 5.149,-9.0689 l 0,0 -26.4594,-95.7928 0,0 c -0.9009,-3.272 -3.8746,-5.4206 -7.1106,-5.4206" />
      <path
         id="path6729"
         style="fill:#b5c0c6;fill-opacity:1;fill-rule:nonzero;stroke:none"
         d="m -1860.5599,4323.5328 c -0.6516,0 -1.3142,0.087 -1.9724,0.2672 -3.9264,1.0798 -6.231,5.1425 -5.1469,9.0798 l 26.4551,95.7819 c 0.9053,3.272 3.8708,5.4206 7.1041,5.4206 0.6533,0 1.3131,-0.093 1.973,-0.2727 3.9318,-1.0797 6.2386,-5.1479 5.1479,-9.0797 l 0,0 -26.4567,-95.7874 0,0 c -0.9009,-3.2611 -3.8686,-5.4097 -7.1041,-5.4097" />
      <path
         id="path6731"
         style="fill:#23425c;fill-opacity:1;fill-rule:nonzero;stroke:none"
         d="m -1750.2874,4450.9221 c -2.6339,-9.5324 -12.4935,-15.1111 -22.0205,-12.4826 l -316.6988,87.4711 c -9.5285,2.6339 -15.1204,12.4881 -12.4897,22.0205 2.6334,9.5324 12.4919,15.122 22.0199,12.488 l 316.701,-87.4765 c 9.527,-2.6339 15.1166,-12.4826 12.4881,-22.0205" />
      <path
         id="path6733"
         style="fill:#182c3f;fill-opacity:1;fill-rule:nonzero;stroke:none"
         d="m -1784.725,4519.8792 c -0.5072,-7.2092 -6.784,-12.6353 -13.9878,-12.1281 l -239.7062,16.9816 c -7.2126,0.5017 -12.649,6.7675 -12.1336,13.9768 0.5115,7.2093 6.7719,12.6517 13.9828,12.1445 l 239.7111,-16.9816 c 7.2093,-0.518 12.6408,-6.7784 12.1337,-13.9932" />
      <path
         id="path6735"
         style="fill:#eceae9;fill-opacity:1;fill-rule:nonzero;stroke:none"
         d="m -1508.035,4292.4435 c 0,-4.03 -3.272,-7.302 -7.302,-7.302 l -192.2946,0 c -4.03,0 -7.302,3.272 -7.302,7.302 l 0,3.79 c 0,4.03 3.272,7.2966 7.302,7.2966 l 192.2946,0 c 4.03,0 7.302,-3.2666 7.302,-7.2966 l 0,-3.79" />
      <path
         id="path6737"
         style="fill:#3b9ab1;fill-opacity:1;fill-rule:nonzero;stroke:none"
         d="m -1515.337,4303.5301 -35.5228,0 0,-18.3886 35.5228,0 c 4.03,0 7.302,3.272 7.302,7.302 l 0,3.79 c 0,4.03 -3.272,7.2966 -7.302,7.2966" />
      <path
         id="path6739"
         style="fill:#39393a;fill-opacity:1;fill-rule:nonzero;stroke:none"
         d="m -1702.5927,4296.6916 c -0.1473,-0.169 -0.3163,-0.349 -0.5072,-0.5508 -0.1909,-0.2017 -0.3872,-0.409 -0.5999,-0.6216 -0.2017,-0.2073 -0.409,-0.4199 -0.6107,-0.6163 -0.2018,-0.2126 -0.3981,-0.4035 -0.5781,-0.5835 0.2072,-0.1363 0.4308,-0.3163 0.6599,-0.5398 0.2399,-0.2073 0.4689,-0.4309 0.6925,-0.6763 0.2182,-0.2399 0.4308,-0.4908 0.6326,-0.7416 0.1909,-0.2618 0.3599,-0.5017 0.4908,-0.7308 l -0.8343,0 c -0.1473,0.2291 -0.3109,0.4581 -0.5072,0.6872 -0.1854,0.2345 -0.3872,0.4526 -0.5999,0.6707 -0.2126,0.2127 -0.4253,0.4036 -0.6435,0.5835 -0.2126,0.18 -0.4253,0.3381 -0.6325,0.469 l 0,-2.4104 -0.7035,0 0,5.0607 0.7035,0 0,-2.2413 c 0.1745,0.1691 0.3599,0.349 0.5671,0.5508 0.2018,0.1963 0.4035,0.3981 0.6053,0.6108 0.1963,0.2017 0.3872,0.3981 0.5672,0.5889 0.1745,0.1909 0.3217,0.349 0.4471,0.4908 l 0.8508,0" />
      <path
         id="path6741"
         style="fill:#39393a;fill-opacity:1;fill-rule:nonzero;stroke:none"
         d="m -1701.7475,4291.6309 0,5.0607 3.092,0 0,-0.5998 -2.3776,0 0,-1.5106 2.1159,0 0,-0.589 -2.1159,0 0,-1.7505 2.5576,0 0,-0.6108 -3.272,0" />
      <path
         id="path6743"
         style="fill:#39393a;fill-opacity:1;fill-rule:nonzero;stroke:none"
         d="m -1696.376,4291.6309 0,2.0287 c -0.3272,0.5235 -0.6489,1.0307 -0.9434,1.5378 -0.2999,0.5126 -0.578,1.0034 -0.8398,1.4942 l 0.8344,0 c 0.1799,-0.3926 0.3871,-0.8016 0.6216,-1.2215 0.2236,-0.409 0.4636,-0.7962 0.7035,-1.1779 0.24,0.3817 0.4744,0.7689 0.7035,1.1779 0.229,0.4199 0.4362,0.8289 0.6271,1.2215 l 0.7907,0 c -0.2672,-0.4908 -0.5507,-0.9816 -0.8452,-1.4833 -0.2945,-0.5071 -0.6053,-1.0197 -0.938,-1.5269 l 0,-2.0505 -0.7144,0" />
      <path
         id="path6745"
         style="fill:#39393a;fill-opacity:1;fill-rule:nonzero;stroke:none"
         d="m -1688.7577,4295.0611 c -0.2018,-0.649 -0.4145,-1.2488 -0.6217,-1.8105 -0.2072,-0.5617 -0.4199,-1.0907 -0.6271,-1.6197 l -0.7089,0 c -0.2618,0.7526 -0.4854,1.5324 -0.6817,2.3613 -0.1963,0.8289 -0.3817,1.7287 -0.5508,2.6994 l 0.7417,0 c 0.071,-0.3817 0.1418,-0.7634 0.2126,-1.1397 0.076,-0.3818 0.1527,-0.7526 0.2291,-1.1016 0.076,-0.3599 0.1581,-0.698 0.2345,-1.0307 0.076,-0.3272 0.1581,-0.6271 0.2399,-0.9052 0.1909,0.5181 0.3981,1.0797 0.6217,1.6851 0.2127,0.6107 0.4199,1.2433 0.6108,1.8923 l 0.6162,0 c 0.1854,-0.649 0.3981,-1.2816 0.6162,-1.8923 0.2236,-0.6054 0.4363,-1.167 0.6326,-1.6851 0.071,0.2781 0.1527,0.578 0.229,0.8943 0.076,0.3327 0.1527,0.6708 0.2345,1.0307 0.071,0.3599 0.1473,0.7307 0.2182,1.1125 0.076,0.3763 0.1418,0.758 0.2126,1.1397 l 0.7199,0 c -0.1691,-0.9707 -0.3599,-1.8705 -0.5563,-2.6994 -0.1963,-0.8289 -0.4199,-1.6087 -0.6762,-2.3613 l -0.7089,0 c -0.2127,0.529 -0.4254,1.058 -0.6217,1.6197 -0.2072,0.5617 -0.4144,1.1615 -0.6162,1.8105" />
      <path
         id="path6747"
         style="fill:#39393a;fill-opacity:1;fill-rule:nonzero;stroke:none"
         d="m -1684.3187,4294.1722 c 0,-0.3108 0.038,-0.589 0.1145,-0.8398 0.082,-0.2509 0.1909,-0.469 0.3272,-0.6435 0.1527,-0.1745 0.3218,-0.3054 0.529,-0.409 0.2127,-0.087 0.4417,-0.1363 0.7035,-0.1363 0.2563,0 0.4799,0.049 0.6871,0.1363 0.2072,0.1036 0.3817,0.2345 0.5235,0.409 0.1418,0.1745 0.2563,0.3926 0.3326,0.6435 0.076,0.2508 0.12,0.529 0.12,0.8398 0,0.2999 -0.044,0.578 -0.12,0.8289 -0.076,0.2508 -0.1908,0.469 -0.3326,0.638 -0.1418,0.1745 -0.3163,0.3109 -0.5235,0.409 -0.2072,0.093 -0.4308,0.1364 -0.6871,0.1364 -0.2618,0 -0.4908,-0.044 -0.7035,-0.1364 -0.2072,-0.098 -0.3763,-0.2345 -0.529,-0.409 -0.1363,-0.169 -0.2454,-0.3872 -0.3272,-0.638 -0.076,-0.2509 -0.1145,-0.529 -0.1145,-0.8289 z m -0.7471,0 c 0,0.4308 0.065,0.8071 0.1963,1.1397 0.1254,0.3272 0.2999,0.6108 0.5235,0.8289 0.2236,0.2182 0.4799,0.3927 0.7744,0.5017 0.2945,0.1091 0.6053,0.1691 0.938,0.1691 0.3272,0 0.638,-0.06 0.9216,-0.1691 0.2945,-0.109 0.5453,-0.2835 0.7634,-0.5017 0.2182,-0.2181 0.3927,-0.5017 0.5236,-0.8289 0.1308,-0.3326 0.1908,-0.7089 0.1908,-1.1397 0,-0.4417 -0.06,-0.8235 -0.1908,-1.1507 -0.1309,-0.3326 -0.3054,-0.6107 -0.5236,-0.8289 -0.2181,-0.2235 -0.4689,-0.3926 -0.7634,-0.5017 -0.2836,-0.109 -0.5944,-0.169 -0.9216,-0.169 -0.3327,0 -0.6435,0.06 -0.938,0.169 -0.2945,0.1091 -0.5508,0.2782 -0.7744,0.5017 -0.2236,0.2182 -0.3981,0.4963 -0.5235,0.8289 -0.1309,0.3272 -0.1963,0.709 -0.1963,1.1507" />
      <path
         id="path6749"
         style="fill:#39393a;fill-opacity:1;fill-rule:nonzero;stroke:none"
         d="m -1677.7802,4296.119 c -0.2999,0 -0.5344,-0.01 -0.6926,-0.016 l 0,-1.9141 0.5072,0 c 0.2399,0 0.4581,0.022 0.6544,0.044 0.1909,0.027 0.3599,0.071 0.4908,0.1418 0.1363,0.065 0.2399,0.1581 0.3108,0.289 0.071,0.12 0.1091,0.289 0.1091,0.4853 0,0.1909 -0.038,0.3545 -0.1091,0.4745 -0.071,0.1309 -0.1745,0.229 -0.2999,0.2999 -0.1145,0.076 -0.2672,0.1254 -0.4363,0.1582 -0.1636,0.033 -0.3435,0.038 -0.5344,0.038 z m 1.0743,-2.3667 c 0.076,-0.1036 0.1745,-0.2236 0.2945,-0.3817 0.12,-0.1691 0.2454,-0.3381 0.3708,-0.529 0.1254,-0.1909 0.2509,-0.3872 0.3708,-0.5999 0.1255,-0.2127 0.2345,-0.409 0.3218,-0.6108 l -0.7744,0 c -0.098,0.1909 -0.2018,0.3709 -0.3217,0.5617 -0.1091,0.1909 -0.2291,0.3654 -0.3436,0.5399 -0.1145,0.18 -0.2345,0.3381 -0.349,0.4908 -0.1091,0.1473 -0.2127,0.289 -0.3054,0.3981 l -0.1963,-0.011 -0.8344,0 0,-1.9796 -0.7089,0 0,4.9898 c 0.2018,0.049 0.4199,0.082 0.6708,0.098 0.2454,0.011 0.469,0.022 0.6707,0.022 0.7144,0 1.2543,-0.1309 1.6251,-0.3981 0.3708,-0.2727 0.5563,-0.6598 0.5563,-1.1997 0,-0.3436 -0.087,-0.6217 -0.2618,-0.8616 -0.18,-0.24 -0.4417,-0.409 -0.7853,-0.529" />
      <path
         id="path6751"
         style="fill:#39393a;fill-opacity:1;fill-rule:nonzero;stroke:none"
         d="m -1673.1885,4292.209 c 0.6708,0 1.1725,0.1745 1.5051,0.5126 0.3272,0.349 0.4963,0.8289 0.4963,1.4506 0,0.6108 -0.1691,1.0961 -0.4963,1.4288 -0.3326,0.349 -0.8343,0.518 -1.5051,0.518 -0.2018,0 -0.3545,0 -0.4635,-0.01 -0.1091,0 -0.1854,0 -0.2291,-0.011 l 0,-3.8719 c 0.044,0 0.12,-0.011 0.2291,-0.022 0.109,0 0.2617,0 0.4635,0 z m 2.7539,1.9632 c 0,-0.4526 -0.071,-0.8235 -0.2072,-1.1507 -0.1363,-0.3326 -0.3272,-0.5889 -0.5781,-0.8016 -0.2454,-0.2181 -0.5453,-0.3708 -0.8888,-0.4799 -0.3436,-0.098 -0.7253,-0.1472 -1.1398,-0.1472 -0.2018,0 -0.4308,0 -0.6762,0.016 -0.2454,0.022 -0.469,0.06 -0.6653,0.1036 l 0,4.908 c 0.1963,0.049 0.4199,0.082 0.6653,0.098 0.2454,0.011 0.4744,0.022 0.6762,0.022 0.4145,0 0.7962,-0.049 1.1398,-0.1581 0.3435,-0.1037 0.6434,-0.2618 0.8888,-0.469 0.2509,-0.2127 0.4418,-0.4854 0.5781,-0.8017 0.1363,-0.3217 0.2072,-0.7089 0.2072,-1.1397" />
      <path
         id="path6753"
         style="fill:#39393a;fill-opacity:1;fill-rule:nonzero;stroke:none"
         d="m -1668.8695,4292.0236 c 0,-0.1309 -0.044,-0.24 -0.1254,-0.3436 -0.093,-0.087 -0.2127,-0.1418 -0.3599,-0.1418 -0.1473,0 -0.2727,0.055 -0.3599,0.1418 -0.087,0.1036 -0.1309,0.2127 -0.1309,0.3436 0,0.1363 0.044,0.2454 0.1309,0.349 0.087,0.098 0.2126,0.1418 0.3599,0.1418 0.1472,0 0.2672,-0.044 0.3599,-0.1418 0.082,-0.1036 0.1254,-0.2127 0.1254,-0.349" />
      <path
         id="path6755"
         style="fill:#39393a;fill-opacity:1;fill-rule:nonzero;stroke:none"
         d="m -1667.0753,4292.0236 c 0,-0.1309 -0.044,-0.24 -0.1309,-0.3436 -0.087,-0.087 -0.2018,-0.1418 -0.3545,-0.1418 -0.1527,0 -0.2726,0.055 -0.3599,0.1418 -0.087,0.1036 -0.1309,0.2127 -0.1309,0.3436 0,0.1363 0.044,0.2454 0.1309,0.349 0.087,0.098 0.2072,0.1418 0.3599,0.1418 0.1527,0 0.2672,-0.044 0.3545,-0.1418 0.087,-0.1036 0.1309,-0.2127 0.1309,-0.349" />
      <path
         id="path6757"
         style="fill:#39393a;fill-opacity:1;fill-rule:nonzero;stroke:none"
         d="m -1665.2757,4292.0236 c 0,-0.1309 -0.044,-0.24 -0.1309,-0.3436 -0.087,-0.087 -0.2073,-0.1418 -0.3599,-0.1418 -0.1473,0 -0.2727,0.055 -0.3545,0.1418 -0.093,0.1036 -0.1309,0.2127 -0.1309,0.3436 0,0.1363 0.038,0.2454 0.1309,0.349 0.082,0.098 0.2072,0.1418 0.3545,0.1418 0.1526,0 0.2726,-0.044 0.3599,-0.1418 0.087,-0.1036 0.1309,-0.2127 0.1309,-0.349" />
      <path
         id="path6759"
         style="fill:#e3e2e0;fill-opacity:1;fill-rule:nonzero;stroke:none"
         d="m -1543.4924,4296.9916 0,-0.6108 -1.5978,0 0,-4.439 -0.7035,0 0,4.439 -1.5924,0 0,0.6108 3.8937,0" />
      <path
         id="path6761"
         style="fill:#e3e2e0;fill-opacity:1;fill-rule:nonzero;stroke:none"
         d="m -1541.3384,4291.9418 0,2.0177 c -0.3326,0.529 -0.6489,1.0416 -0.9434,1.5542 -0.2945,0.4963 -0.578,0.998 -0.8398,1.4779 l 0.8289,0 c 0.1854,-0.3872 0.3981,-0.8017 0.6217,-1.2107 0.229,-0.409 0.469,-0.8071 0.7089,-1.1779 0.2345,0.3708 0.469,0.7689 0.7035,1.1779 0.2236,0.409 0.4362,0.8235 0.6271,1.2107 l 0.7853,0 c -0.2672,-0.4799 -0.5399,-0.9816 -0.8398,-1.4779 -0.2945,-0.5017 -0.6108,-1.0143 -0.9434,-1.5324 l 0,-2.0395 -0.709,0" />
      <path
         id="path6763"
         style="fill:#e3e2e0;fill-opacity:1;fill-rule:nonzero;stroke:none"
         d="m -1536.774,4296.419 c -0.3053,0 -0.5344,0 -0.6925,-0.016 l 0,-1.9796 0.5344,0 c 0.2399,0 0.4581,0.01 0.6544,0.049 0.1963,0.027 0.3599,0.076 0.4963,0.1582 0.1308,0.071 0.2344,0.169 0.3053,0.2999 0.076,0.1418 0.1146,0.2999 0.1146,0.5126 0,0.1963 -0.038,0.349 -0.1146,0.4799 -0.076,0.1254 -0.1799,0.229 -0.3053,0.2999 -0.1309,0.076 -0.2836,0.1255 -0.4472,0.1582 -0.1745,0.027 -0.3545,0.038 -0.5453,0.038 m -0.06,0.6216 c 0.7143,0 1.2597,-0.1308 1.6414,-0.3981 0.3817,-0.2726 0.5726,-0.6707 0.5726,-1.1997 0,-0.2999 -0.049,-0.5508 -0.1581,-0.7525 -0.1037,-0.2073 -0.2509,-0.3763 -0.4472,-0.5072 -0.2018,-0.1309 -0.4363,-0.2236 -0.7199,-0.2836 -0.2835,-0.06 -0.6053,-0.076 -0.9543,-0.076 l -0.5671,0 0,-1.8814 -0.709,0 0,4.9789 c 0.2018,0.049 0.4254,0.093 0.6708,0.098 0.2454,0.022 0.469,0.022 0.6708,0.022" />
      <path
         id="path6765"
         style="fill:#e3e2e0;fill-opacity:1;fill-rule:nonzero;stroke:none"
         d="m -1533.7365,4291.9418 0,5.0498 3.0866,0 0,-0.5999 -2.3776,0 0,-1.4997 2.1159,0 0,-0.5889 -2.1159,0 0,-1.7614 2.563,0 0,-0.5999 -3.272,0" />
      <path
         id="path6767"
         style="fill:#e3e2e0;fill-opacity:1;fill-rule:nonzero;stroke:none"
         d="m -1524.504,4296.9916 0,-0.6108 -1.5924,0 0,-4.439 -0.7034,0 0,4.439 -1.5979,0 0,0.6108 3.8937,0" />
      <path
         id="path6769"
         style="fill:#e3e2e0;fill-opacity:1;fill-rule:nonzero;stroke:none"
         d="m -1523.7569,4291.9418 0,5.0498 3.0866,0 0,-0.5999 -2.3831,0 0,-1.4997 2.1213,0 0,-0.5889 -2.1213,0 0,-1.7614 2.563,0 0,-0.5999 -3.2665,0" />
      <path
         id="path6771"
         style="fill:#e3e2e0;fill-opacity:1;fill-rule:nonzero;stroke:none"
         d="m -1516.5531,4291.9418 c -0.076,0.1418 -0.1581,0.3108 -0.2617,0.4799 -0.1036,0.1799 -0.2182,0.3708 -0.3381,0.5562 -0.1255,0.1963 -0.2454,0.3817 -0.3763,0.5835 -0.1309,0.1909 -0.2618,0.3708 -0.3818,0.5399 -0.1254,-0.1691 -0.2508,-0.349 -0.3817,-0.5399 -0.1309,-0.2018 -0.2563,-0.3872 -0.3763,-0.5835 -0.1199,-0.1854 -0.229,-0.3763 -0.3326,-0.5562 -0.1091,-0.1691 -0.1909,-0.3381 -0.2727,-0.4799 l -0.7798,0 c 0.2236,0.4199 0.4799,0.8616 0.7689,1.2979 0.289,0.4526 0.5944,0.8998 0.9216,1.3688 l -1.6196,2.3831 0.818,0 1.2488,-1.8814 1.2324,1.8814 0.8071,0 -1.5869,-2.3613 c 0.3272,-0.4581 0.6435,-0.9325 0.9325,-1.3797 0.2891,-0.4417 0.5508,-0.878 0.7744,-1.3088 l -0.7962,0" />
      <path
         id="path6773"
         style="fill:#e3e2e0;fill-opacity:1;fill-rule:nonzero;stroke:none"
         d="m -1511.5142,4296.9916 0,-0.6108 -1.5869,0 0,-4.439 -0.709,0 0,4.439 -1.5869,0 0,0.6108 3.8828,0" />
      <path
         id="path6775"
         style="fill:#4eb1bf;fill-opacity:1;fill-rule:nonzero;stroke:none"
         d="m -1513.7337,4298.9111 -33.6851,0 c -0.6271,0 -1.1398,0.5017 -1.1398,1.1398 0,0.6325 0.5127,1.1397 1.1398,1.1397 l 33.6851,0 c 0.6271,0 1.1452,-0.5072 1.1452,-1.1397 0,-0.6381 -0.5181,-1.1398 -1.1452,-1.1398" />
      <path
         id="path6777"
         style="fill:#fabb12;fill-opacity:1;fill-rule:nonzero;stroke:none"
         d="m -1650.4809,4350.3795 c -2.454,5.6823 -5.9659,10.5248 -10.5249,14.533 -4.5644,4.0082 -10.0777,7.5201 -16.5344,10.5304 -6.4622,2.9993 -13.8133,6.0586 -22.0478,9.1779 -6.2386,2.2304 -11.5883,4.3408 -16.0382,6.3531 -4.4553,1.9959 -8.1854,4.1663 -11.1902,6.5167 -3.0102,2.3286 -5.2351,4.9407 -6.6803,7.8419 -1.456,2.8902 -2.1758,6.2276 -2.1758,10.0286 0,7.3511 3.2283,12.7389 9.6905,16.2018 6.4567,3.4465 14.0314,5.1806 22.7185,5.1806 10.0177,0 18.5903,-0.9543 25.7233,-2.8411 7.122,-1.9033 12.3572,-3.7301 15.7,-5.5133 l 5.6769,26.7212 c -1.7832,0.6707 -4.2917,1.4506 -7.5146,2.3394 -3.2338,0.8835 -6.9639,1.7233 -11.1902,2.5031 -4.2372,0.7798 -8.8017,1.4451 -13.6987,2.0068 -2.8739,0.3218 -5.7424,0.5399 -8.6108,0.6817 l 0,27.8773 -21.8623,0 0,-28.8371 c -12.3191,-1.8432 -22.5495,-5.9714 -30.6585,-12.4226 -11.3647,-9.0089 -17.0416,-21.2079 -17.0416,-36.5808 0,-7.7983 1.336,-14.3586 4.0082,-19.7083 2.6775,-5.3388 6.2331,-9.9087 10.6939,-13.6878 4.4499,-3.79 9.7341,-7.0838 15.8691,-9.8596 6.1241,-2.7921 12.5208,-5.5133 19.2066,-8.1799 13.8023,-5.5788 23.7164,-10.5795 29.7314,-15.0403 6.015,-4.4608 9.0198,-10.4594 9.0198,-18.0395 0,-7.3511 -3.0648,-12.6899 -9.1834,-16.0328 -6.1349,-3.3374 -15.5419,-5.0116 -28.2318,-5.0116 -12.9188,0 -23.2747,1.3361 -31.0675,4.0137 -7.7982,2.6667 -13.4805,4.668 -17.0361,6.0095 l -5.6824,-26.7212 c 3.1139,-1.3415 9.0198,-3.2992 17.7069,-5.8514 8.3763,-2.4649 19.8937,-3.7355 34.4868,-3.8282 l 0,-28.619 21.8623,0 0,29.9823 c 12.4826,1.8269 22.7185,5.4751 30.6749,10.9884 11.91,8.2291 17.8759,20.3681 17.8759,36.4063 0,8.2345 -1.227,15.2039 -3.6755,20.8808" />
      <path
         id="path6779"
         style="fill:#fabb12;fill-opacity:1;fill-rule:nonzero;stroke:none"
         d="m -1487.9941,4493.7306 c -1.636,3.7901 -3.9809,7.0184 -7.0239,9.7124 -3.0538,2.6666 -6.7402,5.017 -11.0484,7.0184 -4.319,2.0122 -9.227,4.0572 -14.7294,6.1404 -4.1663,1.4888 -7.7382,2.9012 -10.7103,4.2372 -2.9775,1.3415 -5.4696,2.7921 -7.4764,4.3518 -2.0069,1.5596 -3.4956,3.3101 -4.4663,5.2515 -0.9652,1.9305 -1.4451,4.1554 -1.4451,6.6912 0,4.908 2.154,8.5072 6.4676,10.8248 4.3136,2.3013 9.3742,3.452 15.1766,3.452 6.6912,0 12.4171,-0.6272 17.1833,-1.8923 4.7608,-1.2652 8.2563,-2.4976 10.4868,-3.6865 l 3.7955,17.8487 c -1.1943,0.4527 -2.8685,0.9707 -5.0225,1.5706 -2.1596,0.5889 -4.6517,1.1506 -7.4765,1.6687 -2.8248,0.5235 -5.8787,0.9707 -9.1507,1.3415 -1.9141,0.2181 -3.8337,0.3708 -5.7478,0.4526 l 0,18.6285 -14.6094,0 0,-19.272 c -8.229,-1.227 -15.0566,-3.9918 -20.4826,-8.289 -7.5801,-6.0204 -11.3756,-14.1677 -11.3756,-24.4417 0,-5.197 0.8943,-9.5869 2.6775,-13.1589 1.7887,-3.5719 4.1609,-6.6203 7.1384,-9.1506 2.9775,-2.5304 6.5113,-4.7171 10.6013,-6.5876 4.0899,-1.8596 8.3708,-3.6701 12.8316,-5.4588 9.2216,-3.7191 15.8419,-7.0729 19.861,-10.0395 4.019,-2.983 6.0259,-7.0021 6.0259,-12.0518 0,-4.9135 -2.0505,-8.4799 -6.135,-10.7103 -4.0954,-2.2413 -10.3777,-3.3484 -18.8576,-3.3484 -8.6325,0 -15.5473,0.8889 -20.7498,2.6776 -5.2134,1.7778 -9.0089,3.1193 -11.3865,4.0082 l -3.7901,-17.8487 c 2.0778,-0.8889 6.0205,-2.1868 11.8283,-3.91 5.5896,-1.6415 13.2897,-2.4922 23.0348,-2.5522 l 0,-19.1193 14.6039,0 0,20.03 c 8.3381,1.2216 15.1711,3.6592 20.4936,7.3402 7.9563,5.5024 11.9318,13.6115 11.9318,24.3218 0,5.5078 -0.818,10.1486 -2.454,13.9495" />
      <path
         id="path6781"
         style="fill:#fabb12;fill-opacity:1;fill-rule:nonzero;stroke:none"
         d="m -1684.2478,4674.0825 c -1.3034,3.0211 -3.1738,5.606 -5.6006,7.7382 -2.4321,2.1323 -5.3715,4.0028 -8.8071,5.6006 -3.441,1.5978 -7.3565,3.2283 -11.7409,4.8916 -3.3211,1.1888 -6.1677,2.3068 -8.5399,3.3811 -2.3722,1.0688 -4.3518,2.2249 -5.955,3.4683 -1.6033,1.2379 -2.7867,2.6394 -3.561,4.1772 -0.769,1.5433 -1.1561,3.3211 -1.1561,5.3442 0,3.9101 1.7232,6.7894 5.1642,8.6163 3.4356,1.8432 7.4656,2.7593 12.0955,2.7593 5.3333,0 9.8977,-0.4962 13.6932,-1.5051 3.7901,-1.0143 6.5767,-1.9904 8.36,-2.9339 l 3.0211,14.2223 c -0.9489,0.3599 -2.2849,0.7689 -3.9973,1.2488 -1.7232,0.469 -3.7082,0.9107 -5.9604,1.3306 -2.2523,0.4199 -4.6899,0.7798 -7.2911,1.0688 -1.5324,0.1691 -3.0593,0.2891 -4.5863,0.36 l 0,14.8493 -11.6428,0 0,-15.3565 c -6.5603,-0.9816 -12.0027,-3.1847 -16.3217,-6.6094 -6.0477,-4.8044 -9.0689,-11.2938 -9.0689,-19.4847 0,-4.15 0.7089,-7.6401 2.1268,-10.4867 1.4233,-2.8521 3.3156,-5.2843 5.6933,-7.2911 2.3722,-2.0232 5.1861,-3.7682 8.4526,-5.2515 3.2556,-1.4888 6.6639,-2.9393 10.225,-4.3572 7.351,-2.9721 12.6298,-5.6333 15.8309,-8.0109 3.2011,-2.3613 4.7989,-5.5733 4.7989,-9.6033 0,-3.91 -1.6251,-6.7566 -4.8861,-8.5399 -3.2611,-1.7778 -8.2727,-2.6557 -15.0348,-2.6557 -6.8766,0 -12.3954,0.7089 -16.5399,2.1267 -4.15,1.4234 -7.1766,2.4922 -9.0689,3.2011 l -3.0265,-14.2276 c 1.6578,-0.7144 4.7989,-1.7506 9.4287,-3.1139 4.4554,-1.3088 10.5904,-1.9904 18.3613,-2.0395 l 0,-15.2366 11.6374,0 0,15.9673 c 6.6476,0.9707 12.0954,2.9121 16.3381,5.8405 6.3422,4.3899 9.516,10.8576 9.516,19.392 0,4.3899 -0.6544,8.0872 -1.9577,11.1193" />
      <path
         id="path6783"
         style="fill:#fabb12;fill-opacity:1;fill-rule:nonzero;stroke:none"
         d="m -1557.8292,4796.0512 c -0.8234,1.9087 -1.9959,3.5283 -3.5337,4.8698 -1.5324,1.347 -3.3811,2.5304 -5.546,3.5392 -2.1705,1.0143 -4.6354,2.0396 -7.4002,3.0811 -2.0886,0.7526 -3.8827,1.4615 -5.3824,2.1268 -1.4942,0.6762 -2.743,1.407 -3.7573,2.1814 -1.0034,0.7907 -1.7505,1.6632 -2.2413,2.6394 -0.4799,0.9706 -0.7253,2.094 -0.7253,3.3592 0,2.4867 1.0852,4.2918 3.2501,5.4424 2.1705,1.1616 4.7062,1.7396 7.6238,1.7396 3.3647,0 6.2386,-0.3163 8.6326,-0.9489 2.394,-0.638 4.1445,-1.2488 5.2679,-1.8486 l 1.9032,8.9707 c -0.5944,0.2181 -1.4397,0.4798 -2.5195,0.7798 -1.0797,0.2999 -2.334,0.578 -3.7573,0.8507 -1.4179,0.2454 -2.9502,0.4799 -4.5917,0.6653 -0.9652,0.1036 -1.9305,0.1745 -2.8902,0.2236 l 0,9.3579 -7.3347,0 0,-9.6797 c -4.1337,-0.6216 -7.5692,-2.0068 -10.2959,-4.1663 -3.8064,-3.032 -5.7151,-7.1111 -5.7151,-12.2699 0,-2.6231 0.4527,-4.8208 1.347,-6.6204 0.8944,-1.7941 2.0886,-3.321 3.5828,-4.5916 1.4997,-1.2816 3.272,-2.3831 5.3279,-3.3102 2.0559,-0.9434 4.1991,-1.8487 6.4458,-2.7539 4.6353,-1.8596 7.9619,-3.5338 9.9741,-5.0389 2.0178,-1.4996 3.0266,-3.5174 3.0266,-6.0586 0,-2.4595 -1.0252,-4.2481 -3.0756,-5.3715 -2.0559,-1.1179 -5.2189,-1.6796 -9.4779,-1.6796 -4.3354,0 -7.8091,0.4417 -10.4267,1.3415 -2.6122,0.8998 -4.5208,1.5705 -5.7151,2.0177 l -1.9032,-8.9707 c 1.047,-0.4472 3.0266,-1.107 5.9387,-1.9686 2.8139,-0.818 6.6748,-1.2488 11.5719,-1.2761 l 0,-9.6033 7.3401,0 0,10.0614 c 4.1827,0.6107 7.6183,1.8323 10.2904,3.6809 3.9973,2.7703 5.9932,6.8385 5.9932,12.2209 0,2.7648 -0.4035,5.0989 -1.227,7.0075" />
    </g>
  </g>
</svg>
