<?xml version="1.0" encoding="UTF-8" standalone="no"?>
<!-- Created with Inkscape (http://www.inkscape.org/) -->

<svg
   xmlns:dc="http://purl.org/dc/elements/1.1/"
   xmlns:cc="http://creativecommons.org/ns#"
   xmlns:rdf="http://www.w3.org/1999/02/22-rdf-syntax-ns#"
   xmlns:svg="http://www.w3.org/2000/svg"
   xmlns="http://www.w3.org/2000/svg"
   xmlns:sodipodi="http://sodipodi.sourceforge.net/DTD/sodipodi-0.dtd"
   xmlns:inkscape="http://www.inkscape.org/namespaces/inkscape"
   width="535.59003"
   height="170.02773"
   viewBox="0 0 535.59003 170.02773"
   id="svg3623"
   version="1.1"
   inkscape:version="0.91 r13725"
   sodipodi:docname="logo-main.svg">
  <defs
     id="defs3625" />
  <sodipodi:namedview
     id="base"
     pagecolor="#ffffff"
     bordercolor="#666666"
     borderopacity="1.0"
     inkscape:pageopacity="0.0"
     inkscape:pageshadow="2"
     inkscape:zoom="0.7"
     inkscape:cx="184.76871"
     inkscape:cy="1.0858217"
     inkscape:document-units="px"
     inkscape:current-layer="layer1"
     showgrid="false"
     units="px"
     inkscape:window-width="1872"
     inkscape:window-height="1059"
     inkscape:window-x="48"
     inkscape:window-y="21"
     inkscape:window-maximized="1"
     fit-margin-top="0"
     fit-margin-left="0"
     fit-margin-right="0"
     fit-margin-bottom="0" />
  <metadata
     id="metadata3628">
    <rdf:RDF>
      <cc:Work
         rdf:about="">
        <dc:format>image/svg+xml</dc:format>
        <dc:type
           rdf:resource="http://purl.org/dc/dcmitype/StillImage" />
        <dc:title></dc:title>
      </cc:Work>
    </rdf:RDF>
  </metadata>
  <g
     inkscape:label="Layer 1"
     inkscape:groupmode="layer"
     id="layer1"
     transform="translate(-87.91927,-394.6274)">
    <g
       id="g3505"
       transform="matrix(1.5824923,0,0,1.5824923,207.99797,-612.76669)">
      <path
         d="m 122.35281,637.15344 q 1.15235,0.11719 5.6836,0.11719 1.73828,0 2.98828,-0.11719 l -0.19531,0.80078 q -1.11329,0.33203 -1.89454,0.76172 -0.76171,0.42969 -1.60156,1.36719 -0.82031,0.9375 -1.77734,2.63672 l -13.08594,22.94922 -2.98828,0 -2.20703,-17.61719 -10.76172,17.61719 -3.007813,0 -3.144531,-25.15625 q -0.175781,-1.3086 -0.78125,-1.91407 -0.605469,-0.60546 -1.308594,-0.64453 l 0.195313,-0.80078 q 2.285156,0.11719 6.71875,0.11719 3.789062,0 5.761715,-0.11719 l -0.19531,0.80078 q -0.761718,0.0586 -1.191405,0.27344 -0.410156,0.21484 -0.625,0.74219 -0.195313,0.52734 -0.195313,1.52344 0,0.52734 0.01953,0.82031 l 1.757818,16.23047 6.60156,-10.6836 -0.80078,-6.34765 q -0.13672,-1.28907 -0.64453,-1.89453 -0.48829,-0.625 -1.03516,-0.66407 l 0.19531,-0.80078 q 2.16797,0.11719 6.32813,0.11719 4.60937,0 6.95312,-0.11719 l -0.19531,0.80078 q -1.21094,0.0586 -1.89453,0.27344 -0.6836,0.19531 -1.01563,0.72266 -0.33203,0.52734 -0.33203,1.52343 0,0.52735 0.0391,0.83985 l 1.71875,15.82031 8.4375,-14.74609 q 0.82032,-1.44532 0.82032,-2.38282 0,-0.99609 -0.89844,-1.46484 -0.89844,-0.46875 -2.63672,-0.58594 l 0.19531,-0.80078 z"
         style="font-style:italic;font-variant:normal;font-weight:900;font-stretch:normal;font-size:medium;line-height:125%;font-family:'Playfair Display';-inkscape-font-specification:'Playfair Display Heavy Italic';letter-spacing:0px;word-spacing:0px;fill:#000000;fill-opacity:1;stroke:none;stroke-width:1px;stroke-linecap:butt;stroke-linejoin:miter;stroke-opacity:1"
         id="path3457"
         inkscape:connector-curvature="0" />
      <path
         d="m 131.74734,637.15344 q 4.58985,0.11719 13.86719,0.11719 5.76172,0 8.28125,-0.11719 -0.97656,2.51953 -1.52344,4.72656 -0.21484,0.89844 -0.50781,2.48047 l -0.8789,0 q 0.0195,-2.32422 -0.52735,-3.71093 -0.52734,-1.38672 -1.60156,-1.97266 -1.05469,-0.60547 -2.71484,-0.60547 l -0.11719,0 q -1.38672,0 -2.08985,0.23438 -0.68359,0.23437 -1.11328,0.91796 -0.41015,0.66407 -0.80078,2.16797 l -2.5,9.4336 0.70313,0 q 1.25,0 2.40234,-0.60547 1.15234,-0.625 2.01172,-1.64063 0.85937,-1.03515 1.30859,-2.22656 l 0.87891,0 q -0.50781,1.54297 -0.85938,2.91016 -0.33203,1.34765 -0.50781,1.97265 -0.52734,1.99219 -1.03515,4.88282 l -0.87891,0 q 0,-1.05469 -0.37109,-2.07032 -0.3711,-1.03515 -1.25,-1.71875 -0.85938,-0.70312 -2.26563,-0.70312 l -0.35156,0 -2.5586,9.60937 q -0.35156,1.36719 -0.35156,1.95313 0,0.5664 0.25391,0.85937 0.27344,0.29297 0.82031,0.41016 0.54688,0.0977 1.54297,0.0977 l 0.52734,0 q 1.95313,0 3.41797,-0.66407 1.48438,-0.68359 2.75391,-2.20703 1.26953,-1.54297 2.57812,-4.21875 l 0.89844,0 q -0.27344,0.70313 -0.85937,2.89063 -0.625,2.28515 -1.03516,5.11718 -2.71484,-0.11718 -9.04297,-0.11718 -9.27734,0 -13.90625,0.11718 l 0.15625,-0.80078 q 1.44531,-0.0586 2.14844,-0.3125 0.72265,-0.2539 1.15234,-0.9375 0.42969,-0.68359 0.82031,-2.1875 l 5.27344,-19.84375 q 0.33203,-1.26953 0.33203,-1.91406 0,-0.60547 -0.27343,-0.91797 -0.25391,-0.3125 -0.82032,-0.42969 -0.5664,-0.13671 -1.60156,-0.17578 l 0.21484,-0.80078 z"
         style="font-style:italic;font-variant:normal;font-weight:900;font-stretch:normal;font-size:medium;line-height:125%;font-family:'Playfair Display';-inkscape-font-specification:'Playfair Display Heavy Italic';letter-spacing:0px;word-spacing:0px;fill:#000000;fill-opacity:1;stroke:none;stroke-width:1px;stroke-linecap:butt;stroke-linejoin:miter;stroke-opacity:1"
         id="path3459"
         inkscape:connector-curvature="0" />
      <path
         d="m 185.24344,657.07532 q -0.41016,1.05468 -0.95703,3.28125 -0.625,2.10937 -1.05469,5.11718 -2.71484,-0.11718 -9.02344,-0.11718 -9.45312,0 -14.08203,0.11718 l 0.15625,-0.80078 q 1.44531,-0.0586 2.14844,-0.3125 0.72265,-0.2539 1.15234,-0.9375 0.42969,-0.68359 0.82031,-2.1875 l 5.27344,-19.84375 q 0.33203,-1.26953 0.33203,-1.91406 0,-0.60547 -0.27343,-0.91797 -0.25391,-0.3125 -0.82032,-0.42969 -0.5664,-0.13671 -1.60156,-0.17578 l 0.21484,-0.80078 q 2.32422,0.11719 7.5586,0.11719 4.17969,0 6.99219,-0.11719 l -0.19532,0.80078 q -1.46484,0.0586 -2.1875,0.3125 -0.70312,0.25391 -1.13281,0.9375 -0.41016,0.6836 -0.80078,2.1875 l -5.27344,19.84375 q -0.35156,1.36719 -0.35156,1.95313 0,0.5664 0.25391,0.85937 0.27343,0.29297 0.82031,0.41016 0.54687,0.0977 1.54297,0.0977 l 0.72265,0 q 1.46485,0 3.08594,-0.74219 1.64063,-0.76172 3.18359,-2.44141 1.54297,-1.67969 2.61719,-4.29687 l 0.87891,0 z"
         style="font-style:italic;font-variant:normal;font-weight:900;font-stretch:normal;font-size:medium;line-height:125%;font-family:'Playfair Display';-inkscape-font-specification:'Playfair Display Heavy Italic';letter-spacing:0px;word-spacing:0px;fill:#000000;fill-opacity:1;stroke:none;stroke-width:1px;stroke-linecap:butt;stroke-linejoin:miter;stroke-opacity:1"
         id="path3461"
         inkscape:connector-curvature="0" />
      <path
         d="m 197.21609,661.23547 q -0.35156,1.36719 -0.35156,1.95313 0,0.58594 0.25391,0.89844 0.27344,0.29296 0.83984,0.42968 0.56641,0.11719 1.60156,0.15625 l -0.15625,0.80078 q -2.57812,-0.11718 -7.48046,-0.11718 -4.72657,0 -7.07032,0.11718 l 0.19532,-0.80078 q 1.38671,-0.0586 2.08984,-0.3125 0.70312,-0.2539 1.13281,-0.9375 0.42969,-0.70312 0.82031,-2.1875 l 5.27344,-19.84375 q 0.33203,-1.26953 0.33203,-1.91406 0,-0.60547 -0.27343,-0.91797 -0.25391,-0.3125 -0.82032,-0.42969 -0.5664,-0.13671 -1.60156,-0.17578 l 0.21484,-0.80078 q 2.20704,0.11719 7.07032,0.11719 4.53125,0 7.51953,-0.11719 l -0.19531,0.80078 q -1.46485,0.0586 -2.1875,0.3125 -0.70313,0.25391 -1.13282,0.9375 -0.41015,0.6836 -0.80078,2.1875 l -5.27344,19.84375 z"
         style="font-style:italic;font-variant:normal;font-weight:900;font-stretch:normal;font-size:medium;line-height:125%;font-family:'Playfair Display';-inkscape-font-specification:'Playfair Display Heavy Italic';letter-spacing:0px;word-spacing:0px;fill:#000000;fill-opacity:1;stroke:none;stroke-width:1px;stroke-linecap:butt;stroke-linejoin:miter;stroke-opacity:1"
         id="path3463"
         inkscape:connector-curvature="0" />
      <path
         d="m 221.68875,654.39954 q 0.15625,-0.97657 0.15625,-1.52344 0,-1.21094 -0.74219,-1.75781 -1.75781,0.44921 -2.5,0.44921 -0.91797,0 -0.91797,-0.58593 0,-0.0781 0.0391,-0.27344 0.0977,-0.41016 0.35156,-0.60547 0.25391,-0.19531 0.78125,-0.19531 0.72266,0 2.24609,0.41015 2.34375,-0.35156 3.37891,-2.1289 1.05469,-1.77735 2.01172,-5.41016 0.97656,-3.63281 2.07031,-4.86328 1.17188,-1.32812 3.16406,-1.32812 1.34766,0 2.42188,0.5664 1.07422,0.54688 1.67969,1.5625 0.60546,1.01563 0.60546,2.36328 0,1.19141 -0.54687,2.30469 -0.52734,1.09375 -1.5625,1.79688 -1.01563,0.68359 -2.40234,0.68359 -0.89844,0 -1.67969,-0.37109 -0.76172,-0.3711 -1.25,-1.11329 -0.46875,-0.76171 -0.46875,-1.83593 0,-1.58203 1.11328,-2.98828 1.11328,-1.40625 3.00781,-2.08985 -0.39062,-0.19531 -1.03515,-0.19531 -0.83985,0 -1.40625,0.29297 -0.56641,0.27344 -1.03516,0.83984 -0.95703,1.15235 -1.91406,4.47266 -0.95703,3.32031 -1.875,5.19531 -0.91797,1.85547 -2.96875,2.46094 2.59765,0.17578 4.12109,0.82031 1.52344,0.64453 2.16797,1.71875 0.66406,1.07422 0.66406,2.65625 0,0.78125 -0.15625,1.81641 l -0.64453,4.0039 q -0.0195,0.0781 -0.0195,0.21485 0,0.39062 0.25391,0.64453 0.2539,0.23437 0.64453,0.23437 1.09375,0 1.71875,-1.93359 l 0.68359,-2.03125 0.80078,0 -1.03515,3.08594 q -0.72266,2.14843 -2.2461,3.22265 -1.52344,1.05469 -3.4375,1.05469 -1.73828,0 -2.96875,-0.54687 -1.23047,-0.54688 -1.875,-1.52344 -0.625,-0.97656 -0.625,-2.26563 0,-0.41015 0.0977,-0.99609 l 1.13281,-6.30859 z m -7.59766,6.83593 q -0.35156,1.36719 -0.35156,1.95313 0,0.58594 0.25391,0.89844 0.27344,0.29296 0.83984,0.42968 0.56641,0.11719 1.60156,0.15625 l -0.15625,0.80078 q -2.46093,-0.11718 -7.07031,-0.11718 -5.01953,0 -7.48047,0.11718 l 0.19532,-0.80078 q 1.38671,-0.0586 2.08984,-0.3125 0.70312,-0.2539 1.13281,-0.9375 0.42969,-0.70312 0.82031,-2.1875 l 5.27344,-19.84375 q 0.33203,-1.26953 0.33203,-1.91406 0,-0.60547 -0.27343,-0.91797 -0.25391,-0.3125 -0.82032,-0.42969 -0.5664,-0.13671 -1.60156,-0.17578 l 0.21484,-0.80078 q 2.32422,0.11719 7.48047,0.11719 4.29688,0 7.10938,-0.11719 l -0.19531,0.80078 q -1.46485,0.0586 -2.1875,0.3125 -0.70313,0.25391 -1.13282,0.9375 -0.41015,0.6836 -0.80078,2.1875 l -5.27344,19.84375 z"
         style="font-style:italic;font-variant:normal;font-weight:900;font-stretch:normal;font-size:medium;line-height:125%;font-family:'Playfair Display';-inkscape-font-specification:'Playfair Display Heavy Italic';letter-spacing:0px;word-spacing:0px;fill:#000000;fill-opacity:1;stroke:none;stroke-width:1px;stroke-linecap:butt;stroke-linejoin:miter;stroke-opacity:1"
         id="path3465"
         inkscape:connector-curvature="0" />
      <path
         d="m 240.41922,637.15344 q 4.58984,0.11719 13.86719,0.11719 5.76172,0 8.28125,-0.11719 -0.97657,2.51953 -1.52344,4.72656 -0.21484,0.89844 -0.50781,2.48047 l -0.87891,0 q 0.0195,-2.32422 -0.52734,-3.71093 -0.52735,-1.38672 -1.60157,-1.97266 -1.05468,-0.60547 -2.71484,-0.60547 l -0.11719,0 q -1.38672,0 -2.08984,0.23438 -0.68359,0.23437 -1.11328,0.91796 -0.41016,0.66407 -0.80078,2.16797 l -2.5,9.4336 0.70312,0 q 1.25,0 2.40235,-0.60547 1.15234,-0.625 2.01171,-1.64063 0.85938,-1.03515 1.3086,-2.22656 l 0.8789,0 q -0.50781,1.54297 -0.85937,2.91016 -0.33203,1.34765 -0.50781,1.97265 -0.52735,1.99219 -1.03516,4.88282 l -0.87891,0 q 0,-1.05469 -0.37109,-2.07032 -0.37109,-1.03515 -1.25,-1.71875 -0.85937,-0.70312 -2.26562,-0.70312 l -0.35157,0 -2.55859,9.60937 q -0.35156,1.36719 -0.35156,1.95313 0,0.5664 0.2539,0.85937 0.27344,0.29297 0.82032,0.41016 0.54687,0.0977 1.54296,0.0977 l 0.52735,0 q 1.95312,0 3.41797,-0.66407 1.48437,-0.68359 2.7539,-2.20703 1.26953,-1.54297 2.57813,-4.21875 l 0.89844,0 q -0.27344,0.70313 -0.85938,2.89063 -0.625,2.28515 -1.03516,5.11718 -2.71484,-0.11718 -9.04296,-0.11718 -9.27735,0 -13.90625,0.11718 l 0.15625,-0.80078 q 1.44531,-0.0586 2.14843,-0.3125 0.72266,-0.2539 1.15235,-0.9375 0.42968,-0.68359 0.82031,-2.1875 l 5.27344,-19.84375 q 0.33203,-1.26953 0.33203,-1.91406 0,-0.60547 -0.27344,-0.91797 -0.25391,-0.3125 -0.82031,-0.42969 -0.56641,-0.13671 -1.60156,-0.17578 l 0.21484,-0.80078 z"
         style="font-style:italic;font-variant:normal;font-weight:900;font-stretch:normal;font-size:medium;line-height:125%;font-family:'Playfair Display';-inkscape-font-specification:'Playfair Display Heavy Italic';letter-spacing:0px;word-spacing:0px;fill:#000000;fill-opacity:1;stroke:none;stroke-width:1px;stroke-linecap:butt;stroke-linejoin:miter;stroke-opacity:1"
         id="path3467"
         inkscape:connector-curvature="0" />
    </g>
    <g
       id="g3496"
       transform="matrix(2.7323842,0,0,2.7323842,-646.64722,-1261.7866)">
      <path
         d="m 304.48172,637.27063 q 4.39453,0 7.38281,-0.11719 l -0.19531,0.80078 q -1.46484,0.0586 -2.1875,0.3125 -0.70313,0.25391 -1.13281,0.9375 -0.41016,0.6836 -0.80078,2.1875 l -5.27344,19.84375 q -0.33203,1.26953 -0.33203,1.91407 0,0.60546 0.2539,0.91796 0.27344,0.3125 0.83985,0.44922 0.5664,0.11719 1.60156,0.15625 l -0.15625,0.80078 q -2.94922,-0.11718 -7.36328,-0.11718 -4.92188,0 -7.20703,0.11718 l 0.15625,-0.80078 q 1.46484,-0.0586 2.16797,-0.3125 0.72265,-0.2539 1.13281,-0.9375 0.42969,-0.68359 0.82031,-2.1875 l 5.80078,-21.5625 -16.60156,25.9961 -0.87891,0 -3.55468,-23.35938 -4.64844,17.67578 q -0.29297,1.07422 -0.29297,1.91407 0,2.67578 3.53516,2.77343 l -0.15625,0.80078 q -1.42579,-0.11718 -4.76563,-0.11718 -2.46094,0 -3.78906,0.11718 l 0.15625,-0.80078 q 1.875,-0.0781 2.89062,-1.34765 1.01563,-1.28907 1.54297,-3.33985 l 4.96094,-18.59375 q 0.33203,-1.26953 0.33203,-1.91406 0,-0.60547 -0.27344,-0.91797 -0.2539,-0.3125 -0.82031,-0.42969 -0.56641,-0.13671 -1.60156,-0.17578 l 0.21484,-0.80078 q 2.1875,0.11719 6.75781,0.11719 2.12891,0 3.67188,-0.11719 l 2.32422,18.24219 11.5625,-18.125 3.92578,0 z"
         style="font-style:italic;font-variant:normal;font-weight:900;font-stretch:normal;font-size:medium;line-height:125%;font-family:'Playfair Display';-inkscape-font-specification:'Playfair Display Heavy Italic';letter-spacing:0px;word-spacing:0px;fill:#000000;fill-opacity:1;stroke:none;stroke-width:1px;stroke-linecap:butt;stroke-linejoin:miter;stroke-opacity:1"
         id="path3469"
         inkscape:connector-curvature="0" />
      <path
         d="m 319.16922,661.23547 q -0.35156,1.36719 -0.35156,1.95313 0,0.58594 0.2539,0.89844 0.27344,0.29296 0.83985,0.42968 0.5664,0.11719 1.60156,0.15625 l -0.15625,0.80078 q -2.57813,-0.11718 -7.48047,-0.11718 -4.72656,0 -7.07031,0.11718 l 0.19531,-0.80078 q 1.38672,-0.0586 2.08984,-0.3125 0.70313,-0.2539 1.13282,-0.9375 0.42968,-0.70312 0.82031,-2.1875 l 5.27344,-19.84375 q 0.33203,-1.26953 0.33203,-1.91406 0,-0.60547 -0.27344,-0.91797 -0.25391,-0.3125 -0.82031,-0.42969 -0.56641,-0.13671 -1.60156,-0.17578 l 0.21484,-0.80078 q 2.20703,0.11719 7.07031,0.11719 4.53125,0 7.51953,-0.11719 l -0.19531,0.80078 q -1.46484,0.0586 -2.1875,0.3125 -0.70312,0.25391 -1.13281,0.9375 -0.41016,0.6836 -0.80078,2.1875 l -5.27344,19.84375 z"
         style="font-style:italic;font-variant:normal;font-weight:900;font-stretch:normal;font-size:medium;line-height:125%;font-family:'Playfair Display';-inkscape-font-specification:'Playfair Display Heavy Italic';letter-spacing:0px;word-spacing:0px;fill:#000000;fill-opacity:1;stroke:none;stroke-width:1px;stroke-linecap:butt;stroke-linejoin:miter;stroke-opacity:1"
         id="path3471"
         inkscape:connector-curvature="0" />
      <path
         d="m 349.93094,654.14563 q 3.0664,-12.67578 5.54687,-16.26953 1.75782,-2.5586 4.31641,-2.5586 1.38672,0 2.44141,0.56641 1.07421,0.56641 1.66015,1.54297 0.58594,0.97656 0.58594,2.16797 0,1.25 -0.60547,2.20703 -0.58594,0.95703 -1.62109,1.48437 -1.01563,0.50782 -2.26563,0.50782 -1.64062,0 -2.59765,-0.78125 -0.95704,-0.78125 -0.95704,-2.1875 0,-1.17188 0.52735,-2.12891 0.54687,-0.95703 1.48437,-1.5625 0.95703,-0.625 2.14844,-0.82031 -0.3125,-0.3125 -0.99609,-0.3125 -0.97657,0 -1.85547,0.60547 -0.85938,0.58593 -1.54297,1.58203 -1.77734,2.65625 -3.69141,9.3164 -1.91406,6.66016 -4.35547,18.16407 l -0.8789,0 -10.46875,-19.04297 q -3.37891,16.23047 -5.6836,19.29687 -0.8789,1.17188 -1.875,1.83594 -0.97656,0.68359 -2.40234,0.68359 -1.38672,0 -2.44141,-0.5664 -1.07421,-0.56641 -1.66015,-1.54297 -0.58594,-0.97656 -0.58594,-2.1875 0,-1.25 0.60547,-2.20703 0.58594,-0.95703 1.60156,-1.46485 1.01563,-0.52734 2.26563,-0.52734 1.64062,0 2.59765,0.80078 0.97657,0.78125 0.97657,2.16797 0,1.17188 -0.54688,2.12891 -0.54687,0.95703 -1.50391,1.5625 -0.9375,0.625 -2.10937,0.82031 0.29297,0.33203 0.99609,0.33203 2.01172,0 3.4375,-2.24609 1.50391,-2.34375 3.08594,-8.39844 1.60156,-6.05469 3.47656,-15.64453 l 0,-0.0781 q 0.23438,-1.11328 0.23438,-1.77734 0,-0.66406 -0.29297,-0.99609 -0.27344,-0.35157 -0.91797,-0.48829 -0.64453,-0.13671 -1.875,-0.17578 l 0.21484,-0.80078 q 1.25,0.11719 3.55469,0.11719 1.85547,0 3.24219,-0.11719 l 8.73047,16.99219 z"
         style="font-style:italic;font-variant:normal;font-weight:900;font-stretch:normal;font-size:medium;line-height:125%;font-family:'Playfair Display';-inkscape-font-specification:'Playfair Display Heavy Italic';letter-spacing:0px;word-spacing:0px;fill:#000000;fill-opacity:1;stroke:none;stroke-width:1px;stroke-linecap:butt;stroke-linejoin:miter;stroke-opacity:1"
         id="path3473"
         inkscape:connector-curvature="0" />
      <path
         d="m 370.49734,661.23547 q -0.35156,1.36719 -0.35156,1.95313 0,0.58594 0.25391,0.89844 0.27344,0.29296 0.83984,0.42968 0.56641,0.11719 1.60156,0.15625 l -0.15625,0.80078 q -2.57812,-0.11718 -7.48046,-0.11718 -4.72657,0 -7.07032,0.11718 l 0.19532,-0.80078 q 1.38671,-0.0586 2.08984,-0.3125 0.70312,-0.2539 1.13281,-0.9375 0.42969,-0.70312 0.82031,-2.1875 l 5.27344,-19.84375 q 0.33203,-1.26953 0.33203,-1.91406 0,-0.60547 -0.27343,-0.91797 -0.25391,-0.3125 -0.82032,-0.42969 -0.5664,-0.13671 -1.60156,-0.17578 l 0.21484,-0.80078 q 2.20704,0.11719 7.07032,0.11719 4.53125,0 7.51953,-0.11719 l -0.19531,0.80078 q -1.46485,0.0586 -2.1875,0.3125 -0.70313,0.25391 -1.13282,0.9375 -0.41015,0.6836 -0.80078,2.1875 l -5.27344,19.84375 z"
         style="font-style:italic;font-variant:normal;font-weight:900;font-stretch:normal;font-size:medium;line-height:125%;font-family:'Playfair Display';-inkscape-font-specification:'Playfair Display Heavy Italic';letter-spacing:0px;word-spacing:0px;fill:#000000;fill-opacity:1;stroke:none;stroke-width:1px;stroke-linecap:butt;stroke-linejoin:miter;stroke-opacity:1"
         id="path3475"
         inkscape:connector-curvature="0" />
      <path
         d="m 410.65359,637.27063 q 4.39454,0 7.38282,-0.11719 l -0.19532,0.80078 q -1.46484,0.0586 -2.1875,0.3125 -0.70312,0.25391 -1.13281,0.9375 -0.41015,0.6836 -0.80078,2.1875 l -5.27344,19.84375 q -0.33203,1.26953 -0.33203,1.91407 0,0.60546 0.25391,0.91796 0.27344,0.3125 0.83984,0.44922 0.56641,0.11719 1.60156,0.15625 l -0.15625,0.80078 q -2.94921,-0.11718 -7.36328,-0.11718 -4.92187,0 -7.20703,0.11718 l 0.15625,-0.80078 q 1.46485,-0.0586 2.16797,-0.3125 0.72266,-0.2539 1.13281,-0.9375 0.42969,-0.68359 0.82032,-2.1875 l 5.80078,-21.5625 -16.60157,25.9961 -0.8789,0 -3.55469,-23.35938 -4.64844,17.67578 q -0.29297,1.07422 -0.29297,1.91407 0,2.67578 3.53516,2.77343 l -0.15625,0.80078 q -1.42578,-0.11718 -4.76562,-0.11718 -2.46094,0 -3.78907,0.11718 l 0.15625,-0.80078 q 1.875,-0.0781 2.89063,-1.34765 1.01562,-1.28907 1.54297,-3.33985 l 4.96093,-18.59375 q 0.33204,-1.26953 0.33204,-1.91406 0,-0.60547 -0.27344,-0.91797 -0.25391,-0.3125 -0.82031,-0.42969 -0.56641,-0.13671 -1.60157,-0.17578 l 0.21485,-0.80078 q 2.1875,0.11719 6.75781,0.11719 2.12891,0 3.67187,-0.11719 l 2.32422,18.24219 11.5625,-18.125 3.92578,0 z"
         style="font-style:italic;font-variant:normal;font-weight:900;font-stretch:normal;font-size:medium;line-height:125%;font-family:'Playfair Display';-inkscape-font-specification:'Playfair Display Heavy Italic';letter-spacing:0px;word-spacing:0px;fill:#000000;fill-opacity:1;stroke:none;stroke-width:1px;stroke-linecap:butt;stroke-linejoin:miter;stroke-opacity:1"
         id="path3477"
         inkscape:connector-curvature="0" />
      <path
         d="m 436.98172,662.11438 q 0.0977,1.30859 0.66406,1.91406 0.56641,0.60547 1.28906,0.64453 l -0.15625,0.80078 q -2.34375,-0.11718 -6.75781,-0.11718 -4.64844,0 -6.8164,0.11718 l 0.17578,-0.80078 q 1.28906,-0.0586 2.01172,-0.29297 0.72265,-0.2539 1.07421,-0.83984 0.3711,-0.60547 0.3711,-1.71875 0,-0.33203 -0.0195,-0.50781 l -0.35157,-6.5625 -7.85156,0 -3.88672,5.48828 q -0.9375,1.36719 -0.9375,2.28516 0,1.875 3.67188,2.14843 l -0.17578,0.80078 q -4.1211,-0.11718 -5.66407,-0.11718 -1.36718,0 -2.61718,0.11718 l 0.17578,-0.80078 q 0.78125,-0.21484 1.44531,-0.70312 0.66406,-0.50781 1.44531,-1.42578 0.76172,-0.9375 1.97266,-2.63672 l 16.32812,-22.94922 q 0.64454,0.0781 1.54297,0.0781 0.89844,0 1.46485,-0.0781 l 1.60156,25.15625 z m -9.04297,-17.71484 -6.75781,9.55078 7.24609,0 -0.48828,-9.55078 z"
         style="font-style:italic;font-variant:normal;font-weight:900;font-stretch:normal;font-size:medium;line-height:125%;font-family:'Playfair Display';-inkscape-font-specification:'Playfair Display Heavy Italic';letter-spacing:0px;word-spacing:0px;fill:#000000;fill-opacity:1;stroke:none;stroke-width:1px;stroke-linecap:butt;stroke-linejoin:miter;stroke-opacity:1"
         id="path3479"
         inkscape:connector-curvature="0" />
      <path
         d="m 464.85281,657.07532 q -0.41015,1.05468 -0.95703,3.28125 -0.625,2.10937 -1.05469,5.11718 -2.71484,-0.11718 -9.02343,-0.11718 -9.45313,0 -14.08203,0.11718 l 0.15625,-0.80078 q 1.44531,-0.0586 2.14843,-0.3125 0.72266,-0.2539 1.15235,-0.9375 0.42968,-0.68359 0.82031,-2.1875 l 5.27344,-19.84375 q 0.33203,-1.26953 0.33203,-1.91406 0,-0.60547 -0.27344,-0.91797 -0.25391,-0.3125 -0.82031,-0.42969 -0.56641,-0.13671 -1.60156,-0.17578 l 0.21484,-0.80078 q 2.32422,0.11719 7.55859,0.11719 4.17969,0 6.99219,-0.11719 l -0.19531,0.80078 q -1.46485,0.0586 -2.1875,0.3125 -0.70313,0.25391 -1.13281,0.9375 -0.41016,0.6836 -0.80079,2.1875 l -5.27343,19.84375 q -0.35157,1.36719 -0.35157,1.95313 0,0.5664 0.25391,0.85937 0.27344,0.29297 0.82031,0.41016 0.54688,0.0977 1.54297,0.0977 l 0.72266,0 q 1.46484,0 3.08594,-0.74219 1.64062,-0.76172 3.18359,-2.44141 1.54297,-1.67969 2.61719,-4.29687 l 0.8789,0 z"
         style="font-style:italic;font-variant:normal;font-weight:900;font-stretch:normal;font-size:medium;line-height:125%;font-family:'Playfair Display';-inkscape-font-specification:'Playfair Display Heavy Italic';letter-spacing:0px;word-spacing:0px;fill:#000000;fill-opacity:1;stroke:none;stroke-width:1px;stroke-linecap:butt;stroke-linejoin:miter;stroke-opacity:1"
         id="path3481"
         inkscape:connector-curvature="0" />
    </g>
  </g>
</svg>
