<?xml version="1.0" encoding="UTF-8" standalone="no"?>
<!-- Created with Inkscape (http://www.inkscape.org/) -->

<svg
   xmlns:dc="http://purl.org/dc/elements/1.1/"
   xmlns:cc="http://creativecommons.org/ns#"
   xmlns:rdf="http://www.w3.org/1999/02/22-rdf-syntax-ns#"
   xmlns:svg="http://www.w3.org/2000/svg"
   xmlns="http://www.w3.org/2000/svg"
   xmlns:sodipodi="http://sodipodi.sourceforge.net/DTD/sodipodi-0.dtd"
   xmlns:inkscape="http://www.inkscape.org/namespaces/inkscape"
   width="97.281601mm"
   height="26.50563mm"
   viewBox="0 0 344.69859 93.917588"
   id="svg5127"
   version="1.1"
   inkscape:version="0.91 r13725"
   inkscape:export-filename="/media/taedori/Storage/DEV/Project/WLM/Logo/main_logo2.png"
   inkscape:export-xdpi="90"
   inkscape:export-ydpi="90"
   sodipodi:docname="main_logo.svg">
  <defs
     id="defs5129" />
  <sodipodi:namedview
     id="base"
     pagecolor="#ffffff"
     bordercolor="#666666"
     borderopacity="1.0"
     inkscape:pageopacity="0.0"
     inkscape:pageshadow="2"
     inkscape:zoom="1.4"
     inkscape:cx="223.95376"
     inkscape:cy="6.4754249"
     inkscape:document-units="px"
     inkscape:current-layer="layer1"
     showgrid="false"
     fit-margin-top="0"
     fit-margin-left="0"
     fit-margin-right="0"
     fit-margin-bottom="0"
     inkscape:window-width="1872"
     inkscape:window-height="1059"
     inkscape:window-x="1728"
     inkscape:window-y="21"
     inkscape:window-maximized="1" />
  <metadata
     id="metadata5132">
    <rdf:RDF>
      <cc:Work
         rdf:about="">
        <dc:format>image/svg+xml</dc:format>
        <dc:type
           rdf:resource="http://purl.org/dc/dcmitype/StillImage" />
        <dc:title></dc:title>
      </cc:Work>
    </rdf:RDF>
  </metadata>
  <g
     inkscape:label="Layer 1"
     inkscape:groupmode="layer"
     id="layer1"
     transform="translate(-128.72214,-254.17974)">
    <g
       id="g3791"
       transform="matrix(2.4563376,0,0,-2.4563376,453.80196,288.16071)"
       style="fill:#6534ff;fill-opacity:1">
      <path
         d="m 0,0 7.987,13.834 0,-10.123 -7.985,-13.83 -7.985,13.83 -7.987,-13.834 0,10.123 7.985,13.831 L 0,0 Z"
         style="fill:#6534ff;fill-opacity:1;fill-rule:nonzero;stroke:none"
         id="path3793"
         inkscape:connector-curvature="0" />
    </g>
    <g
       id="g3795"
       transform="matrix(2.4563376,0,0,-2.4563376,143.25383,290.90492)">
      <path
         d="m 0,0 2.486,-5.704 2.335,5.395 1.088,0 -3.423,-7.957 -2.485,5.716 -2.487,-5.716 -3.43,7.957 1.09,0 2.351,-5.455 L 0,0 Z"
         style="fill:#231f20;fill-opacity:1;fill-rule:nonzero;stroke:none"
         id="path3797"
         inkscape:connector-curvature="0" />
    </g>
    <g
       id="g3799"
       transform="matrix(2.4563376,0,0,-2.4563376,183.94428,291.63545)">
      <path
         d="m 0,0 4.281,0 0,-1.055 -3.238,0 0,-1.928 3.238,0 0,-1.043 -3.238,0 0,-2.657 3.238,0 0,-1.043 L 0,-7.726 0,0 Z"
         style="fill:#231f20;fill-opacity:1;fill-rule:nonzero;stroke:none"
         id="path3801"
         inkscape:connector-curvature="0" />
    </g>
    <g
       id="g3803"
       transform="matrix(2.4563376,0,0,-2.4563376,230.13841,291.05379)"
       style="fill:#6534ff;fill-opacity:1">
      <path
         d="m 0,0 1.704,0 0,-6.246 2.347,0 0,-1.716 L 0,-7.962 0,0 Z"
         style="fill:#6534ff;fill-opacity:1;fill-rule:nonzero;stroke:none"
         id="path3805"
         inkscape:connector-curvature="0" />
    </g>
    <path
       d="m 278.91661,291.05304 4.21508,0 0,19.55736 -4.21508,0 0,-19.55736 z"
       style="fill:#6534ff;fill-opacity:1;fill-rule:nonzero;stroke:none"
       id="path3807"
       inkscape:connector-curvature="0" />
    <g
       id="g3809"
       transform="matrix(2.4563376,0,0,-2.4563376,318.81834,291.05379)"
       style="fill:#6534ff;fill-opacity:1">
      <path
         d="m 0,0 1.716,0 0,-3.363 0.024,0 L 4.377,0 6.482,0 3.458,-3.802 l 3.152,-4.16 -2.062,0 -2.808,3.726 -0.024,0 0,-3.726 L 0,-7.962 0,0 Z"
         style="fill:#6534ff;fill-opacity:1;fill-rule:nonzero;stroke:none"
         id="path3811"
         inkscape:connector-curvature="0" />
    </g>
    <g
       id="g3813"
       transform="matrix(2.4563376,0,0,-2.4563376,367.34428,291.05379)"
       style="fill:#6534ff;fill-opacity:1">
      <path
         d="m 0,0 4.481,0 0,-1.577 -2.765,0 0,-1.607 2.765,0 0,-1.552 -2.765,0 0,-1.65 2.765,0 0,-1.576 L 0,-7.962 0,0 Z"
         style="fill:#6534ff;fill-opacity:1;fill-rule:nonzero;stroke:none"
         id="path3815"
         inkscape:connector-curvature="0" />
    </g>
    <g
       id="g3817"
       transform="matrix(2.4563376,0,0,-2.4563376,149.16673,327.45129)">
      <path
         d="m 0,0 2.113,-8.047 -1.033,0 -1.28,4.916 -2.201,-5.214 -2.208,5.258 -1.298,-4.96 -1.028,0 L -4.821,0 -2.401,-5.758 0,0 Z"
         style="fill:#231f20;fill-opacity:1;fill-rule:nonzero;stroke:none"
         id="path3819"
         inkscape:connector-curvature="0" />
    </g>
    <path
       d="m 187.92159,328.24199 2.56196,0 0,18.97767 -2.56196,0 0,-18.97767 z"
       style="fill:#231f20;fill-opacity:1;fill-rule:nonzero;stroke:none"
       id="path3821"
       inkscape:connector-curvature="0" />
    <g
       id="g3823"
       transform="matrix(2.4563376,0,0,-2.4563376,226.80174,327.48128)">
      <path
         d="m 0,0 5.712,-5.872 0,5.562 1.056,0 0,-8.083 -5.713,5.846 0,-5.488 L 0,-8.035 0,0 Z"
         style="fill:#231f20;fill-opacity:1;fill-rule:nonzero;stroke:none"
         id="path3825"
         inkscape:connector-curvature="0" />
    </g>
    <path
       d="m 279.7444,328.24199 2.56196,0 0,18.97767 -2.56196,0 0,-18.97767 z"
       style="fill:#231f20;fill-opacity:1;fill-rule:nonzero;stroke:none"
       id="path3827"
       inkscape:connector-curvature="0" />
    <g
       id="g3829"
       transform="matrix(2.4563376,0,0,-2.4563376,332.8573,327.45129)">
      <path
         d="m 0,0 2.114,-8.047 -1.034,0 -1.28,4.916 -2.201,-5.214 -2.207,5.258 -1.298,-4.96 -1.028,0 L -4.821,0 -2.401,-5.758 0,0 Z"
         style="fill:#231f20;fill-opacity:1;fill-rule:nonzero;stroke:none"
         id="path3831"
         inkscape:connector-curvature="0" />
    </g>
    <g
       id="g3833"
       transform="matrix(2.4563376,0,0,-2.4563376,372.80397,333.43273)">
      <path
         d="m 0,0 -1.236,-2.756 2.485,0 L 0,0 Z m 0.003,2.411 3.647,-8.023 -1.105,0 -0.897,1.977 -3.278,0 -0.887,-1.977 -1.097,0 3.617,8.023 z"
         style="fill:#231f20;fill-opacity:1;fill-rule:nonzero;stroke:none"
         id="path3835"
         inkscape:connector-curvature="0" />
    </g>
    <g
       id="g3837"
       transform="matrix(2.4563376,0,0,-2.4563376,414.40083,328.24174)">
      <path
         d="m 0,0 1.043,0 0,-6.683 2.517,0 0,-1.043 -3.56,0 L 0,0 Z"
         style="fill:#231f20;fill-opacity:1;fill-rule:nonzero;stroke:none"
         id="path3839"
         inkscape:connector-curvature="0" />
    </g>
  </g>
</svg>
