<?xml version="1.0" encoding="UTF-8" standalone="no"?>
<!-- Created with Inkscape (http://www.inkscape.org/) -->

<svg
   xmlns:dc="http://purl.org/dc/elements/1.1/"
   xmlns:cc="http://creativecommons.org/ns#"
   xmlns:rdf="http://www.w3.org/1999/02/22-rdf-syntax-ns#"
   xmlns:svg="http://www.w3.org/2000/svg"
   xmlns="http://www.w3.org/2000/svg"
   xmlns:sodipodi="http://sodipodi.sourceforge.net/DTD/sodipodi-0.dtd"
   xmlns:inkscape="http://www.inkscape.org/namespaces/inkscape"
   width="300"
   height="299.98505"
   viewBox="0 0 300 299.98505"
   id="svg7298"
   version="1.1"
   inkscape:version="0.91 r13725"
   sodipodi:docname="photo.svg">
  <defs
     id="defs7300" />
  <sodipodi:namedview
     id="base"
     pagecolor="#ffffff"
     bordercolor="#666666"
     borderopacity="1.0"
     inkscape:pageopacity="0.0"
     inkscape:pageshadow="2"
     inkscape:zoom="0.35"
     inkscape:cx="-126.23047"
     inkscape:cy="63.042418"
     inkscape:document-units="px"
     inkscape:current-layer="layer1"
     showgrid="false"
     units="px"
     fit-margin-top="0"
     fit-margin-left="0"
     fit-margin-right="0"
     fit-margin-bottom="0"
     inkscape:window-width="1872"
     inkscape:window-height="1059"
     inkscape:window-x="48"
     inkscape:window-y="21"
     inkscape:window-maximized="1" />
  <metadata
     id="metadata7303">
    <rdf:RDF>
      <cc:Work
         rdf:about="">
        <dc:format>image/svg+xml</dc:format>
        <dc:type
           rdf:resource="http://purl.org/dc/dcmitype/StillImage" />
        <dc:title></dc:title>
      </cc:Work>
    </rdf:RDF>
  </metadata>
  <g
     inkscape:label="Layer 1"
     inkscape:groupmode="layer"
     id="layer1"
     transform="translate(-225.51619,-295.41958)">
    <g
       id="g7322"
       transform="matrix(0.5828843,0,0,0.5828843,227.29704,191.72957)">
      <path
         d="m 511.62666,435.21935 c 0,142.12701 -115.214,257.32813 -257.3409,257.32813 -142.1227,0 -257.3410029,-115.20112 -257.3410029,-257.32813 0,-142.127 115.2183029,-257.32812 257.3410029,-257.32812 142.1269,0 257.3409,115.20112 257.3409,257.32812"
         style="fill:#4fabe4;fill-opacity:1;fill-rule:nonzero;stroke:none"
         id="path40"
         inkscape:connector-curvature="0" />
      <path
         d="m 406.21156,420.47836 0,102.5905 c 0,14.52787 -13.1305,26.15874 -27.667,26.15874 l -248.2748,0 c -14.5365,0 -27.8077,-11.63087 -27.8077,-26.15874 l 0,-102.5905 134.8758,0 c -2.5563,2.51362 -4.7035,7.37049 -6.4162,11.41787 -2.0663,4.8995 -3.4339,10.012 -4.09,15.25225 -0.2939,2.34325 -0.443,4.77162 -0.443,7.20012 0,3.15263 0.2513,6.30538 0.7541,9.37288 0.072,0.46863 0.1576,0.93725 0.2471,1.40588 0.043,0.25562 0.1789,0.46862 0.2215,0.72425 0.2854,1.40599 1.0992,2.76924 1.0992,4.17524 l 0,0 c 0,0.46863 0.1789,0.89463 0.3238,1.36326 0.1406,0.46875 0.2428,0.93737 0.3962,1.36337 0.4601,1.36337 1.0182,2.08763 1.5849,3.40838 0.9032,2.13012 2.1387,4.30299 3.1612,5.58112 l -0.017,0 c 0.5155,2.471 1.1034,2.64137 1.7382,3.57862 0.7584,1.15038 1.3378,2.6415 2.1771,3.70663 0.2812,0.38338 0.639,0.97988 0.639,1.36325 l 0,0.0425 c 0,0.34088 2.4966,0.72425 2.4966,1.06512 l 0,0.0425 c 0,0.34088 0,0.68163 0,1.02251 l 0,0.0425 c 0,0.51125 0.9884,1.0225 1.4699,1.53375 0.3238,0.34075 1.031,0.639 1.031,0.97988 l 0,0 c 0,0.852 1.4528,1.61888 2.3219,2.42837 0.524,0.42613 0.9416,0.89475 1.4784,1.32075 0.3578,0.29825 0.6603,0.5965 1.0267,0.89475 0.3622,0.25563 0.703,0.55375 1.0736,0.852 0.1832,0.12788 0.3537,0.25563 0.5454,0.3835 2.2367,1.6615 4.5799,3.11 7.0381,4.38813 0.2045,0.12787 0.409,0.213 0.6135,0.34088 0.4133,0.213 0.8266,0.426 1.2441,0.5965 0.835,0.426 1.6828,0.80937 2.5392,1.15025 7.1191,3.02487 14.6685,4.55862 22.4438,4.55862 7.7795,0 15.3289,-1.53375 22.4438,-4.55862 6.8677,-2.89701 13.0325,-7.07225 18.3239,-12.35513 5.2872,-5.28288 9.4411,-11.4605 12.3467,-18.31975 3.0121,-7.11488 4.5373,-14.65575 4.5373,-22.45225 0,-7.754 -1.5252,-15.3375 -4.5373,-22.45238 -1.7127,-4.04737 -3.8557,-8.90425 -6.4162,-11.41787 l 75.4773,0"
         style="fill:#264364;fill-opacity:1;fill-rule:nonzero;stroke:none"
         id="path42"
         inkscape:connector-curvature="0" />
      <path
         d="m 406.21156,380.04723 0,32.93288 -80.0486,0 c -0.4431,0 -0.899,0.085 -1.3591,-0.3835 -5.2914,-5.28288 -11.4562,-8.94675 -18.324,-11.84388 -7.1148,-3.02487 -14.6643,-4.303 -22.4438,-4.303 -7.7752,0 -15.3246,1.6615 -22.4438,4.68638 -6.8635,2.89712 -13.0283,6.09237 -18.3197,11.37537 -0.4644,0.46863 -0.916,0.46863 -1.359,0.46863 l -139.4515,0 0,-32.93288 c 0,-13.97412 12.7131,-25.81812 26.6915,-25.81812 l 250.5072,0 c 13.9784,0 26.5508,11.844 26.5508,25.81812"
         style="fill:#264364;fill-opacity:1;fill-rule:nonzero;stroke:none"
         id="path44"
         inkscape:connector-curvature="0" />
      <path
         d="m 327.05766,454.51898 c 0,1.10775 -0.043,2.21537 -0.1279,3.32312 -1.4102,18.53275 -14.4555,33.78501 -31.8422,38.47138 -0.5155,0.17038 -1.0353,0.29825 -1.5593,0.3835 -0.3536,0.085 -0.703,0.17038 -1.0566,0.25563 -0.3493,0.085 -0.7029,0.12775 -1.0608,0.21299 -1.5977,0.25563 -3.2294,0.46863 -4.8824,0.55388 -0.3707,0.0425 -0.7413,0.0425 -1.112,0.085 -0.5539,0 -1.112,0 -1.6743,0 -22.7974,0 -41.4793,-17.59537 -43.1834,-39.9625 -0.081,-1.10775 -0.1279,-2.21537 -0.1279,-3.32312 0,-1.06513 0.043,-2.13025 0.115,-3.15275 0.4431,-6.09238 2.143,-11.84388 4.8441,-16.999 0.09,-0.17038 0.01,-0.34075 0.1065,-0.51125 0.2855,-0.51125 0.7158,-1.065 0.7158,-1.57625 l 0,0 c 0,-0.51125 0.7967,-1.0225 1.129,-1.49113 0.213,-0.34087 0.524,-0.68175 0.7541,-1.0225 2.3858,-3.40838 5.2956,-6.47587 8.5463,-9.07475 2.7352,-2.17275 5.7601,-4.04737 8.9809,-5.5385 5.5045,-2.51362 11.648,-3.96212 18.111,-3.96212 6.463,0 12.598,1.4485 18.1067,3.96212 0.4005,0.17038 0.8052,0.3835 1.1972,0.5965 2.7735,1.36325 5.3723,3.02488 7.7667,4.942 l 0.025,0.0425 c 3.2379,2.59888 6.1009,5.62375 8.4782,9.03213 0.2258,0.34075 0.5922,0.68162 0.8095,1.0225 0.328,0.46862 1.0949,0.97987 1.0949,1.49112 l 0,0 c 0,0.51125 0.4644,1.065 0.7498,1.57625 0.094,0.1705 0.1193,0.34088 0.2088,0.51125 2.7011,5.15513 4.3669,10.90663 4.8057,16.999 0.077,1.0225 0.081,2.08763 0.081,3.15275"
         style="fill:#c7e88e;fill-opacity:1;fill-rule:nonzero;stroke:none"
         id="path46"
         inkscape:connector-curvature="0" />
      <path
         d="m 225.02106,331.73423 -65.8019,0 -32.9031,32.50688 131.6038,0 -32.8988,-32.50688"
         style="fill:#1e3047;fill-opacity:1;fill-rule:nonzero;stroke:none"
         id="path48"
         inkscape:connector-curvature="0" />
      <path
         d="m 135.71026,440.54486 c 0,4.43087 -3.6,8.05212 -8.0394,8.05212 -4.4436,0 -8.0479,-3.62125 -8.0479,-8.05212 0,-4.43075 3.6043,-8.05213 8.0479,-8.05213 4.4394,0 8.0394,3.62138 8.0394,8.05213"
         style="fill:#c7e88e;fill-opacity:1;fill-rule:nonzero;stroke:none"
         id="path50"
         inkscape:connector-curvature="0" />
    </g>
  </g>
</svg>
