<?xml version="1.0" encoding="UTF-8" standalone="no"?>
<svg
   xmlns:dc="http://purl.org/dc/elements/1.1/"
   xmlns:cc="http://creativecommons.org/ns#"
   xmlns:rdf="http://www.w3.org/1999/02/22-rdf-syntax-ns#"
   xmlns:svg="http://www.w3.org/2000/svg"
   xmlns="http://www.w3.org/2000/svg"
   version="1.1"
   id="svg15081"
   viewBox="0 0 300 300"
   height="300"
   width="300">
  <defs
     id="defs15083" />
  <metadata
     id="metadata15086">
    <rdf:RDF>
      <cc:Work
         rdf:about="">
        <dc:format>image/svg+xml</dc:format>
        <dc:type
           rdf:resource="http://purl.org/dc/dcmitype/StillImage" />
        <dc:title></dc:title>
      </cc:Work>
    </rdf:RDF>
  </metadata>
  <g
     transform="translate(-219.99923,-278.07725)"
     id="layer1">
    <g
       transform="matrix(0.14999988,0,0,0.14999988,585.14191,501.65143)"
       id="g15373">
      <path
         id="path9491"
         style="fill:#5ac7ae;fill-opacity:1;fill-rule:nonzero;stroke:none"
         d="m -2434.2865,509.50581 2000.00154,0 0,-2000.00151 -2000.00154,0 0,2000.00151 z" />
      <path
         id="path9493"
         style="fill:#72cfb8;fill-opacity:1;fill-rule:nonzero;stroke:none"
         d="m -768.60696,-489.47239 c 0,367.2803 -297.73714,664.963 -665.01074,664.963 -367.2701,0 -664.9998,-297.6827 -664.9998,-664.963 0,-367.28043 297.7297,-665.03121 664.9998,-665.03121 367.2736,0 665.01074,297.75078 665.01074,665.03121" />
      <path
         id="path9523"
         style="fill:#324064;fill-opacity:1;fill-rule:nonzero;stroke:none"
         d="m -1669.5756,-824.98732 542.9662,0 0,-349.16858 -542.9662,0 0,349.16858 z" />
      <path
         id="path9525"
         style="fill:#f7f7f7;fill-opacity:1;fill-rule:nonzero;stroke:none"
         d="m -1648.5803,-836.98456 503.9812,0 0,-323.98184 -503.9812,0 0,323.98184 z" />
      <path
         id="path9527"
         style="fill:#dedddb;fill-opacity:1;fill-rule:nonzero;stroke:none"
         d="m -1162.7722,-836.98456 -389.898,0 c 0.743,-1.636 1.1384,-3.61288 1.1384,-5.65788 l 0,-51.53375 33.9196,0 -0.6135,5.04425 0,0 c -0.013,0.0688 -0.014,0.0688 -0.014,0.13638 0,0 0,0 0,0.0687 -0.013,0 -0.013,0.0688 -0.013,0.0688 -0.013,0 -0.013,0 -0.013,0.0687 -0.013,0 -0.013,0 -0.013,0.0688 0,0 0,0 0,0.0688 0,0 0,0 -0.012,0 -0.5113,5.93037 2.7061,11.38375 7.3619,12.33812 0.4567,0.0688 0.9066,0.13625 1.3565,0.13625 0.2455,0 0.484,0 0.7226,-0.0688 0.1087,0 0.4635,0 0.9816,-0.13637 1.5405,-0.409 2.9584,-1.36325 4.1104,-2.6585 1.5542,-1.56775 2.5154,-3.95363 2.8425,-6.61213 l 1.0361,-8.52075 86.0942,0 0,-12.679 -84.5536,0 1.8747,-15.33738 82.6789,0 0,-12.61074 -81.1316,0 3.5787,-29.37975 77.5529,0 0,-12.67901 -76.0056,0 1.1589,-9.47512 74.8467,0 0,-12.67888 -73.2993,0 1.118,-9.13438 72.1813,0 0,-12.6789 -70.6339,0 1.3632,-11.1792 c 0.4431,0.409 0.9611,0.6816 1.5201,0.7497 0.1909,0.069 0.3885,0.069 0.5794,0.069 1.7996,0 3.3811,-1.636 3.6674,-4.0218 l 3.2515,-26.653 60.2523,0 0,-12.6109 -58.7117,0 1.0634,-8.6571 57.6483,0 0,-12.6789 -56.6803,0 c -0.4909,-1.4996 -1.5338,-2.5904 -2.8426,-2.863 -0.1977,0 -0.3885,-0.069 -0.5862,-0.069 -0.3613,0 -0.709,0.1362 -1.043,0.2045 l 0.9135,-7.4984 c 0.013,0 0.014,-0.069 0.02,-0.1364 0,0 0,0 0,0 0.012,-0.069 0.012,-0.069 0.014,-0.1362 0,0 0,0 0,0 0.012,-0.069 0.014,-0.069 0.014,-0.1364 0,0 0,0 0,0 0.013,-0.069 0.013,-0.069 0.013,-0.1364 0.012,0 0.012,0 0.012,0 0.013,-0.069 0.013,-0.069 0.013,-0.1362 0,0 0,0 0,0 0.014,-0.069 0.014,-0.2045 0.02,-0.2726 0,0 0,0 0,0 0,-0.069 0,-0.1364 0,-0.1364 0,0 0,0 0,-0.069 0,0 0,-0.069 0.013,-0.069 0,0 0,0 0,-0.069 0,0 0,-0.069 0,-0.069 0,0 0,0 0.013,-0.069 0,0 0,-0.067 0,-0.067 0,0 0,0 0,-0.069 0,0 0,0 0,-0.069 0,0 0,-0.067 0,-0.1363 0,0 0,0 0,0 0,-0.069 0,-0.069 0,-0.1363 0,0 0,0 0,0 0,-0.067 0,-0.067 -0.013,-0.1364 0,0 0,0 0,0 0,-0.069 0,-0.069 0,-0.1363 0,0 0,0 0,0 -0.1705,-5.1807 -3.2038,-9.7478 -7.4097,-10.5658 -0.4635,-0.1363 -0.9134,-0.1363 -1.3634,-0.1363 -2.6039,0 -5.017,1.4996 -6.6461,3.8854 0,0 0,0 -0.012,0 -0.014,0.069 -0.028,0.069 -0.041,0.069 -0.013,0 -0.02,0.069 -0.027,0.069 -0.013,0 -0.014,0 -0.02,0 -0.014,0.069 -0.034,0.069 -0.048,0.069 0,0.069 0,0.069 0,0.069 -0.9066,1.3632 -1.5474,3.1356 -1.8201,5.0442 0,0 0,0 0,0 0,0.069 -0.014,0.069 -0.014,0.1364 0,0 -0.013,0 -0.013,0 -0.013,0.069 -0.013,0.069 -0.014,0.1364 l 0,0 -1.6633,13.6332 -103.6946,0 -0.3136,-1.8405 c -0.893,-5.2488 -4.5127,-8.8616 -8.548,-8.8616 -0.6204,0 -1.2475,0.069 -1.8747,0.2726 -4.6693,1.2952 -7.6551,7.0894 -6.7416,13.088 0,0 0,0 0.013,0 0.013,0.069 0.013,0.069 0.014,0.1363 0,0 0.014,0.069 0.02,0.069 l 12.2631,72.12 -4.574,0 0,12.6789 6.728,0 1.561,9.13433 -8.289,0 0,12.67888 10.4432,0 1.6087,9.47512 -12.0519,0 0,12.679 14.2059,0 4.9898,29.37976 -19.1957,0 0,12.61075 21.3498,0 2.6107,15.33737 -23.9605,0 0,12.679 26.1145,0 3.2584,19.15475 c 0.3273,1.90863 1.0225,3.61275 1.97,4.97613 0.014,0.0675 0.02,0.0675 0.034,0.0675 0.013,0 0.013,0 0.014,0 1.5134,2.18137 3.6674,3.54475 5.985,3.74925 l 0,23.58549 c 0,0.0688 0,0.13638 0,0.13638 0,0 0,0.0688 0,0.0688 0,0 0,0.0675 0,0.0675 0,0 0,0.0688 0,0.0688 0,0 0.013,0.0687 0.013,0.0687 0,0 0,0.0675 0,0.0675 0,0 0,0.0687 0,0.0687 0,0 0,0.0688 0,0.0688 0,0 0.013,0.0688 0.013,0.0688 0,0.0688 0,0.0688 0,0.13638 0.013,0 0.013,0 0.013,0.0687 0,0 0,0 0,0.0688 0,0 0,0 0,0 0,0.0688 0.012,0.0688 0.012,0.0688 0,0.0688 0.013,0.0688 0.013,0.0688 0,0.0688 0,0.0688 0,0.0688 0.013,0.0675 0.013,0.0675 0.013,0.0675 0.1364,1.56787 0.5318,3.0675 1.1384,4.43087 l -53.7014,0 0,-323.99486 476.9805,0 -18.1731,0 0,323.99486 m -353.2928,-69.87062 -35.4668,0 0,-15.33738 37.3415,0 -1.8747,15.33738 m 3.4153,-27.94813 -38.8821,0 0,-29.37975 42.4676,0 -3.5855,29.37975 m -56.4145,0 -0.2386,0 -4.9898,-29.37975 5.2284,0 0,29.37975 m 61.5405,-42.05875 -44.0081,0 0,-9.47512 45.167,0 -1.1589,9.47512 m -61.5405,0 -7.3825,0 -1.6155,-9.47512 8.998,0 0,9.47512 m 64.2467,-22.154 -46.7143,0 0,-9.13436 47.8322,0 -1.1179,9.13436 m -64.2467,0 -11.1521,0 -1.561,-9.13436 12.7131,0 0,9.13436 m 66.912,-21.81326 -49.3796,0 0,-41.0361 54.3831,0 -5.0035,41.0361 m -66.912,0 -14.874,0 -0.6203,-3.681 c 0.2727,0.069 0.559,0.1364 0.8453,0.1364 0.259,0 0.5249,-0.069 0.7907,-0.1364 2.0042,-0.5454 3.2857,-3.0675 2.8425,-5.6577 l -5.392,-31.6974 16.4078,0 0,41.0361 m 73.4629,-53.647 -59.3525,0 c -1.4793,-1.4996 -3.3334,-2.3176 -5.351,-2.3176 -2.011,0 -3.8652,0.818 -5.3443,2.3176 l -21.9769,0 -1.4723,-8.6571 94.5535,0 -1.0565,8.6571" />
      <path
         id="path9529"
         style="fill:#37a582;fill-opacity:1;fill-rule:nonzero;stroke:none"
         d="m -1367.4417,-1131.4633 192.666,0 0,-12.6721 -192.666,0 0,12.6721 z" />
      <path
         id="path9531"
         style="fill:#37a582;fill-opacity:1;fill-rule:nonzero;stroke:none"
         d="m -1367.4417,-1102.4927 192.666,0 0,-12.6721 -192.666,0 0,12.6721 z" />
      <path
         id="path9533"
         style="fill:#37a582;fill-opacity:1;fill-rule:nonzero;stroke:none"
         d="m -1373.4404,-1068.1368 192.6688,0 0,-12.6721 -192.6688,0 0,12.6721 z" />
      <path
         id="path9535"
         style="fill:#37a582;fill-opacity:1;fill-rule:nonzero;stroke:none"
         d="m -1373.4404,-1042.5062 192.6688,0 0,-12.6695 -192.6688,0 0,12.6695 z" />
      <path
         id="path9537"
         style="fill:#37a582;fill-opacity:1;fill-rule:nonzero;stroke:none"
         d="m -1373.4404,-1014.4898 192.6688,0 0,-12.6721 -192.6688,0 0,12.6721 z" />
      <path
         id="path9539"
         style="fill:#37a582;fill-opacity:1;fill-rule:nonzero;stroke:none"
         d="m -1373.4404,-970.52256 192.6688,0 0,-12.67213 -192.6688,0 0,12.67213 z" />
      <path
         id="path9541"
         style="fill:#f5f5f5;fill-opacity:1;fill-rule:nonzero;stroke:none"
         d="m -1235.7716,-792.13119 -162.3178,-44.85338 1.4997,-324.26753 160.8181,-62.9175 0,432.03841" />
      <path
         id="path9543"
         style="fill:#959595;fill-opacity:1;fill-rule:nonzero;stroke:none"
         d="m -1162.7722,-836.98456 18.1758,0 0,-323.98184 -18.1758,0 0,323.98184 z" />
      <path
         id="path9545"
         style="fill:#e83735;fill-opacity:1;fill-rule:nonzero;stroke:none"
         d="m -1606.4398,-1131.4633 192.6633,0 0,-12.6721 -192.6633,0 0,12.6721 z" />
      <path
         id="path9547"
         style="fill:#e83735;fill-opacity:1;fill-rule:nonzero;stroke:none"
         d="m -1606.4398,-1083.1334 192.6633,0 0,-12.6694 -192.6633,0 0,12.6694 z" />
      <path
         id="path9549"
         style="fill:#e83735;fill-opacity:1;fill-rule:nonzero;stroke:none"
         d="m -1606.4398,-1061.8654 192.6633,0 0,-12.6613 -192.6633,0 0,12.6613 z" />
      <path
         id="path9551"
         style="fill:#e83735;fill-opacity:1;fill-rule:nonzero;stroke:none"
         d="m -1606.4398,-1008.1504 192.6633,0 0,-12.6667 -192.6633,0 0,12.6667 z" />
      <path
         id="path9553"
         style="fill:#5182cb;fill-opacity:1;fill-rule:nonzero;stroke:none"
         d="m -1606.4398,-986.33719 192.6633,0 0,-12.66937 -192.6633,0 0,12.66937 z" />
      <path
         id="path9555"
         style="fill:#5182cb;fill-opacity:1;fill-rule:nonzero;stroke:none"
         d="m -1606.4398,-964.18306 192.6633,0 0,-12.66401 -192.6633,0 0,12.66401 z" />
      <path
         id="path9557"
         style="fill:#37a582;fill-opacity:1;fill-rule:nonzero;stroke:none"
         d="m -1606.4398,-922.19256 192.6633,0 0,-12.66125 -192.6633,0 0,12.66125 z" />
      <path
         id="path9559"
         style="fill:#37a582;fill-opacity:1;fill-rule:nonzero;stroke:none"
         d="m -1606.4398,-894.17619 192.6633,0 0,-12.66937 -192.6633,0 0,12.66937 z" />
      <path
         id="path9561"
         style="fill:#39393a;fill-opacity:1;fill-rule:nonzero;stroke:none"
         d="m -1559.9368,-879.79307 c 1.0293,6.06675 -1.97,11.99725 -6.7075,13.36063 -4.7308,1.29512 -9.3934,-2.52225 -10.4227,-8.589 l -37.0621,-217.92786 c -1.0292,-5.9986 1.97,-11.9974 6.7008,-13.2925 4.7307,-1.2951 9.4002,2.5221 10.4226,8.589 l 37.0689,217.85973" />
      <path
         id="path9563"
         style="fill:#2d2c2c;fill-opacity:1;fill-rule:nonzero;stroke:none"
         d="m -1569.0642,-892.67657 -36.3668,-213.83783 c 3.9809,0.069 7.5392,3.681 8.4253,8.8616 l 1.2611,7.362 c -1.0975,1.0906 -1.67,2.9311 -1.3565,4.7716 l 9.7546,57.396 c 0.3135,1.8405 1.4383,3.2039 2.788,3.6129 l 15.4943,91.07023 0,40.7635" />
      <path
         id="path9565"
         style="fill:#6e7071;fill-opacity:1;fill-rule:nonzero;stroke:none"
         d="m -1580.08,-1030.1681 c 0.4432,2.5903 -0.8383,5.1124 -2.8425,5.6578 -1.9972,0.6135 -3.9877,-1.0225 -4.424,-3.6129 l -9.7546,-57.396 c -0.4362,-2.5221 0.8316,-5.0444 2.8358,-5.6579 2.0108,-0.5452 3.9877,1.0908 4.4307,3.681 l 9.7546,57.328" />
      <path
         id="path9567"
         style="fill:#bbbab8;fill-opacity:1;fill-rule:nonzero;stroke:none"
         d="m -1575.0492,-869.97719 c -0.013,0 -0.013,0 -0.014,0 0.013,0 0.013,0 0.014,0 m -0.048,-0.0675 c -0.9475,-1.36337 -1.6429,-3.0675 -1.97,-4.97613 l -3.2584,-19.15474 3.2584,19.15474 c 0.3271,1.90863 1.0225,3.61276 1.97,4.97613 m -26.769,-150.78401 0,0 -12.2631,-72.12 c 0,0 -0.014,-0.069 -0.02,-0.069 0.013,0 0.014,0.069 0.02,0.069 l 12.2631,72.12" />
      <path
         id="path9569"
         style="fill:#bbbab8;fill-opacity:1;fill-rule:nonzero;stroke:none"
         d="m -1614.1631,-1093.1538 c 0,0 0,0 0,0 0,0 0,0 0,0" />
      <path
         id="path9571"
         style="fill:#484849;fill-opacity:1;fill-rule:nonzero;stroke:none"
         d="m -1569.0642,-866.22794 c -2.3178,-0.2045 -4.4718,-1.56787 -5.985,-3.74925 -0.013,0 -0.013,0 -0.014,0 -0.014,0 -0.02,0 -0.034,-0.0675 -0.9475,-1.36337 -1.6429,-3.0675 -1.97,-4.97613 l -3.2584,-19.15474 -21.5406,-126.65314 -12.2631,-72.12 c 0,0 -0.014,-0.069 -0.02,-0.069 0,-0.069 0,-0.069 -0.014,-0.1362 -0.013,0 -0.013,0 -0.013,0 -0.7498,-4.908 1.152,-9.7479 4.4581,-11.9974 l 40.6476,238.92323" />
      <path
         id="path9573"
         style="fill:#45bf94;fill-opacity:1;fill-rule:nonzero;stroke:none"
         d="m -1551.5318,-842.64244 c 0,6.20313 -3.9264,11.2475 -8.773,11.2475 -4.833,0 -8.7594,-5.04437 -8.7594,-11.2475 l 0,-222.97226 c 0,-6.2031 3.9264,-11.1792 8.7594,-11.1792 4.8466,0 8.773,4.9761 8.773,11.1792 l 0,222.97226" />
      <path
         id="path9575"
         style="fill:#29334e;fill-opacity:1;fill-rule:nonzero;stroke:none"
         d="m -1553.5291,-835.48494 c 0.2999,-0.47712 0.5658,-1.0225 0.8044,-1.49963 l 0.055,0 c -0.2523,0.54526 -0.5386,1.02251 -0.859,1.49963" />
      <path
         id="path9577"
         style="fill:#adadab;fill-opacity:1;fill-rule:nonzero;stroke:none"
         d="m -1552.6702,-836.98456 -0.055,0 c 0.7566,-1.636 1.1929,-3.61288 1.1929,-5.65788 l 0,-51.53375 0,51.53375 c 0,2.045 -0.3954,4.02188 -1.1384,5.65788" />
      <path
         id="path9579"
         style="fill:#ba302c;fill-opacity:1;fill-rule:nonzero;stroke:none"
         d="m -1551.5318,-1065.6147 c 0,-0.069 0,-0.069 0,-0.1362 0,0.069 0,0.069 0,0.1362 m 0,-0.2045 c 0,0 0,-0.068 0,-0.068 0,0 0,0.068 0,0.068 m 0,-0.1362 c 0,0 0,-0.069 0,-0.069 0,0 0,0.069 0,0.069 m 0,-0.1364 c -0.013,0 -0.013,-0.069 -0.013,-0.069 0,0 0,0.069 0.013,0.069 m -0.013,-0.1364 c 0,0 0,0 -0.013,-0.069 0.013,0.069 0.013,0.069 0.013,0.069 m -0.013,-0.1362 c 0,0 0,0 0,-0.069 0,0.069 0,0.069 0,0.069 m -0.014,-0.2045 c 0,0 0,0 0,0 0,0 0,0 0,0 m -0.013,-0.1364 c 0,0 0,0 0,0 0,0 0,0 0,0 m -0.014,-0.1364 c 0,0 0,0 0,0 0,0 0,0 0,0 m 0,-0.1362 c 0,0 0,0 0,0 0,0 0,0 0,0" />
      <path
         id="path9581"
         style="fill:#349a7a;fill-opacity:1;fill-rule:nonzero;stroke:none"
         d="m -1558.3145,-831.87219 0,-244.64911 c 3.5448,1.0225 6.2714,4.8399 6.7213,9.5434 0,0 0,0 0,0 0,0.069 0,0.069 0.013,0.1362 0,0 0,0 0,0 0,0.069 0,0.069 0.014,0.1364 0,0 0,0 0,0 0,0 0.013,0.069 0.013,0.1364 0,0 0,0 0,0 0.013,0.069 0.013,0.1362 0.014,0.1362 0,0.069 0,0.069 0,0.069 0,0 0,0.068 0,0.068 0.013,0.069 0.013,0.069 0.013,0.069 0,0 0,0.069 0,0.069 0,0 0,0.069 0.013,0.069 0,0 0,0.067 0,0.067 0,0 0,0.069 0,0.069 0,0 0,0.069 0.013,0.069 0,0 0,0.067 0,0.067 0,0.069 0,0.069 0,0.069 0,0.069 0,0.069 0,0.1363 l 0,222.97221 c 0,2.045 -0.4363,4.02188 -1.1929,5.65788 l 0,0 c -0.2386,0.47712 -0.5045,1.0225 -0.8044,1.49962 -0.013,0 -0.013,0 -0.014,0 -2.6516,3.61275 -4.7716,3.61275 -4.7716,3.61275" />
      <path
         id="path9583"
         style="fill:#32435b;fill-opacity:1;fill-rule:nonzero;stroke:none"
         d="m -1546.2217,-994.99431 c 0,2.59037 -1.6701,4.7035 -3.7219,4.7035 -2.0517,0 -3.7151,-2.11313 -3.7151,-4.7035 l 0,-58.75939 c 0,-2.5904 1.6634,-4.7035 3.7151,-4.7035 2.0518,0 3.7219,2.1131 3.7219,4.7035 l 0,58.75939" />
      <path
         id="path9585"
         style="fill:#e2e1df;fill-opacity:1;fill-rule:nonzero;stroke:none"
         d="m -1569.0166,-841.41544 c 0,0 0,0 -0.013,-0.0675 0.013,0.0675 0.013,0.0675 0.013,0.0675 m -0.013,-0.13637 c 0,0 0,0 0,-0.0688 0,0.0688 0,0.0688 0,0.0688 m -0.014,-0.13626 c 0,0 0,0 0,0 0,0 0,0 0,0 m -0.013,-0.0688 c 0,-0.0688 0,-0.0688 -0.013,-0.0688 0.013,0 0.013,0 0.013,0.0688 m -0.013,-0.2045 c 0,0 0,-0.0688 0,-0.0688 0,0 0,0.0688 0,0.0688 m 0,-0.13625 c 0,0 0,-0.0687 0,-0.0687 0,0 0,0.0687 0,0.0687 m 0,-0.13637 c 0,0 -0.013,-0.0688 -0.013,-0.0688 0,0 0.013,0.0688 0.013,0.0688 m -0.013,-0.13638 c 0,0 0,-0.0675 0,-0.0675 0,0 0,0.0675 0,0.0675 m 0,-0.13624 c 0,0 0,-0.0688 0,-0.13638 l 0,0 c 0,0.0688 0,0.13638 0,0.13638" />
      <path
         id="path9587"
         style="fill:#ea4646;fill-opacity:1;fill-rule:nonzero;stroke:none"
         d="m -1569.0642,-1065.6147 c 0,-0.069 0,-0.069 0,-0.1362 0,0.069 0,0.069 0,0.1362 m 0,-0.2045 c 0,0 0,-0.068 0,-0.068 0,0 0,0.068 0,0.068 m 0,-0.1362 c 0,0 0,-0.069 0,-0.069 0,0.069 0,0.069 0,0.069 m 0,-0.1364 c 0,0 0,0 0,-0.069 0,0.069 0,0.069 0,0.069 m 0,-0.1364 c 0,0 0.013,0 0.013,0 0,0 -0.013,0 -0.013,0 m 0.014,-0.2045 c 0,0 0,0 0,0 0,0 0,0 0,0 m 0.013,-0.1362 c 0,0 0,0 0,0 0,0 0,0 0,0 m 0,-0.1364 c 0,0 0,0 0.013,0 -0.013,0 -0.013,0 -0.013,0" />
      <path
         id="path9589"
         style="fill:#51c39d;fill-opacity:1;fill-rule:nonzero;stroke:none"
         d="m -1562.7043,-831.87219 c -3.3743,-1.227 -5.9305,-4.97612 -6.3123,-9.54325 0,0 0,0 -0.013,-0.0675 0,0 0,0 0,-0.0688 0,0 0,0 0,-0.0687 0,0 -0.013,0 -0.013,-0.0688 0,0 0,0 0,0 0,-0.0688 -0.013,-0.0688 -0.013,-0.0688 0,-0.0688 0,-0.0688 -0.013,-0.0688 0,-0.0688 0,-0.0688 0,-0.13638 0,0 0,-0.0687 0,-0.0687 0,0 0,-0.0688 0,-0.0688 0,0 0,-0.0688 0,-0.0688 0,0 0,-0.0675 0,-0.0675 0,0 -0.012,-0.0688 -0.012,-0.0688 0,0 0,-0.0688 0,-0.0688 0,0 0,-0.0675 0,-0.0675 0,0 0,-0.0687 0,-0.0687 0,0 0,-0.0688 0,-0.13637 l 0,-222.97221 c 0,-0.069 0,-0.069 0,-0.1363 0,0 0,0 0,-0.069 0,0 0,-0.068 0,-0.068 0,0 0,0 0,-0.069 0,0 0.012,0 0.012,-0.069 0,0 0,0 0,-0.067 0,0 0,0 0,-0.069 0,0 0,0 0,-0.069 0,0 0,0 0,0 0,-0.069 0,-0.1362 0.013,-0.2045 0,0 0,0 0,0 0,-0.069 0.013,-0.069 0.013,-0.1362 0,0 0,0 0,0 0,-0.069 0.013,-0.069 0.013,-0.1364 0,0 0,0 0,0 0.3409,-4.6353 2.9108,-8.4526 6.3191,-9.6796 l 0,244.51271" />
      <path
         id="path9591"
         style="fill:#e83735;fill-opacity:1;fill-rule:nonzero;stroke:none"
         d="m -1500.9047,-885.65544 c -0.7499,6.06687 -5.2351,10.29312 -10.0136,9.33888 -4.7853,-0.95438 -8.0573,-6.68038 -7.3074,-12.81538 l 26.8916,-220.31366 c 0.7498,-6.135 5.2283,-10.2931 10.0136,-9.3388 4.7853,0.9543 8.0573,6.6803 7.3074,12.7471 l -26.8916,220.38186" />
      <path
         id="path9593"
         style="fill:#adadab;fill-opacity:1;fill-rule:nonzero;stroke:none"
         d="m -1508.8392,-876.24844 c 0.334,0 0.6611,-0.0688 0.9815,-0.13637 -0.518,0.13637 -0.8725,0.13637 -0.9815,0.13637 m 5.092,-2.79487 c 1.4724,-1.636 2.5154,-3.95363 2.8425,-6.61213 l 1.0361,-8.52075 -1.0361,8.52075 c -0.3271,2.6585 -1.2884,5.04438 -2.8425,6.61213" />
      <path
         id="path9595"
         style="fill:#adadab;fill-opacity:1;fill-rule:nonzero;stroke:none"
         d="m -1474.9265,-1098.5389 0.9134,-7.4984 c 0,0 0.014,-0.069 0.02,-0.1364 -0.013,0.069 -0.014,0.1364 -0.02,0.1364 l -0.9134,7.4984 0,0 m 0.9339,-7.6348 c 0,-0.069 0,-0.069 0.014,-0.1362 -0.012,0.067 -0.012,0.067 -0.014,0.1362 m 0.014,-0.1362 c 0.013,-0.069 0.014,-0.069 0.014,-0.1364 0,0.069 -0.013,0.069 -0.014,0.1364 m 0.014,-0.1364 c 0,-0.069 0,-0.069 0,-0.1364 0,0.069 0,0.069 0,0.1364 m 0.014,-0.1364 c 0.013,-0.069 0.013,-0.069 0.013,-0.1362 0,0.069 0,0.069 -0.013,0.1362 m 0.013,-0.1362 c 0.014,-0.069 0.014,-0.2045 0.02,-0.2727 -0.013,0.069 -0.013,0.2044 -0.02,0.2727 m 0.02,-0.2727 c 0.012,-0.069 0.012,-0.1363 0.012,-0.1363 0,0 0,0.069 -0.012,0.1363 m 0.012,-0.2045 c 0,0 0,-0.069 0.013,-0.069 -0.013,0 -0.013,0.069 -0.013,0.069 m 0.013,-0.1363 c 0,0 0,-0.069 0,-0.069 0,0 0,0.069 0,0.069 m 0,-0.1364 c 0,0 0,-0.067 0,-0.067 0,0 0,0.067 0,0.067 m 0,-0.1363 c 0,0 0,0 0,-0.069 0,0.069 0,0.069 0,0.069 m 0,-0.2045 c 0,0 0,0 0,0 0,0 0,0 0,0 m 0,-0.1363 c 0,0 0,0 0,0 0,0 0,0 0,0 m 0,-0.1364 c 0,0 0,0 0,0 0,0 0,0 0,0 m 0,-0.1363 c 0,0 0,0 0,0 0,0 0,0 0,0" />
      <path
         id="path9597"
         style="fill:#ba302c;fill-opacity:1;fill-rule:nonzero;stroke:none"
         d="m -1508.8733,-876.24844 29.482,-241.85426 c 3.1765,1.6359 5.3373,5.5214 5.4805,9.8841 0,0 0,0 0,0 0,0.069 0,0.069 0,0.1363 0,0 0,0 0,0 0.013,0.069 0.013,0.069 0.013,0.1364 0,0 0,0 0,0 0,0.069 0,0.069 0,0.1363 0,0 0,0 0,0 0,0.069 0,0.1363 0,0.1363 0,0.069 0,0.069 0,0.069 0,0.069 0,0.069 0,0.069 0,0 0,0.067 0,0.067 -0.013,0.069 -0.013,0.069 -0.013,0.069 0,0 0,0.069 0,0.069 0,0.069 0,0.069 0,0.069 -0.012,0 -0.012,0.069 -0.012,0.069 0,0.069 0,0.069 0,0.069 0,0 0,0.069 -0.013,0.1364 0,0 0,0 0,0 0,0.069 0,0.2043 -0.02,0.2726 0,0 0,0 0,0 0,0.069 0,0.069 -0.013,0.1362 0,0 0,0 0,0 0,0.069 0,0.069 -0.013,0.1364 0,0 0,0 0,0 0,0.069 -0.013,0.069 -0.014,0.1364 0,0 0,0 0,0 0,0.067 0,0.067 -0.014,0.1362 0,0 0,0 0,0 -0.013,0.069 -0.014,0.1364 -0.02,0.1364 l -0.9134,7.4984 c -1.3293,0.5452 -2.3859,1.9767 -2.6176,3.8854 l -7.0825,58.0096 c -0.2318,1.8405 0.4362,3.6129 1.5815,4.6354 l -1.3634,11.1792 -1.5474,12.6789 -1.1179,9.13435 -1.5473,12.67888 -1.1589,9.47512 -1.5474,12.679 -3.5787,29.37975 -1.5474,12.61075 -1.8745,15.33738 -1.5406,12.679 -1.0362,8.52075 c -0.3271,2.6585 -1.3701,4.97612 -2.8425,6.61212 0,0 0,0 0,0 -1.6292,1.70425 -3.1492,2.38588 -4.1105,2.6585 -0.3203,0.0688 -0.6475,0.13638 -0.9815,0.13638 -0.028,0 -0.034,0 -0.034,0" />
      <path
         id="path9599"
         style="fill:#232417;fill-opacity:1;fill-rule:nonzero;stroke:none"
         d="m -1477.2782,-1035.2124 c -0.3204,2.5903 -2.2154,4.3626 -4.2468,3.9536 -2.0246,-0.409 -3.422,-2.7948 -3.1016,-5.3851 l 7.0825,-58.0097 c 0.3136,-2.6583 2.2154,-4.4307 4.2468,-4.0217 2.0313,0.409 3.4151,2.863 3.1016,5.4532 l -7.0825,58.0097" />
      <path
         id="path9601"
         style="fill:#d3d2d0;fill-opacity:1;fill-rule:nonzero;stroke:none"
         d="m -1518.2803,-888.65469 c 0.012,0 0.012,0 0.012,0 0,0 0,0 -0.012,0 m 0.014,-0.0688 c 0,-0.0688 0,-0.0688 0,-0.0688 0,0 0,0 0,0.0688 m 0.014,-0.13625 c 0,0 0,-0.0688 0.013,-0.0688 -0.013,0 -0.013,0.0688 -0.013,0.0688 m 0.014,-0.13637 c 0,-0.0688 0.013,-0.0688 0.014,-0.13638 0,0.0688 -0.014,0.0688 -0.014,0.13638 m 26.9052,-220.44999 c 0.013,-0.069 0.013,-0.069 0.014,-0.1364 -0.012,0.069 -0.012,0.069 -0.014,0.1364 m 0.02,-0.1364 c 0,-0.069 0.013,-0.069 0.014,-0.1364 -0.013,0.069 -0.014,0.069 -0.014,0.1364 m 0.014,-0.1364 c 0.2728,-1.9086 0.9135,-3.681 1.8201,-5.0442 -0.9066,1.3632 -1.5473,3.1356 -1.8201,5.0442 m 1.8269,-5.1125 c 0.014,0 0.034,0 0.048,-0.069 -0.014,0.069 -0.034,0.069 -0.048,0.069 m 0.069,-0.069 c 0,0 0.02,-0.069 0.028,-0.069 -0.013,0 -0.02,0.069 -0.028,0.069 m 0.068,-0.1363 c 0.013,0 0.013,0 0.013,0 0,0 0,0 -0.013,0" />
      <path
         id="path9603"
         style="fill:#dc3c3b;fill-opacity:1;fill-rule:nonzero;stroke:none"
         d="m -1513.2428,-877.27094 c -3.347,-1.97688 -5.4602,-6.47575 -5.0375,-11.38375 0.012,0 0.012,0 0.012,0 0,-0.0688 0.013,-0.0688 0.013,-0.0688 0,-0.0688 0,-0.0688 0,-0.0688 0,-0.0687 0,-0.0687 0.013,-0.0687 0,0 0,-0.0688 0.013,-0.0688 0,-0.0688 0.013,-0.0688 0.013,-0.0688 0,-0.0688 0.012,-0.0688 0.014,-0.13638 l 0,0 26.8916,-220.31363 0,0 c 0.013,-0.069 0.013,-0.069 0.014,-0.1364 0,0 0,0 0,0 0,-0.069 0.013,-0.069 0.014,-0.1363 0,0 0,0 0,0 0.2727,-1.9087 0.9135,-3.681 1.8201,-5.0443 0,0 0.012,0 0.012,-0.069 0.014,0 0.034,0 0.048,-0.069 0.013,0 0.014,0 0.02,0 0.013,0 0.02,-0.069 0.027,-0.069 0.014,0 0.028,0 0.041,-0.069 0,0 0,0 0,0 1.4043,-2.0449 3.3879,-3.4764 5.5828,-3.8172 l -29.4905,241.58671" />
      <path
         id="path9605"
         style="fill:#162e2f;fill-opacity:1;fill-rule:evenodd;stroke:none"
         d="m -1101.8589,-498.40219 369.49934,0 0,-17.15338 -369.49934,0 0,17.15338 z" />
      <path
         id="path9607"
         style="fill:#354a88;fill-opacity:1;fill-rule:evenodd;stroke:none"
         d="m -1205.6694,-708.55919 c 0.484,-0.13625 0.9748,-0.13625 1.4724,-0.2045 -0.4976,0.0688 -0.9884,0.0688 -1.4724,0.2045 m -2.4267,0.47725 c 0.375,-0.0688 0.7567,-0.13638 1.1383,-0.2045 -0.3816,0.0688 -0.7633,0.13625 -1.1383,0.2045 m -2.3449,0.68162 c 0.2931,-0.0687 0.5999,-0.13637 0.8998,-0.27262 -0.2999,0.13625 -0.6067,0.20437 -0.8998,0.27262 m -2.2562,0.88613 c 0.2385,-0.13638 0.4771,-0.2045 0.7021,-0.27263 -0.225,0.0688 -0.4636,0.13625 -0.7021,0.27263 m -2.1337,1.0225 c 0.1773,-0.13637 0.3544,-0.2045 0.5317,-0.27263 -0.1773,0.0688 -0.3544,0.13626 -0.5317,0.27263 m -1.9905,1.09062 c 0.1163,-0.0675 0.2318,-0.13624 0.3545,-0.2045 -0.1225,0.0688 -0.2386,0.13638 -0.3545,0.2045 m -1.82,1.22701 0.1636,-0.13626 -0.1636,0.13626 m 15.4533,-5.72588 c 0.8385,-0.0687 1.6768,-0.13637 2.5153,-0.13637 -0.8385,0 -1.6768,0.0688 -2.5153,0.13637 m -22.6925,14.86025 c -0.1025,0.27262 -0.2114,0.54525 -0.2932,0.88612 0.081,-0.34087 0.1909,-0.6135 0.2932,-0.88612 m 0.6883,-1.636 c -0.081,0.13625 -0.184,0.34075 -0.259,0.47713 0.075,-0.13638 0.1773,-0.34088 0.259,-0.47713 m -1.2065,3.4765 c -0.069,0.409 -0.1363,0.74975 -0.1772,1.09063 0.041,-0.34088 0.1087,-0.68163 0.1772,-1.09063 m 583.91324,-32.17462 -555.77404,0 c -25.4738,0 -33.3403,16.01912 -28.4254,34.90125 0,-0.2045 0.041,-0.409 0.047,-0.68163 -0.055,1.29513 0.048,2.59025 0.4021,3.88538 l 40.2181,151.87475 c 6.0805,23.04025 11.5339,23.72187 41.5203,23.72187 l 464.69704,-0.0688 c 24.1309,0 35.8896,0.0688 40.6749,-23.10837 l 31.3292,-152.42013 c 0.1088,-0.54525 0.1636,-1.15875 0.2114,-1.70413 l 0.014,0 1.5133,-12.88337 c 2.1472,-18.54125 -22.2631,-23.5175 -36.4281,-23.5175" />
      <path
         id="path9609"
         style="fill:#1d263d;fill-opacity:1;fill-rule:nonzero;stroke:none"
         d="m -607.57076,-687.97294 0,0 c -2.0654,-9.6115 -14.0355,-21.06337 -25.7873,-21.06337 l -218.4391,0 22.2222,-15.33751 187.0894,0 c 13.5515,0 36.4895,4.56725 36.5509,21.19975 0.014,0.74988 -0.041,1.49975 -0.1225,2.31775 l -1.5133,12.88338" />
      <path
         id="path9611"
         style="fill:#2f6e62;fill-opacity:1;fill-rule:nonzero;stroke:none"
         d="m -1226.685,-689.47257 c 0,0 0,0 0,-0.0687 0,0.0687 0,0.0687 0,0.0687" />
      <path
         id="path9613"
         style="fill:#1d263d;fill-opacity:1;fill-rule:nonzero;stroke:none"
         d="m -1226.685,-689.47257 c -0.9202,-3.54462 -1.3906,-6.95299 -1.3839,-10.225 0.034,-14.11037 9.1071,-24.67625 29.8093,-24.67625 l 149.2092,0 c -0.3885,0.27275 -0.7702,0.54538 -1.1451,0.81801 -6.2645,4.29449 -11.8882,9.20249 -16.8644,14.5195 l -133.6128,0 0,0 c -12.7677,0 -26.1078,8.86162 -26.0123,19.49562 0,0.0687 0,0.0687 0,0.0687 l 0,0 m 310.88624,-19.56375 -1.4246,0 c -0.1909,-0.2045 -0.3748,-0.409 -0.559,-0.6135 l -3.456,-6.61213 -2.4812,0.81801 c -3.6401,-3.272 -7.4643,-6.27138 -11.4656,-8.92988 l 41.602,0 c 0,0 0,0 0,0 l -22.2155,15.3375 m -36.953,0 -78.71854,0 c 12.3245,-6.953 25.8623,-10.36125 39.28434,-10.36125 13.7492,0 27.3755,3.54463 39.4342,10.36125" />
      <path
         id="path9615"
         style="fill:#d9dee9;fill-opacity:1;fill-rule:nonzero;stroke:none"
         d="m -1162.9086,-521.91969 -35.4874,-176.4145 122.7268,-0.13637 c -24.0764,34.08325 -25.726,80.9135 -0.6818,117.178 19.8501,28.83437 51.8133,44.23999 84.31504,44.23999 2.8766,0 5.7396,-0.0687 8.6095,-0.34087 l 3.6809,6.40763 11.636,-4.83975 c 2.4881,2.11312 5.3239,3.74912 8.3981,4.83975 l 1.5406,8.998 -204.73774,0.0675 m 221.36354,-0.0675 1.2201,-9.2025 c 3.0539,-1.15875 5.8555,-2.86288 8.2891,-4.97613 l 11.6905,4.2945 7.8392,-13.56512 -10.1568,-7.77088 c 0.2249,-1.4315 0.3408,-2.93125 0.3408,-4.43087 0,-1.636 -0.1499,-3.34013 -0.4227,-4.908 l 9.7479,-8.11175 -1.2884,-2.2495 c 7.8255,-9.13426 13.8514,-19.49563 17.9618,-30.53851 l 11.752,-3.74925 -3.2993,-18.20037 c 3.7764,-3.0675 6.9462,-6.7485 9.4069,-10.8385 l 18.4663,0.818 4.874,-22.69938 -17.846,-6.40762 c -0.3409,-2.11313 -0.8385,-4.22625 -1.527,-6.3395 -0.7634,-2.38575 -1.7382,-4.7035 -2.8629,-6.81662 l 10.0749,-15.81463 -5.6987,-5.18063 240.3752,-0.27262 -30.5114,176.89175 -278.4255,0.0688 m -50.5045,-37.35513 c -25.42604,0 -50.42264,-12.0655 -65.94414,-34.56037 15.5078,22.49487 40.4976,34.56037 65.91014,34.56037 4.6625,0 9.3524,-0.409 13.9876,-1.227 0,0 0,0 -0.014,0 -4.6217,0.818 -9.2843,1.227 -13.94,1.227 m 8.6162,-6.88487 c -52.56314,-0.74975 -77.61424,-39.87725 -88.31644,-65.23513 1.2679,12.88338 5.6238,25.56238 13.3675,36.94613 -22.5562,-33.26525 -16.6667,-77.57338 12.3313,-103.95375 l 104.65594,-0.13625 1.3837,7.70275 c -3.7764,2.99925 -6.9461,6.68025 -9.4137,10.8385 l -18.4595,-0.818 -4.8875,22.63112 17.8595,6.47588 c 0.3408,2.11312 0.8385,4.22625 1.527,6.3395 0.7635,2.38575 1.7246,4.63525 2.863,6.74837 l -10.0887,15.88288 17.212,15.54187 14.24,-12.0655 c 4.3218,1.77238 8.9503,2.79488 13.6878,2.99938 -3.8241,12.74712 -10.8249,24.60812 -20.7635,34.28775 -1.4655,-0.88625 -3.0129,-1.636 -4.6353,-2.18138 l -2.0791,-12.20175 -15.651,0 -1.6496,12.40625 c -3.0606,1.15888 -5.8623,2.863 -8.289,4.97613 l -11.6974,-4.36263 -7.8255,13.56513 4.6285,3.61275 m -26.12814,-24.608 c 0.3407,0.54525 0.7157,1.0225 1.152,1.4315 0.4771,0.54525 0.9884,1.0225 1.5269,1.4315 l -0.6817,5.24875 6.2168,1.90862 2.20174,-4.77162 c 1.3362,-0.0675 2.6585,-0.409 3.9264,-0.88613 l 4.0696,3.0675 4.7648,-4.43087 -2.9856,-4.22625 c 0.5862,-1.227 0.9611,-2.52213 1.0975,-3.81738 l 4.7988,-2.045 -1.4587,-6.33937 -5.3034,0.47712 c -0.334,-0.47712 -0.7089,-0.95437 -1.1384,-1.4315 -0.4771,-0.47712 -0.9883,-0.95437 -1.5337,-1.36337 l 0.6885,-5.24875 -6.2236,-1.90863 -2.19504,4.77163 c -1.336,0.0688 -2.6722,0.34075 -3.9195,0.88612 l -4.0764,-3.13562 -4.7785,4.43075 2.9994,4.2945 c -0.593,1.227 -0.9748,2.52212 -1.1112,3.81737 l -4.7852,2.045 1.4519,6.33938 5.2966,-0.54525 m -18.3981,-33.87875 c 0.7021,0.6135 1.4587,1.09075 2.2631,1.56787 0.9134,0.47713 1.8472,0.88613 2.7947,1.227 l 1.4043,7.70275 9.6456,-0.13625 0.9406,-7.70287 c 1.861,-0.68163 3.5993,-1.77225 5.1262,-3.0675 l 7.17784,2.52225 4.6968,-8.3845 -6.14864,-4.63538 c 0.28624,-1.97675 0.21124,-4.02175 -0.1909,-5.93037 l 5.85554,-4.97625 -4.9421,-8.31625 -7.24604,3.0675 c -0.7022,-0.54538 -1.4657,-1.0225 -2.2632,-1.4315 -0.9135,-0.54538 -1.8541,-0.95438 -2.8016,-1.29513 l -1.3975,-7.70287 -9.6524,0.13637 -0.9406,7.70275 c -1.8474,0.74988 -3.5856,1.77238 -5.1194,3.0675 l -7.1642,-2.52212 -4.7308,8.3845 6.1692,4.63525 c -0.2864,1.97687 -0.2114,4.02187 0.1976,5.9305 l -5.8623,4.97612 4.9353,8.31638 7.2529,-3.13575 m -30.0342,30.81125 c -0.067,-0.13638 -0.1295,-0.2045 -0.1772,-0.27263 0.048,0.0688 0.1087,0.13625 0.1772,0.27263 m -0.2181,-0.34088 c -0.047,-0.0688 -0.1025,-0.13625 -0.15,-0.2045 0.047,0.0687 0.1025,0.13638 0.15,0.2045" />
      <path
         id="path9617"
         style="fill:#c6c5c3;fill-opacity:1;fill-rule:evenodd;stroke:none"
         d="m -1170.5977,-505.49157 510.23884,0 c 8.4527,0 15.3715,6.88488 15.3715,15.33748 l 0,281.3908 c 0,8.4526 -6.9188,15.3375 -15.3715,15.3375 l -510.23884,0 c -8.439,0 -15.3715,-6.8849 -15.3715,-15.3375 l 0,-281.3908 c 0,-8.4526 6.9325,-15.33748 15.3715,-15.33748" />
      <path
         id="path9619"
         style="fill:#999a99;fill-opacity:1;fill-rule:nonzero;stroke:none"
         d="m -660.35886,-193.42579 -368.20064,0 113.16304,-108.5891 243.5858,0 0,-177.1644 -58.9708,0 27.4574,-26.31227 42.9652,0 c 8.4527,0 15.3715,6.88487 15.3715,15.33747 l 0,281.3908 c 0,8.4526 -6.9188,15.3375 -15.3715,15.3375" />
      <path
         id="path9621"
         style="fill:#243464;fill-opacity:1;fill-rule:evenodd;stroke:none"
         d="m -987.76196,-212.92149 144.5264,0 0,-75.6489 -144.5264,0 0,75.6489 z" />
      <path
         id="path9623"
         style="fill:#858686;fill-opacity:1;fill-rule:nonzero;stroke:none"
         d="m -915.39646,-302.01489 -243.74944,0 0,-177.1644 428.36444,0 -184.615,177.1644" />
      <path
         id="path9625"
         style="fill:#66686a;fill-opacity:1;fill-rule:nonzero;stroke:none"
         d="m -671.81076,-302.01489 -243.5857,0 184.615,-177.1644 58.9707,0 0,177.1644" />
      <path
         id="path9627"
         style="fill:#2e2d2d;fill-opacity:1;fill-rule:evenodd;stroke:none"
         d="m -1148.5936,-468.68169 22.6175,0 c 1.3429,0 2.4064,1.4315 2.4064,3.1356 l 0,24.4037 c 0,1.7041 -1.0635,3.1356 -2.4064,3.1356 l -22.6175,0 c -1.3429,0 -2.454,-1.4315 -2.454,-3.1356 l 0,-24.4037 c 0,-1.7041 1.1111,-3.1356 2.454,-3.1356" />
      <path
         id="path9629"
         style="fill:#2e2d2d;fill-opacity:1;fill-rule:evenodd;stroke:none"
         d="m -1111.8861,-468.68169 22.6109,0 c 1.336,0 2.4538,1.4315 2.4538,3.1356 l 0,24.4037 c 0,1.7041 -1.1178,3.1356 -2.4538,3.1356 l -22.6109,0 c -1.336,0 -2.4471,-1.4315 -2.4471,-3.1356 l 0,-24.4037 c 0,-1.7041 1.1111,-3.1356 2.4471,-3.1356" />
      <path
         id="path9631"
         style="fill:#2e2d2d;fill-opacity:1;fill-rule:evenodd;stroke:none"
         d="m -1075.1444,-468.68169 22.5699,0 c 1.3496,0 2.454,1.4315 2.454,3.1356 l 0,24.4037 c 0,1.7041 -1.1044,3.1356 -2.454,3.1356 l -22.5699,0 c -1.3428,0 -2.454,-1.4315 -2.454,-3.1356 l 0,-24.4037 c 0,-1.7041 1.1112,-3.1356 2.454,-3.1356" />
      <path
         id="path9633"
         style="fill:#2e2d2d;fill-opacity:1;fill-rule:evenodd;stroke:none"
         d="m -1038.4369,-468.68169 22.5768,0 c 1.3837,0 2.4404,1.4315 2.4404,3.1356 l 0,24.4037 c 0,1.7041 -1.0567,3.1356 -2.4404,3.1356 l -22.5768,0 c -1.336,0 -2.4471,-1.4315 -2.4471,-3.1356 l 0,-24.4037 c 0,-1.7041 1.1111,-3.1356 2.4471,-3.1356" />
      <path
         id="path9635"
         style="fill:#2e2d2d;fill-opacity:1;fill-rule:evenodd;stroke:none"
         d="m -1001.736,-468.68169 22.62444,0 c 1.336,0 2.4403,1.4315 2.4403,3.1356 l 0,24.4037 c 0,1.7041 -1.1043,3.1356 -2.4403,3.1356 l -22.62444,0 c -1.3361,0 -2.4472,-1.4315 -2.4472,-3.1356 l 0,-24.4037 c 0,-1.7041 1.1111,-3.1356 2.4472,-3.1356" />
      <path
         id="path9637"
         style="fill:#2e2d2d;fill-opacity:1;fill-rule:evenodd;stroke:none"
         d="m -964.98746,-468.68169 22.5766,0 c 1.3362,0 2.454,1.4315 2.454,3.1356 l 0,24.4037 c 0,1.7041 -1.1178,3.1356 -2.454,3.1356 l -22.5766,0 c -1.3361,0 -2.4472,-1.4315 -2.4472,-3.1356 l 0,-24.4037 c 0,-1.7041 1.1111,-3.1356 2.4472,-3.1356" />
      <path
         id="path9639"
         style="fill:#2e2d2d;fill-opacity:1;fill-rule:evenodd;stroke:none"
         d="m -928.28666,-468.68169 22.5766,0 c 1.3839,0 2.454,1.4315 2.454,3.1356 l 0,24.4037 c 0,1.7041 -1.0701,3.1356 -2.454,3.1356 l -22.5766,0 c -1.3362,0 -2.4473,-1.4315 -2.4473,-3.1356 l 0,-24.4037 c 0,-1.7041 1.1111,-3.1356 2.4473,-3.1356" />
      <path
         id="path9641"
         style="fill:#2e2d2d;fill-opacity:1;fill-rule:evenodd;stroke:none"
         d="m -891.58596,-468.68169 22.6244,0 c 1.3361,0 2.454,1.4315 2.454,3.1356 l 0,24.4037 c 0,1.7041 -1.1179,3.1356 -2.454,3.1356 l -22.6244,0 c -1.336,0 -2.4335,-1.4315 -2.4335,-3.1356 l 0,-24.4037 c 0,-1.7041 1.0975,-3.1356 2.4335,-3.1356" />
      <path
         id="path9643"
         style="fill:#2e2d2d;fill-opacity:1;fill-rule:evenodd;stroke:none"
         d="m -854.83746,-468.68169 22.5767,0 c 1.3497,0 2.4539,1.4315 2.4539,3.1356 l 0,24.4037 c 0,1.7041 -1.1042,3.1356 -2.4539,3.1356 l -22.5767,0 c -1.3837,0 -2.4471,-1.4315 -2.4471,-3.1356 l 0,-24.4037 c 0,-1.7041 1.0634,-3.1356 2.4471,-3.1356" />
      <path
         id="path9645"
         style="fill:#2e2d2d;fill-opacity:1;fill-rule:evenodd;stroke:none"
         d="m -818.12306,-468.68169 22.5767,0 c 1.377,0 2.4472,1.4315 2.4472,3.1356 l 0,24.4037 c 0,1.7041 -1.0702,3.1356 -2.4472,3.1356 l -22.5767,0 c -1.3497,0 -2.4471,-1.4315 -2.4471,-3.1356 l 0,-24.4037 c 0,-1.7041 1.0974,-3.1356 2.4471,-3.1356" />
      <path
         id="path9647"
         style="fill:#2e2d2d;fill-opacity:1;fill-rule:evenodd;stroke:none"
         d="m -781.42236,-468.68169 22.6245,0 c 1.336,0 2.4404,1.4315 2.4404,3.1356 l 0,24.4037 c 0,1.7041 -1.1044,3.1356 -2.4404,3.1356 l -22.6245,0 c -1.3496,0 -2.4471,-1.4315 -2.4471,-3.1356 l 0,-24.4037 c 0,-1.7041 1.0975,-3.1356 2.4471,-3.1356" />
      <path
         id="path9649"
         style="fill:#2e2d2d;fill-opacity:1;fill-rule:evenodd;stroke:none"
         d="m -1093.4744,-426.14579 22.5768,0 c 1.336,0 2.4471,1.4314 2.4471,3.2037 l 0,24.3354 c 0,1.7042 -1.1111,3.1356 -2.4471,3.1356 l -22.5768,0 c -1.336,0 -2.4471,-1.4314 -2.4471,-3.1356 l 0,-24.3354 c 0,-1.7723 1.1111,-3.2037 2.4471,-3.2037" />
      <path
         id="path9651"
         style="fill:#2e2d2d;fill-opacity:1;fill-rule:evenodd;stroke:none"
         d="m -1056.7736,-426.14579 22.6245,0 c 1.336,0 2.454,1.4314 2.454,3.2037 l 0,24.3354 c 0,1.7042 -1.118,3.1356 -2.454,3.1356 l -22.6245,0 c -1.336,0 -2.4403,-1.4314 -2.4403,-3.1356 l 0,-24.3354 c 0,-1.7723 1.1043,-3.2037 2.4403,-3.2037" />
      <path
         id="path9653"
         style="fill:#2e2d2d;fill-opacity:1;fill-rule:evenodd;stroke:none"
         d="m -1020.0591,-426.14579 22.62434,0 c 1.3224,0 2.4336,1.4314 2.4336,3.2037 l 0,24.3354 c 0,1.7042 -1.1112,3.1356 -2.4336,3.1356 l -22.62434,0 c -1.3362,0 -2.3995,-1.4314 -2.3995,-3.1356 l 0,-24.3354 c 0,-1.7723 1.0633,-3.2037 2.3995,-3.2037" />
      <path
         id="path9655"
         style="fill:#2e2d2d;fill-opacity:1;fill-rule:evenodd;stroke:none"
         d="m -983.32416,-426.14579 22.5902,0 c 1.3361,0 2.4336,1.4314 2.4336,3.2037 l 0,24.3354 c 0,1.7042 -1.0975,3.1356 -2.4336,3.1356 l -22.5902,0 c -1.3362,0 -2.4404,-1.4314 -2.4404,-3.1356 l 0,-24.3354 c 0,-1.7723 1.1042,-3.2037 2.4404,-3.2037" />
      <path
         id="path9657"
         style="fill:#2e2d2d;fill-opacity:1;fill-rule:evenodd;stroke:none"
         d="m -946.60986,-426.14579 22.6244,0 c 1.3361,0 2.3995,1.4314 2.3995,3.2037 l 0,24.3354 c 0,1.7042 -1.0634,3.1356 -2.3995,3.1356 l -22.6244,0 c -1.3361,0 -2.454,-1.4314 -2.454,-3.1356 l 0,-24.3354 c 0,-1.7723 1.1179,-3.2037 2.454,-3.2037" />
      <path
         id="path9659"
         style="fill:#2e2d2d;fill-opacity:1;fill-rule:evenodd;stroke:none"
         d="m -909.90906,-426.14579 22.6244,0 c 1.3361,0 2.4472,1.4314 2.4472,3.2037 l 0,24.3354 c 0,1.7042 -1.1111,3.1356 -2.4472,3.1356 l -22.6244,0 c -1.336,0 -2.454,-1.4314 -2.454,-3.1356 l 0,-24.3354 c 0,-1.7723 1.118,-3.2037 2.454,-3.2037" />
      <path
         id="path9661"
         style="fill:#2e2d2d;fill-opacity:1;fill-rule:evenodd;stroke:none"
         d="m -873.16056,-426.14579 22.5767,0 c 1.336,0 2.4472,1.4314 2.4472,3.2037 l 0,24.3354 c 0,1.7042 -1.1112,3.1356 -2.4472,3.1356 l -22.5767,0 c -1.3361,0 -2.4471,-1.4314 -2.4471,-3.1356 l 0,-24.3354 c 0,-1.7723 1.111,-3.2037 2.4471,-3.2037" />
      <path
         id="path9663"
         style="fill:#2e2d2d;fill-opacity:1;fill-rule:evenodd;stroke:none"
         d="m -836.45986,-426.14579 22.6245,0 c 1.336,0 2.3994,1.4314 2.3994,3.2037 l 0,24.3354 c 0,1.7042 -1.0634,3.1356 -2.3994,3.1356 l -22.6245,0 c -1.336,0 -2.4403,-1.4314 -2.4403,-3.1356 l 0,-24.3354 c 0,-1.7723 1.1043,-3.2037 2.4403,-3.2037" />
      <path
         id="path9665"
         style="fill:#2e2d2d;fill-opacity:1;fill-rule:evenodd;stroke:none"
         d="m -799.75906,-426.14579 22.6245,0 c 1.336,0 2.4471,1.4314 2.4471,3.2037 l 0,24.3354 c 0,1.7042 -1.1111,3.1356 -2.4471,3.1356 l -22.6245,0 c -1.336,0 -2.454,-1.4314 -2.454,-3.1356 l 0,-24.3354 c 0,-1.7723 1.118,-3.2037 2.454,-3.2037" />
      <path
         id="path9667"
         style="fill:#2e2d2d;fill-opacity:1;fill-rule:evenodd;stroke:none"
         d="m -763.01056,-426.14579 22.5835,0 c 1.343,0 2.4404,1.4314 2.4404,3.2037 l 0,24.3354 c 0,1.7042 -1.0974,3.1356 -2.4404,3.1356 l -22.5835,0 c -1.336,0 -2.4471,-1.4314 -2.4471,-3.1356 l 0,-24.3354 c 0,-1.7723 1.1111,-3.2037 2.4471,-3.2037" />
      <path
         id="path9669"
         style="fill:#2e2d2d;fill-opacity:1;fill-rule:evenodd;stroke:none"
         d="m -744.67386,-468.68169 22.5768,0 c 1.336,0 2.454,1.4315 2.454,3.1356 l 0,24.4037 c 0,1.7041 -1.118,3.1356 -2.454,3.1356 l -22.5768,0 c -1.3837,0 -2.4471,-1.4315 -2.4471,-3.1356 l 0,-24.4037 c 0,-1.7041 1.0634,-3.1356 2.4471,-3.1356" />
      <path
         id="path9671"
         style="fill:#2e2d2d;fill-opacity:1;fill-rule:evenodd;stroke:none"
         d="m -707.97296,-468.68169 22.5766,0 c 1.3362,0 2.4404,1.4315 2.4404,3.1356 l 0,24.4037 c 0,1.7041 -1.1042,3.1356 -2.4404,3.1356 l -22.5766,0 c -1.3498,0 -2.4472,-1.4315 -2.4472,-3.1356 l 0,-24.4037 c 0,-1.7041 1.0974,-3.1356 2.4472,-3.1356" />
      <path
         id="path9673"
         style="fill:#2e2d2d;fill-opacity:1;fill-rule:evenodd;stroke:none"
         d="m -725.69616,-426.14579 40.2998,0 c 1.3362,0 2.4404,1.4314 2.4404,3.2037 l 0,24.3354 c 0,1.7042 -1.1042,3.1356 -2.4404,3.1356 l -40.2998,0 c -1.3498,0 -2.4609,-1.4314 -2.4609,-3.1356 l 0,-24.3354 c 0,-1.7723 1.1111,-3.2037 2.4609,-3.2037" />
      <path
         id="path9675"
         style="fill:#2e2d2d;fill-opacity:1;fill-rule:evenodd;stroke:none"
         d="m -1148.2256,-426.14579 41.8269,0 c 1.3361,0 2.4403,1.4314 2.4403,3.2037 l 0,24.3354 c 0,1.7042 -1.1042,3.1356 -2.4403,3.1356 l -41.8269,0 c -1.3838,0 -2.4471,-1.4314 -2.4471,-3.1356 l 0,-24.3354 c 0,-1.7723 1.0633,-3.2037 2.4471,-3.2037" />
      <path
         id="path9677"
         style="fill:#2e2d2d;fill-opacity:1;fill-rule:evenodd;stroke:none"
         d="m -1148.2256,-383.61009 49.9524,0 c 1.336,0 2.4471,1.4315 2.4471,3.2039 l 0,24.3354 c 0,1.7041 -1.1111,3.1356 -2.4471,3.1356 l -49.9524,0 c -1.3838,0 -2.4471,-1.4315 -2.4471,-3.1356 l 0,-24.3354 c 0,-1.7724 1.0633,-3.2039 2.4471,-3.2039" />
      <path
         id="path9679"
         style="fill:#2e2d2d;fill-opacity:1;fill-rule:evenodd;stroke:none"
         d="m -1148.2256,-341.00609 22.529,0 c 1.3497,0 2.4472,1.4315 2.4472,3.1357 l 0,24.3353 c 0,1.7724 -1.0975,3.2039 -2.4472,3.2039 l -22.529,0 c -1.3838,0 -2.4471,-1.4315 -2.4471,-3.2039 l 0,-24.3353 c 0,-1.7042 1.0633,-3.1357 2.4471,-3.1357" />
      <path
         id="path9681"
         style="fill:#2e2d2d;fill-opacity:1;fill-rule:evenodd;stroke:none"
         d="m -1111.5725,-341.00609 22.5358,0 c 1.3428,0 2.4472,1.4315 2.4472,3.1357 l 0,24.3353 c 0,1.7724 -1.1044,3.2039 -2.4472,3.2039 l -22.5358,0 c -1.3361,0 -2.4404,-1.4315 -2.4404,-3.2039 l 0,-24.3353 c 0,-1.7042 1.1043,-3.1357 2.4404,-3.1357" />
      <path
         id="path9683"
         style="fill:#2e2d2d;fill-opacity:1;fill-rule:evenodd;stroke:none"
         d="m -1074.9126,-341.00609 22.529,0 c 1.3837,0 2.4471,1.4315 2.4471,3.1357 l 0,24.3353 c 0,1.7724 -1.0634,3.2039 -2.4471,3.2039 l -22.529,0 c -1.3361,0 -2.4473,-1.4315 -2.4473,-3.2039 l 0,-24.3353 c 0,-1.7042 1.1112,-3.1357 2.4473,-3.1357" />
      <path
         id="path9685"
         style="fill:#2e2d2d;fill-opacity:1;fill-rule:evenodd;stroke:none"
         d="m -1038.246,-341.00609 234.75144,0 c 1.3837,0 2.4472,1.4315 2.4472,3.1357 l 0,24.3353 c 0,1.7724 -1.0635,3.2039 -2.4472,3.2039 l -234.75144,0 c -1.3496,0 -2.454,-1.4315 -2.454,-3.2039 l 0,-24.3353 c 0,-1.7042 1.1044,-3.1357 2.454,-3.1357" />
      <path
         id="path9687"
         style="fill:#2e2d2d;fill-opacity:1;fill-rule:evenodd;stroke:none"
         d="m -1084.7014,-383.13289 22.5768,0 c 1.3429,0 2.4471,1.4315 2.4471,3.1357 l 0,24.3354 c 0,1.7722 -1.1042,3.1356 -2.4471,3.1356 l -22.5768,0 c -1.336,0 -2.4471,-1.3634 -2.4471,-3.1356 l 0,-24.3354 c 0,-1.7042 1.1111,-3.1357 2.4471,-3.1357" />
      <path
         id="path9689"
         style="fill:#2e2d2d;fill-opacity:1;fill-rule:evenodd;stroke:none"
         d="m -1048.0006,-383.13289 22.6312,0 c 1.3362,0 2.4473,1.4315 2.4473,3.1357 l 0,24.3354 c 0,1.7722 -1.1111,3.1356 -2.4473,3.1356 l -22.6312,0 c -1.336,0 -2.4471,-1.3634 -2.4471,-3.1356 l 0,-24.3354 c 0,-1.7042 1.1111,-3.1357 2.4471,-3.1357" />
      <path
         id="path9691"
         style="fill:#2e2d2d;fill-opacity:1;fill-rule:evenodd;stroke:none"
         d="m -1011.2861,-383.13289 22.61074,0 c 1.3429,0 2.454,1.4315 2.454,3.1357 l 0,24.3354 c 0,1.7722 -1.1111,3.1356 -2.454,3.1356 l -22.61074,0 c -1.3498,0 -2.4131,-1.3634 -2.4131,-3.1356 l 0,-24.3354 c 0,-1.7042 1.0633,-3.1357 2.4131,-3.1357" />
      <path
         id="path9693"
         style="fill:#2e2d2d;fill-opacity:1;fill-rule:evenodd;stroke:none"
         d="m -974.55116,-383.13289 22.5902,0 c 1.3293,0 2.4404,1.4315 2.4404,3.1357 l 0,24.3354 c 0,1.7722 -1.1111,3.1356 -2.4404,3.1356 l -22.5902,0 c -1.3362,0 -2.4337,-1.3634 -2.4337,-3.1356 l 0,-24.3354 c 0,-1.7042 1.0975,-3.1357 2.4337,-3.1357" />
      <path
         id="path9695"
         style="fill:#2e2d2d;fill-opacity:1;fill-rule:evenodd;stroke:none"
         d="m -937.85046,-383.13289 22.6244,0 c 1.3428,0 2.3995,1.4315 2.3995,3.1357 l 0,24.3354 c 0,1.7722 -1.0567,3.1356 -2.3995,3.1356 l -22.6244,0 c -1.3225,0 -2.4335,-1.3634 -2.4335,-3.1356 l 0,-24.3354 c 0,-1.7042 1.111,-3.1357 2.4335,-3.1357" />
      <path
         id="path9697"
         style="fill:#2e2d2d;fill-opacity:1;fill-rule:evenodd;stroke:none"
         d="m -901.13606,-383.13289 22.6107,0 c 1.3429,0 2.4676,1.4315 2.4676,3.1357 l 0,24.3354 c 0,1.7722 -1.1247,3.1356 -2.4676,3.1356 l -22.6107,0 c -1.336,0 -2.4471,-1.3634 -2.4471,-3.1356 l 0,-24.3354 c 0,-1.7042 1.1111,-3.1357 2.4471,-3.1357" />
      <path
         id="path9699"
         style="fill:#2e2d2d;fill-opacity:1;fill-rule:evenodd;stroke:none"
         d="m -864.38756,-383.13289 22.5767,0 c 1.3429,0 2.4404,1.4315 2.4404,3.1357 l 0,24.3354 c 0,1.7722 -1.0975,3.1356 -2.4404,3.1356 l -22.5767,0 c -1.3496,0 -2.4471,-1.3634 -2.4471,-3.1356 l 0,-24.3354 c 0,-1.7042 1.0975,-3.1357 2.4471,-3.1357" />
      <path
         id="path9701"
         style="fill:#2e2d2d;fill-opacity:1;fill-rule:evenodd;stroke:none"
         d="m -827.68686,-383.13289 22.6245,0 c 1.3429,0 2.3994,1.4315 2.3994,3.1357 l 0,24.3354 c 0,1.7722 -1.0565,3.1356 -2.3994,3.1356 l -22.6245,0 c -1.336,0 -2.4471,-1.3634 -2.4471,-3.1356 l 0,-24.3354 c 0,-1.7042 1.1111,-3.1357 2.4471,-3.1357" />
      <path
         id="path9703"
         style="fill:#2e2d2d;fill-opacity:1;fill-rule:evenodd;stroke:none"
         d="m -790.98606,-383.13289 42.0655,0 c 1.3361,0 2.4472,1.4315 2.4472,3.1357 l 0,24.3354 c 0,1.7722 -1.1111,3.1356 -2.4472,3.1356 l -42.0655,0 c -1.336,0 -2.4403,-1.3634 -2.4403,-3.1356 l 0,-24.3354 c 0,-1.7042 1.1043,-3.1357 2.4403,-3.1357" />
      <path
         id="path9705"
         style="fill:#2e2d2d;fill-opacity:1;fill-rule:evenodd;stroke:none"
         d="m -735.63496,-383.61009 50.0001,0 c 1.336,0 2.4471,1.4315 2.4471,3.2039 l 0,24.3354 c 0,1.7041 -1.1111,3.1356 -2.4471,3.1356 l -50.0001,0 c -1.336,0 -2.4404,-1.4315 -2.4404,-3.1356 l 0,-24.3354 c 0,-1.7724 1.1044,-3.2039 2.4404,-3.2039" />
      <path
         id="path9707"
         style="fill:#2e2d2d;fill-opacity:1;fill-rule:evenodd;stroke:none"
         d="m -731.14956,-341.00609 18.8412,0 c 0.4635,0 0.8725,0.4772 0.8725,1.0225 l 0,8.4527 c 0,0.6135 -0.409,1.0906 -0.8725,1.0906 l -18.8412,0 c -0.4635,0 -0.8248,-0.4771 -0.8248,-1.0906 l 0,-8.4527 c 0,-0.5453 0.3613,-1.0225 0.8248,-1.0225" />
      <path
         id="path9709"
         style="fill:#2e2d2d;fill-opacity:1;fill-rule:evenodd;stroke:none"
         d="m -731.14956,-322.66929 18.8412,0 c 0.4635,0 0.8725,0.4771 0.8725,1.0906 l 0,8.3845 c 0,0.5454 -0.409,1.0225 -0.8725,1.0225 l -18.8412,0 c -0.4635,0 -0.8248,-0.4771 -0.8248,-1.0225 l 0,-8.3845 c 0,-0.6135 0.3613,-1.0906 0.8248,-1.0906" />
      <path
         id="path9711"
         style="fill:#2e2d2d;fill-opacity:1;fill-rule:evenodd;stroke:none"
         d="m -759.08426,-322.66929 18.8344,0 c 0.4637,0 0.8794,0.4771 0.8794,1.0906 l 0,8.3845 c 0,0.5454 -0.4157,1.0225 -0.8794,1.0225 l -18.8344,0 c -0.4634,0 -0.8247,-0.4771 -0.8247,-1.0225 l 0,-8.3845 c 0,-0.6135 0.3613,-1.0906 0.8247,-1.0906" />
      <path
         id="path9713"
         style="fill:#2e2d2d;fill-opacity:1;fill-rule:evenodd;stroke:none"
         d="m -703.27636,-322.66929 18.8412,0 c 0.4636,0 0.8385,0.4771 0.8385,1.0906 l 0,8.3845 c 0,0.5454 -0.3749,1.0225 -0.8385,1.0225 l -18.8412,0 c -0.4498,0 -0.8725,-0.4771 -0.8725,-1.0225 l 0,-8.3845 c 0,-0.6135 0.4227,-1.0906 0.8725,-1.0906" />
      <path
         id="path9715"
         style="fill:#2e2d2d;fill-opacity:1;fill-rule:evenodd;stroke:none"
         d="m -791.85856,-341.00609 22.6245,0 c 1.336,0 2.4471,1.4315 2.4471,3.1357 l 0,24.3353 c 0,1.7724 -1.1111,3.2039 -2.4471,3.2039 l -22.6245,0 c -1.336,0 -2.4404,-1.4315 -2.4404,-3.2039 l 0,-24.3353 c 0,-1.7042 1.1044,-3.1357 2.4404,-3.1357" />
      <path
         id="path9717"
         style="fill:#ef2f65;fill-opacity:1;fill-rule:nonzero;stroke:none"
         d="m -783.68546,-810.19519 c 10.1364,-6.953 24.0288,-4.43088 31.0158,5.72588 6.987,10.15687 4.4308,23.99462 -5.7055,31.01575 l -100.3205,69.18887 c -10.1364,6.953 -24.0287,4.43088 -31.0157,-5.726 -6.9871,-10.08862 -4.4376,-23.9945 5.6987,-31.01562 l 100.3272,-69.18888" />
      <path
         id="path9719"
         style="fill:#c8294f;fill-opacity:1;fill-rule:nonzero;stroke:none"
         d="m -863.73316,-708.96819 c -5.9987,0 -11.9156,-2.863 -15.576,-8.18 -5.9373,-8.58887 -3.7764,-20.38163 4.8262,-26.31212 l 85.1125,-58.69125 c 3.272,-2.24951 7.0142,-3.34013 10.7225,-3.34013 5.9987,0 11.9155,2.86287 15.5761,8.17988 5.9373,8.589 3.7764,20.38175 -4.8262,26.31224 l -85.1125,58.69126 c -3.272,2.2495 -7.0144,3.34012 -10.7226,3.34012" />
      <path
         id="path9721"
         style="fill:#e22a58;fill-opacity:1;fill-rule:nonzero;stroke:none"
         d="m -875.79856,-701.19719 -3.572,-3.272 c 0.3953,-5.24875 -0.2999,-17.10975 -14.1104,-19.97275 l -0.089,0.0687 c 0.1087,-1.36325 0.3476,-2.72662 0.7088,-4.08987 4.1992,1.09062 8.9503,4.63525 12.5972,9.95225 4.24,6.135 5.801,12.88337 4.4649,17.31425" />
      <path
         id="path9723"
         style="fill:#5cc7a5;fill-opacity:1;fill-rule:nonzero;stroke:none"
         d="m -926.23496,-684.76906 c 25.0716,36.40075 15.9238,86.23037 -20.4499,111.31562 -36.3872,25.08525 -86.22364,15.88275 -111.30884,-20.44987 -25.092,-36.40088 -15.9442,-86.23051 20.4498,-111.31575 36.3804,-25.08513 86.21004,-15.95088 111.30894,20.44999 m -123.96054,-38.78675 c -46.5304,32.03825 -58.2414,95.77375 -26.1555,142.26325 32.0791,46.55763 95.80114,58.28225 142.31774,26.17588 43.0881,-29.7205 56.2714,-86.57125 32.4951,-131.76563 l 21.8404,-15.06475 c 0,0 4.0901,-18.81387 -13.7832,-22.49487 l -23.1902,16.01912 c -33.94,-37.15075 -90.94084,-44.51262 -133.52434,-15.133" />
      <path
         id="path9725"
         style="fill:#aaaeb6;fill-opacity:1;fill-rule:nonzero;stroke:none"
         d="m -992.08356,-559.34294 c -25.41254,0 -50.40234,-12.0655 -65.91024,-34.56037 l 0,0 c -0.067,-0.13638 -0.1294,-0.2045 -0.1772,-0.27263 -0.014,0 -0.028,-0.0688 -0.041,-0.0688 -0.047,-0.0688 -0.1025,-0.13625 -0.1499,-0.2045 0,0 -0.014,0 -0.02,-0.0688 -7.7438,-11.38375 -12.0997,-24.06275 -13.3676,-36.94612 10.7022,25.35787 35.7533,64.48537 88.31644,65.23512 l 5.5215,4.22638 c -0.075,0.47712 -0.1363,0.95424 -0.1841,1.4315 -4.6353,0.818 -9.3251,1.227 -13.9876,1.227" />
      <path
         id="path9727"
         style="fill:#40aa8a;fill-opacity:1;fill-rule:nonzero;stroke:none"
         d="m -1057.9937,-593.90331 0,0 m -0.1773,-0.27263 c -0.014,0 -0.028,-0.0688 -0.041,-0.0688 0.014,0 0.027,0.0688 0.041,0.0688 m -0.1909,-0.27275 c 0,0 -0.014,0 -0.02,-0.0688 0.012,0.0688 0.02,0.0688 0.02,0.0688" />
      <path
         id="path9729"
         style="fill:#f0355b;fill-opacity:1;fill-rule:evenodd;stroke:none"
         d="m -940.87016,-584.22369 c 3.0878,1.09062 5.91,2.72663 8.398,4.83975 l 11.6359,-4.83975 7.8393,13.56513 -9.7479,8.11175 c 0.2728,1.56787 0.4227,3.27199 0.4227,4.908 0,1.49962 -0.1163,2.99937 -0.3408,4.43087 l 10.1567,7.77088 -7.8391,13.56512 -11.6905,-4.2945 c -2.4336,2.11325 -5.2352,3.81738 -8.2891,4.97613 l -1.6496,12.40637 -15.6578,0 -2.0791,-12.20187 c -3.0742,-1.09063 -5.91,-2.72663 -8.3981,-4.83975 l -11.636,4.83975 -7.8255,-13.565 9.7478,-8.11188 c -0.2863,-1.56775 -0.4362,-3.272 -0.4362,-4.97612 0,-1.49963 0.1225,-2.93113 0.3476,-4.36263 l -10.15,-7.83912 7.8255,-13.56513 11.6974,4.36263 c 2.4268,-2.11313 5.2284,-3.81725 8.289,-4.97613 l 1.6496,-12.40625 15.651,0 2.0792,12.20175" />
      <path
         id="path9731"
         style="fill:#74202d;fill-opacity:1;fill-rule:nonzero;stroke:none"
         d="m -950.29766,-537.25707 c -11.1997,0 -20.3477,-9.13424 -20.3477,-20.38175 0,-11.17925 9.148,-20.31362 20.3477,-20.31362 11.2133,0 20.3613,9.13437 20.3613,20.31362 0,11.2475 -9.148,20.38175 -20.3613,20.38175 m 0.014,-33.87874 c -7.4369,0 -13.5038,6.06687 -13.5038,13.49699 0,7.43013 6.0669,13.497 13.5038,13.497 7.437,0 13.497,-6.06687 13.497,-13.497 0,-7.43012 -6.06,-13.49699 -13.497,-13.49699" />
      <path
         id="path9733"
         style="fill:#b98a93;fill-opacity:1;fill-rule:nonzero;stroke:none"
         d="m -950.28406,-544.14181 c -7.4369,0 -13.5038,-6.06688 -13.5038,-13.497 0,-7.43013 6.0669,-13.497 13.5038,-13.497 7.437,0 13.497,6.06687 13.497,13.497 0,7.43012 -6.06,13.497 -13.497,13.497" />
      <path
         id="path9735"
         style="fill:#f29211;fill-opacity:1;fill-rule:evenodd;stroke:none"
         d="m -912.77206,-700.03832 c 4.8602,0.2045 9.6115,1.22701 14.0355,2.99926 l 14.2535,-12.06538 17.1984,15.61 -10.0749,15.81463 c 1.1247,2.11312 2.0995,4.43087 2.8629,6.81662 0.6885,2.11325 1.1861,4.22638 1.527,6.3395 l 17.846,6.40763 -4.874,22.69937 -18.4663,-0.818 c -2.4607,4.09 -5.6305,7.771 -9.4069,10.8385 l 3.2993,18.20038 -22.086,7.08937 -8.4663,-16.22362 c -4.8466,-0.13638 -9.5977,-1.15888 -14.0353,-2.99938 l -14.24,12.0655 -17.212,-15.54187 10.0886,-15.88288 c -1.1384,-2.11312 -2.0995,-4.36262 -2.863,-6.74837 -0.6885,-2.11325 -1.1861,-4.22638 -1.527,-6.3395 l -17.8595,-6.47588 4.8875,-22.63112 18.4595,0.818 c 2.4676,-4.15825 5.6373,-7.83925 9.4137,-10.8385 l -3.2992,-18.20038 22.0722,-7.1575 8.4663,16.22363" />
      <path
         id="path9737"
         style="fill:#72471a;fill-opacity:1;fill-rule:nonzero;stroke:none"
         d="m -913.94456,-625.32806 c -18.0776,0 -32.8153,-14.792 -32.8153,-32.85613 0,-18.06412 14.7377,-32.788 32.8153,-32.788 18.071,0 32.8221,14.72387 32.8221,32.788 0,18.06413 -14.7511,32.85613 -32.8221,32.85613 m -0.014,-52.82888 c -2.0245,0 -4.09,0.27263 -6.1145,0.95425 -10.4907,3.40837 -16.2848,14.65588 -12.9107,25.1535 2.7267,8.45262 10.6136,13.90588 19.0594,13.90588 2.0245,0 4.0899,-0.34088 6.1144,-1.02251 10.484,-3.34012 16.2851,-14.65575 12.9108,-25.15337 -2.7199,-8.45263 -10.6135,-13.83775 -19.0594,-13.83775" />
      <path
         id="path9739"
         style="fill:#b9a477;fill-opacity:1;fill-rule:nonzero;stroke:none"
         d="m -913.92406,-638.14331 c -8.4458,0 -16.3326,-5.45326 -19.0594,-13.90588 -3.3741,-10.49762 2.42,-21.74513 12.9108,-25.1535 2.0245,-0.68162 4.09,-0.95425 6.1145,-0.95425 8.4458,0 16.3395,5.38512 19.0593,13.83775 3.3743,10.49762 -2.4267,21.81325 -12.9107,25.15337 -2.0245,0.68163 -4.09,1.02251 -6.1145,1.02251" />
      <path
         id="path9741"
         style="fill:#ea723b;fill-opacity:1;fill-rule:evenodd;stroke:none"
         d="m -1004.5581,-608.08194 c 1.2474,-0.54537 2.5835,-0.818 3.9195,-0.88612 l 2.19504,-4.77163 6.2236,1.90863 -0.6885,5.24875 c 0.5454,0.40899 1.0566,0.88624 1.5338,1.36337 0.4295,0.47713 0.8043,0.95438 1.1383,1.4315 l 5.3034,-0.47712 1.4588,6.33937 -4.7989,2.045 c -0.1364,1.29525 -0.5113,2.59037 -1.0975,3.81738 l 2.9856,4.22625 -4.7647,4.43087 -4.0697,-3.0675 c -1.2678,0.47713 -2.5902,0.818 -3.9263,0.88613 l -2.20184,4.77162 -6.2167,-1.90862 0.6816,-5.24875 c -0.5385,-0.409 -1.0498,-0.88625 -1.5269,-1.4315 -0.4362,-0.409 -0.8112,-0.88625 -1.152,-1.4315 l -5.2966,0.54525 -1.4519,-6.33938 4.7853,-2.045 c 0.1363,-1.29525 0.5181,-2.59037 1.1111,-3.81737 l -2.9994,-4.2945 4.7785,-4.43075 4.0764,3.13562" />
      <path
         id="path9743"
         style="fill:#703822;fill-opacity:1;fill-rule:nonzero;stroke:none"
         d="m -999.89546,-588.85906 c -2.27674,0 -4.53994,-0.88613 -6.20324,-2.65838 -3.1765,-3.40837 -2.9652,-8.7935 0.4499,-11.99737 1.6292,-1.49963 3.6878,-2.2495 5.75334,-2.2495 2.2699,0 4.533,0.95437 6.1963,2.72675 3.1766,3.40825 2.9788,8.79337 -0.4363,11.92912 -1.6224,1.56775 -3.7014,2.24938 -5.76,2.24938 m 0,-14.04225 c -1.36344,0 -2.74044,0.47725 -3.81744,1.49975 -2.2562,2.11312 -2.3995,5.65775 -0.2999,7.90725 1.1043,1.227 2.6175,1.8405 4.11734,1.8405 1.3769,0 2.7334,-0.54538 3.8241,-1.49963 2.2631,-2.11325 2.3858,-5.65787 0.2863,-7.9755 -1.1043,-1.15887 -2.604,-1.77237 -4.1104,-1.77237" />
      <path
         id="path9745"
         style="fill:#b69b8a;fill-opacity:1;fill-rule:nonzero;stroke:none"
         d="m -999.89546,-591.65381 c -1.49984,0 -3.01304,-0.6135 -4.11724,-1.84051 -2.0997,-2.2495 -1.9564,-5.79412 0.2998,-7.90724 1.077,-1.0225 2.454,-1.49975 3.81744,-1.49975 1.5064,0 3.0061,0.6135 4.1104,1.77237 2.0995,2.31763 1.9769,5.86225 -0.2863,7.9755 -1.0907,0.95425 -2.4472,1.49963 -3.8241,1.49963" />
      <path
         id="path9747"
         style="fill:#45bf94;fill-opacity:1;fill-rule:evenodd;stroke:none"
         d="m -1028.7572,-651.29944 c 1.5337,-1.29512 3.272,-2.31762 5.1193,-3.0675 l 0.9407,-7.70275 9.6523,-0.13637 1.3975,7.70287 c 0.9475,0.34075 1.8882,0.74975 2.8016,1.29513 0.7975,0.409 1.5611,0.88612 2.2632,1.4315 l 7.24604,-3.0675 4.9421,8.31625 -5.85554,4.97625 c 0.40214,1.90862 0.47714,3.95362 0.1909,5.93037 l 6.14864,4.63538 -4.6968,8.3845 -7.17784,-2.52225 c -1.5269,1.29525 -3.2651,2.38587 -5.1261,3.0675 l -0.9407,7.70287 -9.6456,0.13625 -1.4042,-7.70275 c -0.9475,-0.34087 -1.8814,-0.74987 -2.7948,-1.227 -0.8044,-0.47712 -1.561,-0.95437 -2.2631,-1.56787 l -7.2529,3.13575 -4.9352,-8.31638 5.8622,-4.97612 c -0.409,-1.90863 -0.484,-3.95363 -0.1976,-5.9305 l -6.1691,-4.63525 4.7307,-8.3845 7.1642,2.52212" />
      <path
         id="path9749"
         style="fill:#225b4b;fill-opacity:1;fill-rule:nonzero;stroke:none"
         d="m -1017.2575,-624.57819 c -3.681,0 -7.3415,-1.4315 -10.0136,-4.36263 -5.1125,-5.52149 -4.7921,-14.17862 0.7225,-19.29112 2.6107,-2.38575 5.951,-3.61275 9.2775,-3.61275 3.6605,0 7.3074,1.4315 10,4.36263 5.1125,5.5215 4.7852,14.17862 -0.7158,19.291 -2.6243,2.38587 -5.951,3.61287 -9.2706,3.61287 m 0.013,-21.94962 c -2.9243,0 -5.7464,1.56787 -7.2734,4.22637 -2.2357,4.02175 -0.8111,9.13425 3.1903,11.31562 1.2747,0.74988 2.6585,1.09063 4.0355,1.09063 2.9242,0 5.7669,-1.56775 7.2732,-4.22625 2.2564,-4.02187 0.818,-9.13438 -3.1765,-11.31563 -1.2815,-0.74987 -2.6721,-1.09074 -4.0491,-1.09074" />
      <path
         id="path9751"
         style="fill:#82b1a2;fill-opacity:1;fill-rule:nonzero;stroke:none"
         d="m -1017.2984,-629.89519 c -1.377,0 -2.7607,-0.34075 -4.0355,-1.09063 -4.0013,-2.18137 -5.426,-7.29387 -3.1902,-11.31562 1.527,-2.6585 4.3491,-4.22637 7.2734,-4.22637 1.377,0 2.7676,0.34087 4.0491,1.09074 3.9945,2.18125 5.4329,7.29376 3.1765,11.31563 -1.5064,2.6585 -4.349,4.22625 -7.2733,4.22625" />
      <path
         id="path9753"
         style="fill:#a1a1a0;fill-opacity:1;fill-rule:nonzero;stroke:none"
         d="m -1859.6888,-243.05089 c -29.996,-26.4487 -16.3553,-88.2755 -16.3553,-88.2755 l -89.407,0 c 0,0 13.6388,61.8268 -16.3571,88.2755 -30.0014,26.5166 -65.043,26.5166 -65.043,26.5166 l 0,14.8604 252.1999,0 0,-14.8604 c 0,0 -35.0369,0 -65.0375,-26.5166" />
      <path
         id="path9755"
         style="fill:#bfbebc;fill-opacity:1;fill-rule:nonzero;stroke:none"
         d="m -1794.6513,-201.67389 -252.1999,0 0,-14.8604 252.1999,0 0,14.8604" />
      <path
         id="path9757"
         style="fill:#cdccca;fill-opacity:1;fill-rule:nonzero;stroke:none"
         d="m -1587.4146,-371.06739 c 0,21.9496 -17.7915,39.741 -39.7342,39.741 l -587.2002,0 c -21.9435,0 -39.7335,-17.7914 -39.7335,-39.741 l 0,-324.47205 c 0,-21.9495 17.79,-39.741 39.7335,-39.741 l 587.2002,0 c 21.9427,0 39.7342,17.7915 39.7342,39.741 l 0,324.47205" />
      <path
         id="path9759"
         style="fill:#243464;fill-opacity:1;fill-rule:nonzero;stroke:none"
         d="m -2254.0825,-695.53944 0,324.47195 c 0,7.7028 2.229,14.8603 6.0287,20.9953 l 654.6065,0 c 3.8036,-6.135 6.0327,-13.2925 6.0327,-20.9953 l 0,-324.47195 c 0,-10.29312 -3.9469,-19.63187 -10.3614,-26.72113 l -645.9506,0 c -6.4172,7.08926 -10.3559,16.428 -10.3559,26.72113" />
      <path
         id="path9761"
         style="fill:#e4e4e3;fill-opacity:1;fill-rule:nonzero;stroke:none"
         d="m -2225.3885,-363.90989 609.2799,0 0,-344.92192 -609.2799,0 0,344.92192 z" />
      <path
         id="path9763"
         style="fill:#8bcf24;fill-opacity:1;fill-rule:nonzero;stroke:none"
         d="m -2164.955,-363.90989 65.043,0 0,-124.1774 -65.043,0 0,124.1774 z" />
      <path
         id="path9765"
         style="fill:#b5dc17;fill-opacity:1;fill-rule:nonzero;stroke:none"
         d="m -2054.5786,-363.90989 65.043,0 0,-161.62393 -65.043,0 0,161.62393 z" />
      <path
         id="path9767"
         style="fill:#d7c211;fill-opacity:1;fill-rule:nonzero;stroke:none"
         d="m -1943.2383,-363.90989 65.043,0 0,-240.46242 -65.043,0 0,240.46242 z" />
      <path
         id="path9769"
         style="fill:#e84e1d;fill-opacity:1;fill-rule:nonzero;stroke:none"
         d="m -1826.9506,-363.90989 65.043,0 0,-281.85243 -65.043,0 0,281.85243 z" />
      <path
         id="path9771"
         style="fill:#e52c22;fill-opacity:1;fill-rule:nonzero;stroke:none"
         d="m -1716.0173,-369.70409 65.0403,0 0,-319.54085 -65.0403,0 0,319.54085 z" />
      <path
         id="path9773"
         style="fill:#32435b;fill-opacity:1;fill-rule:nonzero;stroke:none"
         d="m -2182.0278,-438.21129 -6.0022,-8.0437 189.1085,-141.78607 202.6724,-21.19975 142.7268,-84.32176 5.0851,8.65713 -144.6061,85.4125 -202.0922,21.06337 -186.8923,140.21828" />
      <path
         id="path9775"
         style="fill:#4ac1a9;fill-opacity:1;fill-rule:nonzero;stroke:none"
         d="m -2168.7702,-442.23319 c 0,8.998 -7.2801,16.2236 -16.2564,16.2236 -8.9789,0 -16.261,-7.2256 -16.261,-16.2236 0,-8.9979 7.2821,-16.2917 16.261,-16.2917 8.9763,0 16.2564,7.2938 16.2564,16.2917" />
      <path
         id="path9777"
         style="fill:#4ac1a9;fill-opacity:1;fill-rule:nonzero;stroke:none"
         d="m -1980.7693,-583.26931 c 0,8.99787 -7.2803,16.29175 -16.2619,16.29175 -8.9761,0 -16.2563,-7.29388 -16.2563,-16.29175 0,-8.92988 7.2802,-16.22363 16.2563,-16.22363 8.9816,0 16.2619,7.29375 16.2619,16.22363" />
      <path
         id="path9779"
         style="fill:#4ac1a9;fill-opacity:1;fill-rule:nonzero;stroke:none"
         d="m -1778.3902,-604.33282 c 0,8.92988 -7.2795,16.22363 -16.2584,16.22363 -8.9761,0 -16.2564,-7.29375 -16.2564,-16.22363 0,-8.99787 7.2803,-16.29175 16.2564,-16.29175 8.9789,0 16.2584,7.29388 16.2584,16.29175" />
      <path
         id="path9781"
         style="fill:#4ac1a9;fill-opacity:1;fill-rule:nonzero;stroke:none"
         d="m -1634.729,-689.19994 c 0,8.92988 -7.2733,16.22362 -16.2508,16.22362 -8.9775,0 -16.2577,-7.29374 -16.2577,-16.22362 0,-8.99787 7.2802,-16.29175 16.2577,-16.29175 8.9775,0 16.2508,7.29388 16.2508,16.29175" />
      <path
         id="path9783"
         style="fill:#f5af78;fill-opacity:1;fill-rule:nonzero;stroke:none"
         d="m -1554.6811,-254.91199 9.0661,-80.1636 196.919,-40.2863 -3.4356,62.3722 8.2481,52.1473 -28.4799,26.7212 -62.4744,23.1084 -88.3982,-20.3818 -31.4451,-23.5173" />
      <path
         id="path9785"
         style="fill:#ecb223;fill-opacity:1;fill-rule:nonzero;stroke:none"
         d="m -1581.0342,-260.84239 30.6816,-32.3109 c 0,0 30.5181,75.3239 105.317,70.8249 74.799,-4.5672 96.5714,-67.5529 96.5714,-67.5529 l 39.4273,29.0389 2.8427,73.0743 c 0,0 -151.2954,39.0594 -175.099,33.4015 -23.8038,-5.6577 -107.6825,-45.3306 -107.6825,-45.3306 l 7.9415,-61.1452" />
      <path
         id="path9787"
         style="fill:#3f83a2;fill-opacity:1;fill-rule:nonzero;stroke:none"
         d="m -1309.0369,-260.84239 c -27.1983,71.3702 -135.9987,78.1868 -135.9987,78.1868 0,0 -108.8002,-6.8166 -135.9986,-78.1868 0,0 -251.6015,61.1452 -272.0009,302.590602 0,0 102.0008,200.613598 407.9995,220.995398 305.9989,-20.3818 408.003,-220.995398 408.003,-220.995398 -20.4021,-241.445402 -272.0043,-302.590602 -272.0043,-302.590602" />
      <path
         id="path9789"
         style="fill:#583225;fill-opacity:1;fill-rule:nonzero;stroke:none"
         d="m -1259.7321,-687.56394 c -22.1064,-79.891 -185.3035,-105.38525 -185.3035,-105.38525 0,0 -163.1971,25.49425 -185.3034,105.38525 -22.0927,79.891 -5.0921,171.71112 18.7048,243.08125 23.797,71.4384 71.3975,159.782 166.5986,193.7971 95.2012,-34.0151 142.8017,-122.3587 166.5986,-193.7971 23.8037,-71.37013 40.7976,-163.19025 18.7049,-243.08125" />
      <path
         id="path9791"
         style="fill:#4db99d;fill-opacity:1;fill-rule:nonzero;stroke:none"
         d="m -1279.214,-442.16489 0,0 0,0 m 0.2521,-0.7499 c 0.014,0 0.02,-0.069 0.034,-0.069 -0.014,0 -0.02,0.069 -0.034,0.069 m 0.1295,-0.409 c 0.014,0 0.02,0 0.034,-0.069 -0.013,0.069 -0.02,0.069 -0.034,0.069 m 0.1296,-0.3409 c 0.034,-0.069 0.061,-0.2045 0.095,-0.2726 -0.034,0.069 -0.061,0.2045 -0.095,0.2726 m 0.1295,-0.409 c 0.048,-0.1362 0.095,-0.2726 0.1363,-0.409 16.0396,-48.12537 28.9912,-105.45337 28.9707,-162.23587 0.02,56.7825 -12.9311,114.1105 -28.9707,162.23587 -0.041,0.1364 -0.089,0.2728 -0.1363,0.409 m 18.7594,-243.83113 c -0.014,0 -0.02,0 -0.028,-0.0688 0.013,0.0688 0.014,0.0688 0.028,0.0688 m -0.1025,-0.34074 c -0.013,0 -0.013,0 -0.014,0 0.013,0 0.013,0 0.014,0 m -0.095,-0.34088 c -0.014,0 -0.02,-0.0688 -0.034,-0.0688 0.014,0 0.02,0.0688 0.034,0.0688 m -0.095,-0.27263 c -0.014,-0.0688 -0.02,-0.0688 -0.028,-0.13637 0.013,0.0687 0.014,0.0687 0.028,0.13637 m -0.1087,-0.409 c -0.014,0 -0.028,-0.0688 -0.034,-0.0688 0.012,0 0.02,0.0688 0.034,0.0688 m -0.1025,-0.27262 c -0.013,-0.0688 -0.02,-0.0688 -0.028,-0.13638 0.013,0.0688 0.02,0.0688 0.028,0.13638 m -0.1163,-0.409 c -0.013,0 -0.02,-0.0688 -0.034,-0.0688 0.014,0 0.027,0.0688 0.034,0.0688 m -0.095,-0.27275 c 0,-0.0687 -0.02,-0.0687 -0.034,-0.13625 0.014,0.0688 0.028,0.0688 0.034,0.13625 m -0.1225,-0.409 c -0.014,0 -0.02,-0.0675 -0.041,-0.13625 0.014,0.0688 0.027,0.13625 0.041,0.13625 m -0.095,-0.27263 c -0.014,-0.0675 -0.027,-0.0675 -0.041,-0.13637 0.014,0.0688 0.027,0.0688 0.041,0.13637 m -0.1295,-0.409 c -0.014,0 -0.027,-0.0687 -0.047,-0.13637 0.02,0.0688 0.034,0.13637 0.047,0.13637 m -0.095,-0.27262 c -0.014,-0.0688 -0.034,-0.0688 -0.047,-0.13638 0.014,0.0688 0.034,0.0688 0.047,0.13638 m -0.1225,-0.34088 c -0.02,-0.0688 -0.047,-0.13637 -0.069,-0.20449 0.02,0.0675 0.048,0.13637 0.069,0.20449 m -0.1087,-0.34087 c -0.02,-0.0688 -0.041,-0.0688 -0.061,-0.13625 0.02,0.0675 0.041,0.0675 0.061,0.13625 m -0.089,-0.2045 c -0.041,-0.13625 -0.075,-0.2045 -0.1162,-0.34075 0.034,0.13625 0.075,0.2045 0.1162,0.34075 m -0.1568,-0.409 c -0.02,-0.0687 -0.041,-0.13625 -0.061,-0.2045 0.02,0.0688 0.041,0.13637 0.061,0.2045 m -0.081,-0.27263 c -0.047,-0.13637 -0.089,-0.27262 -0.1362,-0.34087 0.047,0.13637 0.089,0.2045 0.1362,0.34087 m -0.1635,-0.409 c -0.02,-0.0675 -0.048,-0.13637 -0.069,-0.2045 0.02,0.0688 0.047,0.13638 0.069,0.2045 m -0.089,-0.27262 c -0.048,-0.13638 -0.095,-0.2045 -0.1433,-0.34087 0.047,0.13637 0.095,0.20449 0.1433,0.34087 m -0.1637,-0.409 c -0.027,-0.0687 -0.055,-0.13637 -0.081,-0.2045 0.028,0.0688 0.055,0.13625 0.081,0.2045 m -0.095,-0.2045 c -0.047,-0.13637 -0.1025,-0.27275 -0.1567,-0.409 0.055,0.13625 0.1087,0.27263 0.1567,0.409 m -0.1703,-0.47725 c -0.027,-0.0688 -0.055,-0.13625 -0.089,-0.2045 0.034,0.0688 0.061,0.13638 0.089,0.2045 m -0.089,-0.2045 c -9.8841,-24.47162 -33.238,-43.49012 -60.0546,-57.94137 26.8235,14.45125 50.1705,33.46975 60.0546,57.94137 m -60.1364,-57.94137 c -0.1162,-0.0675 -0.2455,-0.13638 -0.3613,-0.2045 0.1225,0.0688 0.2386,0.13637 0.3613,0.2045 m -0.45,-0.27263 c -0.055,0 -0.1162,-0.0688 -0.1772,-0.0688 0.061,0 0.1162,0.0688 0.1772,0.0688 m -0.334,-0.13637 c -0.047,-0.0687 -0.095,-0.0687 -0.1431,-0.0687 0.048,0 0.095,0 0.1431,0.0687 m -0.4157,-0.27263 c -0.047,0 -0.089,0 -0.1432,-0.0688 0.048,0.0688 0.095,0.0688 0.1432,0.0688 m -0.3273,-0.13637 c -0.041,-0.0687 -0.089,-0.0687 -0.1225,-0.0687 0.034,0 0.081,0 0.1225,0.0687 m -0.4157,-0.2045 c -0.034,-0.0688 -0.075,-0.0688 -0.1088,-0.0688 0.034,0 0.075,0 0.1088,0.0688 m -0.3409,-0.2045 c -0.034,0 -0.061,-0.0675 -0.089,-0.0675 0.028,0 0.061,0.0675 0.089,0.0675 m -0.4159,-0.2045 c -0.012,0 -0.027,0 -0.041,-0.0688 0.014,0.0688 0.034,0.0688 0.041,0.0688 m -0.3476,-0.2045 c -0.014,0 -0.028,0 -0.048,0 0.014,0 0.034,0 0.048,0 m -0.3954,-0.2045 0,0 0,0 m -73.013,-27.6755 c -0.013,0 -0.013,0 -0.013,0 0,0 0.013,0 0.013,0 m -0.2726,-0.0688 c -0.041,0 -0.081,0 -0.1225,0 0.041,0 0.081,0 0.1225,0 m -0.1978,-0.0687 c -6.3393,-1.70413 -12.2767,-3.20375 -17.6346,-4.499 0,0 0,0 0,0 5.3579,1.29525 11.2953,2.79487 17.6346,4.499" />
      <path
         id="path9793"
         style="fill:#45281f;fill-opacity:1;fill-rule:nonzero;stroke:none"
         d="m -1423.5972,-259.68359 c 146.4418,-271.30222 53.0538,-459.57772 6.5985,-527.5396 5.3578,1.29525 11.2951,2.79488 17.6346,4.499 0.028,0 0.048,0 0.075,0.0688 0.041,0 0.081,0 0.1225,0 0.089,0 0.1772,0.0688 0.2659,0.0688 0,0 0,0 0.013,0 21.9768,6.06675 48.7185,15.06475 73.013,27.6755 l 0,0 c 0.1162,0.0687 0.2317,0.13638 0.3476,0.2045 0.02,0 0.034,0 0.047,0 0.1087,0.0688 0.2045,0.13638 0.3067,0.13638 0.014,0.0688 0.034,0.0688 0.041,0.0688 0.1087,0.0687 0.2181,0.0687 0.3272,0.13637 0.027,0 0.055,0.0675 0.089,0.0675 0.081,0.0688 0.1499,0.0688 0.2317,0.13638 0.034,0 0.075,0 0.1088,0.0688 0.1025,0 0.1909,0.0675 0.2931,0.13637 0.034,0 0.081,0 0.1225,0.0688 0.061,0 0.1225,0.0688 0.184,0.0688 0.055,0.0688 0.095,0.0688 0.1431,0.0688 0.095,0.0687 0.1842,0.13625 0.2728,0.2045 0.047,0 0.095,0 0.1431,0.0688 0.055,0 0.1088,0 0.1568,0.0688 0.061,0 0.1225,0.0688 0.1772,0.0688 0.028,0 0.061,0.0687 0.089,0.0687 0.1163,0.0688 0.2454,0.13638 0.3613,0.2045 0.02,0 0.055,0 0.081,0 26.8167,14.45125 50.1705,33.46975 60.0546,57.94138 l 0,0 c 0.034,0.0688 0.061,0.13637 0.089,0.2045 0,0 0,0 0.014,0.0687 0.055,0.13625 0.1087,0.27262 0.1567,0.409 0.013,0 0.014,0 0.014,0 0.027,0.0688 0.055,0.13625 0.081,0.2045 0.013,0 0.014,0 0.02,0.0688 0.048,0.13637 0.095,0.2045 0.1432,0.34087 0.012,0.0675 0.012,0.0675 0.02,0.0675 0.02,0.0688 0.047,0.13638 0.067,0.2045 0.014,0 0.02,0 0.027,0.0688 0.048,0.0688 0.089,0.2045 0.1363,0.34088 0.013,0 0.014,0.0688 0.02,0.0688 0.02,0.0688 0.041,0.13637 0.061,0.2045 0.014,0 0.027,0 0.041,0.0688 0.041,0.13625 0.075,0.2045 0.1163,0.34075 0.012,0 0.014,0 0.027,0.0688 0.02,0.0675 0.041,0.0675 0.061,0.13625 0.014,0.0687 0.027,0.13637 0.041,0.13637 0.02,0.0675 0.048,0.13638 0.069,0.2045 0.027,0.0687 0.047,0.13638 0.075,0.2045 0.014,0.0688 0.034,0.0688 0.047,0.13638 0.014,0.0688 0.034,0.13625 0.048,0.13625 0.02,0.0688 0.034,0.13637 0.047,0.13637 0.027,0.13638 0.061,0.2045 0.089,0.27263 0.014,0.0688 0.027,0.0688 0.041,0.13637 0.02,0.0688 0.041,0.13638 0.055,0.13638 0.02,0.0688 0.028,0.13625 0.041,0.13625 0.034,0.13637 0.061,0.2045 0.089,0.27275 0.014,0.0688 0.027,0.0688 0.034,0.13625 0.02,0.0688 0.041,0.13637 0.061,0.2045 0.014,0 0.027,0.0687 0.034,0.0687 0.034,0.13625 0.061,0.2045 0.089,0.27262 0.013,0.0687 0.02,0.0687 0.027,0.13638 0.02,0.0688 0.048,0.13625 0.069,0.2045 0,0 0.02,0.0688 0.034,0.0688 0.02,0.13637 0.055,0.2045 0.081,0.27262 0.013,0.0688 0.014,0.0688 0.028,0.13638 0.02,0.0688 0.041,0.13637 0.061,0.2045 0.014,0 0.02,0.0688 0.034,0.0688 0.028,0.13637 0.055,0.2045 0.081,0.34087 0,0 0,0 0.014,0 0.02,0.0688 0.048,0.2045 0.075,0.27263 0.013,0.0688 0.014,0.0688 0.027,0.0688 0.02,0.13637 0.055,0.2045 0.081,0.34087 7.2051,26.03963 10.2523,53.37425 10.2659,80.84538 0.02,56.7825 -12.9313,114.1105 -28.9708,162.23592 -0.041,0.1364 -0.089,0.2728 -0.1363,0.409 -0.014,0.069 -0.027,0.069 -0.034,0.1364 -0.034,0.069 -0.061,0.2045 -0.095,0.2726 -0.027,0.069 -0.061,0.2045 -0.095,0.2728 -0.014,0.069 -0.02,0.069 -0.034,0.069 -0.027,0.1364 -0.061,0.2045 -0.095,0.3409 -0.014,0 -0.02,0.069 -0.034,0.069 -0.089,0.2727 -0.1704,0.5454 -0.2521,0.7499 l 0,0 c -22.1604,65.3593 -64.3078,144.1596 -144.3828,182.4691" />
      <path
         id="path9795"
         style="fill:#4db99d;fill-opacity:1;fill-rule:nonzero;stroke:none"
         d="m -1037.0599,41.748212 0,0 m 0.014,0 c 0,0 0,0 0,0 0,0 0,0 0,0 m 0.014,0 c -0.014,-0.2728 -0.041,-0.4773 -0.055,-0.6818 0.014,0.2045 0.041,0.4773 0.055,0.6818 m -0.075,-0.8863 c -0.014,-0.1362 -0.028,-0.2726 -0.041,-0.409 0.014,0.1364 0.028,0.2728 0.041,0.409 m -0.068,-0.6816 c -0.013,-0.1364 -0.02,-0.2726 -0.034,-0.409 0.014,0.1364 0.027,0.2726 0.034,0.409 m -0.047,-0.6816 c -0.028,-0.1364 -0.028,-0.2728 -0.048,-0.409 0.014,0.1362 0.034,0.2726 0.048,0.409 m -0.061,-0.6135 c -0.027,-0.2045 -0.041,-0.409 -0.061,-0.6135 0.02,0.2045 0.034,0.409 0.061,0.6135 m -0.089,-0.8863 c -0.014,-0.1362 -0.027,-0.2726 -0.041,-0.409 0.014,0.1364 0.027,0.2728 0.041,0.409 m -0.061,-0.6816 c -0.014,-0.069 -0.028,-0.2045 -0.034,-0.3409 0.013,0.1364 0.02,0.2728 0.034,0.3409 m -0.061,-0.6135 c -0.014,-0.1364 -0.027,-0.2726 -0.041,-0.409 0.014,0.1364 0.028,0.2726 0.041,0.409 m -0.061,-0.6816 c -0.027,-0.1364 -0.041,-0.3409 -0.055,-0.5454 0.014,0.2045 0.027,0.409 0.055,0.5454 m -0.089,-0.818 c -0.014,-0.1364 -0.027,-0.2728 -0.041,-0.409 0.014,0.1362 0.027,0.2726 0.041,0.409 m -0.075,-0.6818 c -0.014,-0.1362 -0.028,-0.2726 -0.041,-0.3407 0.014,0.1362 0.027,0.2045 0.041,0.3407 m -0.069,-0.6816 c -0.013,-0.067 -0.02,-0.2045 -0.034,-0.2726 0.014,0.069 0.028,0.2045 0.034,0.2726 m -0.075,-0.6135 c -0.013,-0.1364 -0.02,-0.2045 -0.034,-0.3409 0.014,0.1364 0.027,0.2045 0.034,0.3409 m -0.095,-0.9542 c -0.014,-0.069 -0.014,-0.1364 -0.027,-0.2728 0,0.1364 0.014,0.2045 0.027,0.2728 m -0.075,-0.6135 c -0.014,-0.069 -0.014,-0.1364 -0.027,-0.2728 0.014,0.069 0.027,0.2045 0.027,0.2728 m -0.061,-0.6135 c -0.014,-0.069 -0.028,-0.2045 -0.041,-0.2728 0.014,0.069 0.027,0.1364 0.041,0.2728 m -0.075,-0.6135 c -0.014,-0.069 -0.028,-0.2045 -0.028,-0.2728 0,0.069 0.014,0.2045 0.028,0.2728 m -0.2045,-1.636 c 0,-0.069 -0.013,-0.1364 -0.013,-0.1364 0,0 0.013,0.069 0.013,0.1364 m -0.061,-0.5454 c -0.012,-0.068 -0.02,-0.2045 -0.02,-0.2726 0,0.067 0.014,0.2045 0.02,0.2726 m -0.075,-0.6135 c -0.014,-0.069 -0.02,-0.1364 -0.02,-0.2045 0.012,0.069 0.012,0.1364 0.02,0.2045 m -0.2114,-1.7041 c -0.014,0 -0.014,-0.069 -0.014,-0.069 0,0 0,0.069 0.014,0.069 m -0.075,-0.5454 c 0,0 -0.014,-0.068 -0.027,-0.1364 0.014,0.069 0.027,0.1364 0.027,0.1364 m -0.075,-0.5454 c -0.014,-0.069 -0.014,-0.1362 -0.02,-0.2045 0.012,0.069 0.012,0.1364 0.02,0.2045 m -0.089,-0.6135 c 0,-0.069 0,-0.069 -0.014,-0.069 0.014,0 0.014,0.069 0.014,0.069 m -0.2113,-1.5677 c -0.014,-0.069 -0.014,-0.069 -0.027,-0.1364 0.014,0 0.027,0.069 0.027,0.1364 m -0.075,-0.6135 c -0.014,0 -0.028,-0.069 -0.028,-0.1364 0,0.069 0.014,0.1364 0.028,0.1364 m -0.089,-0.5454 c -0.013,-0.067 -0.013,-0.1363 -0.02,-0.2045 0.014,0.069 0.014,0.1364 0.02,0.2045 m -0.2523,-1.7041 c 0,0 0,0 0,0 0,0 0,0 0,0 m -0.075,-0.4772 c 0,-0.069 -0.012,-0.069 -0.012,-0.1363 0,0.069 0.012,0.069 0.012,0.1363 m -0.081,-0.5453 c 0,-0.069 -0.014,-0.1364 -0.014,-0.1364 0,0 0.014,0.069 0.014,0.1364 m -0.3409,-2.2495 c 0,0 0,0 -0.014,-0.069 0.014,0.069 0.014,0.069 0.014,0.069 m -0.089,-0.5454 c 0,0 0,0 -0.014,-0.069 0,0.069 0.014,0.069 0.014,0.069 m -0.4498,-2.7266 0,0 0,0 m -0.4635,-2.6585 c 0,0 -0.014,-0.067 -0.014,-0.067 0.014,0 0.014,0 0.014,0.067 m -0.5863,-3.2720001 c -0.013,0 0,0 -0.013,0 l 0.013,0" />
      <path
         id="path9797"
         style="fill:#326680;fill-opacity:1;fill-rule:nonzero;stroke:none"
         d="m -1132.8881,149.92821 c 31.2406,-143.7628981 -92.1541,-325.0173 -153.1425,-403.6813 58.8002,20.5863 212.2222,89.8433 244.3491,261.0772019 0.013,0 0,0 0.013,0 0.1909,1.0907 0.3886,2.1132 0.5726,3.2038001 0,0 0.014,0.068 0.014,0.068 0.15,0.8863 0.3136,1.7724 0.4635,2.6585 l 0,0 c 0.15,0.8862 0.3,1.7724 0.4362,2.6585 0.014,0.069 0.014,0.069 0.014,0.069 0.027,0.2045 0.055,0.3409 0.075,0.4772 0.014,0.069 0.014,0.069 0.014,0.069 0.1163,0.7499 0.2114,1.4315 0.3273,2.1131 0,0 0.014,0.069 0.014,0.1364 0.02,0.1364 0.047,0.2726 0.075,0.409 0,0.069 0.013,0.069 0.013,0.1364 0.027,0.1362 0.055,0.3407 0.075,0.4771 0,0 0,0 0,0 0.081,0.5454 0.1569,1.0225 0.2318,1.4996 0.014,0.069 0.014,0.1364 0.02,0.2045 0.014,0.1364 0.041,0.2727 0.061,0.409 0,0.069 0.014,0.1364 0.027,0.1364 0.014,0.2045 0.034,0.3408 0.048,0.4771 0.014,0.069 0.014,0.069 0.027,0.1364 0.075,0.4771 0.1364,0.9542 0.1976,1.4996 0.014,0 0.014,0 0.014,0.069 0.028,0.1364 0.041,0.2728 0.069,0.409 0.013,0.069 0.013,0.1364 0.02,0.2045 0.014,0.1364 0.041,0.2728 0.048,0.409 0.014,0.069 0.027,0.1364 0.027,0.1364 0.027,0.2045 0.034,0.3409 0.061,0.4771 0,0 0,0.069 0.014,0.069 0.061,0.4771 0.1225,1.0225 0.1909,1.4996 0,0.069 0.013,0.1364 0.02,0.2045 0.014,0.069 0.027,0.2726 0.055,0.3409 0,0.067 0.014,0.2045 0.02,0.2726 0.014,0.1364 0.027,0.2726 0.055,0.409 0,0 0.013,0.069 0.013,0.1364 0.061,0.4771 0.1163,0.9542 0.1773,1.3632 0,0.069 0.014,0.2045 0.027,0.2728 0.014,0.069 0.02,0.2045 0.034,0.3407 0.014,0.069 0.028,0.2045 0.041,0.2728 0.014,0.1363 0.02,0.2045 0.034,0.3408 0.014,0.1363 0.014,0.2045 0.028,0.2727 0.014,0.1363 0.041,0.2726 0.047,0.3408 0.014,0.1363 0.014,0.2045 0.027,0.2727 0.028,0.2726 0.048,0.4089 0.061,0.6134 0.014,0.1364 0.027,0.2045 0.034,0.3409 0.014,0.069 0.028,0.2045 0.041,0.3408 0.014,0.069 0.027,0.2045 0.034,0.2727 0.014,0.1363 0.027,0.2726 0.027,0.3408 0.014,0.069 0.028,0.2045 0.041,0.3408 0.014,0.069 0.02,0.2045 0.034,0.2727 0.014,0.1363 0.028,0.2727 0.041,0.409 0.014,0.067 0.02,0.2045 0.034,0.2727 0.014,0.2045 0.027,0.409 0.055,0.5453 0.014,0.1363 0.014,0.2045 0.02,0.2727 0.014,0.1363 0.027,0.2726 0.041,0.409 0.014,0.068 0.014,0.1363 0.028,0.2726 0.013,0.1364 0.02,0.2727 0.034,0.3409 0.014,0.1363 0.02,0.2045 0.02,0.2726 0.014,0.1364 0.027,0.2727 0.041,0.409 0.014,0.1364 0.027,0.2045 0.027,0.2727 0.02,0.2045 0.034,0.409 0.061,0.6135 0,0.069 0.014,0.1363 0.014,0.2045 0.02,0.1363 0.02,0.2727 0.047,0.409 0,0.1363 0.014,0.2045 0.014,0.2727 0.014,0.1363 0.028,0.2726 0.034,0.409 0.014,0.069 0.014,0.1363 0.027,0.2726 0.014,0.1364 0.027,0.2727 0.041,0.409 0.014,0.069 0.014,0.1364 0.02,0.2045 0.014,0.2045 0.041,0.409 0.055,0.6817 l 0,0 c 0,0 0,0 -0.014,0 0,0 0,0 0,0 0,0 0,0 -0.014,0 l 0,0 c -0.8383,1.6359 -28.3095,54.4649 -95.8282,108.179998" />
    </g>
  </g>
</svg>
