<?xml version="1.0" encoding="UTF-8" standalone="no"?>
<svg
   xmlns:dc="http://purl.org/dc/elements/1.1/"
   xmlns:cc="http://creativecommons.org/ns#"
   xmlns:rdf="http://www.w3.org/1999/02/22-rdf-syntax-ns#"
   xmlns:svg="http://www.w3.org/2000/svg"
   xmlns="http://www.w3.org/2000/svg"
   version="1.1"
   id="svg14145"
   viewBox="0 0 300 300"
   height="300"
   width="300">
  <defs
     id="defs14147" />
  <metadata
     id="metadata14150">
    <rdf:RDF>
      <cc:Work
         rdf:about="">
        <dc:format>image/svg+xml</dc:format>
        <dc:type
           rdf:resource="http://purl.org/dc/dcmitype/StillImage" />
        <dc:title></dc:title>
      </cc:Work>
    </rdf:RDF>
  </metadata>
  <g
     transform="translate(-197.14213,-169.50608)"
     id="layer1">
    <g
       transform="matrix(0.14999989,0,0,0.14999989,547.71341,377.6517)"
       id="g14593">
      <path
         id="path5175"
         style="fill:#f57715;fill-opacity:1;fill-rule:nonzero;stroke:none"
         d="m -2337.1436,612.3629 2000.00149,0 0,-2000.0014 -2000.00149,0 0,2000.0014 z" />
      <path
         id="path5177"
         style="fill:#f68d3c;fill-opacity:1;fill-rule:nonzero;stroke:none"
         d="m -672.14591,-387.6378 c 0,367.260005 -297.7233,664.997 -664.99689,664.997 -367.2703,0 -665.0006,-297.736995 -665.0006,-664.997 0,-367.27358 297.7303,-664.9971 665.0005,-664.9971 367.27369,0 664.99699,297.72352 664.99699,664.9971" />
      <path
         id="path5205"
         style="fill:#f2f2f2;fill-opacity:1;fill-rule:nonzero;stroke:none"
         d="m -1384.28,-737.35175 6.3873,-12.713 c 0,0 -9.2639,-4.683 -18.7118,-9.02525 -4.7307,-2.1745 -9.4955,-4.274 -13.1151,-5.801 -1.8201,-0.76338 -3.3403,-1.38375 -4.4036,-1.82 -1.1112,-0.44313 -1.745,-0.70213 -1.745,-0.70213 l -5.1057,13.28563 c 0,0 2.2904,0.94075 5.7192,2.33812 3.4765,1.46563 8.0981,3.50375 12.6993,5.62375 9.2093,4.22625 18.2754,8.81388 18.2754,8.81388" />
      <path
         id="path5207"
         style="fill:#f2f2f2;fill-opacity:1;fill-rule:nonzero;stroke:none"
         d="m -1331.5805,-707.6925 7.5324,-12.07238 c 0,0 -8.7799,-5.52137 -17.7574,-10.70887 -8.9571,-5.242 -18.0845,-10.19088 -18.0845,-10.19088 l -6.7826,12.50175 c 0,0 8.9366,4.84663 17.7029,9.97275 8.7933,5.092 17.3892,10.49763 17.3892,10.49763" />
      <path
         id="path5209"
         style="fill:#f2f2f2;fill-opacity:1;fill-rule:nonzero;stroke:none"
         d="m -1281.9077,-673.26175 8.6707,-11.28838 c 0,0 -2.0653,-1.56099 -5.1601,-3.92637 -3.1016,-2.37213 -7.3211,-5.38513 -11.5065,-8.45938 -8.4526,-6.03962 -17.0825,-11.79962 -17.0825,-11.79962 l -7.9072,11.82 c 0,0 8.4457,5.651 16.7075,11.55425 4.09,2.99938 8.2141,5.94413 11.2406,8.24813 3.0199,2.31087 5.0375,3.85137 5.0375,3.85137" />
      <path
         id="path5211"
         style="fill:#f2f2f2;fill-opacity:1;fill-rule:nonzero;stroke:none"
         d="m -1236.1545,-633.95013 9.8774,-10.23862 c 0,0 -1.8814,-1.786 -4.6966,-4.499 -2.8358,-2.67888 -6.7076,-6.14863 -10.5386,-9.666 -3.9332,-3.4015 -7.8255,-6.84388 -10.8112,-9.35925 -2.9993,-2.488 -4.9966,-4.15125 -4.9966,-4.15125 l -9.0592,10.97475 c 0,0 1.9495,1.6155 4.867,4.04912 2.9176,2.44025 6.7007,5.80088 10.5317,9.11375 3.7355,3.42875 7.4643,6.83713 10.2659,9.40013 2.7402,2.63812 4.5602,4.37637 4.5602,4.37637" />
      <path
         id="path5213"
         style="fill:#f2f2f2;fill-opacity:1;fill-rule:nonzero;stroke:none"
         d="m -1195.6363,-589.47838 11.1452,-8.83437 c 0,0 -1.5679,-2.0995 -4.09,-5.07838 -2.529,-2.98575 -5.7532,-7.09612 -9.257,-10.96125 -3.4424,-3.91275 -6.8848,-7.8255 -9.5979,-10.63387 -2.6721,-2.863 -4.4512,-4.76488 -4.4512,-4.76488 l -10.2863,9.82275 c 0,0 1.7246,1.85413 4.3149,4.61488 2.6313,2.72663 5.9646,6.53712 9.2979,10.32725 3.4016,3.7355 6.51,7.70962 8.964,10.58625 2.4471,2.897 3.9604,4.92162 3.9604,4.92162" />
      <path
         id="path5215"
         style="fill:#f2f2f2;fill-opacity:1;fill-rule:nonzero;stroke:none"
         d="m -1162.1735,-539.73738 12.4132,-6.95987 c 0,0 -5.0717,-9.15475 -10.7227,-17.96863 -2.7606,-4.43762 -5.7872,-8.69799 -7.9481,-11.97687 -1.0702,-1.62912 -2.0382,-2.94475 -2.713,-3.87175 -0.6681,-0.92025 -1.0566,-1.44513 -1.0566,-1.44513 l -11.5746,8.26175 c 0,0 0.3748,0.51125 1.0156,1.39738 0.6544,0.89975 1.5882,2.16088 2.6245,3.74913 2.0722,3.14937 4.9965,7.25974 7.6482,11.54062 5.4397,8.473 10.3135,17.27337 10.3135,17.27337" />
      <path
         id="path5217"
         style="fill:#f2f2f2;fill-opacity:1;fill-rule:nonzero;stroke:none"
         d="m -1137.6881,-485.23838 13.4629,-4.58762 c 0,0 -0.893,-2.46075 -2.2427,-6.16225 -0.6681,-1.84725 -1.4587,-4.00138 -2.3041,-6.31225 -0.852,-2.304 -1.9154,-4.70338 -2.9039,-7.12337 -1.0088,-2.42663 -2.0108,-4.83976 -2.9516,-7.11651 -1.0361,-2.22225 -2.004,-4.30137 -2.8288,-6.08725 -1.6633,-3.54475 -2.7675,-5.92374 -2.7675,-5.92374 l -12.788,6.22362 c 0,0 1.0565,2.27675 2.6516,5.69188 0.7907,1.69737 1.711,3.69462 2.713,5.8215 0.893,2.17449 1.861,4.49887 2.8221,6.81662 0.9475,2.33125 1.97,4.62162 2.788,6.82338 0.7975,2.20862 1.5543,4.27412 2.195,6.04637 1.2883,3.531 2.154,5.88963 2.154,5.88963" />
      <path
         id="path5219"
         style="fill:#f2f2f2;fill-opacity:1;fill-rule:nonzero;stroke:none"
         d="m -1124.0412,-427.147 14.0969,-1.88825 c 0,0 -0.047,-0.668 -0.2318,-1.79275 -0.1773,-1.13163 -0.4431,-2.74713 -0.7635,-4.69663 -0.7021,-3.87875 -1.302,-9.10025 -2.5221,-14.19912 -1.1453,-5.12613 -2.0519,-10.3135 -3.1561,-14.09 -0.9953,-3.79688 -1.6702,-6.35313 -1.6702,-6.35313 l -13.7286,3.72875 c 0,0 0.6339,2.44038 1.595,6.06 1.0635,3.61288 1.9155,8.5685 3.0199,13.46288 1.1587,4.88075 1.7314,9.86362 2.4062,13.57875 0.3068,1.84725 0.5589,3.4015 0.7294,4.47175 0.1704,1.09062 0.2249,1.71775 0.2249,1.71775" />
      <path
         id="path5221"
         style="fill:#f2f2f2;fill-opacity:1;fill-rule:nonzero;stroke:none"
         d="m -1121.8053,-367.4741 14.2058,0.7838 c 0,0 0.095,-2.6243 0.2318,-6.5507 0.1225,-3.9333 0.409,-9.1616 0.2317,-14.41038 -0.1295,-5.24887 -0.02,-10.484 -0.3816,-14.41037 -0.2455,-3.92638 -0.4159,-6.55088 -0.4159,-6.55088 l -14.1853,1.00213 c 0,0 0.1567,2.49487 0.3953,6.244 0.3544,3.756 0.2318,8.7935 0.3613,13.8037 0.1704,5.0238 -0.1025,10.0409 -0.225,13.8106 -0.1363,3.7491 -0.2181,6.2781 -0.2181,6.2781" />
      <path
         id="path5223"
         style="fill:#f2f2f2;fill-opacity:1;fill-rule:nonzero;stroke:none"
         d="m -1130.2988,-308.2104 13.8786,3.1358 c 0,0 0.5862,-2.5495 1.4656,-6.36 0.8044,-3.8378 1.6701,-9.0048 2.6176,-14.1377 1.0498,-5.1261 1.5883,-10.3408 2.1404,-14.2263 0.5181,-3.8923 0.8658,-6.4758 0.8658,-6.4758 l -14.1378,-1.6156 c 0,0 -0.3407,2.4881 -0.8316,6.2372 -0.5385,3.7424 -1.0429,8.7389 -2.0518,13.6742 -0.9271,4.9625 -1.7587,9.9318 -2.529,13.6265 -0.8452,3.6877 -1.4178,6.1417 -1.4178,6.1417" />
      <path
         id="path5225"
         style="fill:#f2f2f2;fill-opacity:1;fill-rule:nonzero;stroke:none"
         d="m -1147.7222,-250.6848 13.313,5.0239 c 0,0 0.9134,-2.4404 2.2835,-6.0872 1.4451,-3.6265 3.047,-8.589 4.649,-13.5515 1.5746,-4.9762 3.3537,-9.8773 4.3081,-13.6741 1.0498,-3.7766 1.745,-6.2782 1.745,-6.2782 l -13.7014,-3.7968 c 0,0 -0.6817,2.4198 -1.6973,6.0599 -0.9135,3.6742 -2.6449,8.439 -4.165,13.2515 -1.5611,4.7989 -3.1084,9.6115 -4.5194,13.1357 -1.3293,3.5515 -2.2155,5.9168 -2.2155,5.9168" />
      <path
         id="path5227"
         style="fill:#f2f2f2;fill-opacity:1;fill-rule:nonzero;stroke:none"
         d="m -1172.2757,-195.5995 12.6654,6.4826 c 0,0 1.186,-2.2971 2.972,-5.76 1.8337,-3.4356 3.9196,-8.2141 6.1758,-12.8902 2.1745,-4.7172 4.5058,-9.3593 5.9509,-12.9994 1.5065,-3.5855 2.529,-5.9986 2.529,-5.9986 l -13.1084,-5.5352 c 0,0 -0.9816,2.3382 -2.4607,5.8283 -1.3975,3.531 -3.6743,8.0709 -5.801,12.6721 -2.195,4.5603 -4.2126,9.2229 -6.0123,12.5699 -1.7518,3.3946 -2.9107,5.6305 -2.9107,5.6305" />
      <path
         id="path5229"
         style="fill:#f2f2f2;fill-opacity:1;fill-rule:nonzero;stroke:none"
         d="m -1202.2893,-143.0636 12.0177,7.6005 c 0,0 5.4124,-8.8344 10.8111,-17.6892 2.7404,-4.3967 5.1603,-8.998 7.1098,-12.3586 1.9155,-3.3879 3.1902,-5.651 3.1902,-5.651 l -12.454,-6.8916 c 0,0 -1.2406,2.2155 -3.1152,5.542 -1.9155,3.2856 -4.274,7.7846 -6.9598,12.0995 -5.3033,8.6776 -10.5998,17.3484 -10.5998,17.3484" />
      <path
         id="path5231"
         style="fill:#f2f2f2;fill-opacity:1;fill-rule:nonzero;stroke:none"
         d="m -1236.6793,-93.152295 11.4247,8.4663 c 0,0 1.5541,-2.079 3.8855,-5.1738 2.2971,-3.1288 5.2351,-7.3892 8.2276,-11.602005 2.9858,-4.2398 5.9647,-8.4662 8.1937,-11.636 2.1403,-3.2515 3.5651,-5.4192 3.5651,-5.4192 l -11.8269,-7.9073 c 0,0 -1.3974,2.1268 -3.497,5.3102 -2.1949,3.1288 -5.126,7.287 -8.0572,11.452 -2.9448,4.1513 -5.835,8.3367 -8.0982,11.411005 -2.2903,3.0471 -3.8173,5.0988 -3.8173,5.0988" />
      <path
         id="path5233"
         style="fill:#f2f2f2;fill-opacity:1;fill-rule:nonzero;stroke:none"
         d="m -1117.4153,-710.60325 4.0217,-18.11188 c 0,0 -13.5924,-2.86975 -27.3211,-5.276 -6.8643,-1.18612 -13.7491,-2.28362 -18.957,-3.03337 -2.6176,-0.3545 -4.8058,-0.64763 -6.3259,-0.85213 -1.5951,-0.19762 -2.5085,-0.31362 -2.5085,-0.31362 l -2.154,18.41175 c 0,0 3.2855,0.43637 8.2071,1.09075 4.9967,0.70887 11.6907,1.77225 18.3709,2.93787 13.3606,2.33813 26.6668,5.14663 26.6668,5.14663" />
      <path
         id="path5235"
         style="fill:#f2f2f2;fill-opacity:1;fill-rule:nonzero;stroke:none"
         d="m -1039.065,-690.41238 5.7329,-17.66187 c 0,0 -13.2584,-4.11725 -26.6599,-7.72325 -13.3742,-3.67425 -26.8848,-6.93938 -26.8848,-6.93938 l -4.5944,17.9755 c 0,0 13.2174,3.18338 26.3121,6.7825 13.1289,3.54463 26.101,7.55288 26.0941,7.5665" />
      <path
         id="path5237"
         style="fill:#f2f2f2;fill-opacity:1;fill-rule:nonzero;stroke:none"
         d="m -963.04581,-663.2345 7.4642,-17.05513 c 0,0 -3.197,-1.302 -8.0231,-3.272 -4.8126,-1.96325 -11.302,-4.40362 -17.7643,-6.91212 -12.9992,-4.83975 -26.13499,-9.291 -26.13499,-9.291 l -6.2781,17.47775 c 0,0 12.8426,4.3695 25.55559,9.10025 6.3123,2.44725 12.6585,4.82625 17.3552,6.7485 4.7035,1.92225 7.8255,3.20375 7.8255,3.20375" />
      <path
         id="path5239"
         style="fill:#f2f2f2;fill-opacity:1;fill-rule:nonzero;stroke:none"
         d="m -890.45551,-628.59913 9.3729,-16.14175 c 0,0 -3.0334,-1.66325 -7.6005,-4.1445 -4.5876,-2.44037 -10.7703,-5.54875 -16.9325,-8.739 -6.2373,-2.99925 -12.454,-6.08725 -17.1644,-8.2685 -4.7375,-2.16087 -7.8867,-3.59237 -7.8867,-3.59237 l -8.0642,16.76888 c 0,0 3.0743,1.41787 7.6892,3.51737 4.5876,2.12675 10.6407,5.133 16.7143,8.0505 5.9987,3.09475 11.9838,6.1895 16.4827,8.514 4.4308,2.41987 7.3892,4.03538 7.3892,4.03538" />
      <path
         id="path5241"
         style="fill:#f2f2f2;fill-opacity:1;fill-rule:nonzero;stroke:none"
         d="m -822.95711,-585.79063 11.5132,-14.77162 c 0,0 -2.7333,-2.11313 -7.0278,-5.06475 -4.2673,-2.938 -9.8433,-7.06213 -15.6852,-10.784 -5.7872,-3.81725 -11.5746,-7.62775 -16.0191,-10.29313 -4.4307,-2.71975 -7.3824,-4.54662 -7.3824,-4.54662 l -10.0477,15.75325 c 0,0 2.8494,1.75862 7.1506,4.39675 4.3218,2.59025 9.9251,6.28487 15.5215,9.97275 5.6783,3.61275 11.0566,7.6005 15.208,10.43625 4.1376,2.84938 6.7689,4.90113 6.7689,4.90113" />
      <path
         id="path5243"
         style="fill:#f2f2f2;fill-opacity:1;fill-rule:nonzero;stroke:none"
         d="m -762.80711,-534.0115 13.7627,-12.82888 c 0,0 -9.6591,-9.88412 -19.9453,-19.13425 -5.0785,-4.7035 -10.4432,-9.08662 -14.3287,-12.50175 -1.9495,-1.72462 -3.6468,-3.06062 -4.8397,-4.00812 -1.1725,-0.95438 -1.8474,-1.47925 -1.8474,-1.47925 l -12.2359,14.199 c 0,0 0.6477,0.51125 1.786,1.42475 1.152,0.91337 2.788,2.21537 4.6625,3.87862 3.7357,3.28563 8.923,7.52563 13.8038,12.03825 9.8977,8.90925 19.182,18.41163 19.182,18.41163" />
      <path
         id="path5245"
         style="fill:#f2f2f2;fill-opacity:1;fill-rule:nonzero;stroke:none"
         d="m -712.73211,-473.31613 15.9374,-10.17037 c 0,0 -1.9837,-2.81525 -4.9763,-7.028 -1.4996,-2.12675 -3.231,-4.574 -5.1124,-7.212 -1.8882,-2.62438 -4.0696,-5.28288 -6.1691,-8.03675 -2.1131,-2.72675 -4.2262,-5.43975 -6.2167,-8.00275 -2.0859,-2.46088 -4.0492,-4.758 -5.7124,-6.7485 -3.3606,-3.93325 -5.5896,-6.57125 -5.5896,-6.57125 l -14.499,12.0245 c 0,0 2.1268,2.52225 5.3511,6.31225 1.6019,1.88825 3.4765,4.09675 5.4737,6.46212 1.9019,2.44725 3.9264,5.04438 5.9509,7.662 2.0178,2.62438 4.1105,5.18738 5.9169,7.68913 1.786,2.52212 3.4492,4.8875 4.8875,6.8985 2.863,4.03537 4.758,6.72112 4.758,6.72112" />
      <path
         id="path5247"
         style="fill:#f2f2f2;fill-opacity:1;fill-rule:nonzero;stroke:none"
         d="m -675.50641,-404.54988 17.6619,-6.98699 c 0,0 -0.2864,-0.79763 -0.8999,-2.1745 -0.6135,-1.36338 -1.4996,-3.32663 -2.563,-5.66463 -2.2086,-4.66263 -4.758,-11.04987 -8.0505,-17.08937 -3.2106,-6.07363 -6.1076,-12.31088 -8.8206,-16.72125 -2.5904,-4.46488 -4.3014,-7.4505 -4.3014,-7.4505 l -16.5643,9.18875 c 0,0 1.6427,2.83575 4.1036,7.09612 2.5971,4.21275 5.3579,10.17725 8.4321,15.985 3.1561,5.76688 5.5624,11.8815 7.6891,16.31913 1.0158,2.2495 1.8679,4.11037 2.4677,5.4055 0.5726,1.31562 0.8453,2.09275 0.8453,2.09275" />
      <path
         id="path5249"
         style="fill:#f2f2f2;fill-opacity:1;fill-rule:nonzero;stroke:none"
         d="m -652.55491,-330.0713 18.6982,-3.6401 c 0,0 -0.7567,-3.3401 -1.895,-8.3299 -1.1522,-4.9966 -2.5427,-11.6837 -4.5399,-18.2345 -1.9291,-6.5712 -3.5379,-13.2243 -5.3239,-18.0505 -1.6496,-4.8602 -2.7539,-8.1117 -2.7539,-8.1117 l -18.0708,5.8759 c 0,0 1.0497,3.1152 2.6243,7.7777 1.711,4.6081 3.2515,10.9817 5.0989,17.2598 1.9086,6.2645 3.2379,12.6994 4.3354,17.4779 1.1042,4.7852 1.8267,7.9755 1.8267,7.9755" />
      <path
         id="path5251"
         style="fill:#f2f2f2;fill-opacity:1;fill-rule:nonzero;stroke:none"
         d="m -643.65221,-252.5866 19.0592,-0.5794 c 0,0 -0.1025,-3.3946 -0.2385,-8.5071 -0.2455,-5.092 -0.859,-11.8746 -1.3497,-18.664 -0.3613,-6.803 -1.4247,-13.5515 -1.9973,-18.623 -0.6407,-5.0784 -1.0634,-8.4526 -1.0634,-8.4526 l -18.889,2.5835 c 0,0 0.4159,3.2515 1.0158,8.1322 0.559,4.8806 1.5882,11.3565 1.9359,17.9209 0.4703,6.5372 1.0633,13.0607 1.302,17.9891 0.1363,4.9216 0.225,8.2004 0.225,8.2004" />
      <path
         id="path5253"
         style="fill:#f2f2f2;fill-opacity:1;fill-rule:nonzero;stroke:none"
         d="m -646.93111,-174.3861 18.9502,1.9836 c 0,0 0.375,-3.3743 0.9272,-8.439 0.6475,-5.0375 1.077,-11.8064 1.486,-18.5821 0.3748,-6.7894 1.0225,-13.5379 0.9883,-18.6367 0.1025,-5.0988 0.1637,-8.4867 0.1637,-8.4867 l -19.073,-0.3273 c 0,0 -0.055,3.2857 -0.1568,8.2142 0.055,4.9216 -0.5999,11.4996 -0.9611,18.0504 -0.3954,6.5712 -0.7839,13.1357 -1.4383,18.0299 -0.5386,4.9149 -0.8862,8.1937 -0.8862,8.1937" />
      <path
         id="path5255"
         style="fill:#f2f2f2;fill-opacity:1;fill-rule:nonzero;stroke:none"
         d="m -660.29171,-96.935495 18.6095,4.0355 c 0,0 0.7771,-3.2993 1.9427,-8.234505 1.2201,-4.9421 2.3244,-11.6293 3.6741,-18.2686 1.2339,-6.6599 2.6994,-13.2857 3.347,-18.3232 0.7498,-5.0238 1.261,-8.3707 1.261,-8.3707 l -18.8616,-2.7268 c 0,0 -0.4976,3.272 -1.2337,8.1595 -0.6272,4.9149 -2.0519,11.377 -3.2653,17.8665 -1.3087,6.4622 -2.3721,12.9993 -3.5855,17.8119 -1.1247,4.8261 -1.8882,8.050405 -1.8882,8.050405" />
      <path
         id="path5257"
         style="fill:#f2f2f2;fill-opacity:1;fill-rule:nonzero;stroke:none"
         d="m -681.58001,-20.936795 18.1526,5.6578 c 0,0 4.0492,-12.9106 8.0845,-25.8214 2.0792,-6.4349 3.6607,-13.0266 5.0717,-17.9005 1.3428,-4.9011 2.2426,-8.1459 2.2426,-8.1459 l -18.4799,-4.6285 c 0,0 -0.8725,3.1902 -2.1812,7.9892 -1.377,4.7716 -2.9313,11.2133 -4.9625,17.5255 -3.9674,12.6721 -7.9278,25.3238 -7.9278,25.3238" />
      <path
         id="path5259"
         style="fill:#f2f2f2;fill-opacity:1;fill-rule:nonzero;stroke:none"
         d="m -709.43961,53.201005 17.6755,6.9392 c 0,0 1.3225,-3.1151 3.2992,-7.7913 1.9359,-4.683 4.3082,-11.0157 6.7827,-17.3143 2.4538,-6.2985 4.8875,-12.6107 6.728,-17.3347 1.6768,-4.7853 2.8016,-7.9890003 2.8016,-7.9890003 l -18.0028,-6.1078 c 0,0 -1.0975,3.1356 -2.7471,7.8323003 -1.7996,4.6558 -4.2126,10.8657 -6.619,17.0621 -2.4335,6.1895 -4.758,12.4131 -6.6597,17.0416 -1.9633,4.5875 -3.2584,7.6619 -3.2584,7.6619" />
      <path
         id="path5261"
         style="fill:#f2f2f2;fill-opacity:1;fill-rule:nonzero;stroke:none"
         d="m -1799.5611,-72.613795 -13.5938,4.1787 c 0,0 2.4847,8.1186 5.1609,16.1963 1.3415,4.0354 2.7266,8.064 3.7996,11.0907 1.1187,3.047 1.8609,5.0988 1.8609,5.0988 l 13.2769,-5.0783 c 0,0 -0.6954,-1.9088 -1.7418,-4.7853 -1.0408,-2.9244 -2.3912,-6.8507 -3.7033,-10.8112 -2.6232,-7.9005 -5.0594,-15.8897 -5.0594,-15.8897" />
      <path
         id="path5263"
         style="fill:#f2f2f2;fill-opacity:1;fill-rule:nonzero;stroke:none"
         d="m -1812.8059,-120.5619 -13.7982,3.4083 c 0,0 0.5086,2.0655 1.2727,5.1533 0.8017,3.0744 1.8718,7.1848 2.9428,11.2884 2.1881,8.186805 4.5207,16.346305 4.5207,16.346305 l 13.6627,-3.9128 c 0,0 -2.2953,-8.0231 -4.4548,-16.094005 -1.0517,-4.0491 -2.1036,-8.0914 -2.8889,-11.1247 -0.7538,-3.0403 -1.257,-5.0648 -1.257,-5.0648" />
      <path
         id="path5265"
         style="fill:#f2f2f2;fill-opacity:1;fill-rule:nonzero;stroke:none"
         d="m -1823.5366,-169.1783 -13.9611,2.7132 c 0,0 0.4076,2.0926 1.0122,5.201 0.6496,3.1152 1.5045,7.2666 2.362,11.4111 0.8466,4.165 1.8133,8.289 2.4894,11.4042 0.7001,3.1015 1.1691,5.1602 1.1691,5.1602 l 13.8514,-3.1765 c 0,0 -0.4608,-2.0519 -1.1526,-5.0989 -0.6634,-3.0606 -1.6245,-7.137 -2.45,-11.227 -0.852,-4.0968 -1.6905,-8.1868 -2.3272,-11.2611 -0.5992,-3.0743 -0.9932,-5.1262 -0.9932,-5.1262" />
      <path
         id="path5267"
         style="fill:#f2f2f2;fill-opacity:1;fill-rule:nonzero;stroke:none"
         d="m -1831.7806,-218.2648 -14.075,1.9768 c 0,0 1.2542,8.3912 2.5187,16.7621 0.6844,4.1854 1.3715,8.3776 1.8883,11.5134 0.5535,3.1356 0.9236,5.2146 0.9236,5.2146 l 13.9925,-2.4744 c 0,0 -0.362,-2.0518 -0.9052,-5.1397 -0.5058,-3.088 -1.1848,-7.212 -1.861,-11.3292 -1.2407,-8.2618 -2.4819,-16.5236 -2.4819,-16.5236" />
      <path
         id="path5269"
         style="fill:#f2f2f2;fill-opacity:1;fill-rule:nonzero;stroke:none"
         d="m -1837.2816,-267.699 -14.163,1.1724 c 0,0 0.1725,2.1132 0.4336,5.2897 0.3088,3.1629 0.7164,7.3893 1.124,11.6088 0.3859,4.2262 0.94,8.439 1.2781,11.6018 0.3648,3.163 0.6068,5.2762 0.6068,5.2762 l 14.1104,-1.7247 c 0,0 -0.2373,-2.0791 -0.5944,-5.1875 -0.3381,-3.1151 -0.8835,-7.2528 -1.2564,-11.411 -0.4021,-4.165 -0.807,-8.3163 -1.1076,-11.4315 -0.2556,-3.1083 -0.4315,-5.1942 -0.4315,-5.1942" />
      <path
         id="path5271"
         style="fill:#f2f2f2;fill-opacity:1;fill-rule:nonzero;stroke:none"
         d="m -1839.8617,-317.3378 -14.214,0.2863 c 0,0 0.038,2.1267 0.096,5.3101 0.1175,3.1903 0.2793,7.4301 0.4388,11.6633 0.12,4.2536 0.3893,8.4936 0.5782,11.677 0.1812,3.1765 0.3087,5.2896 0.3087,5.2896 l 14.182,-0.8861 c 0,0 -0.12,-2.0928 -0.2985,-5.2148 -0.178,-3.1289 -0.4472,-7.287 -0.5699,-11.4519 -0.1595,-4.1718 -0.3142,-8.3367 -0.4308,-11.4588 -0.056,-3.1424 -0.09,-5.2147 -0.09,-5.2147" />
      <path
         id="path5273"
         style="fill:#f2f2f2;fill-opacity:1;fill-rule:nonzero;stroke:none"
         d="m -1839.1937,-366.9629 -14.1977,-0.7021 c 0,0 -0.1493,2.1267 -0.2686,5.3169 -0.096,3.1697 -0.2242,7.4233 -0.3545,11.6701 -0.1704,4.2536 -0.1622,8.5004 -0.184,11.6905 -0.021,3.1902 -0.034,5.3102 -0.034,5.3102 l 14.2161,0.028 c 0,0 0.013,-2.0858 0.033,-5.2147 0.03,-3.122 0.014,-7.3006 0.184,-11.452 0.1275,-4.1718 0.2529,-8.3368 0.3457,-11.4588 0.115,-3.1151 0.2611,-5.1873 0.2611,-5.1873" />
      <path
         id="path5275"
         style="fill:#f2f2f2;fill-opacity:1;fill-rule:nonzero;stroke:none"
         d="m -1834.9067,-416.37675 -14.1017,-1.79963 c 0,0 -0.3142,2.11325 -0.6338,5.28975 -0.3463,3.17663 -0.8147,7.40975 -1.2754,11.636 -0.4929,4.22638 -0.7349,8.47313 -1.0308,11.66325 -0.2631,3.17658 -0.4315,5.29648 -0.4315,5.29648 l 14.1739,1.043 c 0,0 0.1704,-2.0791 0.4288,-5.19423 0.2876,-3.09475 0.514,-7.25975 1.0013,-11.3975 0.4582,-4.13762 0.9108,-8.27537 1.2489,-11.37687 0.3169,-3.09475 0.6203,-5.16025 0.6203,-5.16025" />
      <path
         id="path5277"
         style="fill:#f2f2f2;fill-opacity:1;fill-rule:nonzero;stroke:none"
         d="m -1826.5564,-465.177 -13.8861,-3.02663 c 0,0 -1.6932,8.364 -3.3892,16.728 -1.4248,8.39125 -2.8575,16.803 -2.8575,16.803 l 14.0462,2.1745 c 0,0 1.3948,-8.18675 2.7874,-16.394 1.6482,-8.13225 3.2992,-16.28487 3.2992,-16.28487" />
      <path
         id="path5279"
         style="fill:#f2f2f2;fill-opacity:1;fill-rule:nonzero;stroke:none"
         d="m -1813.679,-512.88663 -13.5242,-4.37637 c 0,0 -0.6415,2.05187 -1.6033,5.09887 -0.9394,3.06063 -2.319,7.10975 -3.3811,11.2475 -1.1349,4.10363 -2.261,8.22763 -3.1159,11.302 -0.4287,1.5405 -0.7771,2.8425 -0.9795,3.74225 -0.2161,0.90663 -0.3354,1.4315 -0.3354,1.4315 l 13.7819,3.44925 c 0,0 0.1225,-0.49762 0.3333,-1.38375 0.1916,-0.88625 0.5378,-2.1405 0.953,-3.64012 0.8255,-2.99938 1.9277,-7.00075 3.0272,-10.99525 1.0361,-4.02863 2.3756,-7.955 3.2918,-10.927 0.9263,-2.96525 1.5522,-4.94888 1.5522,-4.94888" />
      <path
         id="path5281"
         style="fill:#f2f2f2;fill-opacity:1;fill-rule:nonzero;stroke:none"
         d="m -1795.9932,-558.93988 -12.9755,-5.82137 c 0,0 -0.8705,1.9495 -2.1943,4.87387 -1.3817,2.897 -2.8752,6.89838 -4.4997,10.852 -1.5603,3.97413 -3.2569,7.90738 -4.319,10.934 -1.0729,3.01288 -1.792,5.02375 -1.792,5.02375 l 13.364,4.83988 c 0,0 0.7007,-1.9495 1.7443,-4.87388 1.0252,-2.938 2.668,-6.74162 4.1834,-10.59987 1.5733,-3.82413 3.0143,-7.73013 4.3613,-10.52488 1.2753,-2.829 2.1275,-4.7035 2.1275,-4.7035" />
      <path
         id="path5283"
         style="fill:#f2f2f2;fill-opacity:1;fill-rule:nonzero;stroke:none"
         d="m -1773.3144,-602.68913 -12.2065,-7.28687 c 0,0 -0.2795,0.44987 -0.7716,1.24737 -0.5112,0.79075 -1.1589,1.94963 -1.9414,3.35375 -1.5658,2.80175 -3.6503,6.53725 -5.7465,10.27275 -2.1567,3.70138 -4.0122,7.5665 -5.458,10.41575 -1.4411,2.85625 -2.4022,4.77175 -2.4022,4.77175 l 12.741,6.30538 c 0,0 0.9325,-1.8405 2.3279,-4.61488 1.3947,-2.77437 3.1922,-6.50987 5.2801,-10.075 2.0185,-3.61287 4.0416,-7.23925 5.5515,-9.93862 0.7566,-1.34975 1.3797,-2.48813 1.8746,-3.238 0.4819,-0.777 0.7511,-1.21337 0.7511,-1.21337" />
      <path
         id="path5285"
         style="fill:#f2f2f2;fill-opacity:1;fill-rule:nonzero;stroke:none"
         d="m -1745.5126,-643.33663 -11.2236,-8.72537 c 0,0 -1.2939,1.711 -3.2298,4.274 -1.9039,2.59037 -4.6066,5.91012 -7.0272,9.43425 -4.846,7.06887 -9.6844,14.13087 -9.6844,14.13087 l 11.9052,7.771 c 0,0 4.6755,-6.8235 9.3545,-13.64012 2.3327,-3.40825 4.9448,-6.61888 6.79,-9.12063 1.8664,-2.47437 3.1153,-4.124 3.1153,-4.124" />
      <path
         id="path5287"
         style="fill:#f2f2f2;fill-opacity:1;fill-rule:nonzero;stroke:none"
         d="m -1712.9605,-680.24875 -10.0709,-10.04088 c 0,0 -1.5256,1.51325 -3.8126,3.74913 -2.2262,2.33125 -5.0967,5.501 -8.0047,8.63662 -1.4505,1.5815 -2.8992,3.14938 -4.2624,4.6285 -0.677,0.73625 -1.3368,1.452 -1.9625,2.12688 -0.589,0.70887 -1.148,1.37687 -1.662,1.99725 -2.0606,2.44712 -3.4321,4.10362 -3.4321,4.10362 l 10.8588,9.1615 c 0,0 1.3259,-1.58825 3.3177,-3.96725 0.4976,-0.58625 1.0327,-1.23387 1.6026,-1.92225 0.6019,-0.64762 1.2386,-1.33612 1.8964,-2.05187 1.315,-1.42463 2.713,-2.95163 4.1193,-4.45813 2.8064,-3.04012 5.578,-6.10087 7.7219,-8.3435 2.2126,-2.1745 3.6905,-3.61962 3.6905,-3.61962" />
      <path
         id="path5289"
         style="fill:#f2f2f2;fill-opacity:1;fill-rule:nonzero;stroke:none"
         d="m -1676.167,-713.02313 -8.816,-11.152 c 0,0 -1.6646,1.34963 -4.1622,3.3605 -2.4655,2.05188 -5.8794,4.64213 -9.0852,7.46425 -6.3933,5.68513 -12.7812,11.39063 -12.7812,11.39063 l 9.6687,10.42262 c 0,0 6.1745,-5.51462 12.3524,-11.01562 3.105,-2.7335 6.409,-5.23525 8.8003,-7.21888 2.4178,-1.94275 4.0232,-3.2515 4.0232,-3.2515" />
      <path
         id="path5291"
         style="fill:#f2f2f2;fill-opacity:1;fill-rule:nonzero;stroke:none"
         d="m -1635.882,-741.50313 -7.5392,-12.045 c 0,0 -7.137,4.71038 -14.2714,9.40025 -1.7736,1.186 -3.5869,2.32438 -5.216,3.48325 -1.619,1.19288 -3.1344,2.29038 -4.4261,3.22425 -2.5875,1.90188 -4.3163,3.14925 -4.3163,3.14925 l 8.396,11.47925 c 0,0 1.6721,-1.227 4.1828,-3.0675 1.2542,-0.90662 2.7191,-1.97 4.2876,-3.122 1.5746,-1.12475 3.3334,-2.20862 5.058,-3.37425 6.9256,-4.56025 13.8446,-9.1275 13.8446,-9.1275" />
      <path
         id="path5293"
         style="fill:#f2f2f2;fill-opacity:1;fill-rule:nonzero;stroke:none"
         d="m -1592.6919,-765.49763 -6.3053,-12.72662 c 0,0 -0.4772,0.22487 -1.3293,0.62712 -0.8316,0.39538 -2.045,0.9475 -3.4492,1.72463 -2.822,1.49962 -6.5917,3.49687 -10.3544,5.49412 -3.7629,2.03825 -7.5598,3.981 -10.3341,5.576 -2.7539,1.64288 -4.5875,2.72675 -4.5875,2.72675 l 7.1233,12.29713 c 0,0 1.7859,-1.06338 4.4649,-2.64488 2.6926,-1.56775 6.394,-3.44237 10.0478,-5.41912 3.6605,-1.94963 7.3278,-3.89238 10.075,-5.35788 1.3632,-0.74987 2.5426,-1.28837 3.3673,-1.69062 0.818,-0.3885 1.2815,-0.60663 1.2815,-0.60663" />
      <path
         id="path5295"
         style="fill:#f2f2f2;fill-opacity:1;fill-rule:nonzero;stroke:none"
         d="m -1547.3749,-785.43625 -5.167,-13.25163 c 0,0 -0.5043,0.19088 -1.3701,0.51125 -0.8725,0.334 -2.1336,0.74988 -3.5991,1.39063 -2.9449,1.2475 -6.8713,2.91075 -10.7908,4.56037 -3.9196,1.66325 -7.8391,3.32651 -10.784,4.57388 -1.4791,0.59987 -2.6585,1.24062 -3.5105,1.61562 -0.8385,0.39538 -1.3225,0.62025 -1.3225,0.62025 l 5.9238,12.93113 c 0,0 0.4702,-0.23175 1.2882,-0.6135 0.8317,-0.37487 1.9769,-0.98837 3.4152,-1.58825 2.8766,-1.21337 6.7007,-2.82887 10.5317,-4.45125 3.8241,-1.6155 7.6551,-3.23787 10.5249,-4.45125 1.4247,-0.62712 2.6721,-1.0225 3.5242,-1.36338 0.8453,-0.3135 1.336,-0.48387 1.336,-0.48387" />
      <path
         id="path5297"
         style="fill:#f2f2f2;fill-opacity:1;fill-rule:nonzero;stroke:none"
         d="m -1500.5172,-801.66675 -4.1309,-13.606 c 0,0 -0.5113,0.14312 -1.4043,0.409 -0.8861,0.27275 -2.1541,0.70213 -3.6673,1.18612 -3.0334,1.002 -7.0689,2.3245 -11.1179,3.65375 -4.0423,1.30875 -8.0846,2.65163 -11.118,3.63325 -2.9925,1.12475 -4.9761,1.86775 -4.9761,1.86775 l 4.8057,13.37425 c 0,0 1.9495,-0.72937 4.8739,-1.81325 2.9652,-0.97475 6.9257,-2.27675 10.8794,-3.57875 3.9605,-1.302 7.9141,-2.5835 10.8861,-3.55825 1.4929,-0.49087 2.7266,-0.893 3.5856,-1.17925 0.8793,-0.2455 1.3838,-0.38862 1.3838,-0.38862" />
      <path
         id="path5299"
         style="fill:#f2f2f2;fill-opacity:1;fill-rule:nonzero;stroke:none"
         d="m -1452.5145,-814.40025 -3.2039,-13.85138 c 0,0 -8.2481,2.01088 -16.503,4.02863 -2.0722,0.49762 -4.1308,1.00887 -6.06,1.47237 -1.936,0.49763 -3.7082,1.04976 -5.242,1.4725 -3.0743,0.86563 -5.1193,1.45188 -5.1193,1.45188 l 3.8173,13.68788 c 0,0 2.0042,-0.56588 5.017,-1.42475 1.4998,-0.41576 3.2517,-0.95438 5.1398,-1.43825 1.8951,-0.46363 3.9264,-0.9475 5.951,-1.452 8.0981,-1.97 16.2031,-3.94688 16.2031,-3.94688" />
      <path
         id="path5301"
         style="fill:#f2f2f2;fill-opacity:1;fill-rule:nonzero;stroke:none"
         d="m -1403.7551,-824.10025 -2.3858,-14.015 c 0,0 -2.0927,0.36125 -5.2283,0.88612 -3.1358,0.57938 -7.3348,1.17925 -11.4929,2.03138 -8.3095,1.711 -16.619,3.422 -16.619,3.422 l 2.9244,13.89912 c 0,0 8.1731,-1.677 16.3462,-3.347 4.09,-0.85212 8.2278,-1.43837 11.3156,-1.9905 3.0812,-0.5385 5.1398,-0.88612 5.1398,-0.88612" />
      <path
         id="path5303"
         style="fill:#a1a1a0;fill-opacity:1;fill-rule:nonzero;stroke:none"
         d="m -1080.7555,281.0744 c -38.9912,-34.4377 -21.2611,-114.799 -21.2611,-114.799 l -116.2305,0 c 0,0 17.7301,80.3613 -21.2679,114.799 -38.998,34.4376 -84.5536,34.4376 -84.5536,34.4376 l 0,19.3661 327.86659,0 0,-19.3661 c 0,0 -45.55549,0 -84.55349,-34.4376" />
      <path
         id="path5305"
         style="fill:#bfbebc;fill-opacity:1;fill-rule:nonzero;stroke:none"
         d="m -996.20201,334.8781 -327.86659,0 0,-19.3661 327.86659,0 0,19.3661" />
      <path
         id="path5307"
         style="fill:#cdccca;fill-opacity:1;fill-rule:nonzero;stroke:none"
         d="m -726.79491,114.612 c 0,28.5345 -23.122,51.6634 -51.6496,51.6634 l -763.37469,0 c -28.5277,0 -51.6565,-23.1289 -51.6565,-51.6634 l 0,-421.8475 c 0,-28.5276 23.1288,-51.6634 51.6565,-51.6634 l 763.37469,0 c 28.5276,0 51.6496,23.1358 51.6496,51.6634 l 0,421.8475" />
      <path
         id="path5309"
         style="fill:#243464;fill-opacity:1;fill-rule:nonzero;stroke:none"
         d="m -1593.4757,-307.2355 0,421.8475 c 0,10.0274 2.9038,19.3661 7.8391,27.2734 l 851.00949,0 c 4.9352,-7.9073 7.8322,-17.246 7.8322,-27.2734 l 0,-421.8475 c 0,-13.3811 -5.1192,-25.5148 -13.4627,-34.7035 l -839.75529,0 c -8.3367,9.1887 -13.4628,21.3224 -13.4628,34.7035" />
      <path
         id="path5311"
         style="fill:#e4e4e3;fill-opacity:1;fill-rule:nonzero;stroke:none"
         d="m -1556.1751,123.9509 792.07959,0 0,-448.4019 -792.07959,0 0,448.4019 z" />
      <path
         id="path5313"
         style="fill:#f03a75;fill-opacity:1;fill-rule:nonzero;stroke:none"
         d="m -1508.2405,-108.6533 124.3293,0 0,-115.0123 -124.3293,0 0,115.0123 z" />
      <path
         id="path5315"
         style="fill:#eeef37;fill-opacity:1;fill-rule:nonzero;stroke:none"
         d="m -1209.0856,-108.6533 124.3213,0 0,-115.0123 -124.3213,0 0,115.0123 z" />
      <path
         id="path5317"
         style="fill:#f38a18;fill-opacity:1;fill-rule:nonzero;stroke:none"
         d="m -943.50931,-108.6533 124.3266,0 0,-115.0123 -124.3266,0 0,115.0123 z" />
      <path
         id="path5319"
         style="fill:#a2cc2e;fill-opacity:1;fill-rule:nonzero;stroke:none"
         d="m -1508.2405,-76.137895 199.3308,0 0,-8.385 -199.3308,0 0,8.385 z" />
      <path
         id="path5321"
         style="fill:#f0a70f;fill-opacity:1;fill-rule:nonzero;stroke:none"
         d="m -1508.2405,-50.998095 199.3308,0 0,-8.3878 -199.3308,0 0,8.3878 z" />
      <path
         id="path5323"
         style="fill:#e03322;fill-opacity:1;fill-rule:nonzero;stroke:none"
         d="m -1508.2405,-27.726095 199.3308,0 0,-8.377 -199.3308,0 0,8.377 z" />
      <path
         id="path5325"
         style="fill:#f0a70f;fill-opacity:1;fill-rule:nonzero;stroke:none"
         d="m -1312.01,25.348205 163.6342,0 0,-8.3743 -163.6342,0 0,8.3743 z" />
      <path
         id="path5327"
         style="fill:#a2cc2e;fill-opacity:1;fill-rule:nonzero;stroke:none"
         d="m -1483.2507,25.348205 151.0206,0 0,-8.3743 -151.0206,0 0,8.3743 z" />
      <path
         id="path5329"
         style="fill:#f0a70f;fill-opacity:1;fill-rule:nonzero;stroke:none"
         d="m -1483.2507,48.640605 151.0206,0 0,-8.3744 -151.0206,0 0,8.3744 z" />
      <path
         id="path5331"
         style="fill:#a2cc2e;fill-opacity:1;fill-rule:nonzero;stroke:none"
         d="m -1312.01,48.640605 76.8468,0 0,-8.3744 -76.8468,0 0,8.3744 z" />
      <path
         id="path5333"
         style="fill:#a2cc2e;fill-opacity:1;fill-rule:nonzero;stroke:none"
         d="m -1483.2507,93.685005 151.0206,0 0,-8.3744 -151.0206,0 0,8.3744 z" />
      <path
         id="path5335"
         style="fill:#f0a70f;fill-opacity:1;fill-rule:nonzero;stroke:none"
         d="m -1312.01,93.685005 76.8468,0 0,-8.3744 -76.8468,0 0,8.3744 z" />
      <path
         id="path5337"
         style="fill:#f0a70f;fill-opacity:1;fill-rule:nonzero;stroke:none"
         d="m -1146.6656,70.985605 54.9379,0 0,-8.3744 -54.9379,0 0,8.3744 z" />
      <path
         id="path5339"
         style="fill:#bfe4dd;fill-opacity:1;fill-rule:nonzero;stroke:none"
         d="m -1483.2507,-1.6524953 326.2456,0 0,-8.3875997 -326.2456,0 0,8.3875997 z" />
      <path
         id="path5341"
         style="fill:#bfe4dd;fill-opacity:1;fill-rule:nonzero;stroke:none"
         d="m -1483.2507,70.985605 326.2456,0 0,-8.3744 -326.2456,0 0,8.3744 z" />
      <path
         id="path5343"
         style="fill:#a2cc2e;fill-opacity:1;fill-rule:nonzero;stroke:none"
         d="m -1146.6656,120.3516 54.9379,0 0,-8.3876 -54.9379,0 0,8.3876 z" />
      <path
         id="path5345"
         style="fill:#a2cc2e;fill-opacity:1;fill-rule:nonzero;stroke:none"
         d="m -1483.2507,120.3516 326.2456,0 0,-8.3876 -326.2456,0 0,8.3876 z" />
      <path
         id="path5347"
         style="fill:#f0a70f;fill-opacity:1;fill-rule:nonzero;stroke:none"
         d="m -927.25851,28.252105 132.3123,0 0,-8.3744 -132.3123,0 0,8.3744 z" />
      <path
         id="path5349"
         style="fill:#a2cc2e;fill-opacity:1;fill-rule:nonzero;stroke:none"
         d="m -1065.7043,28.252105 122.11109,0 0,-8.3744 -122.11109,0 0,8.3744 z" />
      <path
         id="path5351"
         style="fill:#f0a70f;fill-opacity:1;fill-rule:nonzero;stroke:none"
         d="m -1065.7043,51.537705 122.11109,0 0,-8.3877 -122.11109,0 0,8.3877 z" />
      <path
         id="path5353"
         style="fill:#a2cc2e;fill-opacity:1;fill-rule:nonzero;stroke:none"
         d="m -927.25851,51.537705 62.138,0 0,-8.3877 -62.138,0 0,8.3877 z" />
      <path
         id="path5355"
         style="fill:#a2cc2e;fill-opacity:1;fill-rule:nonzero;stroke:none"
         d="m -1065.7043,96.588905 122.11109,0 0,-8.377 -122.11109,0 0,8.377 z" />
      <path
         id="path5357"
         style="fill:#f0a70f;fill-opacity:1;fill-rule:nonzero;stroke:none"
         d="m -927.25851,96.588905 62.138,0 0,-8.377 -62.138,0 0,8.377 z" />
      <path
         id="path5359"
         style="fill:#bfe4dd;fill-opacity:1;fill-rule:nonzero;stroke:none"
         d="m -1065.7043,1.2650047 263.78809,0 0,-8.3876 -263.78809,0 0,8.3876 z" />
      <path
         id="path5361"
         style="fill:#bfe4dd;fill-opacity:1;fill-rule:nonzero;stroke:none"
         d="m -1065.7043,73.889505 263.78809,0 0,-8.3904 -263.78809,0 0,8.3904 z" />
      <path
         id="path5363"
         style="fill:#a2cc2e;fill-opacity:1;fill-rule:nonzero;stroke:none"
         d="m -1065.7043,123.2351 263.78809,0 0,-8.3744 -263.78809,0 0,8.3744 z" />
      <path
         id="path5365"
         style="fill:#32435b;fill-opacity:1;fill-rule:nonzero;stroke:none"
         d="m -1556.032,-246.2744 792.42739,0 0,-78.4874 -792.42739,0 0,78.4874 z" />
      <path
         id="path5367"
         style="fill:#e4e3e0;fill-opacity:1;fill-rule:nonzero;stroke:none"
         d="m -1146.9246,-291.2233 c 0,9.6592 -7.7641,17.4983 -17.3415,17.4983 l -341.3841,0 c -9.5842,0 -17.3415,-7.8391 -17.3415,-17.4983 0,-9.6523 7.7573,-17.4915 17.3415,-17.4915 l 341.3841,0 c 9.5774,0 17.3415,7.8392 17.3415,17.4915" />
      <path
         id="path5369"
         style="fill:#f14748;fill-opacity:1;fill-rule:nonzero;stroke:none"
         d="m -870.14191,-297.4264 c 0,6.2509 -5.017,11.3156 -11.1997,11.3156 -6.1895,0 -11.1998,-5.0647 -11.1998,-11.3156 0,-6.2236 5.0103,-11.2884 11.1998,-11.2884 6.1827,0 11.1997,5.0648 11.1997,11.2884" />
      <path
         id="path5371"
         style="fill:#87d158;fill-opacity:1;fill-rule:nonzero;stroke:none"
         d="m -833.12751,-297.4264 c 0,6.2509 -5.0171,11.3156 -11.1997,11.3156 -6.1895,0 -11.1998,-5.0647 -11.1998,-11.3156 0,-6.2236 5.0103,-11.2884 11.1998,-11.2884 6.1826,0 11.1997,5.0648 11.1997,11.2884" />
      <path
         id="path5373"
         style="fill:#6654af;fill-opacity:1;fill-rule:nonzero;stroke:none"
         d="m -794.55221,-297.4264 c 0,6.2509 -5.017,11.3156 -11.1997,11.3156 -6.1895,0 -11.1997,-5.0647 -11.1997,-11.3156 0,-6.2236 5.0102,-11.2884 11.1997,-11.2884 6.1827,0 11.1997,5.0648 11.1997,11.2884" />
      <path
         id="path5375"
         style="fill:#182c3f;fill-opacity:1;fill-rule:evenodd;stroke:none"
         d="m -663.99311,303.9851 c 0,7.7164 -6.2645,13.9673 -13.9741,13.9673 l -208.8482,0 c -7.7027,0 -13.9672,-6.2509 -13.9672,-13.9673 l 0,-384.049395 c 0,-7.7096 6.2645,-13.9605 13.9672,-13.9605 l 208.8482,0 c 7.7096,0 13.9741,6.2509 13.9741,13.9605 l 0,384.049395" />
      <path
         id="path5377"
         style="fill:#d1d7db;fill-opacity:1;fill-rule:nonzero;stroke:none"
         d="m -878.94211,236.4867 0,-281.636195 0.034,0 0,33.9469 165.6784,0 -6.9597,9.9249997 -9.4274,0 0,13.4492003 -56.3736,80.4023 -75.1875,0 0,3.6741 72.6108,0 -5.7532,8.186895 -25.1125,0 0,3.6808 22.5426,0 -4.5876,6.544 -17.955,0 0,3.681 15.3782,0 -4.3148,6.135 -52.8085,0 0,3.6742 50.2317,0 -4.4104,6.2986 -4.0762,0 0,3.6741 1.4927,0 -5.6305,8.03 -37.6073,0 0,3.6741 35.0375,0 -52.8017,75.2967 0,11.3633" />
      <path
         id="path5379"
         style="fill:#f03a75;fill-opacity:1;fill-rule:nonzero;stroke:none"
         d="m -867.26521,49.247405 30.31,0 0,-50.5258003 -30.31,0 0,50.5258003 z" />
      <path
         id="path5381"
         style="fill:#eeef37;fill-opacity:1;fill-rule:nonzero;stroke:none"
         d="m -794.35451,49.247405 30.3128,0 0,-50.5258003 -30.3128,0 0,50.5258003 z" />
      <path
         id="path5383"
         style="fill:#f38a18;fill-opacity:1;fill-rule:nonzero;stroke:none"
         d="m -729.61691,49.247405 30.2994,0 0,-50.5258003 -30.2994,0 0,50.5258003 z" />
      <path
         id="path5385"
         style="fill:#a2cc2e;fill-opacity:1;fill-rule:nonzero;stroke:none"
         d="m -867.26521,63.528105 48.5871,0 0,-3.6745 -48.5871,0 0,3.6745 z" />
      <path
         id="path5387"
         style="fill:#f0a70f;fill-opacity:1;fill-rule:nonzero;stroke:none"
         d="m -867.26521,74.578005 48.5871,0 0,-3.688 -48.5871,0 0,3.688 z" />
      <path
         id="path5389"
         style="fill:#e03322;fill-opacity:1;fill-rule:nonzero;stroke:none"
         d="m -867.26521,84.802905 48.5871,0 0,-3.6773 -48.5871,0 0,3.6773 z" />
      <path
         id="path5391"
         style="fill:#f0a70f;fill-opacity:1;fill-rule:nonzero;stroke:none"
         d="m -819.43291,108.1157 39.8879,0 0,-3.6745 -39.8879,0 0,3.6745 z" />
      <path
         id="path5393"
         style="fill:#a2cc2e;fill-opacity:1;fill-rule:nonzero;stroke:none"
         d="m -861.17801,108.1157 36.8125,0 0,-3.6745 -36.8125,0 0,3.6745 z" />
      <path
         id="path5395"
         style="fill:#f0a70f;fill-opacity:1;fill-rule:nonzero;stroke:none"
         d="m -861.17801,118.3407 36.8125,0 0,-3.6746 -36.8125,0 0,3.6746 z" />
      <path
         id="path5397"
         style="fill:#a2cc2e;fill-opacity:1;fill-rule:nonzero;stroke:none"
         d="m -819.43291,118.3407 18.7245,0 0,-3.6746 -18.7245,0 0,3.6746 z" />
      <path
         id="path5399"
         style="fill:#a2cc2e;fill-opacity:1;fill-rule:nonzero;stroke:none"
         d="m -861.17801,138.1226 36.8125,0 0,-3.6745 -36.8125,0 0,3.6745 z" />
      <path
         id="path5401"
         style="fill:#f0a70f;fill-opacity:1;fill-rule:nonzero;stroke:none"
         d="m -819.43291,138.1226 18.7245,0 0,-3.6745 -18.7245,0 0,3.6745 z" />
      <path
         id="path5403"
         style="fill:#f0a70f;fill-opacity:1;fill-rule:nonzero;stroke:none"
         d="m -779.12611,128.1499 13.3856,0 0,-3.6745 -13.3856,0 0,3.6745 z" />
      <path
         id="path5405"
         style="fill:#bfe4dd;fill-opacity:1;fill-rule:nonzero;stroke:none"
         d="m -861.17801,96.248005 79.5229,0 0,-3.6745 -79.5229,0 0,3.6745 z" />
      <path
         id="path5407"
         style="fill:#bfe4dd;fill-opacity:1;fill-rule:nonzero;stroke:none"
         d="m -861.17801,128.1499 79.5229,0 0,-3.6745 -79.5229,0 0,3.6745 z" />
      <path
         id="path5409"
         style="fill:#a2cc2e;fill-opacity:1;fill-rule:nonzero;stroke:none"
         d="m -779.12611,149.8267 13.3856,0 0,-3.6745 -13.3856,0 0,3.6745 z" />
      <path
         id="path5411"
         style="fill:#a2cc2e;fill-opacity:1;fill-rule:nonzero;stroke:none"
         d="m -861.17801,149.8267 79.5229,0 0,-3.6745 -79.5229,0 0,3.6745 z" />
      <path
         id="path5413"
         style="fill:#f0a70f;fill-opacity:1;fill-rule:nonzero;stroke:none"
         d="m -725.65641,109.3905 32.2512,0 0,-3.6879 -32.2512,0 0,3.6879 z" />
      <path
         id="path5415"
         style="fill:#a2cc2e;fill-opacity:1;fill-rule:nonzero;stroke:none"
         d="m -759.40561,109.3905 29.7642,0 0,-3.6879 -29.7642,0 0,3.6879 z" />
      <path
         id="path5417"
         style="fill:#f0a70f;fill-opacity:1;fill-rule:nonzero;stroke:none"
         d="m -759.40561,119.6155 29.7642,0 0,-3.6773 -29.7642,0 0,3.6773 z" />
      <path
         id="path5419"
         style="fill:#a2cc2e;fill-opacity:1;fill-rule:nonzero;stroke:none"
         d="m -725.65641,119.6155 15.1377,0 0,-3.6773 -15.1377,0 0,3.6773 z" />
      <path
         id="path5421"
         style="fill:#a2cc2e;fill-opacity:1;fill-rule:nonzero;stroke:none"
         d="m -759.40561,139.3974 29.7642,0 0,-3.6747 -29.7642,0 0,3.6747 z" />
      <path
         id="path5423"
         style="fill:#f0a70f;fill-opacity:1;fill-rule:nonzero;stroke:none"
         d="m -725.65641,139.3974 15.1377,0 0,-3.6747 -15.1377,0 0,3.6747 z" />
      <path
         id="path5425"
         style="fill:#bfe4dd;fill-opacity:1;fill-rule:nonzero;stroke:none"
         d="m -759.40561,97.522705 64.3027,0 0,-3.6878 -64.3027,0 0,3.6878 z" />
      <path
         id="path5427"
         style="fill:#bfe4dd;fill-opacity:1;fill-rule:nonzero;stroke:none"
         d="m -759.40561,129.4246 64.3027,0 0,-3.6746 -64.3027,0 0,3.6746 z" />
      <path
         id="path5429"
         style="fill:#a2cc2e;fill-opacity:1;fill-rule:nonzero;stroke:none"
         d="m -759.40561,151.1151 64.3027,0 0,-3.6879 -64.3027,0 0,3.6879 z" />
      <path
         id="path5431"
         style="fill:#32435b;fill-opacity:1;fill-rule:nonzero;stroke:none"
         d="m -878.90811,-11.202595 193.1372,0 0,-34.4747 -193.1372,0 0,34.4747 z" />
      <path
         id="path5433"
         style="fill:#e4e3e0;fill-opacity:1;fill-rule:nonzero;stroke:none"
         d="m -779.19421,-30.936795 c 0,4.2468 -1.8952,7.6755 -4.2195,7.6755 l -83.2177,0 c -2.338,0 -4.2262,-3.4287 -4.2262,-7.6755 0,-4.24 1.8882,-7.6892 4.2262,-7.6892 l 83.2177,0 c 2.3243,0 4.2195,3.4492 4.2195,7.6892" />
      <path
         id="path5435"
         style="fill:#f14748;fill-opacity:1;fill-rule:nonzero;stroke:none"
         d="m -711.73001,-33.663395 c 0,2.7403 -1.227,4.9625 -2.7404,4.9625 -1.4927,0 -2.7266,-2.2222 -2.7266,-4.9625 0,-2.7335 1.2339,-4.9626 2.7266,-4.9626 1.5134,0 2.7404,2.2291 2.7404,4.9626" />
      <path
         id="path5437"
         style="fill:#87d158;fill-opacity:1;fill-rule:nonzero;stroke:none"
         d="m -702.71851,-33.663395 c 0,2.7403 -1.2134,4.9625 -2.7266,4.9625 -1.5133,0 -2.7199,-2.2222 -2.7199,-4.9625 0,-2.7335 1.2066,-4.9626 2.7199,-4.9626 1.5132,0 2.7266,2.2291 2.7266,4.9626" />
      <path
         id="path5439"
         style="fill:#6654af;fill-opacity:1;fill-rule:nonzero;stroke:none"
         d="m -693.30461,-33.663395 c 0,2.7403 -1.227,4.9625 -2.7404,4.9625 -1.5132,0 -2.7197,-2.2222 -2.7197,-4.9625 0,-2.7335 1.2065,-4.9626 2.7197,-4.9626 1.5134,0 2.7404,2.2291 2.7404,4.9626" />
      <path
         id="path5441"
         style="fill:#b9bec2;fill-opacity:1;fill-rule:nonzero;stroke:none"
         d="m -685.82691,236.4867 -193.1152,0 0,-11.3633 52.8016,-75.2967 44.4854,0 0,-3.6741 -41.9155,0 5.6305,-8.03 17.2325,0 0,-3.6741 -14.649,0 4.4104,-6.2986 29.2911,0 0,-3.6742 -26.7144,0 4.3149,-6.135 3.347,0 0,-3.681 -0.7703,0 4.5877,-6.544 17.3482,0 0,-3.6808 -14.7784,0 5.7533,-8.186895 6.912,0 0,-3.6741 -4.3354,0 56.3736,-80.4023 0,37.0758 30.2999,0 0,-50.5250003 -20.8725,0 6.9598,-9.9249997 27.4028,0 0,247.689295 m -73.5787,-89.0593 0,3.6877 64.3014,0 0,-3.6877 -64.3014,0 m -19.7205,-1.2748 0,3.6741 13.381,0 0,-3.6741 -13.381,0 m 53.4697,-10.4294 0,3.6742 15.1398,0 0,-3.6742 -15.1398,0 m -33.7492,0 0,3.6742 29.7615,0 0,-3.6742 -29.7615,0 m 0,-9.9727 0,3.6741 64.3014,0 0,-3.6741 -64.3014,0 m -19.7205,-1.2748 0,3.6742 13.381,0 0,-3.6742 -13.381,0 m 53.4697,-8.5412 0,3.681 15.1398,0 0,-3.681 -15.1398,0 m -33.7492,0 0,3.681 29.7615,0 0,-3.681 -29.7615,0 m 33.7492,-10.2318 0,3.6878 32.2495,0 0,-3.6878 -32.2495,0 m -33.7492,0 0,3.6878 29.7615,0 0,-3.6878 -29.7615,0 m 0,-11.867695 0,3.6877 64.3014,0 0,-3.6877 -64.3014,0" />
      <path
         id="path5443"
         style="fill:#d97d19;fill-opacity:1;fill-rule:nonzero;stroke:none"
         d="m -699.31701,49.247405 -30.2999,0 0,-37.0758 9.4274,-13.4492003 20.8725,0 0,50.5250003" />
      <path
         id="path5445"
         style="fill:#d69716;fill-opacity:1;fill-rule:nonzero;stroke:none"
         d="m -779.54201,108.1157 -17.3482,0 2.5698,-3.6808 14.7784,0 0,3.6808" />
      <path
         id="path5447"
         style="fill:#90b62a;fill-opacity:1;fill-rule:nonzero;stroke:none"
         d="m -800.70761,118.3407 -3.347,0 2.5767,-3.681 0.7703,0 0,3.681" />
      <path
         id="path5449"
         style="fill:#d69716;fill-opacity:1;fill-rule:nonzero;stroke:none"
         d="m -800.70761,138.1226 -17.2325,0 2.5835,-3.6741 14.649,0 0,3.6741" />
      <path
         id="path5451"
         style="fill:#d69716;fill-opacity:1;fill-rule:nonzero;stroke:none"
         d="m -779.12611,128.1499 13.3856,0 0,-3.6745 -13.3856,0 0,3.6745 z" />
      <path
         id="path5453"
         style="fill:#a8cac4;fill-opacity:1;fill-rule:nonzero;stroke:none"
         d="m -781.65511,96.248005 -6.912,0 2.5766,-3.6741 4.3354,0 0,3.6741" />
      <path
         id="path5455"
         style="fill:#a8cac4;fill-opacity:1;fill-rule:nonzero;stroke:none"
         d="m -781.65511,128.1499 -29.2911,0 2.5767,-3.6742 26.7144,0 0,3.6742" />
      <path
         id="path5457"
         style="fill:#90b62a;fill-opacity:1;fill-rule:nonzero;stroke:none"
         d="m -779.12611,149.8267 13.3856,0 0,-3.6745 -13.3856,0 0,3.6745 z" />
      <path
         id="path5459"
         style="fill:#90b62a;fill-opacity:1;fill-rule:nonzero;stroke:none"
         d="m -781.65511,149.8267 -44.4854,0 2.5699,-3.6741 41.9155,0 0,3.6741" />
      <path
         id="path5461"
         style="fill:#d69716;fill-opacity:1;fill-rule:nonzero;stroke:none"
         d="m -725.65641,109.3905 32.2512,0 0,-3.6879 -32.2512,0 0,3.6879 z" />
      <path
         id="path5463"
         style="fill:#90b62a;fill-opacity:1;fill-rule:nonzero;stroke:none"
         d="m -759.40561,109.3905 29.7642,0 0,-3.6879 -29.7642,0 0,3.6879 z" />
      <path
         id="path5465"
         style="fill:#d69716;fill-opacity:1;fill-rule:nonzero;stroke:none"
         d="m -759.40561,119.6155 29.7642,0 0,-3.6773 -29.7642,0 0,3.6773 z" />
      <path
         id="path5467"
         style="fill:#90b62a;fill-opacity:1;fill-rule:nonzero;stroke:none"
         d="m -725.65641,119.6155 15.1377,0 0,-3.6773 -15.1377,0 0,3.6773 z" />
      <path
         id="path5469"
         style="fill:#90b62a;fill-opacity:1;fill-rule:nonzero;stroke:none"
         d="m -759.40561,139.3974 29.7642,0 0,-3.6747 -29.7642,0 0,3.6747 z" />
      <path
         id="path5471"
         style="fill:#d69716;fill-opacity:1;fill-rule:nonzero;stroke:none"
         d="m -725.65641,139.3974 15.1377,0 0,-3.6747 -15.1377,0 0,3.6747 z" />
      <path
         id="path5473"
         style="fill:#a8cac4;fill-opacity:1;fill-rule:nonzero;stroke:none"
         d="m -759.40561,97.522705 64.3027,0 0,-3.6878 -64.3027,0 0,3.6878 z" />
      <path
         id="path5475"
         style="fill:#a8cac4;fill-opacity:1;fill-rule:nonzero;stroke:none"
         d="m -759.40561,129.4246 64.3027,0 0,-3.6746 -64.3027,0 0,3.6746 z" />
      <path
         id="path5477"
         style="fill:#90b62a;fill-opacity:1;fill-rule:nonzero;stroke:none"
         d="m -759.40561,151.1151 64.3027,0 0,-3.6879 -64.3027,0 0,3.6879 z" />
      <path
         id="path5479"
         style="fill:#2d3c50;fill-opacity:1;fill-rule:nonzero;stroke:none"
         d="m -685.82691,-11.202595 -27.4028,0 14.6081,-20.8385 c 0.3681,1.9427 1.3769,3.3402 2.5766,3.3402 1.5134,0 2.7404,-2.2222 2.7404,-4.9625 0,-1.7519 -0.4976,-3.272 -1.2475,-4.1582 l 5.1329,-7.3279 3.5923,0 0,33.9469" />
      <path
         id="path5481"
         style="fill:#624fab;fill-opacity:1;fill-rule:nonzero;stroke:none"
         d="m -696.04501,-28.700895 c -1.1997,0 -2.2085,-1.3975 -2.5766,-3.3402 l 4.0695,-5.7805 c 0.7499,0.8862 1.2475,2.4063 1.2475,4.1582 0,2.7403 -1.227,4.9625 -2.7404,4.9625" />
      <path
         id="path5483"
         style="fill:#eff4f4;fill-opacity:1;fill-rule:nonzero;stroke:none"
         d="m -1113.3391,-626.3905 c 0,12.27675 -6.8234,22.229 -15.242,22.229 l -366.8646,0 c -8.4117,0 -15.2284,-9.95225 -15.2284,-22.229 l 0,-394.3084 c 0,-12.2631 6.8167,-22.2018 15.2284,-22.2018 l 366.8646,0 c 8.4186,0 15.242,9.9387 15.242,22.2018 l 0,394.3084" />
      <path
         id="path5485"
         style="fill:#32435b;fill-opacity:1;fill-rule:nonzero;stroke:none"
         d="m -1128.5811,-1112.076 -366.8646,0 c -8.4117,0 -15.2284,8.998 -15.2284,20.1091 l 0,77.9142 397.335,0 0,-77.9142 c 0,-11.1111 -6.8234,-20.1091 -15.242,-20.1091" />
      <path
         id="path5487"
         style="fill:#f14748;fill-opacity:1;fill-rule:nonzero;stroke:none"
         d="m -1176.393,-1096.1386 c 0,4.574 -3.4151,8.2959 -7.6141,8.2959 -4.2059,0 -7.621,-3.7219 -7.621,-8.2959 0,-4.5876 3.4151,-8.3164 7.621,-8.3164 4.199,0 7.6141,3.7288 7.6141,8.3164" />
      <path
         id="path5489"
         style="fill:#87d158;fill-opacity:1;fill-rule:nonzero;stroke:none"
         d="m -1151.2123,-1096.1386 c 0,4.574 -3.4152,8.2959 -7.621,8.2959 -4.2058,0 -7.6142,-3.7219 -7.6142,-8.2959 0,-4.5876 3.4084,-8.3164 7.6142,-8.3164 4.2058,0 7.621,3.7288 7.621,8.3164" />
      <path
         id="path5491"
         style="fill:#6654af;fill-opacity:1;fill-rule:nonzero;stroke:none"
         d="m -1124.9818,-1096.1386 c 0,4.574 -3.4084,8.2959 -7.6143,8.2959 -4.2126,0 -7.621,-3.7219 -7.621,-8.2959 0,-4.5876 3.4084,-8.3164 7.621,-8.3164 4.2059,0 7.6143,3.7288 7.6143,8.3164" />
      <path
         id="path5493"
         style="fill:#e4e3e0;fill-opacity:1;fill-rule:nonzero;stroke:none"
         d="m -1235.057,-1085.8864 c 0,7.0962 -5.2828,12.863 -11.7927,12.863 l -232.2019,0 c -6.51,0 -11.7929,-5.7668 -11.7929,-12.863 0,-7.103 5.2829,-12.863 11.7929,-12.863 l 232.2019,0 c 6.5099,0 11.7927,5.76 11.7927,12.863" />
      <path
         id="path5495"
         style="fill:#f03a75;fill-opacity:1;fill-rule:nonzero;stroke:none"
         d="m -1480.3469,-895.51138 84.5639,0 0,-84.56375 -84.5639,0 0,84.56375 z" />
      <path
         id="path5497"
         style="fill:#eeef37;fill-opacity:1;fill-rule:nonzero;stroke:none"
         d="m -1354.2936,-895.51138 84.5639,0 0,-84.56375 -84.5639,0 0,84.56375 z" />
      <path
         id="path5499"
         style="fill:#f38a18;fill-opacity:1;fill-rule:nonzero;stroke:none"
         d="m -1233.905,-895.51138 84.5612,0 0,-84.56375 -84.5612,0 0,84.56375 z" />
      <path
         id="path5501"
         style="fill:#a2cc2e;fill-opacity:1;fill-rule:nonzero;stroke:none"
         d="m -1475.3094,-860.84875 96.5142,0 0,-4.81163 -96.5142,0 0,4.81163 z" />
      <path
         id="path5503"
         style="fill:#f0a70f;fill-opacity:1;fill-rule:nonzero;stroke:none"
         d="m -1475.3094,-846.46563 96.5142,0 0,-4.79837 -96.5142,0 0,4.79837 z" />
      <path
         id="path5505"
         style="fill:#e03322;fill-opacity:1;fill-rule:nonzero;stroke:none"
         d="m -1475.3094,-833.1255 96.5142,0 0,-4.79825 -96.5142,0 0,4.79825 z" />
      <path
         id="path5507"
         style="fill:#a2cc2e;fill-opacity:1;fill-rule:nonzero;stroke:none"
         d="m -1475.3094,-709.24675 96.5142,0 0,-4.801 -96.5142,0 0,4.801 z" />
      <path
         id="path5509"
         style="fill:#a2cc2e;fill-opacity:1;fill-rule:nonzero;stroke:none"
         d="m -1475.3094,-725.06138 96.5142,0 0,-4.79825 -96.5142,0 0,4.79825 z" />
      <path
         id="path5511"
         style="fill:#a2cc2e;fill-opacity:1;fill-rule:nonzero;stroke:none"
         d="m -1475.3094,-692.9005 96.5142,0 0,-4.80088 -96.5142,0 0,4.80088 z" />
      <path
         id="path5513"
         style="fill:#f0a70f;fill-opacity:1;fill-rule:nonzero;stroke:none"
         d="m -1360.1286,-802.73688 96.5114,0 0,-4.79837 -96.5114,0 0,4.79837 z" />
      <path
         id="path5515"
         style="fill:#a2cc2e;fill-opacity:1;fill-rule:nonzero;stroke:none"
         d="m -1461.976,-802.73688 96.5195,0 0,-4.79837 -96.5195,0 0,4.79837 z" />
      <path
         id="path5517"
         style="fill:#f0a70f;fill-opacity:1;fill-rule:nonzero;stroke:none"
         d="m -1461.976,-789.40363 96.5195,0 0,-4.79825 -96.5195,0 0,4.79825 z" />
      <path
         id="path5519"
         style="fill:#a2cc2e;fill-opacity:1;fill-rule:nonzero;stroke:none"
         d="m -1360.1286,-789.40363 45.32,0 0,-4.79825 -45.32,0 0,4.79825 z" />
      <path
         id="path5521"
         style="fill:#a2cc2e;fill-opacity:1;fill-rule:nonzero;stroke:none"
         d="m -1461.976,-763.60938 96.5195,0 0,-4.801 -96.5195,0 0,4.801 z" />
      <path
         id="path5523"
         style="fill:#f0a70f;fill-opacity:1;fill-rule:nonzero;stroke:none"
         d="m -1360.1286,-763.60938 45.32,0 0,-4.801 -45.32,0 0,4.801 z" />
      <path
         id="path5525"
         style="fill:#f0a70f;fill-opacity:1;fill-rule:nonzero;stroke:none"
         d="m -1244.9478,-776.61563 45.32,0 0,-4.78487 -45.32,0 0,4.78487 z" />
      <path
         id="path5527"
         style="fill:#bfe4dd;fill-opacity:1;fill-rule:nonzero;stroke:none"
         d="m -1461.976,-818.20388 208.4903,0 0,-4.79825 -208.4903,0 0,4.79825 z" />
      <path
         id="path5529"
         style="fill:#bfe4dd;fill-opacity:1;fill-rule:nonzero;stroke:none"
         d="m -1461.976,-776.61563 208.4903,0 0,-4.78487 -208.4903,0 0,4.78487 z" />
      <path
         id="path5531"
         style="fill:#a2cc2e;fill-opacity:1;fill-rule:nonzero;stroke:none"
         d="m -1244.9478,-748.347 45.32,0 0,-4.80088 -45.32,0 0,4.80088 z" />
      <path
         id="path5533"
         style="fill:#a2cc2e;fill-opacity:1;fill-rule:nonzero;stroke:none"
         d="m -1461.976,-748.347 208.4903,0 0,-4.80088 -208.4903,0 0,4.80088 z" />
      <path
         id="path5535"
         style="fill:#c93622;fill-opacity:1;fill-rule:nonzero;stroke:none"
         d="m -1258.2812,-679.56025 45.32,0 0,-4.801 -45.32,0 0,4.801 z" />
      <path
         id="path5537"
         style="fill:#73bad0;fill-opacity:1;fill-rule:nonzero;stroke:none"
         d="m -1475.3094,-679.56025 208.4931,0 0,-4.801 -208.4931,0 0,4.801 z" />
      <path
         id="path5539"
         style="fill:#d6dad8;fill-opacity:1;fill-rule:nonzero;stroke:none"
         d="m -1128.5811,-604.1615 -183.4289,0 0,-75.39875 45.1944,0 0,-4.80575 -45.1944,0 0,-63.981 58.5277,0 0,-4.80575 -58.5277,0 0,-23.46288 58.5277,0 0,-4.78525 -58.5277,0 0,-21.336 48.3914,0 0,-4.799 -48.3914,0 0,-10.668 58.5277,0 0,-4.79887 -58.5277,0 0,-72.50863 42.2768,0 0,-84.56725 -42.2768,0 0,-33.97407 198.6709,0 0,387.6622 c 0,12.27675 -6.8234,22.229 -15.242,22.229 m -129.7001,-80.2045 0,4.80575 45.3239,0 0,-4.80575 -45.3239,0 m 13.3334,-68.78675 0,4.80575 45.317,0 0,-4.80575 -45.317,0 m 0,-28.24812 0,4.78525 45.317,0 0,-4.78525 -45.317,0 m 11.0428,-198.67775 0,84.56725 84.5605,0 0,-84.56725 -84.5605,0" />
      <path
         id="path5541"
         style="fill:#2d3c50;fill-opacity:1;fill-rule:nonzero;stroke:none"
         d="m -1113.3391,-1014.0527 -198.6709,0 0,-58.9707 65.1603,0 c 6.5099,0 11.7927,-5.7668 11.7927,-12.863 0,-7.103 -5.2828,-12.863 -11.7927,-12.863 l -65.1603,0 0,-13.3266 183.4289,0 c 8.4186,0 15.242,8.998 15.242,20.1091 l 0,77.9142 m -19.257,-90.4023 c -4.2126,0 -7.621,3.7288 -7.621,8.3164 0,4.574 3.4084,8.2959 7.621,8.2959 4.2059,0 7.6143,-3.7219 7.6143,-8.2959 0,-4.5876 -3.4084,-8.3164 -7.6143,-8.3164 m -26.2372,0 c -4.2058,0 -7.6142,3.7288 -7.6142,8.3164 0,4.574 3.4084,8.2959 7.6142,8.2959 4.2058,0 7.621,-3.7219 7.621,-8.2959 0,-4.5876 -3.4152,-8.3164 -7.621,-8.3164 m -25.1738,0 c -4.2059,0 -7.621,3.7288 -7.621,8.3164 0,4.574 3.4151,8.2959 7.621,8.2959 4.199,0 7.6141,-3.7219 7.6141,-8.2959 0,-4.5876 -3.4151,-8.3164 -7.6141,-8.3164" />
      <path
         id="path5543"
         style="fill:#e6403e;fill-opacity:1;fill-rule:nonzero;stroke:none"
         d="m -1184.0071,-1087.8427 c -4.2059,0 -7.621,-3.7219 -7.621,-8.2959 0,-4.5876 3.4151,-8.3164 7.621,-8.3164 4.199,0 7.6141,3.7288 7.6141,8.3164 0,4.574 -3.4151,8.2959 -7.6141,8.2959" />
      <path
         id="path5545"
         style="fill:#74ca54;fill-opacity:1;fill-rule:nonzero;stroke:none"
         d="m -1158.8333,-1087.8427 c -4.2058,0 -7.6142,-3.7219 -7.6142,-8.2959 0,-4.5876 3.4084,-8.3164 7.6142,-8.3164 4.2058,0 7.621,3.7288 7.621,8.3164 0,4.574 -3.4152,8.2959 -7.621,8.2959" />
      <path
         id="path5547"
         style="fill:#624fab;fill-opacity:1;fill-rule:nonzero;stroke:none"
         d="m -1132.5961,-1087.8427 c -4.2126,0 -7.621,-3.7219 -7.621,-8.2959 0,-4.5876 3.4084,-8.3164 7.621,-8.3164 4.2059,0 7.6143,3.7288 7.6143,8.3164 0,4.574 -3.4084,8.2959 -7.6143,8.2959" />
      <path
         id="path5549"
         style="fill:#cbc9c6;fill-opacity:1;fill-rule:nonzero;stroke:none"
         d="m -1246.8497,-1073.0234 -65.1603,0 0,-25.726 65.1603,0 c 6.5099,0 11.7927,5.76 11.7927,12.863 0,7.0962 -5.2828,12.863 -11.7927,12.863" />
      <path
         id="path5551"
         style="fill:#d8e529;fill-opacity:1;fill-rule:nonzero;stroke:none"
         d="m -1312.01,-895.51138 42.2792,0 0,-84.56375 -42.2792,0 0,84.56375 z" />
      <path
         id="path5553"
         style="fill:#d97d19;fill-opacity:1;fill-rule:nonzero;stroke:none"
         d="m -1233.905,-895.51138 84.5612,0 0,-84.56375 -84.5612,0 0,84.56375 z" />
      <path
         id="path5555"
         style="fill:#d69716;fill-opacity:1;fill-rule:nonzero;stroke:none"
         d="m -1312.01,-802.73688 48.3955,0 0,-4.79837 -48.3955,0 0,4.79837 z" />
      <path
         id="path5557"
         style="fill:#d69716;fill-opacity:1;fill-rule:nonzero;stroke:none"
         d="m -1244.9478,-776.61563 45.32,0 0,-4.78487 -45.32,0 0,4.78487 z" />
      <path
         id="path5559"
         style="fill:#a8cac4;fill-opacity:1;fill-rule:nonzero;stroke:none"
         d="m -1312.01,-818.20388 58.5273,0 0,-4.79825 -58.5273,0 0,4.79825 z" />
      <path
         id="path5561"
         style="fill:#a8cac4;fill-opacity:1;fill-rule:nonzero;stroke:none"
         d="m -1312.01,-776.61563 58.5273,0 0,-4.78487 -58.5273,0 0,4.78487 z" />
      <path
         id="path5563"
         style="fill:#90b62a;fill-opacity:1;fill-rule:nonzero;stroke:none"
         d="m -1244.9478,-748.347 45.32,0 0,-4.80088 -45.32,0 0,4.80088 z" />
      <path
         id="path5565"
         style="fill:#90b62a;fill-opacity:1;fill-rule:nonzero;stroke:none"
         d="m -1312.01,-748.347 58.5273,0 0,-4.80088 -58.5273,0 0,4.80088 z" />
      <path
         id="path5567"
         style="fill:#b33021;fill-opacity:1;fill-rule:nonzero;stroke:none"
         d="m -1258.2812,-679.56025 45.32,0 0,-4.801 -45.32,0 0,4.801 z" />
      <path
         id="path5569"
         style="fill:#63a4ba;fill-opacity:1;fill-rule:nonzero;stroke:none"
         d="m -1312.01,-679.56025 45.1975,0 0,-4.801 -45.1975,0 0,4.801 z" />
      <path
         id="path5571"
         style="fill:#32435b;fill-opacity:1;fill-rule:nonzero;stroke:none"
         d="m -1438.2269,218.7635 c 0,47.0484 -6.1962,44.3626 -53.2378,44.3626 l -548.3324,0 c -47.0403,0 -51.4601,-4.4104 -51.4601,-51.452 l 0,-367.3349 c 0,-47.0485 9.7402,-49.6933 56.788,-49.6933 l 527.0331,-0.5385 c 47.0416,0 68.7389,-9.3457 68.7389,37.6892 l 0.4703,386.9669" />
      <path
         id="path5573"
         style="fill:#f0f0ef;fill-opacity:1;fill-rule:nonzero;stroke:none"
         d="m -2050.7596,218.2386 572.0304,0 0,-379.9635 -572.0304,0 0,379.9635 z" />
      <path
         id="path5575"
         style="fill:#f03a75;fill-opacity:1;fill-rule:nonzero;stroke:none"
         d="m -2016.2586,6.9092047 89.7506,0 0,-89.7375997 -89.7506,0 0,89.7375997 z" />
      <path
         id="path5577"
         style="fill:#eeef37;fill-opacity:1;fill-rule:nonzero;stroke:none"
         d="m -1800.3096,6.9092047 89.7506,0 0,-89.7375997 -89.7506,0 0,89.7375997 z" />
      <path
         id="path5579"
         style="fill:#f38a18;fill-opacity:1;fill-rule:nonzero;stroke:none"
         d="m -1608.5882,6.9092047 89.7478,0 0,-89.7375997 -89.7478,0 0,89.7375997 z" />
      <path
         id="path5581"
         style="fill:#a2cc2e;fill-opacity:1;fill-rule:nonzero;stroke:none"
         d="m -2016.2586,32.287505 143.8951,0 0,-6.5398 -143.8951,0 0,6.5398 z" />
      <path
         id="path5583"
         style="fill:#f0a70f;fill-opacity:1;fill-rule:nonzero;stroke:none"
         d="m -2016.2586,51.899005 143.8951,0 0,-6.537 -143.8951,0 0,6.537 z" />
      <path
         id="path5585"
         style="fill:#e03322;fill-opacity:1;fill-rule:nonzero;stroke:none"
         d="m -2016.2586,70.072105 143.8951,0 0,-6.537 -143.8951,0 0,6.537 z" />
      <path
         id="path5587"
         style="fill:#f0a70f;fill-opacity:1;fill-rule:nonzero;stroke:none"
         d="m -1874.6082,111.4832 118.1248,0 0,-6.5369 -118.1248,0 0,6.5369 z" />
      <path
         id="path5589"
         style="fill:#a2cc2e;fill-opacity:1;fill-rule:nonzero;stroke:none"
         d="m -1998.2239,111.4832 109.0213,0 0,-6.5369 -109.0213,0 0,6.5369 z" />
      <path
         id="path5591"
         style="fill:#f0a70f;fill-opacity:1;fill-rule:nonzero;stroke:none"
         d="m -1998.2239,129.6496 109.0213,0 0,-6.5371 -109.0213,0 0,6.5371 z" />
      <path
         id="path5593"
         style="fill:#a2cc2e;fill-opacity:1;fill-rule:nonzero;stroke:none"
         d="m -1874.6082,129.6496 55.4731,0 0,-6.5371 -55.4731,0 0,6.5371 z" />
      <path
         id="path5595"
         style="fill:#a2cc2e;fill-opacity:1;fill-rule:nonzero;stroke:none"
         d="m -1998.2239,164.8166 109.0213,0 0,-6.5504 -109.0213,0 0,6.5504 z" />
      <path
         id="path5597"
         style="fill:#f0a70f;fill-opacity:1;fill-rule:nonzero;stroke:none"
         d="m -1874.6082,164.8166 55.4731,0 0,-6.5504 -55.4731,0 0,6.5504 z" />
      <path
         id="path5599"
         style="fill:#f0a70f;fill-opacity:1;fill-rule:nonzero;stroke:none"
         d="m -1755.2502,147.1001 39.6616,0 0,-6.5504 -39.6616,0 0,6.5504 z" />
      <path
         id="path5601"
         style="fill:#bfe4dd;fill-opacity:1;fill-rule:nonzero;stroke:none"
         d="m -1998.2239,90.426605 235.5094,0 0,-6.5504 -235.5094,0 0,6.5504 z" />
      <path
         id="path5603"
         style="fill:#bfe4dd;fill-opacity:1;fill-rule:nonzero;stroke:none"
         d="m -1998.2239,147.1001 235.5094,0 0,-6.5504 -235.5094,0 0,6.5504 z" />
      <path
         id="path5605"
         style="fill:#a2cc2e;fill-opacity:1;fill-rule:nonzero;stroke:none"
         d="m -1755.2502,185.6005 39.6616,0 0,-6.5238 -39.6616,0 0,6.5238 z" />
      <path
         id="path5607"
         style="fill:#a2cc2e;fill-opacity:1;fill-rule:nonzero;stroke:none"
         d="m -1998.2239,185.6005 235.5094,0 0,-6.5238 -235.5094,0 0,6.5238 z" />
      <path
         id="path5609"
         style="fill:#f0a70f;fill-opacity:1;fill-rule:nonzero;stroke:none"
         d="m -1596.8567,113.7531 95.5126,0 0,-6.537 -95.5126,0 0,6.537 z" />
      <path
         id="path5611"
         style="fill:#a2cc2e;fill-opacity:1;fill-rule:nonzero;stroke:none"
         d="m -1696.803,113.7531 88.148,0 0,-6.537 -88.148,0 0,6.537 z" />
      <path
         id="path5613"
         style="fill:#f0a70f;fill-opacity:1;fill-rule:nonzero;stroke:none"
         d="m -1696.803,131.9127 88.148,0 0,-6.5265 -88.148,0 0,6.5265 z" />
      <path
         id="path5615"
         style="fill:#a2cc2e;fill-opacity:1;fill-rule:nonzero;stroke:none"
         d="m -1596.8567,131.9127 44.8486,0 0,-6.5265 -44.8486,0 0,6.5265 z" />
      <path
         id="path5617"
         style="fill:#a2cc2e;fill-opacity:1;fill-rule:nonzero;stroke:none"
         d="m -1696.803,167.0729 88.148,0 0,-6.537 -88.148,0 0,6.537 z" />
      <path
         id="path5619"
         style="fill:#f0a70f;fill-opacity:1;fill-rule:nonzero;stroke:none"
         d="m -1596.8567,167.0729 44.8486,0 0,-6.537 -44.8486,0 0,6.537 z" />
      <path
         id="path5621"
         style="fill:#bfe4dd;fill-opacity:1;fill-rule:nonzero;stroke:none"
         d="m -1696.803,92.689705 190.4186,0 0,-6.5503 -190.4186,0 0,6.5503 z" />
      <path
         id="path5623"
         style="fill:#bfe4dd;fill-opacity:1;fill-rule:nonzero;stroke:none"
         d="m -1696.803,149.3632 190.4186,0 0,-6.5503 -190.4186,0 0,6.5503 z" />
      <path
         id="path5625"
         style="fill:#a2cc2e;fill-opacity:1;fill-rule:nonzero;stroke:none"
         d="m -1696.803,187.8772 190.4186,0 0,-6.537 -190.4186,0 0,6.537 z" />
      <path
         id="path5627"
         style="fill:#32435b;fill-opacity:1;fill-rule:nonzero;stroke:none"
         d="m -2050.7596,-100.4733 572.0304,0 0,-61.2486 -572.0304,0 0,61.2486 z" />
      <path
         id="path5629"
         style="fill:#e4e3e0;fill-opacity:1;fill-rule:nonzero;stroke:none"
         d="m -1755.4342,-135.5381 c 0,7.5392 -5.6027,13.6537 -12.5174,13.6537 l -246.4426,0 c -6.9128,0 -12.5182,-6.1145 -12.5182,-13.6537 0,-7.5392 5.6054,-13.6605 12.5182,-13.6605 l 246.4426,0 c 6.9147,0 12.5174,6.1213 12.5174,13.6605" />
      <path
         id="path5631"
         style="fill:#f14748;fill-opacity:1;fill-rule:nonzero;stroke:none"
         d="m -1555.6366,-140.3779 c 0,4.8808 -3.6196,8.8139 -8.0845,8.8139 -4.4581,0 -8.0845,-3.9331 -8.0845,-8.8139 0,-4.8602 3.6264,-8.8207 8.0845,-8.8207 4.4649,0 8.0845,3.9605 8.0845,8.8207" />
      <path
         id="path5633"
         style="fill:#87d158;fill-opacity:1;fill-rule:nonzero;stroke:none"
         d="m -1528.9086,-140.3779 c 0,4.8808 -3.6264,8.8139 -8.0845,8.8139 -4.4649,0 -8.0914,-3.9331 -8.0914,-8.8139 0,-4.8602 3.6265,-8.8207 8.0914,-8.8207 4.4581,0 8.0845,3.9605 8.0845,8.8207" />
      <path
         id="path5635"
         style="fill:#6654af;fill-opacity:1;fill-rule:nonzero;stroke:none"
         d="m -1501.0694,-140.3779 c 0,4.8808 -3.6128,8.8139 -8.0846,8.8139 -4.4649,0 -8.0845,-3.9331 -8.0845,-8.8139 0,-4.8602 3.6196,-8.8207 8.0845,-8.8207 4.4718,0 8.0846,3.9605 8.0846,8.8207" />
    </g>
  </g>
</svg>
